%TF.GenerationSoftware,KiCad,Pcbnew,5.0.1*%
%TF.CreationDate,2018-10-23T16:10:10+11:00*%
%TF.ProjectId,FP2,4650322E6B696361645F706362000000,A*%
%TF.SameCoordinates,Original*%
%TF.FileFunction,Paste,Top*%
%TF.FilePolarity,Positive*%
%FSLAX46Y46*%
G04 Gerber Fmt 4.6, Leading zero omitted, Abs format (unit mm)*
G04 Created by KiCad (PCBNEW 5.0.1) date Tue 23 Oct 2018 04:10:10 PM AEDT*
%MOMM*%
%LPD*%
G01*
G04 APERTURE LIST*
%ADD10C,0.500000*%
%ADD11R,2.500000X2.300000*%
%ADD12R,0.600000X1.550000*%
%ADD13C,0.150000*%
%ADD14C,0.975000*%
G04 APERTURE END LIST*
D10*
X132120000Y-120000000D02*
G75*
G02X129000000Y-116880000I0J3120000D01*
G01*
X161000000Y-116880000D02*
G75*
G02X157880000Y-120000000I-3120000J0D01*
G01*
X161000000Y-83120000D02*
G75*
G03X157880000Y-80000000I-3120000J0D01*
G01*
X129000000Y-83120000D02*
G75*
G02X132120000Y-80000000I3120000J0D01*
G01*
X129000000Y-116860000D02*
X129000000Y-83120000D01*
X132110000Y-120000000D02*
X157880000Y-120000000D01*
X161000000Y-83140000D02*
X161000000Y-116880000D01*
X132130000Y-80000000D02*
X157870000Y-80000000D01*
D11*
X147410000Y-104530000D03*
X151710000Y-104530000D03*
X138070000Y-104530000D03*
X142370000Y-104530000D03*
D12*
X146585000Y-89450000D03*
X145315000Y-89450000D03*
X144045000Y-89450000D03*
X142775000Y-89450000D03*
X142775000Y-94850000D03*
X144045000Y-94850000D03*
X145315000Y-94850000D03*
X146585000Y-94850000D03*
D13*
G36*
X149905929Y-94977288D02*
X149929590Y-94980798D01*
X149952794Y-94986610D01*
X149975316Y-94994668D01*
X149996940Y-95004896D01*
X150017457Y-95017193D01*
X150036670Y-95031443D01*
X150054394Y-95047507D01*
X150070458Y-95065231D01*
X150084708Y-95084444D01*
X150097005Y-95104961D01*
X150107233Y-95126585D01*
X150115291Y-95149107D01*
X150121103Y-95172311D01*
X150124613Y-95195972D01*
X150125787Y-95219864D01*
X150125787Y-96132364D01*
X150124613Y-96156256D01*
X150121103Y-96179917D01*
X150115291Y-96203121D01*
X150107233Y-96225643D01*
X150097005Y-96247267D01*
X150084708Y-96267784D01*
X150070458Y-96286997D01*
X150054394Y-96304721D01*
X150036670Y-96320785D01*
X150017457Y-96335035D01*
X149996940Y-96347332D01*
X149975316Y-96357560D01*
X149952794Y-96365618D01*
X149929590Y-96371430D01*
X149905929Y-96374940D01*
X149882037Y-96376114D01*
X149394537Y-96376114D01*
X149370645Y-96374940D01*
X149346984Y-96371430D01*
X149323780Y-96365618D01*
X149301258Y-96357560D01*
X149279634Y-96347332D01*
X149259117Y-96335035D01*
X149239904Y-96320785D01*
X149222180Y-96304721D01*
X149206116Y-96286997D01*
X149191866Y-96267784D01*
X149179569Y-96247267D01*
X149169341Y-96225643D01*
X149161283Y-96203121D01*
X149155471Y-96179917D01*
X149151961Y-96156256D01*
X149150787Y-96132364D01*
X149150787Y-95219864D01*
X149151961Y-95195972D01*
X149155471Y-95172311D01*
X149161283Y-95149107D01*
X149169341Y-95126585D01*
X149179569Y-95104961D01*
X149191866Y-95084444D01*
X149206116Y-95065231D01*
X149222180Y-95047507D01*
X149239904Y-95031443D01*
X149259117Y-95017193D01*
X149279634Y-95004896D01*
X149301258Y-94994668D01*
X149323780Y-94986610D01*
X149346984Y-94980798D01*
X149370645Y-94977288D01*
X149394537Y-94976114D01*
X149882037Y-94976114D01*
X149905929Y-94977288D01*
X149905929Y-94977288D01*
G37*
D14*
X149638287Y-95676114D03*
D13*
G36*
X151780929Y-94977288D02*
X151804590Y-94980798D01*
X151827794Y-94986610D01*
X151850316Y-94994668D01*
X151871940Y-95004896D01*
X151892457Y-95017193D01*
X151911670Y-95031443D01*
X151929394Y-95047507D01*
X151945458Y-95065231D01*
X151959708Y-95084444D01*
X151972005Y-95104961D01*
X151982233Y-95126585D01*
X151990291Y-95149107D01*
X151996103Y-95172311D01*
X151999613Y-95195972D01*
X152000787Y-95219864D01*
X152000787Y-96132364D01*
X151999613Y-96156256D01*
X151996103Y-96179917D01*
X151990291Y-96203121D01*
X151982233Y-96225643D01*
X151972005Y-96247267D01*
X151959708Y-96267784D01*
X151945458Y-96286997D01*
X151929394Y-96304721D01*
X151911670Y-96320785D01*
X151892457Y-96335035D01*
X151871940Y-96347332D01*
X151850316Y-96357560D01*
X151827794Y-96365618D01*
X151804590Y-96371430D01*
X151780929Y-96374940D01*
X151757037Y-96376114D01*
X151269537Y-96376114D01*
X151245645Y-96374940D01*
X151221984Y-96371430D01*
X151198780Y-96365618D01*
X151176258Y-96357560D01*
X151154634Y-96347332D01*
X151134117Y-96335035D01*
X151114904Y-96320785D01*
X151097180Y-96304721D01*
X151081116Y-96286997D01*
X151066866Y-96267784D01*
X151054569Y-96247267D01*
X151044341Y-96225643D01*
X151036283Y-96203121D01*
X151030471Y-96179917D01*
X151026961Y-96156256D01*
X151025787Y-96132364D01*
X151025787Y-95219864D01*
X151026961Y-95195972D01*
X151030471Y-95172311D01*
X151036283Y-95149107D01*
X151044341Y-95126585D01*
X151054569Y-95104961D01*
X151066866Y-95084444D01*
X151081116Y-95065231D01*
X151097180Y-95047507D01*
X151114904Y-95031443D01*
X151134117Y-95017193D01*
X151154634Y-95004896D01*
X151176258Y-94994668D01*
X151198780Y-94986610D01*
X151221984Y-94980798D01*
X151245645Y-94977288D01*
X151269537Y-94976114D01*
X151757037Y-94976114D01*
X151780929Y-94977288D01*
X151780929Y-94977288D01*
G37*
D14*
X151513287Y-95676114D03*
D13*
G36*
X144140142Y-83711174D02*
X144163803Y-83714684D01*
X144187007Y-83720496D01*
X144209529Y-83728554D01*
X144231153Y-83738782D01*
X144251670Y-83751079D01*
X144270883Y-83765329D01*
X144288607Y-83781393D01*
X144304671Y-83799117D01*
X144318921Y-83818330D01*
X144331218Y-83838847D01*
X144341446Y-83860471D01*
X144349504Y-83882993D01*
X144355316Y-83906197D01*
X144358826Y-83929858D01*
X144360000Y-83953750D01*
X144360000Y-84441250D01*
X144358826Y-84465142D01*
X144355316Y-84488803D01*
X144349504Y-84512007D01*
X144341446Y-84534529D01*
X144331218Y-84556153D01*
X144318921Y-84576670D01*
X144304671Y-84595883D01*
X144288607Y-84613607D01*
X144270883Y-84629671D01*
X144251670Y-84643921D01*
X144231153Y-84656218D01*
X144209529Y-84666446D01*
X144187007Y-84674504D01*
X144163803Y-84680316D01*
X144140142Y-84683826D01*
X144116250Y-84685000D01*
X143203750Y-84685000D01*
X143179858Y-84683826D01*
X143156197Y-84680316D01*
X143132993Y-84674504D01*
X143110471Y-84666446D01*
X143088847Y-84656218D01*
X143068330Y-84643921D01*
X143049117Y-84629671D01*
X143031393Y-84613607D01*
X143015329Y-84595883D01*
X143001079Y-84576670D01*
X142988782Y-84556153D01*
X142978554Y-84534529D01*
X142970496Y-84512007D01*
X142964684Y-84488803D01*
X142961174Y-84465142D01*
X142960000Y-84441250D01*
X142960000Y-83953750D01*
X142961174Y-83929858D01*
X142964684Y-83906197D01*
X142970496Y-83882993D01*
X142978554Y-83860471D01*
X142988782Y-83838847D01*
X143001079Y-83818330D01*
X143015329Y-83799117D01*
X143031393Y-83781393D01*
X143049117Y-83765329D01*
X143068330Y-83751079D01*
X143088847Y-83738782D01*
X143110471Y-83728554D01*
X143132993Y-83720496D01*
X143156197Y-83714684D01*
X143179858Y-83711174D01*
X143203750Y-83710000D01*
X144116250Y-83710000D01*
X144140142Y-83711174D01*
X144140142Y-83711174D01*
G37*
D14*
X143660000Y-84197500D03*
D13*
G36*
X144140142Y-81836174D02*
X144163803Y-81839684D01*
X144187007Y-81845496D01*
X144209529Y-81853554D01*
X144231153Y-81863782D01*
X144251670Y-81876079D01*
X144270883Y-81890329D01*
X144288607Y-81906393D01*
X144304671Y-81924117D01*
X144318921Y-81943330D01*
X144331218Y-81963847D01*
X144341446Y-81985471D01*
X144349504Y-82007993D01*
X144355316Y-82031197D01*
X144358826Y-82054858D01*
X144360000Y-82078750D01*
X144360000Y-82566250D01*
X144358826Y-82590142D01*
X144355316Y-82613803D01*
X144349504Y-82637007D01*
X144341446Y-82659529D01*
X144331218Y-82681153D01*
X144318921Y-82701670D01*
X144304671Y-82720883D01*
X144288607Y-82738607D01*
X144270883Y-82754671D01*
X144251670Y-82768921D01*
X144231153Y-82781218D01*
X144209529Y-82791446D01*
X144187007Y-82799504D01*
X144163803Y-82805316D01*
X144140142Y-82808826D01*
X144116250Y-82810000D01*
X143203750Y-82810000D01*
X143179858Y-82808826D01*
X143156197Y-82805316D01*
X143132993Y-82799504D01*
X143110471Y-82791446D01*
X143088847Y-82781218D01*
X143068330Y-82768921D01*
X143049117Y-82754671D01*
X143031393Y-82738607D01*
X143015329Y-82720883D01*
X143001079Y-82701670D01*
X142988782Y-82681153D01*
X142978554Y-82659529D01*
X142970496Y-82637007D01*
X142964684Y-82613803D01*
X142961174Y-82590142D01*
X142960000Y-82566250D01*
X142960000Y-82078750D01*
X142961174Y-82054858D01*
X142964684Y-82031197D01*
X142970496Y-82007993D01*
X142978554Y-81985471D01*
X142988782Y-81963847D01*
X143001079Y-81943330D01*
X143015329Y-81924117D01*
X143031393Y-81906393D01*
X143049117Y-81890329D01*
X143068330Y-81876079D01*
X143088847Y-81863782D01*
X143110471Y-81853554D01*
X143132993Y-81845496D01*
X143156197Y-81839684D01*
X143179858Y-81836174D01*
X143203750Y-81835000D01*
X144116250Y-81835000D01*
X144140142Y-81836174D01*
X144140142Y-81836174D01*
G37*
D14*
X143660000Y-82322500D03*
D13*
G36*
X146280142Y-83711174D02*
X146303803Y-83714684D01*
X146327007Y-83720496D01*
X146349529Y-83728554D01*
X146371153Y-83738782D01*
X146391670Y-83751079D01*
X146410883Y-83765329D01*
X146428607Y-83781393D01*
X146444671Y-83799117D01*
X146458921Y-83818330D01*
X146471218Y-83838847D01*
X146481446Y-83860471D01*
X146489504Y-83882993D01*
X146495316Y-83906197D01*
X146498826Y-83929858D01*
X146500000Y-83953750D01*
X146500000Y-84441250D01*
X146498826Y-84465142D01*
X146495316Y-84488803D01*
X146489504Y-84512007D01*
X146481446Y-84534529D01*
X146471218Y-84556153D01*
X146458921Y-84576670D01*
X146444671Y-84595883D01*
X146428607Y-84613607D01*
X146410883Y-84629671D01*
X146391670Y-84643921D01*
X146371153Y-84656218D01*
X146349529Y-84666446D01*
X146327007Y-84674504D01*
X146303803Y-84680316D01*
X146280142Y-84683826D01*
X146256250Y-84685000D01*
X145343750Y-84685000D01*
X145319858Y-84683826D01*
X145296197Y-84680316D01*
X145272993Y-84674504D01*
X145250471Y-84666446D01*
X145228847Y-84656218D01*
X145208330Y-84643921D01*
X145189117Y-84629671D01*
X145171393Y-84613607D01*
X145155329Y-84595883D01*
X145141079Y-84576670D01*
X145128782Y-84556153D01*
X145118554Y-84534529D01*
X145110496Y-84512007D01*
X145104684Y-84488803D01*
X145101174Y-84465142D01*
X145100000Y-84441250D01*
X145100000Y-83953750D01*
X145101174Y-83929858D01*
X145104684Y-83906197D01*
X145110496Y-83882993D01*
X145118554Y-83860471D01*
X145128782Y-83838847D01*
X145141079Y-83818330D01*
X145155329Y-83799117D01*
X145171393Y-83781393D01*
X145189117Y-83765329D01*
X145208330Y-83751079D01*
X145228847Y-83738782D01*
X145250471Y-83728554D01*
X145272993Y-83720496D01*
X145296197Y-83714684D01*
X145319858Y-83711174D01*
X145343750Y-83710000D01*
X146256250Y-83710000D01*
X146280142Y-83711174D01*
X146280142Y-83711174D01*
G37*
D14*
X145800000Y-84197500D03*
D13*
G36*
X146280142Y-81836174D02*
X146303803Y-81839684D01*
X146327007Y-81845496D01*
X146349529Y-81853554D01*
X146371153Y-81863782D01*
X146391670Y-81876079D01*
X146410883Y-81890329D01*
X146428607Y-81906393D01*
X146444671Y-81924117D01*
X146458921Y-81943330D01*
X146471218Y-81963847D01*
X146481446Y-81985471D01*
X146489504Y-82007993D01*
X146495316Y-82031197D01*
X146498826Y-82054858D01*
X146500000Y-82078750D01*
X146500000Y-82566250D01*
X146498826Y-82590142D01*
X146495316Y-82613803D01*
X146489504Y-82637007D01*
X146481446Y-82659529D01*
X146471218Y-82681153D01*
X146458921Y-82701670D01*
X146444671Y-82720883D01*
X146428607Y-82738607D01*
X146410883Y-82754671D01*
X146391670Y-82768921D01*
X146371153Y-82781218D01*
X146349529Y-82791446D01*
X146327007Y-82799504D01*
X146303803Y-82805316D01*
X146280142Y-82808826D01*
X146256250Y-82810000D01*
X145343750Y-82810000D01*
X145319858Y-82808826D01*
X145296197Y-82805316D01*
X145272993Y-82799504D01*
X145250471Y-82791446D01*
X145228847Y-82781218D01*
X145208330Y-82768921D01*
X145189117Y-82754671D01*
X145171393Y-82738607D01*
X145155329Y-82720883D01*
X145141079Y-82701670D01*
X145128782Y-82681153D01*
X145118554Y-82659529D01*
X145110496Y-82637007D01*
X145104684Y-82613803D01*
X145101174Y-82590142D01*
X145100000Y-82566250D01*
X145100000Y-82078750D01*
X145101174Y-82054858D01*
X145104684Y-82031197D01*
X145110496Y-82007993D01*
X145118554Y-81985471D01*
X145128782Y-81963847D01*
X145141079Y-81943330D01*
X145155329Y-81924117D01*
X145171393Y-81906393D01*
X145189117Y-81890329D01*
X145208330Y-81876079D01*
X145228847Y-81863782D01*
X145250471Y-81853554D01*
X145272993Y-81845496D01*
X145296197Y-81839684D01*
X145319858Y-81836174D01*
X145343750Y-81835000D01*
X146256250Y-81835000D01*
X146280142Y-81836174D01*
X146280142Y-81836174D01*
G37*
D14*
X145800000Y-82322500D03*
D13*
G36*
X142310142Y-97166174D02*
X142333803Y-97169684D01*
X142357007Y-97175496D01*
X142379529Y-97183554D01*
X142401153Y-97193782D01*
X142421670Y-97206079D01*
X142440883Y-97220329D01*
X142458607Y-97236393D01*
X142474671Y-97254117D01*
X142488921Y-97273330D01*
X142501218Y-97293847D01*
X142511446Y-97315471D01*
X142519504Y-97337993D01*
X142525316Y-97361197D01*
X142528826Y-97384858D01*
X142530000Y-97408750D01*
X142530000Y-97896250D01*
X142528826Y-97920142D01*
X142525316Y-97943803D01*
X142519504Y-97967007D01*
X142511446Y-97989529D01*
X142501218Y-98011153D01*
X142488921Y-98031670D01*
X142474671Y-98050883D01*
X142458607Y-98068607D01*
X142440883Y-98084671D01*
X142421670Y-98098921D01*
X142401153Y-98111218D01*
X142379529Y-98121446D01*
X142357007Y-98129504D01*
X142333803Y-98135316D01*
X142310142Y-98138826D01*
X142286250Y-98140000D01*
X141373750Y-98140000D01*
X141349858Y-98138826D01*
X141326197Y-98135316D01*
X141302993Y-98129504D01*
X141280471Y-98121446D01*
X141258847Y-98111218D01*
X141238330Y-98098921D01*
X141219117Y-98084671D01*
X141201393Y-98068607D01*
X141185329Y-98050883D01*
X141171079Y-98031670D01*
X141158782Y-98011153D01*
X141148554Y-97989529D01*
X141140496Y-97967007D01*
X141134684Y-97943803D01*
X141131174Y-97920142D01*
X141130000Y-97896250D01*
X141130000Y-97408750D01*
X141131174Y-97384858D01*
X141134684Y-97361197D01*
X141140496Y-97337993D01*
X141148554Y-97315471D01*
X141158782Y-97293847D01*
X141171079Y-97273330D01*
X141185329Y-97254117D01*
X141201393Y-97236393D01*
X141219117Y-97220329D01*
X141238330Y-97206079D01*
X141258847Y-97193782D01*
X141280471Y-97183554D01*
X141302993Y-97175496D01*
X141326197Y-97169684D01*
X141349858Y-97166174D01*
X141373750Y-97165000D01*
X142286250Y-97165000D01*
X142310142Y-97166174D01*
X142310142Y-97166174D01*
G37*
D14*
X141830000Y-97652500D03*
D13*
G36*
X142310142Y-99041174D02*
X142333803Y-99044684D01*
X142357007Y-99050496D01*
X142379529Y-99058554D01*
X142401153Y-99068782D01*
X142421670Y-99081079D01*
X142440883Y-99095329D01*
X142458607Y-99111393D01*
X142474671Y-99129117D01*
X142488921Y-99148330D01*
X142501218Y-99168847D01*
X142511446Y-99190471D01*
X142519504Y-99212993D01*
X142525316Y-99236197D01*
X142528826Y-99259858D01*
X142530000Y-99283750D01*
X142530000Y-99771250D01*
X142528826Y-99795142D01*
X142525316Y-99818803D01*
X142519504Y-99842007D01*
X142511446Y-99864529D01*
X142501218Y-99886153D01*
X142488921Y-99906670D01*
X142474671Y-99925883D01*
X142458607Y-99943607D01*
X142440883Y-99959671D01*
X142421670Y-99973921D01*
X142401153Y-99986218D01*
X142379529Y-99996446D01*
X142357007Y-100004504D01*
X142333803Y-100010316D01*
X142310142Y-100013826D01*
X142286250Y-100015000D01*
X141373750Y-100015000D01*
X141349858Y-100013826D01*
X141326197Y-100010316D01*
X141302993Y-100004504D01*
X141280471Y-99996446D01*
X141258847Y-99986218D01*
X141238330Y-99973921D01*
X141219117Y-99959671D01*
X141201393Y-99943607D01*
X141185329Y-99925883D01*
X141171079Y-99906670D01*
X141158782Y-99886153D01*
X141148554Y-99864529D01*
X141140496Y-99842007D01*
X141134684Y-99818803D01*
X141131174Y-99795142D01*
X141130000Y-99771250D01*
X141130000Y-99283750D01*
X141131174Y-99259858D01*
X141134684Y-99236197D01*
X141140496Y-99212993D01*
X141148554Y-99190471D01*
X141158782Y-99168847D01*
X141171079Y-99148330D01*
X141185329Y-99129117D01*
X141201393Y-99111393D01*
X141219117Y-99095329D01*
X141238330Y-99081079D01*
X141258847Y-99068782D01*
X141280471Y-99058554D01*
X141302993Y-99050496D01*
X141326197Y-99044684D01*
X141349858Y-99041174D01*
X141373750Y-99040000D01*
X142286250Y-99040000D01*
X142310142Y-99041174D01*
X142310142Y-99041174D01*
G37*
D14*
X141830000Y-99527500D03*
D13*
G36*
X145925142Y-98821174D02*
X145948803Y-98824684D01*
X145972007Y-98830496D01*
X145994529Y-98838554D01*
X146016153Y-98848782D01*
X146036670Y-98861079D01*
X146055883Y-98875329D01*
X146073607Y-98891393D01*
X146089671Y-98909117D01*
X146103921Y-98928330D01*
X146116218Y-98948847D01*
X146126446Y-98970471D01*
X146134504Y-98992993D01*
X146140316Y-99016197D01*
X146143826Y-99039858D01*
X146145000Y-99063750D01*
X146145000Y-99976250D01*
X146143826Y-100000142D01*
X146140316Y-100023803D01*
X146134504Y-100047007D01*
X146126446Y-100069529D01*
X146116218Y-100091153D01*
X146103921Y-100111670D01*
X146089671Y-100130883D01*
X146073607Y-100148607D01*
X146055883Y-100164671D01*
X146036670Y-100178921D01*
X146016153Y-100191218D01*
X145994529Y-100201446D01*
X145972007Y-100209504D01*
X145948803Y-100215316D01*
X145925142Y-100218826D01*
X145901250Y-100220000D01*
X145413750Y-100220000D01*
X145389858Y-100218826D01*
X145366197Y-100215316D01*
X145342993Y-100209504D01*
X145320471Y-100201446D01*
X145298847Y-100191218D01*
X145278330Y-100178921D01*
X145259117Y-100164671D01*
X145241393Y-100148607D01*
X145225329Y-100130883D01*
X145211079Y-100111670D01*
X145198782Y-100091153D01*
X145188554Y-100069529D01*
X145180496Y-100047007D01*
X145174684Y-100023803D01*
X145171174Y-100000142D01*
X145170000Y-99976250D01*
X145170000Y-99063750D01*
X145171174Y-99039858D01*
X145174684Y-99016197D01*
X145180496Y-98992993D01*
X145188554Y-98970471D01*
X145198782Y-98948847D01*
X145211079Y-98928330D01*
X145225329Y-98909117D01*
X145241393Y-98891393D01*
X145259117Y-98875329D01*
X145278330Y-98861079D01*
X145298847Y-98848782D01*
X145320471Y-98838554D01*
X145342993Y-98830496D01*
X145366197Y-98824684D01*
X145389858Y-98821174D01*
X145413750Y-98820000D01*
X145901250Y-98820000D01*
X145925142Y-98821174D01*
X145925142Y-98821174D01*
G37*
D14*
X145657500Y-99520000D03*
D13*
G36*
X144050142Y-98821174D02*
X144073803Y-98824684D01*
X144097007Y-98830496D01*
X144119529Y-98838554D01*
X144141153Y-98848782D01*
X144161670Y-98861079D01*
X144180883Y-98875329D01*
X144198607Y-98891393D01*
X144214671Y-98909117D01*
X144228921Y-98928330D01*
X144241218Y-98948847D01*
X144251446Y-98970471D01*
X144259504Y-98992993D01*
X144265316Y-99016197D01*
X144268826Y-99039858D01*
X144270000Y-99063750D01*
X144270000Y-99976250D01*
X144268826Y-100000142D01*
X144265316Y-100023803D01*
X144259504Y-100047007D01*
X144251446Y-100069529D01*
X144241218Y-100091153D01*
X144228921Y-100111670D01*
X144214671Y-100130883D01*
X144198607Y-100148607D01*
X144180883Y-100164671D01*
X144161670Y-100178921D01*
X144141153Y-100191218D01*
X144119529Y-100201446D01*
X144097007Y-100209504D01*
X144073803Y-100215316D01*
X144050142Y-100218826D01*
X144026250Y-100220000D01*
X143538750Y-100220000D01*
X143514858Y-100218826D01*
X143491197Y-100215316D01*
X143467993Y-100209504D01*
X143445471Y-100201446D01*
X143423847Y-100191218D01*
X143403330Y-100178921D01*
X143384117Y-100164671D01*
X143366393Y-100148607D01*
X143350329Y-100130883D01*
X143336079Y-100111670D01*
X143323782Y-100091153D01*
X143313554Y-100069529D01*
X143305496Y-100047007D01*
X143299684Y-100023803D01*
X143296174Y-100000142D01*
X143295000Y-99976250D01*
X143295000Y-99063750D01*
X143296174Y-99039858D01*
X143299684Y-99016197D01*
X143305496Y-98992993D01*
X143313554Y-98970471D01*
X143323782Y-98948847D01*
X143336079Y-98928330D01*
X143350329Y-98909117D01*
X143366393Y-98891393D01*
X143384117Y-98875329D01*
X143403330Y-98861079D01*
X143423847Y-98848782D01*
X143445471Y-98838554D01*
X143467993Y-98830496D01*
X143491197Y-98824684D01*
X143514858Y-98821174D01*
X143538750Y-98820000D01*
X144026250Y-98820000D01*
X144050142Y-98821174D01*
X144050142Y-98821174D01*
G37*
D14*
X143782500Y-99520000D03*
D13*
G36*
X148110142Y-97166174D02*
X148133803Y-97169684D01*
X148157007Y-97175496D01*
X148179529Y-97183554D01*
X148201153Y-97193782D01*
X148221670Y-97206079D01*
X148240883Y-97220329D01*
X148258607Y-97236393D01*
X148274671Y-97254117D01*
X148288921Y-97273330D01*
X148301218Y-97293847D01*
X148311446Y-97315471D01*
X148319504Y-97337993D01*
X148325316Y-97361197D01*
X148328826Y-97384858D01*
X148330000Y-97408750D01*
X148330000Y-97896250D01*
X148328826Y-97920142D01*
X148325316Y-97943803D01*
X148319504Y-97967007D01*
X148311446Y-97989529D01*
X148301218Y-98011153D01*
X148288921Y-98031670D01*
X148274671Y-98050883D01*
X148258607Y-98068607D01*
X148240883Y-98084671D01*
X148221670Y-98098921D01*
X148201153Y-98111218D01*
X148179529Y-98121446D01*
X148157007Y-98129504D01*
X148133803Y-98135316D01*
X148110142Y-98138826D01*
X148086250Y-98140000D01*
X147173750Y-98140000D01*
X147149858Y-98138826D01*
X147126197Y-98135316D01*
X147102993Y-98129504D01*
X147080471Y-98121446D01*
X147058847Y-98111218D01*
X147038330Y-98098921D01*
X147019117Y-98084671D01*
X147001393Y-98068607D01*
X146985329Y-98050883D01*
X146971079Y-98031670D01*
X146958782Y-98011153D01*
X146948554Y-97989529D01*
X146940496Y-97967007D01*
X146934684Y-97943803D01*
X146931174Y-97920142D01*
X146930000Y-97896250D01*
X146930000Y-97408750D01*
X146931174Y-97384858D01*
X146934684Y-97361197D01*
X146940496Y-97337993D01*
X146948554Y-97315471D01*
X146958782Y-97293847D01*
X146971079Y-97273330D01*
X146985329Y-97254117D01*
X147001393Y-97236393D01*
X147019117Y-97220329D01*
X147038330Y-97206079D01*
X147058847Y-97193782D01*
X147080471Y-97183554D01*
X147102993Y-97175496D01*
X147126197Y-97169684D01*
X147149858Y-97166174D01*
X147173750Y-97165000D01*
X148086250Y-97165000D01*
X148110142Y-97166174D01*
X148110142Y-97166174D01*
G37*
D14*
X147630000Y-97652500D03*
D13*
G36*
X148110142Y-99041174D02*
X148133803Y-99044684D01*
X148157007Y-99050496D01*
X148179529Y-99058554D01*
X148201153Y-99068782D01*
X148221670Y-99081079D01*
X148240883Y-99095329D01*
X148258607Y-99111393D01*
X148274671Y-99129117D01*
X148288921Y-99148330D01*
X148301218Y-99168847D01*
X148311446Y-99190471D01*
X148319504Y-99212993D01*
X148325316Y-99236197D01*
X148328826Y-99259858D01*
X148330000Y-99283750D01*
X148330000Y-99771250D01*
X148328826Y-99795142D01*
X148325316Y-99818803D01*
X148319504Y-99842007D01*
X148311446Y-99864529D01*
X148301218Y-99886153D01*
X148288921Y-99906670D01*
X148274671Y-99925883D01*
X148258607Y-99943607D01*
X148240883Y-99959671D01*
X148221670Y-99973921D01*
X148201153Y-99986218D01*
X148179529Y-99996446D01*
X148157007Y-100004504D01*
X148133803Y-100010316D01*
X148110142Y-100013826D01*
X148086250Y-100015000D01*
X147173750Y-100015000D01*
X147149858Y-100013826D01*
X147126197Y-100010316D01*
X147102993Y-100004504D01*
X147080471Y-99996446D01*
X147058847Y-99986218D01*
X147038330Y-99973921D01*
X147019117Y-99959671D01*
X147001393Y-99943607D01*
X146985329Y-99925883D01*
X146971079Y-99906670D01*
X146958782Y-99886153D01*
X146948554Y-99864529D01*
X146940496Y-99842007D01*
X146934684Y-99818803D01*
X146931174Y-99795142D01*
X146930000Y-99771250D01*
X146930000Y-99283750D01*
X146931174Y-99259858D01*
X146934684Y-99236197D01*
X146940496Y-99212993D01*
X146948554Y-99190471D01*
X146958782Y-99168847D01*
X146971079Y-99148330D01*
X146985329Y-99129117D01*
X147001393Y-99111393D01*
X147019117Y-99095329D01*
X147038330Y-99081079D01*
X147058847Y-99068782D01*
X147080471Y-99058554D01*
X147102993Y-99050496D01*
X147126197Y-99044684D01*
X147149858Y-99041174D01*
X147173750Y-99040000D01*
X148086250Y-99040000D01*
X148110142Y-99041174D01*
X148110142Y-99041174D01*
G37*
D14*
X147630000Y-99527500D03*
D13*
G36*
X150110142Y-89101174D02*
X150133803Y-89104684D01*
X150157007Y-89110496D01*
X150179529Y-89118554D01*
X150201153Y-89128782D01*
X150221670Y-89141079D01*
X150240883Y-89155329D01*
X150258607Y-89171393D01*
X150274671Y-89189117D01*
X150288921Y-89208330D01*
X150301218Y-89228847D01*
X150311446Y-89250471D01*
X150319504Y-89272993D01*
X150325316Y-89296197D01*
X150328826Y-89319858D01*
X150330000Y-89343750D01*
X150330000Y-89831250D01*
X150328826Y-89855142D01*
X150325316Y-89878803D01*
X150319504Y-89902007D01*
X150311446Y-89924529D01*
X150301218Y-89946153D01*
X150288921Y-89966670D01*
X150274671Y-89985883D01*
X150258607Y-90003607D01*
X150240883Y-90019671D01*
X150221670Y-90033921D01*
X150201153Y-90046218D01*
X150179529Y-90056446D01*
X150157007Y-90064504D01*
X150133803Y-90070316D01*
X150110142Y-90073826D01*
X150086250Y-90075000D01*
X149173750Y-90075000D01*
X149149858Y-90073826D01*
X149126197Y-90070316D01*
X149102993Y-90064504D01*
X149080471Y-90056446D01*
X149058847Y-90046218D01*
X149038330Y-90033921D01*
X149019117Y-90019671D01*
X149001393Y-90003607D01*
X148985329Y-89985883D01*
X148971079Y-89966670D01*
X148958782Y-89946153D01*
X148948554Y-89924529D01*
X148940496Y-89902007D01*
X148934684Y-89878803D01*
X148931174Y-89855142D01*
X148930000Y-89831250D01*
X148930000Y-89343750D01*
X148931174Y-89319858D01*
X148934684Y-89296197D01*
X148940496Y-89272993D01*
X148948554Y-89250471D01*
X148958782Y-89228847D01*
X148971079Y-89208330D01*
X148985329Y-89189117D01*
X149001393Y-89171393D01*
X149019117Y-89155329D01*
X149038330Y-89141079D01*
X149058847Y-89128782D01*
X149080471Y-89118554D01*
X149102993Y-89110496D01*
X149126197Y-89104684D01*
X149149858Y-89101174D01*
X149173750Y-89100000D01*
X150086250Y-89100000D01*
X150110142Y-89101174D01*
X150110142Y-89101174D01*
G37*
D14*
X149630000Y-89587500D03*
D13*
G36*
X150110142Y-87226174D02*
X150133803Y-87229684D01*
X150157007Y-87235496D01*
X150179529Y-87243554D01*
X150201153Y-87253782D01*
X150221670Y-87266079D01*
X150240883Y-87280329D01*
X150258607Y-87296393D01*
X150274671Y-87314117D01*
X150288921Y-87333330D01*
X150301218Y-87353847D01*
X150311446Y-87375471D01*
X150319504Y-87397993D01*
X150325316Y-87421197D01*
X150328826Y-87444858D01*
X150330000Y-87468750D01*
X150330000Y-87956250D01*
X150328826Y-87980142D01*
X150325316Y-88003803D01*
X150319504Y-88027007D01*
X150311446Y-88049529D01*
X150301218Y-88071153D01*
X150288921Y-88091670D01*
X150274671Y-88110883D01*
X150258607Y-88128607D01*
X150240883Y-88144671D01*
X150221670Y-88158921D01*
X150201153Y-88171218D01*
X150179529Y-88181446D01*
X150157007Y-88189504D01*
X150133803Y-88195316D01*
X150110142Y-88198826D01*
X150086250Y-88200000D01*
X149173750Y-88200000D01*
X149149858Y-88198826D01*
X149126197Y-88195316D01*
X149102993Y-88189504D01*
X149080471Y-88181446D01*
X149058847Y-88171218D01*
X149038330Y-88158921D01*
X149019117Y-88144671D01*
X149001393Y-88128607D01*
X148985329Y-88110883D01*
X148971079Y-88091670D01*
X148958782Y-88071153D01*
X148948554Y-88049529D01*
X148940496Y-88027007D01*
X148934684Y-88003803D01*
X148931174Y-87980142D01*
X148930000Y-87956250D01*
X148930000Y-87468750D01*
X148931174Y-87444858D01*
X148934684Y-87421197D01*
X148940496Y-87397993D01*
X148948554Y-87375471D01*
X148958782Y-87353847D01*
X148971079Y-87333330D01*
X148985329Y-87314117D01*
X149001393Y-87296393D01*
X149019117Y-87280329D01*
X149038330Y-87266079D01*
X149058847Y-87253782D01*
X149080471Y-87243554D01*
X149102993Y-87235496D01*
X149126197Y-87229684D01*
X149149858Y-87226174D01*
X149173750Y-87225000D01*
X150086250Y-87225000D01*
X150110142Y-87226174D01*
X150110142Y-87226174D01*
G37*
D14*
X149630000Y-87712500D03*
D13*
G36*
X151770929Y-92897288D02*
X151794590Y-92900798D01*
X151817794Y-92906610D01*
X151840316Y-92914668D01*
X151861940Y-92924896D01*
X151882457Y-92937193D01*
X151901670Y-92951443D01*
X151919394Y-92967507D01*
X151935458Y-92985231D01*
X151949708Y-93004444D01*
X151962005Y-93024961D01*
X151972233Y-93046585D01*
X151980291Y-93069107D01*
X151986103Y-93092311D01*
X151989613Y-93115972D01*
X151990787Y-93139864D01*
X151990787Y-94052364D01*
X151989613Y-94076256D01*
X151986103Y-94099917D01*
X151980291Y-94123121D01*
X151972233Y-94145643D01*
X151962005Y-94167267D01*
X151949708Y-94187784D01*
X151935458Y-94206997D01*
X151919394Y-94224721D01*
X151901670Y-94240785D01*
X151882457Y-94255035D01*
X151861940Y-94267332D01*
X151840316Y-94277560D01*
X151817794Y-94285618D01*
X151794590Y-94291430D01*
X151770929Y-94294940D01*
X151747037Y-94296114D01*
X151259537Y-94296114D01*
X151235645Y-94294940D01*
X151211984Y-94291430D01*
X151188780Y-94285618D01*
X151166258Y-94277560D01*
X151144634Y-94267332D01*
X151124117Y-94255035D01*
X151104904Y-94240785D01*
X151087180Y-94224721D01*
X151071116Y-94206997D01*
X151056866Y-94187784D01*
X151044569Y-94167267D01*
X151034341Y-94145643D01*
X151026283Y-94123121D01*
X151020471Y-94099917D01*
X151016961Y-94076256D01*
X151015787Y-94052364D01*
X151015787Y-93139864D01*
X151016961Y-93115972D01*
X151020471Y-93092311D01*
X151026283Y-93069107D01*
X151034341Y-93046585D01*
X151044569Y-93024961D01*
X151056866Y-93004444D01*
X151071116Y-92985231D01*
X151087180Y-92967507D01*
X151104904Y-92951443D01*
X151124117Y-92937193D01*
X151144634Y-92924896D01*
X151166258Y-92914668D01*
X151188780Y-92906610D01*
X151211984Y-92900798D01*
X151235645Y-92897288D01*
X151259537Y-92896114D01*
X151747037Y-92896114D01*
X151770929Y-92897288D01*
X151770929Y-92897288D01*
G37*
D14*
X151503287Y-93596114D03*
D13*
G36*
X149895929Y-92897288D02*
X149919590Y-92900798D01*
X149942794Y-92906610D01*
X149965316Y-92914668D01*
X149986940Y-92924896D01*
X150007457Y-92937193D01*
X150026670Y-92951443D01*
X150044394Y-92967507D01*
X150060458Y-92985231D01*
X150074708Y-93004444D01*
X150087005Y-93024961D01*
X150097233Y-93046585D01*
X150105291Y-93069107D01*
X150111103Y-93092311D01*
X150114613Y-93115972D01*
X150115787Y-93139864D01*
X150115787Y-94052364D01*
X150114613Y-94076256D01*
X150111103Y-94099917D01*
X150105291Y-94123121D01*
X150097233Y-94145643D01*
X150087005Y-94167267D01*
X150074708Y-94187784D01*
X150060458Y-94206997D01*
X150044394Y-94224721D01*
X150026670Y-94240785D01*
X150007457Y-94255035D01*
X149986940Y-94267332D01*
X149965316Y-94277560D01*
X149942794Y-94285618D01*
X149919590Y-94291430D01*
X149895929Y-94294940D01*
X149872037Y-94296114D01*
X149384537Y-94296114D01*
X149360645Y-94294940D01*
X149336984Y-94291430D01*
X149313780Y-94285618D01*
X149291258Y-94277560D01*
X149269634Y-94267332D01*
X149249117Y-94255035D01*
X149229904Y-94240785D01*
X149212180Y-94224721D01*
X149196116Y-94206997D01*
X149181866Y-94187784D01*
X149169569Y-94167267D01*
X149159341Y-94145643D01*
X149151283Y-94123121D01*
X149145471Y-94099917D01*
X149141961Y-94076256D01*
X149140787Y-94052364D01*
X149140787Y-93139864D01*
X149141961Y-93115972D01*
X149145471Y-93092311D01*
X149151283Y-93069107D01*
X149159341Y-93046585D01*
X149169569Y-93024961D01*
X149181866Y-93004444D01*
X149196116Y-92985231D01*
X149212180Y-92967507D01*
X149229904Y-92951443D01*
X149249117Y-92937193D01*
X149269634Y-92924896D01*
X149291258Y-92914668D01*
X149313780Y-92906610D01*
X149336984Y-92900798D01*
X149360645Y-92897288D01*
X149384537Y-92896114D01*
X149872037Y-92896114D01*
X149895929Y-92897288D01*
X149895929Y-92897288D01*
G37*
D14*
X149628287Y-93596114D03*
M02*
