%TF.GenerationSoftware,KiCad,Pcbnew,5.0.1*%
%TF.CreationDate,2018-10-23T16:10:10+11:00*%
%TF.ProjectId,FP2,4650322E6B696361645F706362000000,A*%
%TF.SameCoordinates,Original*%
%TF.FileFunction,Legend,Top*%
%TF.FilePolarity,Positive*%
%FSLAX46Y46*%
G04 Gerber Fmt 4.6, Leading zero omitted, Abs format (unit mm)*
G04 Created by KiCad (PCBNEW 5.0.1) date Tue 23 Oct 2018 04:10:10 PM AEDT*
%MOMM*%
%LPD*%
G01*
G04 APERTURE LIST*
%ADD10C,0.500000*%
%ADD11C,0.300000*%
%ADD12C,0.120000*%
%ADD13C,0.150000*%
%ADD14C,0.200000*%
G04 APERTURE END LIST*
D10*
X132120000Y-120000000D02*
G75*
G02X129000000Y-116880000I0J3120000D01*
G01*
X161000000Y-116880000D02*
G75*
G02X157880000Y-120000000I-3120000J0D01*
G01*
X161000000Y-83120000D02*
G75*
G03X157880000Y-80000000I-3120000J0D01*
G01*
X129000000Y-83120000D02*
G75*
G02X132120000Y-80000000I3120000J0D01*
G01*
D11*
X150412857Y-117930000D02*
X150270000Y-117858571D01*
X150055714Y-117858571D01*
X149841428Y-117930000D01*
X149698571Y-118072857D01*
X149627142Y-118215714D01*
X149555714Y-118501428D01*
X149555714Y-118715714D01*
X149627142Y-119001428D01*
X149698571Y-119144285D01*
X149841428Y-119287142D01*
X150055714Y-119358571D01*
X150198571Y-119358571D01*
X150412857Y-119287142D01*
X150484285Y-119215714D01*
X150484285Y-118715714D01*
X150198571Y-118715714D01*
X145037142Y-118572857D02*
X145251428Y-118644285D01*
X145322857Y-118715714D01*
X145394285Y-118858571D01*
X145394285Y-119072857D01*
X145322857Y-119215714D01*
X145251428Y-119287142D01*
X145108571Y-119358571D01*
X144537142Y-119358571D01*
X144537142Y-117858571D01*
X145037142Y-117858571D01*
X145180000Y-117930000D01*
X145251428Y-118001428D01*
X145322857Y-118144285D01*
X145322857Y-118287142D01*
X145251428Y-118430000D01*
X145180000Y-118501428D01*
X145037142Y-118572857D01*
X144537142Y-118572857D01*
X139362857Y-118930000D02*
X140077142Y-118930000D01*
X139220000Y-119358571D02*
X139720000Y-117858571D01*
X140220000Y-119358571D01*
D10*
X129000000Y-116860000D02*
X129000000Y-83120000D01*
X132110000Y-120000000D02*
X157880000Y-120000000D01*
X161000000Y-83140000D02*
X161000000Y-116880000D01*
X132130000Y-80000000D02*
X157870000Y-80000000D01*
D12*
X146010000Y-106680000D02*
X146010000Y-102380000D01*
X153110000Y-106680000D02*
X146010000Y-106680000D01*
X153110000Y-102380000D02*
X146010000Y-102380000D01*
X153110000Y-106680000D02*
X153110000Y-102380000D01*
X136670000Y-102380000D02*
X136670000Y-106680000D01*
X136670000Y-106680000D02*
X143770000Y-106680000D01*
X136670000Y-102380000D02*
X143770000Y-102380000D01*
X143770000Y-102380000D02*
X143770000Y-106680000D01*
D13*
X147255000Y-90075000D02*
X147205000Y-90075000D01*
X147255000Y-94225000D02*
X147110000Y-94225000D01*
X142105000Y-94225000D02*
X142250000Y-94225000D01*
X142105000Y-90075000D02*
X142250000Y-90075000D01*
X147255000Y-90075000D02*
X147255000Y-94225000D01*
X142105000Y-90075000D02*
X142105000Y-94225000D01*
D14*
X147250000Y-89330000D02*
G75*
G03X147250000Y-89330000I-100000J0D01*
G01*
D12*
X131360000Y-89790000D02*
X131360000Y-88460000D01*
X131360000Y-88460000D02*
X132690000Y-88460000D01*
X131360000Y-111440000D02*
X134020000Y-111440000D01*
X134020000Y-91060000D02*
X134020000Y-111440000D01*
X131360000Y-91060000D02*
X131360000Y-111440000D01*
X131360000Y-91060000D02*
X134020000Y-91060000D01*
X155760000Y-88440000D02*
X158390000Y-88440000D01*
X155760000Y-88440000D02*
X155760000Y-111440000D01*
X158420000Y-88440000D02*
X158420000Y-111440000D01*
X155760000Y-111440000D02*
X158420000Y-111440000D01*
D10*
X130450000Y-89800000D02*
G75*
G03X130450000Y-89800000I-250000J0D01*
G01*
D12*
X150317209Y-94966114D02*
X150834365Y-94966114D01*
X150317209Y-96386114D02*
X150834365Y-96386114D01*
X142950000Y-83001422D02*
X142950000Y-83518578D01*
X144370000Y-83001422D02*
X144370000Y-83518578D01*
X145090000Y-83001422D02*
X145090000Y-83518578D01*
X146510000Y-83001422D02*
X146510000Y-83518578D01*
X142540000Y-98848578D02*
X142540000Y-98331422D01*
X141120000Y-98848578D02*
X141120000Y-98331422D01*
X144461422Y-100230000D02*
X144978578Y-100230000D01*
X144461422Y-98810000D02*
X144978578Y-98810000D01*
X148340000Y-98848578D02*
X148340000Y-98331422D01*
X146920000Y-98848578D02*
X146920000Y-98331422D01*
X148920000Y-88391422D02*
X148920000Y-88908578D01*
X150340000Y-88391422D02*
X150340000Y-88908578D01*
X150307209Y-94306114D02*
X150824365Y-94306114D01*
X150307209Y-92886114D02*
X150824365Y-92886114D01*
X137050000Y-117560000D02*
X137550000Y-117560000D01*
X137050000Y-116820000D02*
X137050000Y-117560000D01*
X148823000Y-113683000D02*
X148776000Y-113729000D01*
X151120000Y-111385000D02*
X151085000Y-111421000D01*
X149016000Y-113899000D02*
X148981000Y-113934000D01*
X151325000Y-111591000D02*
X151278000Y-111637000D01*
X143743000Y-113683000D02*
X143696000Y-113729000D01*
X146040000Y-111385000D02*
X146005000Y-111421000D01*
X143936000Y-113899000D02*
X143901000Y-113934000D01*
X146245000Y-111591000D02*
X146198000Y-111637000D01*
X152650000Y-107399000D02*
X152650000Y-117320000D01*
X137290000Y-107399000D02*
X137290000Y-117320000D01*
X137290000Y-117320000D02*
X152650000Y-117320000D01*
X137290000Y-107399000D02*
X152650000Y-107399000D01*
X137290000Y-110359000D02*
X152650000Y-110359000D01*
X137290000Y-115260000D02*
X152650000Y-115260000D01*
X137290000Y-116760000D02*
X152650000Y-116760000D01*
X151730000Y-112660000D02*
G75*
G03X151730000Y-112660000I-1680000J0D01*
G01*
X146650000Y-112660000D02*
G75*
G03X146650000Y-112660000I-1680000J0D01*
G01*
X139918805Y-114340253D02*
G75*
G02X139206000Y-114195000I-28805J1680253D01*
G01*
X138354574Y-113343042D02*
G75*
G02X138355000Y-111976000I1535426J683042D01*
G01*
X139206958Y-111124574D02*
G75*
G02X140574000Y-111125000I683042J-1535426D01*
G01*
X141425426Y-111976958D02*
G75*
G02X141425000Y-113344000I-1535426J-683042D01*
G01*
X140573318Y-114194756D02*
G75*
G02X139890000Y-114340000I-683318J1534756D01*
G01*
D13*
X148831904Y-101982380D02*
X148831904Y-100982380D01*
X149070000Y-100982380D01*
X149212857Y-101030000D01*
X149308095Y-101125238D01*
X149355714Y-101220476D01*
X149403333Y-101410952D01*
X149403333Y-101553809D01*
X149355714Y-101744285D01*
X149308095Y-101839523D01*
X149212857Y-101934761D01*
X149070000Y-101982380D01*
X148831904Y-101982380D01*
X149784285Y-101077619D02*
X149831904Y-101030000D01*
X149927142Y-100982380D01*
X150165238Y-100982380D01*
X150260476Y-101030000D01*
X150308095Y-101077619D01*
X150355714Y-101172857D01*
X150355714Y-101268095D01*
X150308095Y-101410952D01*
X149736666Y-101982380D01*
X150355714Y-101982380D01*
X139481904Y-101982380D02*
X139481904Y-100982380D01*
X139720000Y-100982380D01*
X139862857Y-101030000D01*
X139958095Y-101125238D01*
X140005714Y-101220476D01*
X140053333Y-101410952D01*
X140053333Y-101553809D01*
X140005714Y-101744285D01*
X139958095Y-101839523D01*
X139862857Y-101934761D01*
X139720000Y-101982380D01*
X139481904Y-101982380D01*
X141005714Y-101982380D02*
X140434285Y-101982380D01*
X140720000Y-101982380D02*
X140720000Y-100982380D01*
X140624761Y-101125238D01*
X140529523Y-101220476D01*
X140434285Y-101268095D01*
X140118095Y-87862380D02*
X140118095Y-88671904D01*
X140165714Y-88767142D01*
X140213333Y-88814761D01*
X140308571Y-88862380D01*
X140499047Y-88862380D01*
X140594285Y-88814761D01*
X140641904Y-88767142D01*
X140689523Y-88671904D01*
X140689523Y-87862380D01*
X141689523Y-88862380D02*
X141118095Y-88862380D01*
X141403809Y-88862380D02*
X141403809Y-87862380D01*
X141308571Y-88005238D01*
X141213333Y-88100476D01*
X141118095Y-88148095D01*
X132226666Y-112012380D02*
X132226666Y-112726666D01*
X132179047Y-112869523D01*
X132083809Y-112964761D01*
X131940952Y-113012380D01*
X131845714Y-113012380D01*
X132655238Y-112107619D02*
X132702857Y-112060000D01*
X132798095Y-112012380D01*
X133036190Y-112012380D01*
X133131428Y-112060000D01*
X133179047Y-112107619D01*
X133226666Y-112202857D01*
X133226666Y-112298095D01*
X133179047Y-112440952D01*
X132607619Y-113012380D01*
X133226666Y-113012380D01*
X149643333Y-97817142D02*
X149595714Y-97864761D01*
X149452857Y-97912380D01*
X149357619Y-97912380D01*
X149214761Y-97864761D01*
X149119523Y-97769523D01*
X149071904Y-97674285D01*
X149024285Y-97483809D01*
X149024285Y-97340952D01*
X149071904Y-97150476D01*
X149119523Y-97055238D01*
X149214761Y-96960000D01*
X149357619Y-96912380D01*
X149452857Y-96912380D01*
X149595714Y-96960000D01*
X149643333Y-97007619D01*
X150595714Y-97912380D02*
X150024285Y-97912380D01*
X150310000Y-97912380D02*
X150310000Y-96912380D01*
X150214761Y-97055238D01*
X150119523Y-97150476D01*
X150024285Y-97198095D01*
X141373333Y-85652380D02*
X141040000Y-85176190D01*
X140801904Y-85652380D02*
X140801904Y-84652380D01*
X141182857Y-84652380D01*
X141278095Y-84700000D01*
X141325714Y-84747619D01*
X141373333Y-84842857D01*
X141373333Y-84985714D01*
X141325714Y-85080952D01*
X141278095Y-85128571D01*
X141182857Y-85176190D01*
X140801904Y-85176190D01*
X142230476Y-84652380D02*
X142040000Y-84652380D01*
X141944761Y-84700000D01*
X141897142Y-84747619D01*
X141801904Y-84890476D01*
X141754285Y-85080952D01*
X141754285Y-85461904D01*
X141801904Y-85557142D01*
X141849523Y-85604761D01*
X141944761Y-85652380D01*
X142135238Y-85652380D01*
X142230476Y-85604761D01*
X142278095Y-85557142D01*
X142325714Y-85461904D01*
X142325714Y-85223809D01*
X142278095Y-85128571D01*
X142230476Y-85080952D01*
X142135238Y-85033333D01*
X141944761Y-85033333D01*
X141849523Y-85080952D01*
X141801904Y-85128571D01*
X141754285Y-85223809D01*
X147613333Y-85652380D02*
X147280000Y-85176190D01*
X147041904Y-85652380D02*
X147041904Y-84652380D01*
X147422857Y-84652380D01*
X147518095Y-84700000D01*
X147565714Y-84747619D01*
X147613333Y-84842857D01*
X147613333Y-84985714D01*
X147565714Y-85080952D01*
X147518095Y-85128571D01*
X147422857Y-85176190D01*
X147041904Y-85176190D01*
X148518095Y-84652380D02*
X148041904Y-84652380D01*
X147994285Y-85128571D01*
X148041904Y-85080952D01*
X148137142Y-85033333D01*
X148375238Y-85033333D01*
X148470476Y-85080952D01*
X148518095Y-85128571D01*
X148565714Y-85223809D01*
X148565714Y-85461904D01*
X148518095Y-85557142D01*
X148470476Y-85604761D01*
X148375238Y-85652380D01*
X148137142Y-85652380D01*
X148041904Y-85604761D01*
X147994285Y-85557142D01*
X139533333Y-99042380D02*
X139200000Y-98566190D01*
X138961904Y-99042380D02*
X138961904Y-98042380D01*
X139342857Y-98042380D01*
X139438095Y-98090000D01*
X139485714Y-98137619D01*
X139533333Y-98232857D01*
X139533333Y-98375714D01*
X139485714Y-98470952D01*
X139438095Y-98518571D01*
X139342857Y-98566190D01*
X138961904Y-98566190D01*
X140390476Y-98375714D02*
X140390476Y-99042380D01*
X140152380Y-97994761D02*
X139914285Y-98709047D01*
X140533333Y-98709047D01*
X143283333Y-101692380D02*
X142950000Y-101216190D01*
X142711904Y-101692380D02*
X142711904Y-100692380D01*
X143092857Y-100692380D01*
X143188095Y-100740000D01*
X143235714Y-100787619D01*
X143283333Y-100882857D01*
X143283333Y-101025714D01*
X143235714Y-101120952D01*
X143188095Y-101168571D01*
X143092857Y-101216190D01*
X142711904Y-101216190D01*
X143616666Y-100692380D02*
X144235714Y-100692380D01*
X143902380Y-101073333D01*
X144045238Y-101073333D01*
X144140476Y-101120952D01*
X144188095Y-101168571D01*
X144235714Y-101263809D01*
X144235714Y-101501904D01*
X144188095Y-101597142D01*
X144140476Y-101644761D01*
X144045238Y-101692380D01*
X143759523Y-101692380D01*
X143664285Y-101644761D01*
X143616666Y-101597142D01*
X149493333Y-100102380D02*
X149160000Y-99626190D01*
X148921904Y-100102380D02*
X148921904Y-99102380D01*
X149302857Y-99102380D01*
X149398095Y-99150000D01*
X149445714Y-99197619D01*
X149493333Y-99292857D01*
X149493333Y-99435714D01*
X149445714Y-99530952D01*
X149398095Y-99578571D01*
X149302857Y-99626190D01*
X148921904Y-99626190D01*
X149874285Y-99197619D02*
X149921904Y-99150000D01*
X150017142Y-99102380D01*
X150255238Y-99102380D01*
X150350476Y-99150000D01*
X150398095Y-99197619D01*
X150445714Y-99292857D01*
X150445714Y-99388095D01*
X150398095Y-99530952D01*
X149826666Y-100102380D01*
X150445714Y-100102380D01*
X151433333Y-89102380D02*
X151100000Y-88626190D01*
X150861904Y-89102380D02*
X150861904Y-88102380D01*
X151242857Y-88102380D01*
X151338095Y-88150000D01*
X151385714Y-88197619D01*
X151433333Y-88292857D01*
X151433333Y-88435714D01*
X151385714Y-88530952D01*
X151338095Y-88578571D01*
X151242857Y-88626190D01*
X150861904Y-88626190D01*
X152385714Y-89102380D02*
X151814285Y-89102380D01*
X152100000Y-89102380D02*
X152100000Y-88102380D01*
X152004761Y-88245238D01*
X151909523Y-88340476D01*
X151814285Y-88388095D01*
X153133333Y-92457142D02*
X153085714Y-92504761D01*
X152942857Y-92552380D01*
X152847619Y-92552380D01*
X152704761Y-92504761D01*
X152609523Y-92409523D01*
X152561904Y-92314285D01*
X152514285Y-92123809D01*
X152514285Y-91980952D01*
X152561904Y-91790476D01*
X152609523Y-91695238D01*
X152704761Y-91600000D01*
X152847619Y-91552380D01*
X152942857Y-91552380D01*
X153085714Y-91600000D01*
X153133333Y-91647619D01*
X153514285Y-91647619D02*
X153561904Y-91600000D01*
X153657142Y-91552380D01*
X153895238Y-91552380D01*
X153990476Y-91600000D01*
X154038095Y-91647619D01*
X154085714Y-91742857D01*
X154085714Y-91838095D01*
X154038095Y-91980952D01*
X153466666Y-92552380D01*
X154085714Y-92552380D01*
X135646666Y-115772380D02*
X135646666Y-116486666D01*
X135599047Y-116629523D01*
X135503809Y-116724761D01*
X135360952Y-116772380D01*
X135265714Y-116772380D01*
X136646666Y-116772380D02*
X136075238Y-116772380D01*
X136360952Y-116772380D02*
X136360952Y-115772380D01*
X136265714Y-115915238D01*
X136170476Y-116010476D01*
X136075238Y-116058095D01*
M02*
