M48
;DRILL file {KiCad 5.0.1} date Tue 23 Oct 2018 04:10:38 PM AEDT
;FORMAT={-:-/ absolute / inch / decimal}
FMAT,2
INCH,TZ
T1C0.0157
T2C0.0315
T3C0.0394
T4C0.0512
%
G90
G05
M72
T1
X5.3122Y-3.5878
X5.3122Y-3.6823
X5.3192Y-3.9213
X5.3193Y-4.0945
T2
X5.3689Y-3.6354
X5.5382Y-3.6354
T3
X5.374Y-3.7449
X5.4189Y-3.4327
X5.5512Y-3.7449
X5.5728Y-3.2409
X5.6969Y-3.8354
X5.7039Y-4.0268
X5.7039Y-4.1154
X5.7039Y-4.2035
X5.824Y-3.2413
X5.9646Y-3.6063
X5.9646Y-3.8425
X6.0315Y-3.685
X6.0354Y-3.7677
X5.224Y-3.535
X5.224Y-3.635
X5.224Y-3.735
X5.224Y-3.835
X5.224Y-3.935
X5.224Y-4.035
X5.224Y-4.135
X5.224Y-4.235
X5.224Y-4.335
X6.1846Y-3.535
X6.1846Y-3.635
X6.1846Y-3.735
X6.1846Y-3.835
X6.1846Y-4.035
X6.1846Y-4.135
X6.1846Y-4.235
X6.1846Y-4.335
T4
X5.5075Y-4.4354
X5.7075Y-4.4354
X5.9075Y-4.4354
T0
M30
