%TF.GenerationSoftware,KiCad,Pcbnew,5.0.1*%
%TF.CreationDate,2018-10-23T16:10:10+11:00*%
%TF.ProjectId,FP2,4650322E6B696361645F706362000000,A*%
%TF.SameCoordinates,Original*%
%TF.FileFunction,Copper,L1,Top,Signal*%
%TF.FilePolarity,Positive*%
%FSLAX46Y46*%
G04 Gerber Fmt 4.6, Leading zero omitted, Abs format (unit mm)*
G04 Created by KiCad (PCBNEW 5.0.1) date Tue 23 Oct 2018 04:10:10 PM AEDT*
%MOMM*%
%LPD*%
G01*
G04 APERTURE LIST*
%ADD10C,0.500000*%
%ADD11R,2.500000X2.300000*%
%ADD12R,0.600000X1.550000*%
%ADD13O,1.700000X1.700000*%
%ADD14R,1.700000X1.700000*%
%ADD15C,0.150000*%
%ADD16C,0.975000*%
%ADD17C,2.600000*%
%ADD18R,2.600000X2.600000*%
%ADD19C,1.600000*%
%ADD20C,0.800000*%
%ADD21C,0.250000*%
%ADD22C,0.800000*%
%ADD23C,0.400000*%
%ADD24C,0.100000*%
G04 APERTURE END LIST*
D10*
X132120000Y-120000000D02*
G75*
G02X129000000Y-116880000I0J3120000D01*
G01*
X161000000Y-116880000D02*
G75*
G02X157880000Y-120000000I-3120000J0D01*
G01*
X161000000Y-83120000D02*
G75*
G03X157880000Y-80000000I-3120000J0D01*
G01*
X129000000Y-83120000D02*
G75*
G02X132120000Y-80000000I3120000J0D01*
G01*
X129000000Y-116860000D02*
X129000000Y-83120000D01*
X132110000Y-120000000D02*
X157880000Y-120000000D01*
X161000000Y-83140000D02*
X161000000Y-116880000D01*
X132130000Y-80000000D02*
X157870000Y-80000000D01*
D11*
X147410000Y-104530000D03*
X151710000Y-104530000D03*
X138070000Y-104530000D03*
X142370000Y-104530000D03*
D12*
X146585000Y-89450000D03*
X145315000Y-89450000D03*
X144045000Y-89450000D03*
X142775000Y-89450000D03*
X142775000Y-94850000D03*
X144045000Y-94850000D03*
X145315000Y-94850000D03*
X146585000Y-94850000D03*
D13*
X132690000Y-94870000D03*
X132690000Y-99950000D03*
X132690000Y-102490000D03*
D14*
X132690000Y-89790000D03*
D13*
X132690000Y-110110000D03*
X132690000Y-105030000D03*
X132690000Y-92330000D03*
X132690000Y-107570000D03*
X132690000Y-97410000D03*
X157090000Y-105030000D03*
X157090000Y-107570000D03*
X157090000Y-110110000D03*
X157090000Y-102490000D03*
X157090000Y-92330000D03*
X157090000Y-89790000D03*
X157090000Y-94870000D03*
X157090000Y-97410000D03*
D15*
G36*
X149905929Y-94977288D02*
X149929590Y-94980798D01*
X149952794Y-94986610D01*
X149975316Y-94994668D01*
X149996940Y-95004896D01*
X150017457Y-95017193D01*
X150036670Y-95031443D01*
X150054394Y-95047507D01*
X150070458Y-95065231D01*
X150084708Y-95084444D01*
X150097005Y-95104961D01*
X150107233Y-95126585D01*
X150115291Y-95149107D01*
X150121103Y-95172311D01*
X150124613Y-95195972D01*
X150125787Y-95219864D01*
X150125787Y-96132364D01*
X150124613Y-96156256D01*
X150121103Y-96179917D01*
X150115291Y-96203121D01*
X150107233Y-96225643D01*
X150097005Y-96247267D01*
X150084708Y-96267784D01*
X150070458Y-96286997D01*
X150054394Y-96304721D01*
X150036670Y-96320785D01*
X150017457Y-96335035D01*
X149996940Y-96347332D01*
X149975316Y-96357560D01*
X149952794Y-96365618D01*
X149929590Y-96371430D01*
X149905929Y-96374940D01*
X149882037Y-96376114D01*
X149394537Y-96376114D01*
X149370645Y-96374940D01*
X149346984Y-96371430D01*
X149323780Y-96365618D01*
X149301258Y-96357560D01*
X149279634Y-96347332D01*
X149259117Y-96335035D01*
X149239904Y-96320785D01*
X149222180Y-96304721D01*
X149206116Y-96286997D01*
X149191866Y-96267784D01*
X149179569Y-96247267D01*
X149169341Y-96225643D01*
X149161283Y-96203121D01*
X149155471Y-96179917D01*
X149151961Y-96156256D01*
X149150787Y-96132364D01*
X149150787Y-95219864D01*
X149151961Y-95195972D01*
X149155471Y-95172311D01*
X149161283Y-95149107D01*
X149169341Y-95126585D01*
X149179569Y-95104961D01*
X149191866Y-95084444D01*
X149206116Y-95065231D01*
X149222180Y-95047507D01*
X149239904Y-95031443D01*
X149259117Y-95017193D01*
X149279634Y-95004896D01*
X149301258Y-94994668D01*
X149323780Y-94986610D01*
X149346984Y-94980798D01*
X149370645Y-94977288D01*
X149394537Y-94976114D01*
X149882037Y-94976114D01*
X149905929Y-94977288D01*
X149905929Y-94977288D01*
G37*
D16*
X149638287Y-95676114D03*
D15*
G36*
X151780929Y-94977288D02*
X151804590Y-94980798D01*
X151827794Y-94986610D01*
X151850316Y-94994668D01*
X151871940Y-95004896D01*
X151892457Y-95017193D01*
X151911670Y-95031443D01*
X151929394Y-95047507D01*
X151945458Y-95065231D01*
X151959708Y-95084444D01*
X151972005Y-95104961D01*
X151982233Y-95126585D01*
X151990291Y-95149107D01*
X151996103Y-95172311D01*
X151999613Y-95195972D01*
X152000787Y-95219864D01*
X152000787Y-96132364D01*
X151999613Y-96156256D01*
X151996103Y-96179917D01*
X151990291Y-96203121D01*
X151982233Y-96225643D01*
X151972005Y-96247267D01*
X151959708Y-96267784D01*
X151945458Y-96286997D01*
X151929394Y-96304721D01*
X151911670Y-96320785D01*
X151892457Y-96335035D01*
X151871940Y-96347332D01*
X151850316Y-96357560D01*
X151827794Y-96365618D01*
X151804590Y-96371430D01*
X151780929Y-96374940D01*
X151757037Y-96376114D01*
X151269537Y-96376114D01*
X151245645Y-96374940D01*
X151221984Y-96371430D01*
X151198780Y-96365618D01*
X151176258Y-96357560D01*
X151154634Y-96347332D01*
X151134117Y-96335035D01*
X151114904Y-96320785D01*
X151097180Y-96304721D01*
X151081116Y-96286997D01*
X151066866Y-96267784D01*
X151054569Y-96247267D01*
X151044341Y-96225643D01*
X151036283Y-96203121D01*
X151030471Y-96179917D01*
X151026961Y-96156256D01*
X151025787Y-96132364D01*
X151025787Y-95219864D01*
X151026961Y-95195972D01*
X151030471Y-95172311D01*
X151036283Y-95149107D01*
X151044341Y-95126585D01*
X151054569Y-95104961D01*
X151066866Y-95084444D01*
X151081116Y-95065231D01*
X151097180Y-95047507D01*
X151114904Y-95031443D01*
X151134117Y-95017193D01*
X151154634Y-95004896D01*
X151176258Y-94994668D01*
X151198780Y-94986610D01*
X151221984Y-94980798D01*
X151245645Y-94977288D01*
X151269537Y-94976114D01*
X151757037Y-94976114D01*
X151780929Y-94977288D01*
X151780929Y-94977288D01*
G37*
D16*
X151513287Y-95676114D03*
D15*
G36*
X144140142Y-83711174D02*
X144163803Y-83714684D01*
X144187007Y-83720496D01*
X144209529Y-83728554D01*
X144231153Y-83738782D01*
X144251670Y-83751079D01*
X144270883Y-83765329D01*
X144288607Y-83781393D01*
X144304671Y-83799117D01*
X144318921Y-83818330D01*
X144331218Y-83838847D01*
X144341446Y-83860471D01*
X144349504Y-83882993D01*
X144355316Y-83906197D01*
X144358826Y-83929858D01*
X144360000Y-83953750D01*
X144360000Y-84441250D01*
X144358826Y-84465142D01*
X144355316Y-84488803D01*
X144349504Y-84512007D01*
X144341446Y-84534529D01*
X144331218Y-84556153D01*
X144318921Y-84576670D01*
X144304671Y-84595883D01*
X144288607Y-84613607D01*
X144270883Y-84629671D01*
X144251670Y-84643921D01*
X144231153Y-84656218D01*
X144209529Y-84666446D01*
X144187007Y-84674504D01*
X144163803Y-84680316D01*
X144140142Y-84683826D01*
X144116250Y-84685000D01*
X143203750Y-84685000D01*
X143179858Y-84683826D01*
X143156197Y-84680316D01*
X143132993Y-84674504D01*
X143110471Y-84666446D01*
X143088847Y-84656218D01*
X143068330Y-84643921D01*
X143049117Y-84629671D01*
X143031393Y-84613607D01*
X143015329Y-84595883D01*
X143001079Y-84576670D01*
X142988782Y-84556153D01*
X142978554Y-84534529D01*
X142970496Y-84512007D01*
X142964684Y-84488803D01*
X142961174Y-84465142D01*
X142960000Y-84441250D01*
X142960000Y-83953750D01*
X142961174Y-83929858D01*
X142964684Y-83906197D01*
X142970496Y-83882993D01*
X142978554Y-83860471D01*
X142988782Y-83838847D01*
X143001079Y-83818330D01*
X143015329Y-83799117D01*
X143031393Y-83781393D01*
X143049117Y-83765329D01*
X143068330Y-83751079D01*
X143088847Y-83738782D01*
X143110471Y-83728554D01*
X143132993Y-83720496D01*
X143156197Y-83714684D01*
X143179858Y-83711174D01*
X143203750Y-83710000D01*
X144116250Y-83710000D01*
X144140142Y-83711174D01*
X144140142Y-83711174D01*
G37*
D16*
X143660000Y-84197500D03*
D15*
G36*
X144140142Y-81836174D02*
X144163803Y-81839684D01*
X144187007Y-81845496D01*
X144209529Y-81853554D01*
X144231153Y-81863782D01*
X144251670Y-81876079D01*
X144270883Y-81890329D01*
X144288607Y-81906393D01*
X144304671Y-81924117D01*
X144318921Y-81943330D01*
X144331218Y-81963847D01*
X144341446Y-81985471D01*
X144349504Y-82007993D01*
X144355316Y-82031197D01*
X144358826Y-82054858D01*
X144360000Y-82078750D01*
X144360000Y-82566250D01*
X144358826Y-82590142D01*
X144355316Y-82613803D01*
X144349504Y-82637007D01*
X144341446Y-82659529D01*
X144331218Y-82681153D01*
X144318921Y-82701670D01*
X144304671Y-82720883D01*
X144288607Y-82738607D01*
X144270883Y-82754671D01*
X144251670Y-82768921D01*
X144231153Y-82781218D01*
X144209529Y-82791446D01*
X144187007Y-82799504D01*
X144163803Y-82805316D01*
X144140142Y-82808826D01*
X144116250Y-82810000D01*
X143203750Y-82810000D01*
X143179858Y-82808826D01*
X143156197Y-82805316D01*
X143132993Y-82799504D01*
X143110471Y-82791446D01*
X143088847Y-82781218D01*
X143068330Y-82768921D01*
X143049117Y-82754671D01*
X143031393Y-82738607D01*
X143015329Y-82720883D01*
X143001079Y-82701670D01*
X142988782Y-82681153D01*
X142978554Y-82659529D01*
X142970496Y-82637007D01*
X142964684Y-82613803D01*
X142961174Y-82590142D01*
X142960000Y-82566250D01*
X142960000Y-82078750D01*
X142961174Y-82054858D01*
X142964684Y-82031197D01*
X142970496Y-82007993D01*
X142978554Y-81985471D01*
X142988782Y-81963847D01*
X143001079Y-81943330D01*
X143015329Y-81924117D01*
X143031393Y-81906393D01*
X143049117Y-81890329D01*
X143068330Y-81876079D01*
X143088847Y-81863782D01*
X143110471Y-81853554D01*
X143132993Y-81845496D01*
X143156197Y-81839684D01*
X143179858Y-81836174D01*
X143203750Y-81835000D01*
X144116250Y-81835000D01*
X144140142Y-81836174D01*
X144140142Y-81836174D01*
G37*
D16*
X143660000Y-82322500D03*
D15*
G36*
X146280142Y-83711174D02*
X146303803Y-83714684D01*
X146327007Y-83720496D01*
X146349529Y-83728554D01*
X146371153Y-83738782D01*
X146391670Y-83751079D01*
X146410883Y-83765329D01*
X146428607Y-83781393D01*
X146444671Y-83799117D01*
X146458921Y-83818330D01*
X146471218Y-83838847D01*
X146481446Y-83860471D01*
X146489504Y-83882993D01*
X146495316Y-83906197D01*
X146498826Y-83929858D01*
X146500000Y-83953750D01*
X146500000Y-84441250D01*
X146498826Y-84465142D01*
X146495316Y-84488803D01*
X146489504Y-84512007D01*
X146481446Y-84534529D01*
X146471218Y-84556153D01*
X146458921Y-84576670D01*
X146444671Y-84595883D01*
X146428607Y-84613607D01*
X146410883Y-84629671D01*
X146391670Y-84643921D01*
X146371153Y-84656218D01*
X146349529Y-84666446D01*
X146327007Y-84674504D01*
X146303803Y-84680316D01*
X146280142Y-84683826D01*
X146256250Y-84685000D01*
X145343750Y-84685000D01*
X145319858Y-84683826D01*
X145296197Y-84680316D01*
X145272993Y-84674504D01*
X145250471Y-84666446D01*
X145228847Y-84656218D01*
X145208330Y-84643921D01*
X145189117Y-84629671D01*
X145171393Y-84613607D01*
X145155329Y-84595883D01*
X145141079Y-84576670D01*
X145128782Y-84556153D01*
X145118554Y-84534529D01*
X145110496Y-84512007D01*
X145104684Y-84488803D01*
X145101174Y-84465142D01*
X145100000Y-84441250D01*
X145100000Y-83953750D01*
X145101174Y-83929858D01*
X145104684Y-83906197D01*
X145110496Y-83882993D01*
X145118554Y-83860471D01*
X145128782Y-83838847D01*
X145141079Y-83818330D01*
X145155329Y-83799117D01*
X145171393Y-83781393D01*
X145189117Y-83765329D01*
X145208330Y-83751079D01*
X145228847Y-83738782D01*
X145250471Y-83728554D01*
X145272993Y-83720496D01*
X145296197Y-83714684D01*
X145319858Y-83711174D01*
X145343750Y-83710000D01*
X146256250Y-83710000D01*
X146280142Y-83711174D01*
X146280142Y-83711174D01*
G37*
D16*
X145800000Y-84197500D03*
D15*
G36*
X146280142Y-81836174D02*
X146303803Y-81839684D01*
X146327007Y-81845496D01*
X146349529Y-81853554D01*
X146371153Y-81863782D01*
X146391670Y-81876079D01*
X146410883Y-81890329D01*
X146428607Y-81906393D01*
X146444671Y-81924117D01*
X146458921Y-81943330D01*
X146471218Y-81963847D01*
X146481446Y-81985471D01*
X146489504Y-82007993D01*
X146495316Y-82031197D01*
X146498826Y-82054858D01*
X146500000Y-82078750D01*
X146500000Y-82566250D01*
X146498826Y-82590142D01*
X146495316Y-82613803D01*
X146489504Y-82637007D01*
X146481446Y-82659529D01*
X146471218Y-82681153D01*
X146458921Y-82701670D01*
X146444671Y-82720883D01*
X146428607Y-82738607D01*
X146410883Y-82754671D01*
X146391670Y-82768921D01*
X146371153Y-82781218D01*
X146349529Y-82791446D01*
X146327007Y-82799504D01*
X146303803Y-82805316D01*
X146280142Y-82808826D01*
X146256250Y-82810000D01*
X145343750Y-82810000D01*
X145319858Y-82808826D01*
X145296197Y-82805316D01*
X145272993Y-82799504D01*
X145250471Y-82791446D01*
X145228847Y-82781218D01*
X145208330Y-82768921D01*
X145189117Y-82754671D01*
X145171393Y-82738607D01*
X145155329Y-82720883D01*
X145141079Y-82701670D01*
X145128782Y-82681153D01*
X145118554Y-82659529D01*
X145110496Y-82637007D01*
X145104684Y-82613803D01*
X145101174Y-82590142D01*
X145100000Y-82566250D01*
X145100000Y-82078750D01*
X145101174Y-82054858D01*
X145104684Y-82031197D01*
X145110496Y-82007993D01*
X145118554Y-81985471D01*
X145128782Y-81963847D01*
X145141079Y-81943330D01*
X145155329Y-81924117D01*
X145171393Y-81906393D01*
X145189117Y-81890329D01*
X145208330Y-81876079D01*
X145228847Y-81863782D01*
X145250471Y-81853554D01*
X145272993Y-81845496D01*
X145296197Y-81839684D01*
X145319858Y-81836174D01*
X145343750Y-81835000D01*
X146256250Y-81835000D01*
X146280142Y-81836174D01*
X146280142Y-81836174D01*
G37*
D16*
X145800000Y-82322500D03*
D15*
G36*
X142310142Y-97166174D02*
X142333803Y-97169684D01*
X142357007Y-97175496D01*
X142379529Y-97183554D01*
X142401153Y-97193782D01*
X142421670Y-97206079D01*
X142440883Y-97220329D01*
X142458607Y-97236393D01*
X142474671Y-97254117D01*
X142488921Y-97273330D01*
X142501218Y-97293847D01*
X142511446Y-97315471D01*
X142519504Y-97337993D01*
X142525316Y-97361197D01*
X142528826Y-97384858D01*
X142530000Y-97408750D01*
X142530000Y-97896250D01*
X142528826Y-97920142D01*
X142525316Y-97943803D01*
X142519504Y-97967007D01*
X142511446Y-97989529D01*
X142501218Y-98011153D01*
X142488921Y-98031670D01*
X142474671Y-98050883D01*
X142458607Y-98068607D01*
X142440883Y-98084671D01*
X142421670Y-98098921D01*
X142401153Y-98111218D01*
X142379529Y-98121446D01*
X142357007Y-98129504D01*
X142333803Y-98135316D01*
X142310142Y-98138826D01*
X142286250Y-98140000D01*
X141373750Y-98140000D01*
X141349858Y-98138826D01*
X141326197Y-98135316D01*
X141302993Y-98129504D01*
X141280471Y-98121446D01*
X141258847Y-98111218D01*
X141238330Y-98098921D01*
X141219117Y-98084671D01*
X141201393Y-98068607D01*
X141185329Y-98050883D01*
X141171079Y-98031670D01*
X141158782Y-98011153D01*
X141148554Y-97989529D01*
X141140496Y-97967007D01*
X141134684Y-97943803D01*
X141131174Y-97920142D01*
X141130000Y-97896250D01*
X141130000Y-97408750D01*
X141131174Y-97384858D01*
X141134684Y-97361197D01*
X141140496Y-97337993D01*
X141148554Y-97315471D01*
X141158782Y-97293847D01*
X141171079Y-97273330D01*
X141185329Y-97254117D01*
X141201393Y-97236393D01*
X141219117Y-97220329D01*
X141238330Y-97206079D01*
X141258847Y-97193782D01*
X141280471Y-97183554D01*
X141302993Y-97175496D01*
X141326197Y-97169684D01*
X141349858Y-97166174D01*
X141373750Y-97165000D01*
X142286250Y-97165000D01*
X142310142Y-97166174D01*
X142310142Y-97166174D01*
G37*
D16*
X141830000Y-97652500D03*
D15*
G36*
X142310142Y-99041174D02*
X142333803Y-99044684D01*
X142357007Y-99050496D01*
X142379529Y-99058554D01*
X142401153Y-99068782D01*
X142421670Y-99081079D01*
X142440883Y-99095329D01*
X142458607Y-99111393D01*
X142474671Y-99129117D01*
X142488921Y-99148330D01*
X142501218Y-99168847D01*
X142511446Y-99190471D01*
X142519504Y-99212993D01*
X142525316Y-99236197D01*
X142528826Y-99259858D01*
X142530000Y-99283750D01*
X142530000Y-99771250D01*
X142528826Y-99795142D01*
X142525316Y-99818803D01*
X142519504Y-99842007D01*
X142511446Y-99864529D01*
X142501218Y-99886153D01*
X142488921Y-99906670D01*
X142474671Y-99925883D01*
X142458607Y-99943607D01*
X142440883Y-99959671D01*
X142421670Y-99973921D01*
X142401153Y-99986218D01*
X142379529Y-99996446D01*
X142357007Y-100004504D01*
X142333803Y-100010316D01*
X142310142Y-100013826D01*
X142286250Y-100015000D01*
X141373750Y-100015000D01*
X141349858Y-100013826D01*
X141326197Y-100010316D01*
X141302993Y-100004504D01*
X141280471Y-99996446D01*
X141258847Y-99986218D01*
X141238330Y-99973921D01*
X141219117Y-99959671D01*
X141201393Y-99943607D01*
X141185329Y-99925883D01*
X141171079Y-99906670D01*
X141158782Y-99886153D01*
X141148554Y-99864529D01*
X141140496Y-99842007D01*
X141134684Y-99818803D01*
X141131174Y-99795142D01*
X141130000Y-99771250D01*
X141130000Y-99283750D01*
X141131174Y-99259858D01*
X141134684Y-99236197D01*
X141140496Y-99212993D01*
X141148554Y-99190471D01*
X141158782Y-99168847D01*
X141171079Y-99148330D01*
X141185329Y-99129117D01*
X141201393Y-99111393D01*
X141219117Y-99095329D01*
X141238330Y-99081079D01*
X141258847Y-99068782D01*
X141280471Y-99058554D01*
X141302993Y-99050496D01*
X141326197Y-99044684D01*
X141349858Y-99041174D01*
X141373750Y-99040000D01*
X142286250Y-99040000D01*
X142310142Y-99041174D01*
X142310142Y-99041174D01*
G37*
D16*
X141830000Y-99527500D03*
D15*
G36*
X145925142Y-98821174D02*
X145948803Y-98824684D01*
X145972007Y-98830496D01*
X145994529Y-98838554D01*
X146016153Y-98848782D01*
X146036670Y-98861079D01*
X146055883Y-98875329D01*
X146073607Y-98891393D01*
X146089671Y-98909117D01*
X146103921Y-98928330D01*
X146116218Y-98948847D01*
X146126446Y-98970471D01*
X146134504Y-98992993D01*
X146140316Y-99016197D01*
X146143826Y-99039858D01*
X146145000Y-99063750D01*
X146145000Y-99976250D01*
X146143826Y-100000142D01*
X146140316Y-100023803D01*
X146134504Y-100047007D01*
X146126446Y-100069529D01*
X146116218Y-100091153D01*
X146103921Y-100111670D01*
X146089671Y-100130883D01*
X146073607Y-100148607D01*
X146055883Y-100164671D01*
X146036670Y-100178921D01*
X146016153Y-100191218D01*
X145994529Y-100201446D01*
X145972007Y-100209504D01*
X145948803Y-100215316D01*
X145925142Y-100218826D01*
X145901250Y-100220000D01*
X145413750Y-100220000D01*
X145389858Y-100218826D01*
X145366197Y-100215316D01*
X145342993Y-100209504D01*
X145320471Y-100201446D01*
X145298847Y-100191218D01*
X145278330Y-100178921D01*
X145259117Y-100164671D01*
X145241393Y-100148607D01*
X145225329Y-100130883D01*
X145211079Y-100111670D01*
X145198782Y-100091153D01*
X145188554Y-100069529D01*
X145180496Y-100047007D01*
X145174684Y-100023803D01*
X145171174Y-100000142D01*
X145170000Y-99976250D01*
X145170000Y-99063750D01*
X145171174Y-99039858D01*
X145174684Y-99016197D01*
X145180496Y-98992993D01*
X145188554Y-98970471D01*
X145198782Y-98948847D01*
X145211079Y-98928330D01*
X145225329Y-98909117D01*
X145241393Y-98891393D01*
X145259117Y-98875329D01*
X145278330Y-98861079D01*
X145298847Y-98848782D01*
X145320471Y-98838554D01*
X145342993Y-98830496D01*
X145366197Y-98824684D01*
X145389858Y-98821174D01*
X145413750Y-98820000D01*
X145901250Y-98820000D01*
X145925142Y-98821174D01*
X145925142Y-98821174D01*
G37*
D16*
X145657500Y-99520000D03*
D15*
G36*
X144050142Y-98821174D02*
X144073803Y-98824684D01*
X144097007Y-98830496D01*
X144119529Y-98838554D01*
X144141153Y-98848782D01*
X144161670Y-98861079D01*
X144180883Y-98875329D01*
X144198607Y-98891393D01*
X144214671Y-98909117D01*
X144228921Y-98928330D01*
X144241218Y-98948847D01*
X144251446Y-98970471D01*
X144259504Y-98992993D01*
X144265316Y-99016197D01*
X144268826Y-99039858D01*
X144270000Y-99063750D01*
X144270000Y-99976250D01*
X144268826Y-100000142D01*
X144265316Y-100023803D01*
X144259504Y-100047007D01*
X144251446Y-100069529D01*
X144241218Y-100091153D01*
X144228921Y-100111670D01*
X144214671Y-100130883D01*
X144198607Y-100148607D01*
X144180883Y-100164671D01*
X144161670Y-100178921D01*
X144141153Y-100191218D01*
X144119529Y-100201446D01*
X144097007Y-100209504D01*
X144073803Y-100215316D01*
X144050142Y-100218826D01*
X144026250Y-100220000D01*
X143538750Y-100220000D01*
X143514858Y-100218826D01*
X143491197Y-100215316D01*
X143467993Y-100209504D01*
X143445471Y-100201446D01*
X143423847Y-100191218D01*
X143403330Y-100178921D01*
X143384117Y-100164671D01*
X143366393Y-100148607D01*
X143350329Y-100130883D01*
X143336079Y-100111670D01*
X143323782Y-100091153D01*
X143313554Y-100069529D01*
X143305496Y-100047007D01*
X143299684Y-100023803D01*
X143296174Y-100000142D01*
X143295000Y-99976250D01*
X143295000Y-99063750D01*
X143296174Y-99039858D01*
X143299684Y-99016197D01*
X143305496Y-98992993D01*
X143313554Y-98970471D01*
X143323782Y-98948847D01*
X143336079Y-98928330D01*
X143350329Y-98909117D01*
X143366393Y-98891393D01*
X143384117Y-98875329D01*
X143403330Y-98861079D01*
X143423847Y-98848782D01*
X143445471Y-98838554D01*
X143467993Y-98830496D01*
X143491197Y-98824684D01*
X143514858Y-98821174D01*
X143538750Y-98820000D01*
X144026250Y-98820000D01*
X144050142Y-98821174D01*
X144050142Y-98821174D01*
G37*
D16*
X143782500Y-99520000D03*
D15*
G36*
X148110142Y-97166174D02*
X148133803Y-97169684D01*
X148157007Y-97175496D01*
X148179529Y-97183554D01*
X148201153Y-97193782D01*
X148221670Y-97206079D01*
X148240883Y-97220329D01*
X148258607Y-97236393D01*
X148274671Y-97254117D01*
X148288921Y-97273330D01*
X148301218Y-97293847D01*
X148311446Y-97315471D01*
X148319504Y-97337993D01*
X148325316Y-97361197D01*
X148328826Y-97384858D01*
X148330000Y-97408750D01*
X148330000Y-97896250D01*
X148328826Y-97920142D01*
X148325316Y-97943803D01*
X148319504Y-97967007D01*
X148311446Y-97989529D01*
X148301218Y-98011153D01*
X148288921Y-98031670D01*
X148274671Y-98050883D01*
X148258607Y-98068607D01*
X148240883Y-98084671D01*
X148221670Y-98098921D01*
X148201153Y-98111218D01*
X148179529Y-98121446D01*
X148157007Y-98129504D01*
X148133803Y-98135316D01*
X148110142Y-98138826D01*
X148086250Y-98140000D01*
X147173750Y-98140000D01*
X147149858Y-98138826D01*
X147126197Y-98135316D01*
X147102993Y-98129504D01*
X147080471Y-98121446D01*
X147058847Y-98111218D01*
X147038330Y-98098921D01*
X147019117Y-98084671D01*
X147001393Y-98068607D01*
X146985329Y-98050883D01*
X146971079Y-98031670D01*
X146958782Y-98011153D01*
X146948554Y-97989529D01*
X146940496Y-97967007D01*
X146934684Y-97943803D01*
X146931174Y-97920142D01*
X146930000Y-97896250D01*
X146930000Y-97408750D01*
X146931174Y-97384858D01*
X146934684Y-97361197D01*
X146940496Y-97337993D01*
X146948554Y-97315471D01*
X146958782Y-97293847D01*
X146971079Y-97273330D01*
X146985329Y-97254117D01*
X147001393Y-97236393D01*
X147019117Y-97220329D01*
X147038330Y-97206079D01*
X147058847Y-97193782D01*
X147080471Y-97183554D01*
X147102993Y-97175496D01*
X147126197Y-97169684D01*
X147149858Y-97166174D01*
X147173750Y-97165000D01*
X148086250Y-97165000D01*
X148110142Y-97166174D01*
X148110142Y-97166174D01*
G37*
D16*
X147630000Y-97652500D03*
D15*
G36*
X148110142Y-99041174D02*
X148133803Y-99044684D01*
X148157007Y-99050496D01*
X148179529Y-99058554D01*
X148201153Y-99068782D01*
X148221670Y-99081079D01*
X148240883Y-99095329D01*
X148258607Y-99111393D01*
X148274671Y-99129117D01*
X148288921Y-99148330D01*
X148301218Y-99168847D01*
X148311446Y-99190471D01*
X148319504Y-99212993D01*
X148325316Y-99236197D01*
X148328826Y-99259858D01*
X148330000Y-99283750D01*
X148330000Y-99771250D01*
X148328826Y-99795142D01*
X148325316Y-99818803D01*
X148319504Y-99842007D01*
X148311446Y-99864529D01*
X148301218Y-99886153D01*
X148288921Y-99906670D01*
X148274671Y-99925883D01*
X148258607Y-99943607D01*
X148240883Y-99959671D01*
X148221670Y-99973921D01*
X148201153Y-99986218D01*
X148179529Y-99996446D01*
X148157007Y-100004504D01*
X148133803Y-100010316D01*
X148110142Y-100013826D01*
X148086250Y-100015000D01*
X147173750Y-100015000D01*
X147149858Y-100013826D01*
X147126197Y-100010316D01*
X147102993Y-100004504D01*
X147080471Y-99996446D01*
X147058847Y-99986218D01*
X147038330Y-99973921D01*
X147019117Y-99959671D01*
X147001393Y-99943607D01*
X146985329Y-99925883D01*
X146971079Y-99906670D01*
X146958782Y-99886153D01*
X146948554Y-99864529D01*
X146940496Y-99842007D01*
X146934684Y-99818803D01*
X146931174Y-99795142D01*
X146930000Y-99771250D01*
X146930000Y-99283750D01*
X146931174Y-99259858D01*
X146934684Y-99236197D01*
X146940496Y-99212993D01*
X146948554Y-99190471D01*
X146958782Y-99168847D01*
X146971079Y-99148330D01*
X146985329Y-99129117D01*
X147001393Y-99111393D01*
X147019117Y-99095329D01*
X147038330Y-99081079D01*
X147058847Y-99068782D01*
X147080471Y-99058554D01*
X147102993Y-99050496D01*
X147126197Y-99044684D01*
X147149858Y-99041174D01*
X147173750Y-99040000D01*
X148086250Y-99040000D01*
X148110142Y-99041174D01*
X148110142Y-99041174D01*
G37*
D16*
X147630000Y-99527500D03*
D15*
G36*
X150110142Y-89101174D02*
X150133803Y-89104684D01*
X150157007Y-89110496D01*
X150179529Y-89118554D01*
X150201153Y-89128782D01*
X150221670Y-89141079D01*
X150240883Y-89155329D01*
X150258607Y-89171393D01*
X150274671Y-89189117D01*
X150288921Y-89208330D01*
X150301218Y-89228847D01*
X150311446Y-89250471D01*
X150319504Y-89272993D01*
X150325316Y-89296197D01*
X150328826Y-89319858D01*
X150330000Y-89343750D01*
X150330000Y-89831250D01*
X150328826Y-89855142D01*
X150325316Y-89878803D01*
X150319504Y-89902007D01*
X150311446Y-89924529D01*
X150301218Y-89946153D01*
X150288921Y-89966670D01*
X150274671Y-89985883D01*
X150258607Y-90003607D01*
X150240883Y-90019671D01*
X150221670Y-90033921D01*
X150201153Y-90046218D01*
X150179529Y-90056446D01*
X150157007Y-90064504D01*
X150133803Y-90070316D01*
X150110142Y-90073826D01*
X150086250Y-90075000D01*
X149173750Y-90075000D01*
X149149858Y-90073826D01*
X149126197Y-90070316D01*
X149102993Y-90064504D01*
X149080471Y-90056446D01*
X149058847Y-90046218D01*
X149038330Y-90033921D01*
X149019117Y-90019671D01*
X149001393Y-90003607D01*
X148985329Y-89985883D01*
X148971079Y-89966670D01*
X148958782Y-89946153D01*
X148948554Y-89924529D01*
X148940496Y-89902007D01*
X148934684Y-89878803D01*
X148931174Y-89855142D01*
X148930000Y-89831250D01*
X148930000Y-89343750D01*
X148931174Y-89319858D01*
X148934684Y-89296197D01*
X148940496Y-89272993D01*
X148948554Y-89250471D01*
X148958782Y-89228847D01*
X148971079Y-89208330D01*
X148985329Y-89189117D01*
X149001393Y-89171393D01*
X149019117Y-89155329D01*
X149038330Y-89141079D01*
X149058847Y-89128782D01*
X149080471Y-89118554D01*
X149102993Y-89110496D01*
X149126197Y-89104684D01*
X149149858Y-89101174D01*
X149173750Y-89100000D01*
X150086250Y-89100000D01*
X150110142Y-89101174D01*
X150110142Y-89101174D01*
G37*
D16*
X149630000Y-89587500D03*
D15*
G36*
X150110142Y-87226174D02*
X150133803Y-87229684D01*
X150157007Y-87235496D01*
X150179529Y-87243554D01*
X150201153Y-87253782D01*
X150221670Y-87266079D01*
X150240883Y-87280329D01*
X150258607Y-87296393D01*
X150274671Y-87314117D01*
X150288921Y-87333330D01*
X150301218Y-87353847D01*
X150311446Y-87375471D01*
X150319504Y-87397993D01*
X150325316Y-87421197D01*
X150328826Y-87444858D01*
X150330000Y-87468750D01*
X150330000Y-87956250D01*
X150328826Y-87980142D01*
X150325316Y-88003803D01*
X150319504Y-88027007D01*
X150311446Y-88049529D01*
X150301218Y-88071153D01*
X150288921Y-88091670D01*
X150274671Y-88110883D01*
X150258607Y-88128607D01*
X150240883Y-88144671D01*
X150221670Y-88158921D01*
X150201153Y-88171218D01*
X150179529Y-88181446D01*
X150157007Y-88189504D01*
X150133803Y-88195316D01*
X150110142Y-88198826D01*
X150086250Y-88200000D01*
X149173750Y-88200000D01*
X149149858Y-88198826D01*
X149126197Y-88195316D01*
X149102993Y-88189504D01*
X149080471Y-88181446D01*
X149058847Y-88171218D01*
X149038330Y-88158921D01*
X149019117Y-88144671D01*
X149001393Y-88128607D01*
X148985329Y-88110883D01*
X148971079Y-88091670D01*
X148958782Y-88071153D01*
X148948554Y-88049529D01*
X148940496Y-88027007D01*
X148934684Y-88003803D01*
X148931174Y-87980142D01*
X148930000Y-87956250D01*
X148930000Y-87468750D01*
X148931174Y-87444858D01*
X148934684Y-87421197D01*
X148940496Y-87397993D01*
X148948554Y-87375471D01*
X148958782Y-87353847D01*
X148971079Y-87333330D01*
X148985329Y-87314117D01*
X149001393Y-87296393D01*
X149019117Y-87280329D01*
X149038330Y-87266079D01*
X149058847Y-87253782D01*
X149080471Y-87243554D01*
X149102993Y-87235496D01*
X149126197Y-87229684D01*
X149149858Y-87226174D01*
X149173750Y-87225000D01*
X150086250Y-87225000D01*
X150110142Y-87226174D01*
X150110142Y-87226174D01*
G37*
D16*
X149630000Y-87712500D03*
D15*
G36*
X151770929Y-92897288D02*
X151794590Y-92900798D01*
X151817794Y-92906610D01*
X151840316Y-92914668D01*
X151861940Y-92924896D01*
X151882457Y-92937193D01*
X151901670Y-92951443D01*
X151919394Y-92967507D01*
X151935458Y-92985231D01*
X151949708Y-93004444D01*
X151962005Y-93024961D01*
X151972233Y-93046585D01*
X151980291Y-93069107D01*
X151986103Y-93092311D01*
X151989613Y-93115972D01*
X151990787Y-93139864D01*
X151990787Y-94052364D01*
X151989613Y-94076256D01*
X151986103Y-94099917D01*
X151980291Y-94123121D01*
X151972233Y-94145643D01*
X151962005Y-94167267D01*
X151949708Y-94187784D01*
X151935458Y-94206997D01*
X151919394Y-94224721D01*
X151901670Y-94240785D01*
X151882457Y-94255035D01*
X151861940Y-94267332D01*
X151840316Y-94277560D01*
X151817794Y-94285618D01*
X151794590Y-94291430D01*
X151770929Y-94294940D01*
X151747037Y-94296114D01*
X151259537Y-94296114D01*
X151235645Y-94294940D01*
X151211984Y-94291430D01*
X151188780Y-94285618D01*
X151166258Y-94277560D01*
X151144634Y-94267332D01*
X151124117Y-94255035D01*
X151104904Y-94240785D01*
X151087180Y-94224721D01*
X151071116Y-94206997D01*
X151056866Y-94187784D01*
X151044569Y-94167267D01*
X151034341Y-94145643D01*
X151026283Y-94123121D01*
X151020471Y-94099917D01*
X151016961Y-94076256D01*
X151015787Y-94052364D01*
X151015787Y-93139864D01*
X151016961Y-93115972D01*
X151020471Y-93092311D01*
X151026283Y-93069107D01*
X151034341Y-93046585D01*
X151044569Y-93024961D01*
X151056866Y-93004444D01*
X151071116Y-92985231D01*
X151087180Y-92967507D01*
X151104904Y-92951443D01*
X151124117Y-92937193D01*
X151144634Y-92924896D01*
X151166258Y-92914668D01*
X151188780Y-92906610D01*
X151211984Y-92900798D01*
X151235645Y-92897288D01*
X151259537Y-92896114D01*
X151747037Y-92896114D01*
X151770929Y-92897288D01*
X151770929Y-92897288D01*
G37*
D16*
X151503287Y-93596114D03*
D15*
G36*
X149895929Y-92897288D02*
X149919590Y-92900798D01*
X149942794Y-92906610D01*
X149965316Y-92914668D01*
X149986940Y-92924896D01*
X150007457Y-92937193D01*
X150026670Y-92951443D01*
X150044394Y-92967507D01*
X150060458Y-92985231D01*
X150074708Y-93004444D01*
X150087005Y-93024961D01*
X150097233Y-93046585D01*
X150105291Y-93069107D01*
X150111103Y-93092311D01*
X150114613Y-93115972D01*
X150115787Y-93139864D01*
X150115787Y-94052364D01*
X150114613Y-94076256D01*
X150111103Y-94099917D01*
X150105291Y-94123121D01*
X150097233Y-94145643D01*
X150087005Y-94167267D01*
X150074708Y-94187784D01*
X150060458Y-94206997D01*
X150044394Y-94224721D01*
X150026670Y-94240785D01*
X150007457Y-94255035D01*
X149986940Y-94267332D01*
X149965316Y-94277560D01*
X149942794Y-94285618D01*
X149919590Y-94291430D01*
X149895929Y-94294940D01*
X149872037Y-94296114D01*
X149384537Y-94296114D01*
X149360645Y-94294940D01*
X149336984Y-94291430D01*
X149313780Y-94285618D01*
X149291258Y-94277560D01*
X149269634Y-94267332D01*
X149249117Y-94255035D01*
X149229904Y-94240785D01*
X149212180Y-94224721D01*
X149196116Y-94206997D01*
X149181866Y-94187784D01*
X149169569Y-94167267D01*
X149159341Y-94145643D01*
X149151283Y-94123121D01*
X149145471Y-94099917D01*
X149141961Y-94076256D01*
X149140787Y-94052364D01*
X149140787Y-93139864D01*
X149141961Y-93115972D01*
X149145471Y-93092311D01*
X149151283Y-93069107D01*
X149159341Y-93046585D01*
X149169569Y-93024961D01*
X149181866Y-93004444D01*
X149196116Y-92985231D01*
X149212180Y-92967507D01*
X149229904Y-92951443D01*
X149249117Y-92937193D01*
X149269634Y-92924896D01*
X149291258Y-92914668D01*
X149313780Y-92906610D01*
X149336984Y-92900798D01*
X149360645Y-92897288D01*
X149384537Y-92896114D01*
X149872037Y-92896114D01*
X149895929Y-92897288D01*
X149895929Y-92897288D01*
G37*
D16*
X149628287Y-93596114D03*
D17*
X150050000Y-112660000D03*
X144970000Y-112660000D03*
D18*
X139890000Y-112660000D03*
D19*
X144700000Y-97420000D03*
X153300000Y-95700000D03*
X153200000Y-93600000D03*
X151500000Y-97600000D03*
X151500000Y-91600000D03*
X136500000Y-95120000D03*
X141550000Y-82320000D03*
X144880000Y-102280000D03*
X144880000Y-106770000D03*
X144880000Y-104530000D03*
X147930000Y-82330000D03*
X141000000Y-95120000D03*
X137640000Y-87190000D03*
X136370000Y-92340000D03*
X140670000Y-92340000D03*
D20*
X134930000Y-91130000D03*
X134930000Y-93530000D03*
X135110000Y-104000000D03*
X135107949Y-99600000D03*
D21*
X143775000Y-99527500D02*
X143782500Y-99520000D01*
D22*
X141830000Y-99527500D02*
X143775000Y-99527500D01*
X139890000Y-110560000D02*
X138070000Y-108740000D01*
X139890000Y-112660000D02*
X139890000Y-110560000D01*
X138070000Y-108740000D02*
X138070000Y-104530000D01*
X138070000Y-102580000D02*
X139090000Y-101560000D01*
X138070000Y-104530000D02*
X138070000Y-102580000D01*
X139090000Y-101560000D02*
X141060000Y-101560000D01*
X141060000Y-101560000D02*
X141830000Y-100790000D01*
X141830000Y-100790000D02*
X141830000Y-99527500D01*
D21*
X147622500Y-99520000D02*
X147630000Y-99527500D01*
D22*
X145657500Y-99520000D02*
X147622500Y-99520000D01*
X151710000Y-106100000D02*
X151710000Y-104530000D01*
X151710000Y-102580000D02*
X150590000Y-101460000D01*
X151710000Y-104530000D02*
X151710000Y-102580000D01*
X150590000Y-101460000D02*
X148110000Y-101460000D01*
X147630000Y-100980000D02*
X147630000Y-99527500D01*
X148110000Y-101460000D02*
X147630000Y-100980000D01*
X144970000Y-110821523D02*
X146461523Y-109330000D01*
X144970000Y-112660000D02*
X144970000Y-110821523D01*
X146461523Y-109330000D02*
X150720000Y-109330000D01*
X151710000Y-108340000D02*
X151710000Y-104530000D01*
X150720000Y-109330000D02*
X151710000Y-108340000D01*
D21*
X145797500Y-82322500D02*
X145800000Y-82325000D01*
D22*
X143660000Y-82322500D02*
X145797500Y-82322500D01*
X145800000Y-82325000D02*
X147925000Y-82325000D01*
X147925000Y-82325000D02*
X147930000Y-82330000D01*
X141552500Y-82322500D02*
X141550000Y-82320000D01*
X143660000Y-82322500D02*
X141552500Y-82322500D01*
D10*
X141405536Y-95114464D02*
X141400000Y-95120000D01*
X141005536Y-95114464D02*
X141000000Y-95120000D01*
D22*
X142370000Y-104530000D02*
X144880000Y-104530000D01*
X147410000Y-104530000D02*
X144880000Y-104530000D01*
D21*
X149638287Y-93606114D02*
X149628287Y-93596114D01*
D22*
X149638287Y-95676114D02*
X149638287Y-93606114D01*
D21*
X149628287Y-89589213D02*
X149630000Y-89587500D01*
D22*
X149628287Y-93596114D02*
X149628287Y-89589213D01*
D10*
X148008542Y-95676114D02*
X149638287Y-95676114D01*
X146671892Y-95114464D02*
X147446892Y-95114464D01*
X147446892Y-95114464D02*
X148008542Y-95676114D01*
D22*
X136360000Y-92330000D02*
X136370000Y-92340000D01*
X132690000Y-92330000D02*
X136360000Y-92330000D01*
D10*
X146671892Y-93311892D02*
X146671892Y-95114464D01*
X140580000Y-92340000D02*
X145700000Y-92340000D01*
X145700000Y-92340000D02*
X146671892Y-93311892D01*
D21*
X149438036Y-87714464D02*
X149440000Y-87712500D01*
D23*
X146585000Y-89450000D02*
X146585000Y-88275000D01*
X147147500Y-87712500D02*
X146585000Y-88275000D01*
X149630000Y-87712500D02*
X147147500Y-87712500D01*
X146585000Y-90560000D02*
X146585000Y-89450000D01*
X146205001Y-90939999D02*
X146585000Y-90560000D01*
X138860009Y-91229991D02*
X139150001Y-90939999D01*
X138860009Y-96478533D02*
X138860009Y-91229991D01*
X139150001Y-90939999D02*
X146205001Y-90939999D01*
X133950000Y-103280623D02*
X133950000Y-103770000D01*
X132690000Y-105030000D02*
X133950000Y-103770000D01*
X133950000Y-103280623D02*
X137240000Y-99990623D01*
X137240000Y-98098542D02*
X138860009Y-96478533D01*
X137240000Y-99990623D02*
X137240000Y-98098542D01*
X145315000Y-96025000D02*
X145730000Y-96440000D01*
X145315000Y-94850000D02*
X145315000Y-96025000D01*
X147630000Y-96850000D02*
X147220000Y-96440000D01*
X147630000Y-97652500D02*
X147630000Y-96850000D01*
X145730000Y-96440000D02*
X147220000Y-96440000D01*
X144045000Y-96025000D02*
X143600000Y-96470000D01*
X144045000Y-94850000D02*
X144045000Y-96025000D01*
X143600000Y-96470000D02*
X142220000Y-96470000D01*
X141830000Y-96860000D02*
X141830000Y-97652500D01*
X142220000Y-96470000D02*
X141830000Y-96860000D01*
X145800000Y-84197500D02*
X153727500Y-84197500D01*
X153727500Y-84197500D02*
X154890000Y-85360000D01*
X154890000Y-85360000D02*
X154890000Y-107190000D01*
X155270000Y-107570000D02*
X157090000Y-107570000D01*
X154890000Y-107190000D02*
X155270000Y-107570000D01*
X145800000Y-87790000D02*
X145800000Y-84197500D01*
X145315000Y-89450000D02*
X145315000Y-88275000D01*
X145315000Y-88275000D02*
X145800000Y-87790000D01*
X143660000Y-84197500D02*
X136072500Y-84197500D01*
X136072500Y-84197500D02*
X134930000Y-85340000D01*
X134930000Y-85340000D02*
X134930000Y-91130000D01*
X143660000Y-87890000D02*
X143660000Y-84197500D01*
X144045000Y-89450000D02*
X144045000Y-88275000D01*
X144045000Y-88275000D02*
X143660000Y-87890000D01*
X135107949Y-93707949D02*
X134930000Y-93530000D01*
X135107949Y-99600000D02*
X135107949Y-93707949D01*
X135110000Y-107166548D02*
X135110000Y-104000000D01*
X135111726Y-107168274D02*
X135110000Y-107166548D01*
X132690000Y-107570000D02*
X134710000Y-107570000D01*
X134710000Y-107570000D02*
X135111726Y-107168274D01*
X139791458Y-89450000D02*
X142075000Y-89450000D01*
X138260000Y-90981458D02*
X139791458Y-89450000D01*
X132690000Y-102490000D02*
X133892081Y-102490000D01*
X135910000Y-100472081D02*
X135910000Y-100470000D01*
X138260000Y-96230000D02*
X138260000Y-90981458D01*
X135910000Y-100470000D02*
X136640000Y-99740000D01*
X142075000Y-89450000D02*
X142775000Y-89450000D01*
X133892081Y-102490000D02*
X135910000Y-100472081D01*
X136640000Y-99740000D02*
X136640000Y-97850000D01*
X136640000Y-97850000D02*
X138260000Y-96230000D01*
D24*
G36*
X158459763Y-80568166D02*
X159010712Y-80760028D01*
X159505461Y-81069181D01*
X159919421Y-81480262D01*
X160232021Y-81972840D01*
X160427724Y-82522437D01*
X160500000Y-83128563D01*
X160500001Y-116852036D01*
X160431834Y-117459763D01*
X160239973Y-118010711D01*
X159930820Y-118505460D01*
X159519740Y-118919419D01*
X159027160Y-119232021D01*
X158477563Y-119427724D01*
X157871437Y-119500000D01*
X132147955Y-119500000D01*
X131540237Y-119431834D01*
X130989289Y-119239973D01*
X130494540Y-118930820D01*
X130080581Y-118519740D01*
X129767979Y-118027160D01*
X129572276Y-117477563D01*
X129500000Y-116871437D01*
X129500000Y-110529424D01*
X131345922Y-110529424D01*
X131443002Y-110763839D01*
X131788137Y-111191274D01*
X132270573Y-111454095D01*
X132486000Y-111363660D01*
X132486000Y-110314000D01*
X132894000Y-110314000D01*
X132894000Y-111363660D01*
X133109427Y-111454095D01*
X133591863Y-111191274D01*
X133936998Y-110763839D01*
X134034078Y-110529424D01*
X133941989Y-110314000D01*
X132894000Y-110314000D01*
X132486000Y-110314000D01*
X131438011Y-110314000D01*
X131345922Y-110529424D01*
X129500000Y-110529424D01*
X129500000Y-109690576D01*
X131345922Y-109690576D01*
X131438011Y-109906000D01*
X132486000Y-109906000D01*
X132486000Y-108856340D01*
X132894000Y-108856340D01*
X132894000Y-109906000D01*
X133941989Y-109906000D01*
X134034078Y-109690576D01*
X133936998Y-109456161D01*
X133591863Y-109028726D01*
X133109427Y-108765905D01*
X132894000Y-108856340D01*
X132486000Y-108856340D01*
X132270573Y-108765905D01*
X131788137Y-109028726D01*
X131443002Y-109456161D01*
X131345922Y-109690576D01*
X129500000Y-109690576D01*
X129500000Y-107570000D01*
X131568450Y-107570000D01*
X131653823Y-107999199D01*
X131896944Y-108363056D01*
X132260801Y-108606177D01*
X132581661Y-108670000D01*
X132798339Y-108670000D01*
X133119199Y-108606177D01*
X133483056Y-108363056D01*
X133712278Y-108020000D01*
X134665680Y-108020000D01*
X134710000Y-108028816D01*
X134754320Y-108020000D01*
X134754321Y-108020000D01*
X134885581Y-107993891D01*
X135034432Y-107894432D01*
X135059540Y-107856855D01*
X135398588Y-107517808D01*
X135436157Y-107492705D01*
X135461260Y-107455136D01*
X135461263Y-107455133D01*
X135535616Y-107343856D01*
X135566220Y-107190000D01*
X135570542Y-107168274D01*
X135560000Y-107115277D01*
X135560000Y-104469238D01*
X135661043Y-104368195D01*
X135760000Y-104129293D01*
X135760000Y-103870707D01*
X135661043Y-103631805D01*
X135478195Y-103448957D01*
X135311720Y-103380000D01*
X136361184Y-103380000D01*
X136361184Y-105680000D01*
X136396109Y-105855581D01*
X136495568Y-106004432D01*
X136644419Y-106103891D01*
X136820000Y-106138816D01*
X137220001Y-106138816D01*
X137220000Y-108656286D01*
X137203348Y-108740000D01*
X137220000Y-108823714D01*
X137269318Y-109071652D01*
X137457184Y-109352816D01*
X137528158Y-109400239D01*
X139029102Y-110901184D01*
X138590000Y-110901184D01*
X138414419Y-110936109D01*
X138265568Y-111035568D01*
X138166109Y-111184419D01*
X138131184Y-111360000D01*
X138131184Y-113960000D01*
X138166109Y-114135581D01*
X138265568Y-114284432D01*
X138414419Y-114383891D01*
X138590000Y-114418816D01*
X141190000Y-114418816D01*
X141365581Y-114383891D01*
X141514432Y-114284432D01*
X141613891Y-114135581D01*
X141648816Y-113960000D01*
X141648816Y-111360000D01*
X141613891Y-111184419D01*
X141514432Y-111035568D01*
X141365581Y-110936109D01*
X141190000Y-110901184D01*
X140740000Y-110901184D01*
X140740000Y-110643714D01*
X140756652Y-110560000D01*
X140700892Y-110279678D01*
X140690682Y-110228347D01*
X140502816Y-109947184D01*
X140431845Y-109899763D01*
X138920000Y-108387919D01*
X138920000Y-106138816D01*
X139320000Y-106138816D01*
X139495581Y-106103891D01*
X139644432Y-106004432D01*
X139743891Y-105855581D01*
X139778816Y-105680000D01*
X139778816Y-104873500D01*
X140562000Y-104873500D01*
X140562000Y-105790993D01*
X140646951Y-105996082D01*
X140803918Y-106153050D01*
X141009007Y-106238000D01*
X142026500Y-106238000D01*
X142166000Y-106098500D01*
X142166000Y-104734000D01*
X142574000Y-104734000D01*
X142574000Y-106098500D01*
X142713500Y-106238000D01*
X143730993Y-106238000D01*
X143936082Y-106153050D01*
X144093049Y-105996082D01*
X144178000Y-105790993D01*
X144178000Y-104873500D01*
X145602000Y-104873500D01*
X145602000Y-105790993D01*
X145686951Y-105996082D01*
X145843918Y-106153050D01*
X146049007Y-106238000D01*
X147066500Y-106238000D01*
X147206000Y-106098500D01*
X147206000Y-104734000D01*
X147614000Y-104734000D01*
X147614000Y-106098500D01*
X147753500Y-106238000D01*
X148770993Y-106238000D01*
X148976082Y-106153050D01*
X149133049Y-105996082D01*
X149218000Y-105790993D01*
X149218000Y-104873500D01*
X149078500Y-104734000D01*
X147614000Y-104734000D01*
X147206000Y-104734000D01*
X145741500Y-104734000D01*
X145602000Y-104873500D01*
X144178000Y-104873500D01*
X144038500Y-104734000D01*
X142574000Y-104734000D01*
X142166000Y-104734000D01*
X140701500Y-104734000D01*
X140562000Y-104873500D01*
X139778816Y-104873500D01*
X139778816Y-103380000D01*
X139756739Y-103269007D01*
X140562000Y-103269007D01*
X140562000Y-104186500D01*
X140701500Y-104326000D01*
X142166000Y-104326000D01*
X142166000Y-102961500D01*
X142574000Y-102961500D01*
X142574000Y-104326000D01*
X144038500Y-104326000D01*
X144178000Y-104186500D01*
X144178000Y-103269007D01*
X145602000Y-103269007D01*
X145602000Y-104186500D01*
X145741500Y-104326000D01*
X147206000Y-104326000D01*
X147206000Y-102961500D01*
X147614000Y-102961500D01*
X147614000Y-104326000D01*
X149078500Y-104326000D01*
X149218000Y-104186500D01*
X149218000Y-103269007D01*
X149133049Y-103063918D01*
X148976082Y-102906950D01*
X148770993Y-102822000D01*
X147753500Y-102822000D01*
X147614000Y-102961500D01*
X147206000Y-102961500D01*
X147066500Y-102822000D01*
X146049007Y-102822000D01*
X145843918Y-102906950D01*
X145686951Y-103063918D01*
X145602000Y-103269007D01*
X144178000Y-103269007D01*
X144093049Y-103063918D01*
X143936082Y-102906950D01*
X143730993Y-102822000D01*
X142713500Y-102822000D01*
X142574000Y-102961500D01*
X142166000Y-102961500D01*
X142026500Y-102822000D01*
X141009007Y-102822000D01*
X140803918Y-102906950D01*
X140646951Y-103063918D01*
X140562000Y-103269007D01*
X139756739Y-103269007D01*
X139743891Y-103204419D01*
X139644432Y-103055568D01*
X139495581Y-102956109D01*
X139320000Y-102921184D01*
X138930897Y-102921184D01*
X139442082Y-102410000D01*
X140976286Y-102410000D01*
X141060000Y-102426652D01*
X141143714Y-102410000D01*
X141143715Y-102410000D01*
X141391653Y-102360682D01*
X141672816Y-102172816D01*
X141720239Y-102101842D01*
X142371842Y-101450239D01*
X142442816Y-101402816D01*
X142630682Y-101121653D01*
X142680000Y-100873715D01*
X142680000Y-100873714D01*
X142696652Y-100790001D01*
X142680000Y-100706287D01*
X142680000Y-100377500D01*
X142978124Y-100377500D01*
X143041961Y-100473039D01*
X143269890Y-100625336D01*
X143538750Y-100678816D01*
X144026250Y-100678816D01*
X144295110Y-100625336D01*
X144523039Y-100473039D01*
X144675336Y-100245110D01*
X144720000Y-100020571D01*
X144764664Y-100245110D01*
X144916961Y-100473039D01*
X145144890Y-100625336D01*
X145413750Y-100678816D01*
X145901250Y-100678816D01*
X146170110Y-100625336D01*
X146398039Y-100473039D01*
X146466887Y-100370000D01*
X146780000Y-100370000D01*
X146780000Y-100896286D01*
X146763348Y-100980000D01*
X146780000Y-101063714D01*
X146829318Y-101311652D01*
X147017184Y-101592816D01*
X147088159Y-101640239D01*
X147449759Y-102001839D01*
X147497184Y-102072816D01*
X147692232Y-102203142D01*
X147778346Y-102260682D01*
X148110000Y-102326653D01*
X148193719Y-102310000D01*
X150237919Y-102310000D01*
X150849102Y-102921184D01*
X150460000Y-102921184D01*
X150284419Y-102956109D01*
X150135568Y-103055568D01*
X150036109Y-103204419D01*
X150001184Y-103380000D01*
X150001184Y-105680000D01*
X150036109Y-105855581D01*
X150135568Y-106004432D01*
X150284419Y-106103891D01*
X150460000Y-106138816D01*
X150860000Y-106138816D01*
X150860000Y-106183714D01*
X150860001Y-106183717D01*
X150860000Y-107987919D01*
X150367919Y-108480000D01*
X146545236Y-108480000D01*
X146461522Y-108463348D01*
X146377808Y-108480000D01*
X146129870Y-108529318D01*
X145848707Y-108717184D01*
X145801286Y-108788155D01*
X144428156Y-110161286D01*
X144357185Y-110208707D01*
X144309764Y-110279678D01*
X144169319Y-110489870D01*
X144103348Y-110821523D01*
X144120001Y-110905241D01*
X144120001Y-111117894D01*
X143978704Y-111176421D01*
X143486421Y-111668704D01*
X143220000Y-112311903D01*
X143220000Y-113008097D01*
X143486421Y-113651296D01*
X143978704Y-114143579D01*
X144621903Y-114410000D01*
X145318097Y-114410000D01*
X145961296Y-114143579D01*
X146068136Y-114036739D01*
X148961761Y-114036739D01*
X149108014Y-114303598D01*
X149808696Y-114538969D01*
X150546115Y-114488284D01*
X150991986Y-114303598D01*
X151138239Y-114036739D01*
X150050000Y-112948500D01*
X148961761Y-114036739D01*
X146068136Y-114036739D01*
X146453579Y-113651296D01*
X146720000Y-113008097D01*
X146720000Y-112418696D01*
X148171031Y-112418696D01*
X148221716Y-113156115D01*
X148406402Y-113601986D01*
X148673261Y-113748239D01*
X149761500Y-112660000D01*
X150338500Y-112660000D01*
X151426739Y-113748239D01*
X151693598Y-113601986D01*
X151928969Y-112901304D01*
X151878284Y-112163885D01*
X151693598Y-111718014D01*
X151426739Y-111571761D01*
X150338500Y-112660000D01*
X149761500Y-112660000D01*
X148673261Y-111571761D01*
X148406402Y-111718014D01*
X148171031Y-112418696D01*
X146720000Y-112418696D01*
X146720000Y-112311903D01*
X146453579Y-111668704D01*
X146068136Y-111283261D01*
X148961761Y-111283261D01*
X150050000Y-112371500D01*
X151138239Y-111283261D01*
X150991986Y-111016402D01*
X150291304Y-110781031D01*
X149553885Y-110831716D01*
X149108014Y-111016402D01*
X148961761Y-111283261D01*
X146068136Y-111283261D01*
X145961296Y-111176421D01*
X145859393Y-111134211D01*
X146813605Y-110180000D01*
X150636286Y-110180000D01*
X150720000Y-110196652D01*
X150803714Y-110180000D01*
X150803715Y-110180000D01*
X151051653Y-110130682D01*
X151082605Y-110110000D01*
X155968450Y-110110000D01*
X156053823Y-110539199D01*
X156296944Y-110903056D01*
X156660801Y-111146177D01*
X156981661Y-111210000D01*
X157198339Y-111210000D01*
X157519199Y-111146177D01*
X157883056Y-110903056D01*
X158126177Y-110539199D01*
X158211550Y-110110000D01*
X158126177Y-109680801D01*
X157883056Y-109316944D01*
X157519199Y-109073823D01*
X157198339Y-109010000D01*
X156981661Y-109010000D01*
X156660801Y-109073823D01*
X156296944Y-109316944D01*
X156053823Y-109680801D01*
X155968450Y-110110000D01*
X151082605Y-110110000D01*
X151332816Y-109942816D01*
X151380239Y-109871842D01*
X152251842Y-109000239D01*
X152322816Y-108952816D01*
X152510682Y-108671653D01*
X152560000Y-108423715D01*
X152560000Y-108423714D01*
X152576652Y-108340001D01*
X152560000Y-108256287D01*
X152560000Y-106138816D01*
X152960000Y-106138816D01*
X153135581Y-106103891D01*
X153284432Y-106004432D01*
X153383891Y-105855581D01*
X153418816Y-105680000D01*
X153418816Y-103380000D01*
X153383891Y-103204419D01*
X153284432Y-103055568D01*
X153135581Y-102956109D01*
X152960000Y-102921184D01*
X152560000Y-102921184D01*
X152560000Y-102663713D01*
X152576652Y-102579999D01*
X152542837Y-102410000D01*
X152510682Y-102248347D01*
X152322816Y-101967184D01*
X152251845Y-101919763D01*
X151250239Y-100918158D01*
X151202816Y-100847184D01*
X150921653Y-100659318D01*
X150673715Y-100610000D01*
X150673714Y-100610000D01*
X150590000Y-100593348D01*
X150506286Y-100610000D01*
X148480000Y-100610000D01*
X148480000Y-100336887D01*
X148583039Y-100268039D01*
X148735336Y-100040110D01*
X148788816Y-99771250D01*
X148788816Y-99283750D01*
X148735336Y-99014890D01*
X148583039Y-98786961D01*
X148355110Y-98634664D01*
X148086250Y-98581184D01*
X147173750Y-98581184D01*
X146904890Y-98634664D01*
X146852006Y-98670000D01*
X146466887Y-98670000D01*
X146398039Y-98566961D01*
X146170110Y-98414664D01*
X145901250Y-98361184D01*
X145413750Y-98361184D01*
X145144890Y-98414664D01*
X144916961Y-98566961D01*
X144764664Y-98794890D01*
X144720000Y-99019429D01*
X144675336Y-98794890D01*
X144523039Y-98566961D01*
X144295110Y-98414664D01*
X144026250Y-98361184D01*
X143538750Y-98361184D01*
X143269890Y-98414664D01*
X143041961Y-98566961D01*
X142968101Y-98677500D01*
X142619219Y-98677500D01*
X142555110Y-98634664D01*
X142286250Y-98581184D01*
X141373750Y-98581184D01*
X141104890Y-98634664D01*
X140876961Y-98786961D01*
X140724664Y-99014890D01*
X140671184Y-99283750D01*
X140671184Y-99771250D01*
X140724664Y-100040110D01*
X140876961Y-100268039D01*
X140980000Y-100336888D01*
X140980000Y-100437919D01*
X140707919Y-100710000D01*
X139173714Y-100710000D01*
X139090000Y-100693348D01*
X139006286Y-100710000D01*
X139006285Y-100710000D01*
X138758347Y-100759318D01*
X138477184Y-100947184D01*
X138429763Y-101018155D01*
X137528156Y-101919763D01*
X137457185Y-101967184D01*
X137391086Y-102066109D01*
X137269319Y-102248347D01*
X137203348Y-102580000D01*
X137220001Y-102663718D01*
X137220001Y-102921184D01*
X136820000Y-102921184D01*
X136644419Y-102956109D01*
X136495568Y-103055568D01*
X136396109Y-103204419D01*
X136361184Y-103380000D01*
X135311720Y-103380000D01*
X135239293Y-103350000D01*
X134980707Y-103350000D01*
X134741805Y-103448957D01*
X134558957Y-103631805D01*
X134460000Y-103870707D01*
X134460000Y-104129293D01*
X134558957Y-104368195D01*
X134660001Y-104469239D01*
X134660000Y-106983604D01*
X134523605Y-107120000D01*
X133712278Y-107120000D01*
X133483056Y-106776944D01*
X133119199Y-106533823D01*
X132798339Y-106470000D01*
X132581661Y-106470000D01*
X132260801Y-106533823D01*
X131896944Y-106776944D01*
X131653823Y-107140801D01*
X131568450Y-107570000D01*
X129500000Y-107570000D01*
X129500000Y-102490000D01*
X131568450Y-102490000D01*
X131653823Y-102919199D01*
X131896944Y-103283056D01*
X132260801Y-103526177D01*
X132581661Y-103590000D01*
X132798339Y-103590000D01*
X133119199Y-103526177D01*
X133483056Y-103283056D01*
X133493940Y-103266766D01*
X133491184Y-103280623D01*
X133500000Y-103324944D01*
X133500001Y-103583604D01*
X133094662Y-103988942D01*
X132798339Y-103930000D01*
X132581661Y-103930000D01*
X132260801Y-103993823D01*
X131896944Y-104236944D01*
X131653823Y-104600801D01*
X131568450Y-105030000D01*
X131653823Y-105459199D01*
X131896944Y-105823056D01*
X132260801Y-106066177D01*
X132581661Y-106130000D01*
X132798339Y-106130000D01*
X133119199Y-106066177D01*
X133483056Y-105823056D01*
X133726177Y-105459199D01*
X133811550Y-105030000D01*
X133731058Y-104625338D01*
X134236857Y-104119538D01*
X134274432Y-104094432D01*
X134373891Y-103945581D01*
X134400000Y-103814321D01*
X134408816Y-103770001D01*
X134400000Y-103725681D01*
X134400000Y-103467018D01*
X137526858Y-100340161D01*
X137564432Y-100315055D01*
X137663891Y-100166204D01*
X137690000Y-100034944D01*
X137690000Y-100034943D01*
X137698816Y-99990623D01*
X137690000Y-99946303D01*
X137690000Y-98284937D01*
X138566187Y-97408750D01*
X140875103Y-97408750D01*
X140875103Y-97896250D01*
X140913060Y-98087074D01*
X141021153Y-98248847D01*
X141182926Y-98356940D01*
X141373750Y-98394897D01*
X142286250Y-98394897D01*
X142477074Y-98356940D01*
X142638847Y-98248847D01*
X142746940Y-98087074D01*
X142784897Y-97896250D01*
X142784897Y-97408750D01*
X142746940Y-97217926D01*
X142638847Y-97056153D01*
X142477074Y-96948060D01*
X142394717Y-96931678D01*
X142406396Y-96920000D01*
X143555680Y-96920000D01*
X143600000Y-96928816D01*
X143644320Y-96920000D01*
X143644321Y-96920000D01*
X143775581Y-96893891D01*
X143924432Y-96794432D01*
X143949540Y-96756855D01*
X144331857Y-96374539D01*
X144369432Y-96349432D01*
X144468891Y-96200581D01*
X144495000Y-96069321D01*
X144503816Y-96025001D01*
X144495000Y-95980681D01*
X144495000Y-95825444D01*
X144525239Y-95805239D01*
X144580494Y-95722545D01*
X144599897Y-95625000D01*
X144599897Y-94075000D01*
X144580494Y-93977455D01*
X144525239Y-93894761D01*
X144442545Y-93839506D01*
X144345000Y-93820103D01*
X143745000Y-93820103D01*
X143647455Y-93839506D01*
X143595743Y-93874059D01*
X143548050Y-93758918D01*
X143391082Y-93601951D01*
X143185993Y-93517000D01*
X143064500Y-93517000D01*
X142925000Y-93656500D01*
X142925000Y-94646000D01*
X142999000Y-94646000D01*
X142999000Y-95054000D01*
X142925000Y-95054000D01*
X142925000Y-95074000D01*
X142625000Y-95074000D01*
X142625000Y-95054000D01*
X142056500Y-95054000D01*
X141917000Y-95193500D01*
X141917000Y-95735993D01*
X142001950Y-95941082D01*
X142096599Y-96035730D01*
X142044419Y-96046109D01*
X141895568Y-96145568D01*
X141870462Y-96183142D01*
X141543145Y-96510460D01*
X141505568Y-96535568D01*
X141406109Y-96684420D01*
X141384190Y-96794614D01*
X141371184Y-96860000D01*
X141380000Y-96904321D01*
X141380000Y-96910103D01*
X141373750Y-96910103D01*
X141182926Y-96948060D01*
X141021153Y-97056153D01*
X140913060Y-97217926D01*
X140875103Y-97408750D01*
X138566187Y-97408750D01*
X139146867Y-96828071D01*
X139184441Y-96802965D01*
X139283900Y-96654114D01*
X139310009Y-96522854D01*
X139310009Y-96522853D01*
X139318825Y-96478533D01*
X139310009Y-96434213D01*
X139310009Y-93964007D01*
X141917000Y-93964007D01*
X141917000Y-94506500D01*
X142056500Y-94646000D01*
X142625000Y-94646000D01*
X142625000Y-93656500D01*
X142485500Y-93517000D01*
X142364007Y-93517000D01*
X142158918Y-93601951D01*
X142001950Y-93758918D01*
X141917000Y-93964007D01*
X139310009Y-93964007D01*
X139310009Y-91416387D01*
X139336397Y-91389999D01*
X139852234Y-91389999D01*
X139610301Y-91631932D01*
X139420000Y-92091360D01*
X139420000Y-92588640D01*
X139610301Y-93048068D01*
X139961932Y-93399699D01*
X140421360Y-93590000D01*
X140918640Y-93590000D01*
X141378068Y-93399699D01*
X141729699Y-93048068D01*
X141733041Y-93040000D01*
X145410052Y-93040000D01*
X145971892Y-93601841D01*
X145971892Y-93743001D01*
X145960568Y-93750568D01*
X145861109Y-93899419D01*
X145846712Y-93971796D01*
X145795239Y-93894761D01*
X145712545Y-93839506D01*
X145615000Y-93820103D01*
X145015000Y-93820103D01*
X144917455Y-93839506D01*
X144834761Y-93894761D01*
X144779506Y-93977455D01*
X144760103Y-94075000D01*
X144760103Y-95625000D01*
X144779506Y-95722545D01*
X144834761Y-95805239D01*
X144865001Y-95825445D01*
X144865001Y-95980675D01*
X144856184Y-96025000D01*
X144887172Y-96180785D01*
X144891110Y-96200581D01*
X144990569Y-96349432D01*
X145028143Y-96374538D01*
X145380461Y-96726857D01*
X145405568Y-96764432D01*
X145554419Y-96863891D01*
X145685679Y-96890000D01*
X145685680Y-96890000D01*
X145730000Y-96898816D01*
X145774320Y-96890000D01*
X147033604Y-96890000D01*
X147073623Y-96930019D01*
X146982926Y-96948060D01*
X146821153Y-97056153D01*
X146713060Y-97217926D01*
X146675103Y-97408750D01*
X146675103Y-97896250D01*
X146713060Y-98087074D01*
X146821153Y-98248847D01*
X146982926Y-98356940D01*
X147173750Y-98394897D01*
X148086250Y-98394897D01*
X148277074Y-98356940D01*
X148438847Y-98248847D01*
X148546940Y-98087074D01*
X148584897Y-97896250D01*
X148584897Y-97408750D01*
X148546940Y-97217926D01*
X148438847Y-97056153D01*
X148277074Y-96948060D01*
X148086250Y-96910103D01*
X148080000Y-96910103D01*
X148080000Y-96894321D01*
X148088816Y-96850000D01*
X148053891Y-96674418D01*
X147979538Y-96563141D01*
X147979536Y-96563139D01*
X147954432Y-96525568D01*
X147916860Y-96500463D01*
X147755987Y-96339591D01*
X147939602Y-96376114D01*
X147939606Y-96376114D01*
X148008541Y-96389826D01*
X148077476Y-96376114D01*
X148740456Y-96376114D01*
X148745451Y-96401224D01*
X148897748Y-96629153D01*
X149125677Y-96781450D01*
X149394537Y-96834930D01*
X149882037Y-96834930D01*
X150150897Y-96781450D01*
X150378826Y-96629153D01*
X150470064Y-96492605D01*
X150552738Y-96692196D01*
X150709705Y-96849164D01*
X150914794Y-96934114D01*
X151169787Y-96934114D01*
X151309287Y-96794614D01*
X151309287Y-95880114D01*
X151717287Y-95880114D01*
X151717287Y-96794614D01*
X151856787Y-96934114D01*
X152111780Y-96934114D01*
X152316869Y-96849164D01*
X152473836Y-96692196D01*
X152558787Y-96487107D01*
X152558787Y-96019614D01*
X152419287Y-95880114D01*
X151717287Y-95880114D01*
X151309287Y-95880114D01*
X151289287Y-95880114D01*
X151289287Y-95472114D01*
X151309287Y-95472114D01*
X151309287Y-94557614D01*
X151299287Y-94547614D01*
X151299287Y-93800114D01*
X151707287Y-93800114D01*
X151707287Y-94714614D01*
X151717287Y-94724614D01*
X151717287Y-95472114D01*
X152419287Y-95472114D01*
X152558787Y-95332614D01*
X152558787Y-94865121D01*
X152473836Y-94660032D01*
X152444918Y-94631114D01*
X152463836Y-94612196D01*
X152548787Y-94407107D01*
X152548787Y-93939614D01*
X152409287Y-93800114D01*
X151707287Y-93800114D01*
X151299287Y-93800114D01*
X151279287Y-93800114D01*
X151279287Y-93392114D01*
X151299287Y-93392114D01*
X151299287Y-92477614D01*
X151707287Y-92477614D01*
X151707287Y-93392114D01*
X152409287Y-93392114D01*
X152548787Y-93252614D01*
X152548787Y-92785121D01*
X152463836Y-92580032D01*
X152306869Y-92423064D01*
X152101780Y-92338114D01*
X151846787Y-92338114D01*
X151707287Y-92477614D01*
X151299287Y-92477614D01*
X151159787Y-92338114D01*
X150904794Y-92338114D01*
X150699705Y-92423064D01*
X150542738Y-92580032D01*
X150478287Y-92735630D01*
X150478287Y-90398032D01*
X150583039Y-90328039D01*
X150735336Y-90100110D01*
X150788816Y-89831250D01*
X150788816Y-89343750D01*
X150735336Y-89074890D01*
X150583039Y-88846961D01*
X150355110Y-88694664D01*
X150086250Y-88641184D01*
X149173750Y-88641184D01*
X148904890Y-88694664D01*
X148676961Y-88846961D01*
X148524664Y-89074890D01*
X148471184Y-89343750D01*
X148471184Y-89831250D01*
X148524664Y-90100110D01*
X148676961Y-90328039D01*
X148778288Y-90395743D01*
X148778287Y-92806895D01*
X148735451Y-92871004D01*
X148681971Y-93139864D01*
X148681971Y-94052364D01*
X148735451Y-94321224D01*
X148788288Y-94400300D01*
X148788287Y-94886895D01*
X148745451Y-94951004D01*
X148740456Y-94976114D01*
X148298491Y-94976114D01*
X147990616Y-94668240D01*
X147951563Y-94609793D01*
X147720018Y-94455079D01*
X147515832Y-94414464D01*
X147515827Y-94414464D01*
X147446892Y-94400752D01*
X147377957Y-94414464D01*
X147371892Y-94414464D01*
X147371892Y-93380827D01*
X147385604Y-93311892D01*
X147371892Y-93242957D01*
X147371892Y-93242952D01*
X147331277Y-93038766D01*
X147219181Y-92871004D01*
X147215614Y-92865665D01*
X147215612Y-92865663D01*
X147176562Y-92807221D01*
X147118120Y-92768171D01*
X146243724Y-91893776D01*
X146204671Y-91835329D01*
X145973126Y-91680615D01*
X145768940Y-91640000D01*
X145768935Y-91640000D01*
X145700000Y-91626288D01*
X145631065Y-91640000D01*
X141733041Y-91640000D01*
X141729699Y-91631932D01*
X141487766Y-91389999D01*
X146160681Y-91389999D01*
X146205001Y-91398815D01*
X146249321Y-91389999D01*
X146249322Y-91389999D01*
X146380582Y-91363890D01*
X146529433Y-91264431D01*
X146554541Y-91226854D01*
X146871858Y-90909538D01*
X146909432Y-90884432D01*
X147008891Y-90735581D01*
X147035000Y-90604321D01*
X147035000Y-90604320D01*
X147043816Y-90560000D01*
X147035000Y-90515680D01*
X147035000Y-90425444D01*
X147065239Y-90405239D01*
X147120494Y-90322545D01*
X147139897Y-90225000D01*
X147139897Y-88675000D01*
X147120494Y-88577455D01*
X147065239Y-88494761D01*
X147035000Y-88474556D01*
X147035000Y-88461395D01*
X147333896Y-88162500D01*
X148723367Y-88162500D01*
X148821153Y-88308847D01*
X148982926Y-88416940D01*
X149173750Y-88454897D01*
X150086250Y-88454897D01*
X150277074Y-88416940D01*
X150438847Y-88308847D01*
X150546940Y-88147074D01*
X150584897Y-87956250D01*
X150584897Y-87468750D01*
X150546940Y-87277926D01*
X150438847Y-87116153D01*
X150277074Y-87008060D01*
X150086250Y-86970103D01*
X149173750Y-86970103D01*
X148982926Y-87008060D01*
X148821153Y-87116153D01*
X148723367Y-87262500D01*
X147191819Y-87262500D01*
X147147499Y-87253684D01*
X147103179Y-87262500D01*
X146971919Y-87288609D01*
X146823068Y-87388068D01*
X146797961Y-87425643D01*
X146298143Y-87925462D01*
X146260569Y-87950568D01*
X146183720Y-88065581D01*
X146161110Y-88099419D01*
X146126184Y-88275000D01*
X146135001Y-88319325D01*
X146135001Y-88474555D01*
X146104761Y-88494761D01*
X146049506Y-88577455D01*
X146030103Y-88675000D01*
X146030103Y-90225000D01*
X146049506Y-90322545D01*
X146104202Y-90404402D01*
X146018606Y-90489999D01*
X139387855Y-90489999D01*
X139977854Y-89900000D01*
X142220103Y-89900000D01*
X142220103Y-90225000D01*
X142239506Y-90322545D01*
X142294761Y-90405239D01*
X142377455Y-90460494D01*
X142475000Y-90479897D01*
X143075000Y-90479897D01*
X143172545Y-90460494D01*
X143255239Y-90405239D01*
X143310494Y-90322545D01*
X143329897Y-90225000D01*
X143329897Y-88675000D01*
X143310494Y-88577455D01*
X143255239Y-88494761D01*
X143172545Y-88439506D01*
X143075000Y-88420103D01*
X142475000Y-88420103D01*
X142377455Y-88439506D01*
X142294761Y-88494761D01*
X142239506Y-88577455D01*
X142220103Y-88675000D01*
X142220103Y-89000000D01*
X139835778Y-89000000D01*
X139791458Y-88991184D01*
X139747138Y-89000000D01*
X139747137Y-89000000D01*
X139615877Y-89026109D01*
X139467026Y-89125568D01*
X139441920Y-89163143D01*
X137973143Y-90631920D01*
X137935569Y-90657026D01*
X137910463Y-90694600D01*
X137836110Y-90805877D01*
X137801184Y-90981458D01*
X137810001Y-91025783D01*
X137810000Y-96043604D01*
X136353143Y-97500462D01*
X136315569Y-97525568D01*
X136290463Y-97563142D01*
X136216110Y-97674419D01*
X136181184Y-97850000D01*
X136190001Y-97894325D01*
X136190000Y-99553604D01*
X135623145Y-100120460D01*
X135585568Y-100145568D01*
X135556271Y-100189414D01*
X133709638Y-102036048D01*
X133483056Y-101696944D01*
X133119199Y-101453823D01*
X132798339Y-101390000D01*
X132581661Y-101390000D01*
X132260801Y-101453823D01*
X131896944Y-101696944D01*
X131653823Y-102060801D01*
X131568450Y-102490000D01*
X129500000Y-102490000D01*
X129500000Y-99950000D01*
X131568450Y-99950000D01*
X131653823Y-100379199D01*
X131896944Y-100743056D01*
X132260801Y-100986177D01*
X132581661Y-101050000D01*
X132798339Y-101050000D01*
X133119199Y-100986177D01*
X133483056Y-100743056D01*
X133726177Y-100379199D01*
X133811550Y-99950000D01*
X133726177Y-99520801D01*
X133483056Y-99156944D01*
X133119199Y-98913823D01*
X132798339Y-98850000D01*
X132581661Y-98850000D01*
X132260801Y-98913823D01*
X131896944Y-99156944D01*
X131653823Y-99520801D01*
X131568450Y-99950000D01*
X129500000Y-99950000D01*
X129500000Y-97410000D01*
X131568450Y-97410000D01*
X131653823Y-97839199D01*
X131896944Y-98203056D01*
X132260801Y-98446177D01*
X132581661Y-98510000D01*
X132798339Y-98510000D01*
X133119199Y-98446177D01*
X133483056Y-98203056D01*
X133726177Y-97839199D01*
X133811550Y-97410000D01*
X133726177Y-96980801D01*
X133483056Y-96616944D01*
X133119199Y-96373823D01*
X132798339Y-96310000D01*
X132581661Y-96310000D01*
X132260801Y-96373823D01*
X131896944Y-96616944D01*
X131653823Y-96980801D01*
X131568450Y-97410000D01*
X129500000Y-97410000D01*
X129500000Y-94870000D01*
X131568450Y-94870000D01*
X131653823Y-95299199D01*
X131896944Y-95663056D01*
X132260801Y-95906177D01*
X132581661Y-95970000D01*
X132798339Y-95970000D01*
X133119199Y-95906177D01*
X133483056Y-95663056D01*
X133726177Y-95299199D01*
X133811550Y-94870000D01*
X133726177Y-94440801D01*
X133483056Y-94076944D01*
X133119199Y-93833823D01*
X132798339Y-93770000D01*
X132581661Y-93770000D01*
X132260801Y-93833823D01*
X131896944Y-94076944D01*
X131653823Y-94440801D01*
X131568450Y-94870000D01*
X129500000Y-94870000D01*
X129500000Y-92330000D01*
X131364532Y-92330000D01*
X131465427Y-92837235D01*
X131752753Y-93267247D01*
X132182765Y-93554573D01*
X132561963Y-93630000D01*
X132818037Y-93630000D01*
X133197235Y-93554573D01*
X133627247Y-93267247D01*
X133685544Y-93180000D01*
X134371420Y-93180000D01*
X134280000Y-93400707D01*
X134280000Y-93659293D01*
X134378957Y-93898195D01*
X134561805Y-94081043D01*
X134657950Y-94120868D01*
X134657949Y-99130762D01*
X134556906Y-99231805D01*
X134457949Y-99470707D01*
X134457949Y-99729293D01*
X134556906Y-99968195D01*
X134739754Y-100151043D01*
X134978656Y-100250000D01*
X135237242Y-100250000D01*
X135476144Y-100151043D01*
X135658992Y-99968195D01*
X135757949Y-99729293D01*
X135757949Y-99470707D01*
X135658992Y-99231805D01*
X135557949Y-99130762D01*
X135557949Y-93752269D01*
X135566765Y-93707949D01*
X135564520Y-93696664D01*
X135580000Y-93659293D01*
X135580000Y-93400707D01*
X135521352Y-93259119D01*
X135661932Y-93399699D01*
X136121360Y-93590000D01*
X136618640Y-93590000D01*
X137078068Y-93399699D01*
X137429699Y-93048068D01*
X137620000Y-92588640D01*
X137620000Y-92091360D01*
X137429699Y-91631932D01*
X137078068Y-91280301D01*
X136618640Y-91090000D01*
X136121360Y-91090000D01*
X135661932Y-91280301D01*
X135507210Y-91435023D01*
X135580000Y-91259293D01*
X135580000Y-91000707D01*
X135481043Y-90761805D01*
X135380000Y-90660762D01*
X135380000Y-85526395D01*
X136258896Y-84647500D01*
X142753367Y-84647500D01*
X142851153Y-84793847D01*
X143012926Y-84901940D01*
X143203750Y-84939897D01*
X143210001Y-84939897D01*
X143210000Y-87845680D01*
X143201184Y-87890000D01*
X143210000Y-87934320D01*
X143236109Y-88065580D01*
X143335568Y-88214432D01*
X143373145Y-88239540D01*
X143595001Y-88461396D01*
X143595001Y-88474555D01*
X143564761Y-88494761D01*
X143509506Y-88577455D01*
X143490103Y-88675000D01*
X143490103Y-90225000D01*
X143509506Y-90322545D01*
X143564761Y-90405239D01*
X143647455Y-90460494D01*
X143745000Y-90479897D01*
X144345000Y-90479897D01*
X144442545Y-90460494D01*
X144525239Y-90405239D01*
X144580494Y-90322545D01*
X144599897Y-90225000D01*
X144599897Y-88675000D01*
X144760103Y-88675000D01*
X144760103Y-90225000D01*
X144779506Y-90322545D01*
X144834761Y-90405239D01*
X144917455Y-90460494D01*
X145015000Y-90479897D01*
X145615000Y-90479897D01*
X145712545Y-90460494D01*
X145795239Y-90405239D01*
X145850494Y-90322545D01*
X145869897Y-90225000D01*
X145869897Y-88675000D01*
X145850494Y-88577455D01*
X145795239Y-88494761D01*
X145765000Y-88474556D01*
X145765000Y-88461396D01*
X146086860Y-88139536D01*
X146124432Y-88114432D01*
X146149536Y-88076861D01*
X146149538Y-88076859D01*
X146223891Y-87965582D01*
X146258816Y-87790000D01*
X146250000Y-87745679D01*
X146250000Y-84939897D01*
X146256250Y-84939897D01*
X146447074Y-84901940D01*
X146608847Y-84793847D01*
X146706633Y-84647500D01*
X153541105Y-84647500D01*
X154440000Y-85546396D01*
X154440001Y-107145675D01*
X154431184Y-107190000D01*
X154449712Y-107283142D01*
X154466110Y-107365581D01*
X154565569Y-107514432D01*
X154603143Y-107539538D01*
X154920461Y-107856857D01*
X154945568Y-107894432D01*
X155094419Y-107993891D01*
X155225679Y-108020000D01*
X155269999Y-108028816D01*
X155314319Y-108020000D01*
X156067722Y-108020000D01*
X156296944Y-108363056D01*
X156660801Y-108606177D01*
X156981661Y-108670000D01*
X157198339Y-108670000D01*
X157519199Y-108606177D01*
X157883056Y-108363056D01*
X158126177Y-107999199D01*
X158211550Y-107570000D01*
X158126177Y-107140801D01*
X157883056Y-106776944D01*
X157519199Y-106533823D01*
X157198339Y-106470000D01*
X156981661Y-106470000D01*
X156660801Y-106533823D01*
X156296944Y-106776944D01*
X156067722Y-107120000D01*
X155456396Y-107120000D01*
X155340000Y-107003605D01*
X155340000Y-105030000D01*
X155968450Y-105030000D01*
X156053823Y-105459199D01*
X156296944Y-105823056D01*
X156660801Y-106066177D01*
X156981661Y-106130000D01*
X157198339Y-106130000D01*
X157519199Y-106066177D01*
X157883056Y-105823056D01*
X158126177Y-105459199D01*
X158211550Y-105030000D01*
X158126177Y-104600801D01*
X157883056Y-104236944D01*
X157519199Y-103993823D01*
X157198339Y-103930000D01*
X156981661Y-103930000D01*
X156660801Y-103993823D01*
X156296944Y-104236944D01*
X156053823Y-104600801D01*
X155968450Y-105030000D01*
X155340000Y-105030000D01*
X155340000Y-102490000D01*
X155968450Y-102490000D01*
X156053823Y-102919199D01*
X156296944Y-103283056D01*
X156660801Y-103526177D01*
X156981661Y-103590000D01*
X157198339Y-103590000D01*
X157519199Y-103526177D01*
X157883056Y-103283056D01*
X158126177Y-102919199D01*
X158211550Y-102490000D01*
X158126177Y-102060801D01*
X157883056Y-101696944D01*
X157519199Y-101453823D01*
X157198339Y-101390000D01*
X156981661Y-101390000D01*
X156660801Y-101453823D01*
X156296944Y-101696944D01*
X156053823Y-102060801D01*
X155968450Y-102490000D01*
X155340000Y-102490000D01*
X155340000Y-97410000D01*
X155968450Y-97410000D01*
X156053823Y-97839199D01*
X156296944Y-98203056D01*
X156660801Y-98446177D01*
X156981661Y-98510000D01*
X157198339Y-98510000D01*
X157519199Y-98446177D01*
X157883056Y-98203056D01*
X158126177Y-97839199D01*
X158211550Y-97410000D01*
X158126177Y-96980801D01*
X157883056Y-96616944D01*
X157519199Y-96373823D01*
X157198339Y-96310000D01*
X156981661Y-96310000D01*
X156660801Y-96373823D01*
X156296944Y-96616944D01*
X156053823Y-96980801D01*
X155968450Y-97410000D01*
X155340000Y-97410000D01*
X155340000Y-94870000D01*
X155968450Y-94870000D01*
X156053823Y-95299199D01*
X156296944Y-95663056D01*
X156660801Y-95906177D01*
X156981661Y-95970000D01*
X157198339Y-95970000D01*
X157519199Y-95906177D01*
X157883056Y-95663056D01*
X158126177Y-95299199D01*
X158211550Y-94870000D01*
X158126177Y-94440801D01*
X157883056Y-94076944D01*
X157519199Y-93833823D01*
X157198339Y-93770000D01*
X156981661Y-93770000D01*
X156660801Y-93833823D01*
X156296944Y-94076944D01*
X156053823Y-94440801D01*
X155968450Y-94870000D01*
X155340000Y-94870000D01*
X155340000Y-92330000D01*
X155968450Y-92330000D01*
X156053823Y-92759199D01*
X156296944Y-93123056D01*
X156660801Y-93366177D01*
X156981661Y-93430000D01*
X157198339Y-93430000D01*
X157519199Y-93366177D01*
X157883056Y-93123056D01*
X158126177Y-92759199D01*
X158211550Y-92330000D01*
X158126177Y-91900801D01*
X157883056Y-91536944D01*
X157519199Y-91293823D01*
X157198339Y-91230000D01*
X156981661Y-91230000D01*
X156660801Y-91293823D01*
X156296944Y-91536944D01*
X156053823Y-91900801D01*
X155968450Y-92330000D01*
X155340000Y-92330000D01*
X155340000Y-90209424D01*
X155745922Y-90209424D01*
X155843002Y-90443839D01*
X156188137Y-90871274D01*
X156670573Y-91134095D01*
X156886000Y-91043660D01*
X156886000Y-89994000D01*
X157294000Y-89994000D01*
X157294000Y-91043660D01*
X157509427Y-91134095D01*
X157991863Y-90871274D01*
X158336998Y-90443839D01*
X158434078Y-90209424D01*
X158341989Y-89994000D01*
X157294000Y-89994000D01*
X156886000Y-89994000D01*
X155838011Y-89994000D01*
X155745922Y-90209424D01*
X155340000Y-90209424D01*
X155340000Y-89370576D01*
X155745922Y-89370576D01*
X155838011Y-89586000D01*
X156886000Y-89586000D01*
X156886000Y-88536340D01*
X157294000Y-88536340D01*
X157294000Y-89586000D01*
X158341989Y-89586000D01*
X158434078Y-89370576D01*
X158336998Y-89136161D01*
X157991863Y-88708726D01*
X157509427Y-88445905D01*
X157294000Y-88536340D01*
X156886000Y-88536340D01*
X156670573Y-88445905D01*
X156188137Y-88708726D01*
X155843002Y-89136161D01*
X155745922Y-89370576D01*
X155340000Y-89370576D01*
X155340000Y-85404316D01*
X155348815Y-85359999D01*
X155340000Y-85315683D01*
X155340000Y-85315679D01*
X155313891Y-85184419D01*
X155214432Y-85035568D01*
X155176858Y-85010462D01*
X154077040Y-83910645D01*
X154051932Y-83873068D01*
X153903081Y-83773609D01*
X153771821Y-83747500D01*
X153771820Y-83747500D01*
X153727500Y-83738684D01*
X153683180Y-83747500D01*
X146706633Y-83747500D01*
X146608847Y-83601153D01*
X146447074Y-83493060D01*
X146256250Y-83455103D01*
X145343750Y-83455103D01*
X145152926Y-83493060D01*
X144991153Y-83601153D01*
X144883060Y-83762926D01*
X144845103Y-83953750D01*
X144845103Y-84441250D01*
X144883060Y-84632074D01*
X144991153Y-84793847D01*
X145152926Y-84901940D01*
X145343750Y-84939897D01*
X145350001Y-84939897D01*
X145350000Y-87603604D01*
X145028143Y-87925462D01*
X144990569Y-87950568D01*
X144913720Y-88065581D01*
X144891110Y-88099419D01*
X144856184Y-88275000D01*
X144865001Y-88319325D01*
X144865001Y-88474555D01*
X144834761Y-88494761D01*
X144779506Y-88577455D01*
X144760103Y-88675000D01*
X144599897Y-88675000D01*
X144580494Y-88577455D01*
X144525239Y-88494761D01*
X144495000Y-88474556D01*
X144495000Y-88319316D01*
X144503815Y-88274999D01*
X144495000Y-88230683D01*
X144495000Y-88230679D01*
X144468891Y-88099419D01*
X144369432Y-87950568D01*
X144331857Y-87925461D01*
X144110000Y-87703605D01*
X144110000Y-84939897D01*
X144116250Y-84939897D01*
X144307074Y-84901940D01*
X144468847Y-84793847D01*
X144576940Y-84632074D01*
X144614897Y-84441250D01*
X144614897Y-83953750D01*
X144576940Y-83762926D01*
X144468847Y-83601153D01*
X144307074Y-83493060D01*
X144116250Y-83455103D01*
X143203750Y-83455103D01*
X143012926Y-83493060D01*
X142851153Y-83601153D01*
X142753367Y-83747500D01*
X136116820Y-83747500D01*
X136072500Y-83738684D01*
X136028180Y-83747500D01*
X136028179Y-83747500D01*
X135896919Y-83773609D01*
X135748068Y-83873068D01*
X135722962Y-83910643D01*
X134643145Y-84990460D01*
X134605568Y-85015568D01*
X134506109Y-85164420D01*
X134502131Y-85184420D01*
X134471184Y-85340000D01*
X134480000Y-85384320D01*
X134480001Y-90660761D01*
X134378957Y-90761805D01*
X134280000Y-91000707D01*
X134280000Y-91259293D01*
X134371420Y-91480000D01*
X133685544Y-91480000D01*
X133627247Y-91392753D01*
X133197235Y-91105427D01*
X132818037Y-91030000D01*
X132561963Y-91030000D01*
X132182765Y-91105427D01*
X131752753Y-91392753D01*
X131465427Y-91822765D01*
X131364532Y-92330000D01*
X129500000Y-92330000D01*
X129500000Y-88940000D01*
X131585103Y-88940000D01*
X131585103Y-90640000D01*
X131604506Y-90737545D01*
X131659761Y-90820239D01*
X131742455Y-90875494D01*
X131840000Y-90894897D01*
X133540000Y-90894897D01*
X133637545Y-90875494D01*
X133720239Y-90820239D01*
X133775494Y-90737545D01*
X133794897Y-90640000D01*
X133794897Y-88940000D01*
X133775494Y-88842455D01*
X133720239Y-88759761D01*
X133637545Y-88704506D01*
X133540000Y-88685103D01*
X131840000Y-88685103D01*
X131742455Y-88704506D01*
X131659761Y-88759761D01*
X131604506Y-88842455D01*
X131585103Y-88940000D01*
X129500000Y-88940000D01*
X129500000Y-83147954D01*
X129554059Y-82666000D01*
X142402000Y-82666000D01*
X142402000Y-82920993D01*
X142486950Y-83126082D01*
X142643918Y-83283049D01*
X142849007Y-83368000D01*
X143316500Y-83368000D01*
X143456000Y-83228500D01*
X143456000Y-82526500D01*
X143864000Y-82526500D01*
X143864000Y-83228500D01*
X144003500Y-83368000D01*
X144470993Y-83368000D01*
X144676082Y-83283049D01*
X144730000Y-83229131D01*
X144783918Y-83283049D01*
X144989007Y-83368000D01*
X145456500Y-83368000D01*
X145596000Y-83228500D01*
X145596000Y-82526500D01*
X146004000Y-82526500D01*
X146004000Y-83228500D01*
X146143500Y-83368000D01*
X146610993Y-83368000D01*
X146816082Y-83283049D01*
X146973050Y-83126082D01*
X147058000Y-82920993D01*
X147058000Y-82666000D01*
X146918500Y-82526500D01*
X146004000Y-82526500D01*
X145596000Y-82526500D01*
X143864000Y-82526500D01*
X143456000Y-82526500D01*
X142541500Y-82526500D01*
X142402000Y-82666000D01*
X129554059Y-82666000D01*
X129568166Y-82540237D01*
X129760028Y-81989288D01*
X129925793Y-81724007D01*
X142402000Y-81724007D01*
X142402000Y-81979000D01*
X142541500Y-82118500D01*
X143456000Y-82118500D01*
X143456000Y-81416500D01*
X143864000Y-81416500D01*
X143864000Y-82118500D01*
X145596000Y-82118500D01*
X145596000Y-81416500D01*
X146004000Y-81416500D01*
X146004000Y-82118500D01*
X146918500Y-82118500D01*
X147058000Y-81979000D01*
X147058000Y-81724007D01*
X146973050Y-81518918D01*
X146816082Y-81361951D01*
X146610993Y-81277000D01*
X146143500Y-81277000D01*
X146004000Y-81416500D01*
X145596000Y-81416500D01*
X145456500Y-81277000D01*
X144989007Y-81277000D01*
X144783918Y-81361951D01*
X144730000Y-81415869D01*
X144676082Y-81361951D01*
X144470993Y-81277000D01*
X144003500Y-81277000D01*
X143864000Y-81416500D01*
X143456000Y-81416500D01*
X143316500Y-81277000D01*
X142849007Y-81277000D01*
X142643918Y-81361951D01*
X142486950Y-81518918D01*
X142402000Y-81724007D01*
X129925793Y-81724007D01*
X130069181Y-81494539D01*
X130480262Y-81080579D01*
X130972840Y-80767979D01*
X131522437Y-80572276D01*
X132128563Y-80500000D01*
X157852046Y-80500000D01*
X158459763Y-80568166D01*
X158459763Y-80568166D01*
G37*
X158459763Y-80568166D02*
X159010712Y-80760028D01*
X159505461Y-81069181D01*
X159919421Y-81480262D01*
X160232021Y-81972840D01*
X160427724Y-82522437D01*
X160500000Y-83128563D01*
X160500001Y-116852036D01*
X160431834Y-117459763D01*
X160239973Y-118010711D01*
X159930820Y-118505460D01*
X159519740Y-118919419D01*
X159027160Y-119232021D01*
X158477563Y-119427724D01*
X157871437Y-119500000D01*
X132147955Y-119500000D01*
X131540237Y-119431834D01*
X130989289Y-119239973D01*
X130494540Y-118930820D01*
X130080581Y-118519740D01*
X129767979Y-118027160D01*
X129572276Y-117477563D01*
X129500000Y-116871437D01*
X129500000Y-110529424D01*
X131345922Y-110529424D01*
X131443002Y-110763839D01*
X131788137Y-111191274D01*
X132270573Y-111454095D01*
X132486000Y-111363660D01*
X132486000Y-110314000D01*
X132894000Y-110314000D01*
X132894000Y-111363660D01*
X133109427Y-111454095D01*
X133591863Y-111191274D01*
X133936998Y-110763839D01*
X134034078Y-110529424D01*
X133941989Y-110314000D01*
X132894000Y-110314000D01*
X132486000Y-110314000D01*
X131438011Y-110314000D01*
X131345922Y-110529424D01*
X129500000Y-110529424D01*
X129500000Y-109690576D01*
X131345922Y-109690576D01*
X131438011Y-109906000D01*
X132486000Y-109906000D01*
X132486000Y-108856340D01*
X132894000Y-108856340D01*
X132894000Y-109906000D01*
X133941989Y-109906000D01*
X134034078Y-109690576D01*
X133936998Y-109456161D01*
X133591863Y-109028726D01*
X133109427Y-108765905D01*
X132894000Y-108856340D01*
X132486000Y-108856340D01*
X132270573Y-108765905D01*
X131788137Y-109028726D01*
X131443002Y-109456161D01*
X131345922Y-109690576D01*
X129500000Y-109690576D01*
X129500000Y-107570000D01*
X131568450Y-107570000D01*
X131653823Y-107999199D01*
X131896944Y-108363056D01*
X132260801Y-108606177D01*
X132581661Y-108670000D01*
X132798339Y-108670000D01*
X133119199Y-108606177D01*
X133483056Y-108363056D01*
X133712278Y-108020000D01*
X134665680Y-108020000D01*
X134710000Y-108028816D01*
X134754320Y-108020000D01*
X134754321Y-108020000D01*
X134885581Y-107993891D01*
X135034432Y-107894432D01*
X135059540Y-107856855D01*
X135398588Y-107517808D01*
X135436157Y-107492705D01*
X135461260Y-107455136D01*
X135461263Y-107455133D01*
X135535616Y-107343856D01*
X135566220Y-107190000D01*
X135570542Y-107168274D01*
X135560000Y-107115277D01*
X135560000Y-104469238D01*
X135661043Y-104368195D01*
X135760000Y-104129293D01*
X135760000Y-103870707D01*
X135661043Y-103631805D01*
X135478195Y-103448957D01*
X135311720Y-103380000D01*
X136361184Y-103380000D01*
X136361184Y-105680000D01*
X136396109Y-105855581D01*
X136495568Y-106004432D01*
X136644419Y-106103891D01*
X136820000Y-106138816D01*
X137220001Y-106138816D01*
X137220000Y-108656286D01*
X137203348Y-108740000D01*
X137220000Y-108823714D01*
X137269318Y-109071652D01*
X137457184Y-109352816D01*
X137528158Y-109400239D01*
X139029102Y-110901184D01*
X138590000Y-110901184D01*
X138414419Y-110936109D01*
X138265568Y-111035568D01*
X138166109Y-111184419D01*
X138131184Y-111360000D01*
X138131184Y-113960000D01*
X138166109Y-114135581D01*
X138265568Y-114284432D01*
X138414419Y-114383891D01*
X138590000Y-114418816D01*
X141190000Y-114418816D01*
X141365581Y-114383891D01*
X141514432Y-114284432D01*
X141613891Y-114135581D01*
X141648816Y-113960000D01*
X141648816Y-111360000D01*
X141613891Y-111184419D01*
X141514432Y-111035568D01*
X141365581Y-110936109D01*
X141190000Y-110901184D01*
X140740000Y-110901184D01*
X140740000Y-110643714D01*
X140756652Y-110560000D01*
X140700892Y-110279678D01*
X140690682Y-110228347D01*
X140502816Y-109947184D01*
X140431845Y-109899763D01*
X138920000Y-108387919D01*
X138920000Y-106138816D01*
X139320000Y-106138816D01*
X139495581Y-106103891D01*
X139644432Y-106004432D01*
X139743891Y-105855581D01*
X139778816Y-105680000D01*
X139778816Y-104873500D01*
X140562000Y-104873500D01*
X140562000Y-105790993D01*
X140646951Y-105996082D01*
X140803918Y-106153050D01*
X141009007Y-106238000D01*
X142026500Y-106238000D01*
X142166000Y-106098500D01*
X142166000Y-104734000D01*
X142574000Y-104734000D01*
X142574000Y-106098500D01*
X142713500Y-106238000D01*
X143730993Y-106238000D01*
X143936082Y-106153050D01*
X144093049Y-105996082D01*
X144178000Y-105790993D01*
X144178000Y-104873500D01*
X145602000Y-104873500D01*
X145602000Y-105790993D01*
X145686951Y-105996082D01*
X145843918Y-106153050D01*
X146049007Y-106238000D01*
X147066500Y-106238000D01*
X147206000Y-106098500D01*
X147206000Y-104734000D01*
X147614000Y-104734000D01*
X147614000Y-106098500D01*
X147753500Y-106238000D01*
X148770993Y-106238000D01*
X148976082Y-106153050D01*
X149133049Y-105996082D01*
X149218000Y-105790993D01*
X149218000Y-104873500D01*
X149078500Y-104734000D01*
X147614000Y-104734000D01*
X147206000Y-104734000D01*
X145741500Y-104734000D01*
X145602000Y-104873500D01*
X144178000Y-104873500D01*
X144038500Y-104734000D01*
X142574000Y-104734000D01*
X142166000Y-104734000D01*
X140701500Y-104734000D01*
X140562000Y-104873500D01*
X139778816Y-104873500D01*
X139778816Y-103380000D01*
X139756739Y-103269007D01*
X140562000Y-103269007D01*
X140562000Y-104186500D01*
X140701500Y-104326000D01*
X142166000Y-104326000D01*
X142166000Y-102961500D01*
X142574000Y-102961500D01*
X142574000Y-104326000D01*
X144038500Y-104326000D01*
X144178000Y-104186500D01*
X144178000Y-103269007D01*
X145602000Y-103269007D01*
X145602000Y-104186500D01*
X145741500Y-104326000D01*
X147206000Y-104326000D01*
X147206000Y-102961500D01*
X147614000Y-102961500D01*
X147614000Y-104326000D01*
X149078500Y-104326000D01*
X149218000Y-104186500D01*
X149218000Y-103269007D01*
X149133049Y-103063918D01*
X148976082Y-102906950D01*
X148770993Y-102822000D01*
X147753500Y-102822000D01*
X147614000Y-102961500D01*
X147206000Y-102961500D01*
X147066500Y-102822000D01*
X146049007Y-102822000D01*
X145843918Y-102906950D01*
X145686951Y-103063918D01*
X145602000Y-103269007D01*
X144178000Y-103269007D01*
X144093049Y-103063918D01*
X143936082Y-102906950D01*
X143730993Y-102822000D01*
X142713500Y-102822000D01*
X142574000Y-102961500D01*
X142166000Y-102961500D01*
X142026500Y-102822000D01*
X141009007Y-102822000D01*
X140803918Y-102906950D01*
X140646951Y-103063918D01*
X140562000Y-103269007D01*
X139756739Y-103269007D01*
X139743891Y-103204419D01*
X139644432Y-103055568D01*
X139495581Y-102956109D01*
X139320000Y-102921184D01*
X138930897Y-102921184D01*
X139442082Y-102410000D01*
X140976286Y-102410000D01*
X141060000Y-102426652D01*
X141143714Y-102410000D01*
X141143715Y-102410000D01*
X141391653Y-102360682D01*
X141672816Y-102172816D01*
X141720239Y-102101842D01*
X142371842Y-101450239D01*
X142442816Y-101402816D01*
X142630682Y-101121653D01*
X142680000Y-100873715D01*
X142680000Y-100873714D01*
X142696652Y-100790001D01*
X142680000Y-100706287D01*
X142680000Y-100377500D01*
X142978124Y-100377500D01*
X143041961Y-100473039D01*
X143269890Y-100625336D01*
X143538750Y-100678816D01*
X144026250Y-100678816D01*
X144295110Y-100625336D01*
X144523039Y-100473039D01*
X144675336Y-100245110D01*
X144720000Y-100020571D01*
X144764664Y-100245110D01*
X144916961Y-100473039D01*
X145144890Y-100625336D01*
X145413750Y-100678816D01*
X145901250Y-100678816D01*
X146170110Y-100625336D01*
X146398039Y-100473039D01*
X146466887Y-100370000D01*
X146780000Y-100370000D01*
X146780000Y-100896286D01*
X146763348Y-100980000D01*
X146780000Y-101063714D01*
X146829318Y-101311652D01*
X147017184Y-101592816D01*
X147088159Y-101640239D01*
X147449759Y-102001839D01*
X147497184Y-102072816D01*
X147692232Y-102203142D01*
X147778346Y-102260682D01*
X148110000Y-102326653D01*
X148193719Y-102310000D01*
X150237919Y-102310000D01*
X150849102Y-102921184D01*
X150460000Y-102921184D01*
X150284419Y-102956109D01*
X150135568Y-103055568D01*
X150036109Y-103204419D01*
X150001184Y-103380000D01*
X150001184Y-105680000D01*
X150036109Y-105855581D01*
X150135568Y-106004432D01*
X150284419Y-106103891D01*
X150460000Y-106138816D01*
X150860000Y-106138816D01*
X150860000Y-106183714D01*
X150860001Y-106183717D01*
X150860000Y-107987919D01*
X150367919Y-108480000D01*
X146545236Y-108480000D01*
X146461522Y-108463348D01*
X146377808Y-108480000D01*
X146129870Y-108529318D01*
X145848707Y-108717184D01*
X145801286Y-108788155D01*
X144428156Y-110161286D01*
X144357185Y-110208707D01*
X144309764Y-110279678D01*
X144169319Y-110489870D01*
X144103348Y-110821523D01*
X144120001Y-110905241D01*
X144120001Y-111117894D01*
X143978704Y-111176421D01*
X143486421Y-111668704D01*
X143220000Y-112311903D01*
X143220000Y-113008097D01*
X143486421Y-113651296D01*
X143978704Y-114143579D01*
X144621903Y-114410000D01*
X145318097Y-114410000D01*
X145961296Y-114143579D01*
X146068136Y-114036739D01*
X148961761Y-114036739D01*
X149108014Y-114303598D01*
X149808696Y-114538969D01*
X150546115Y-114488284D01*
X150991986Y-114303598D01*
X151138239Y-114036739D01*
X150050000Y-112948500D01*
X148961761Y-114036739D01*
X146068136Y-114036739D01*
X146453579Y-113651296D01*
X146720000Y-113008097D01*
X146720000Y-112418696D01*
X148171031Y-112418696D01*
X148221716Y-113156115D01*
X148406402Y-113601986D01*
X148673261Y-113748239D01*
X149761500Y-112660000D01*
X150338500Y-112660000D01*
X151426739Y-113748239D01*
X151693598Y-113601986D01*
X151928969Y-112901304D01*
X151878284Y-112163885D01*
X151693598Y-111718014D01*
X151426739Y-111571761D01*
X150338500Y-112660000D01*
X149761500Y-112660000D01*
X148673261Y-111571761D01*
X148406402Y-111718014D01*
X148171031Y-112418696D01*
X146720000Y-112418696D01*
X146720000Y-112311903D01*
X146453579Y-111668704D01*
X146068136Y-111283261D01*
X148961761Y-111283261D01*
X150050000Y-112371500D01*
X151138239Y-111283261D01*
X150991986Y-111016402D01*
X150291304Y-110781031D01*
X149553885Y-110831716D01*
X149108014Y-111016402D01*
X148961761Y-111283261D01*
X146068136Y-111283261D01*
X145961296Y-111176421D01*
X145859393Y-111134211D01*
X146813605Y-110180000D01*
X150636286Y-110180000D01*
X150720000Y-110196652D01*
X150803714Y-110180000D01*
X150803715Y-110180000D01*
X151051653Y-110130682D01*
X151082605Y-110110000D01*
X155968450Y-110110000D01*
X156053823Y-110539199D01*
X156296944Y-110903056D01*
X156660801Y-111146177D01*
X156981661Y-111210000D01*
X157198339Y-111210000D01*
X157519199Y-111146177D01*
X157883056Y-110903056D01*
X158126177Y-110539199D01*
X158211550Y-110110000D01*
X158126177Y-109680801D01*
X157883056Y-109316944D01*
X157519199Y-109073823D01*
X157198339Y-109010000D01*
X156981661Y-109010000D01*
X156660801Y-109073823D01*
X156296944Y-109316944D01*
X156053823Y-109680801D01*
X155968450Y-110110000D01*
X151082605Y-110110000D01*
X151332816Y-109942816D01*
X151380239Y-109871842D01*
X152251842Y-109000239D01*
X152322816Y-108952816D01*
X152510682Y-108671653D01*
X152560000Y-108423715D01*
X152560000Y-108423714D01*
X152576652Y-108340001D01*
X152560000Y-108256287D01*
X152560000Y-106138816D01*
X152960000Y-106138816D01*
X153135581Y-106103891D01*
X153284432Y-106004432D01*
X153383891Y-105855581D01*
X153418816Y-105680000D01*
X153418816Y-103380000D01*
X153383891Y-103204419D01*
X153284432Y-103055568D01*
X153135581Y-102956109D01*
X152960000Y-102921184D01*
X152560000Y-102921184D01*
X152560000Y-102663713D01*
X152576652Y-102579999D01*
X152542837Y-102410000D01*
X152510682Y-102248347D01*
X152322816Y-101967184D01*
X152251845Y-101919763D01*
X151250239Y-100918158D01*
X151202816Y-100847184D01*
X150921653Y-100659318D01*
X150673715Y-100610000D01*
X150673714Y-100610000D01*
X150590000Y-100593348D01*
X150506286Y-100610000D01*
X148480000Y-100610000D01*
X148480000Y-100336887D01*
X148583039Y-100268039D01*
X148735336Y-100040110D01*
X148788816Y-99771250D01*
X148788816Y-99283750D01*
X148735336Y-99014890D01*
X148583039Y-98786961D01*
X148355110Y-98634664D01*
X148086250Y-98581184D01*
X147173750Y-98581184D01*
X146904890Y-98634664D01*
X146852006Y-98670000D01*
X146466887Y-98670000D01*
X146398039Y-98566961D01*
X146170110Y-98414664D01*
X145901250Y-98361184D01*
X145413750Y-98361184D01*
X145144890Y-98414664D01*
X144916961Y-98566961D01*
X144764664Y-98794890D01*
X144720000Y-99019429D01*
X144675336Y-98794890D01*
X144523039Y-98566961D01*
X144295110Y-98414664D01*
X144026250Y-98361184D01*
X143538750Y-98361184D01*
X143269890Y-98414664D01*
X143041961Y-98566961D01*
X142968101Y-98677500D01*
X142619219Y-98677500D01*
X142555110Y-98634664D01*
X142286250Y-98581184D01*
X141373750Y-98581184D01*
X141104890Y-98634664D01*
X140876961Y-98786961D01*
X140724664Y-99014890D01*
X140671184Y-99283750D01*
X140671184Y-99771250D01*
X140724664Y-100040110D01*
X140876961Y-100268039D01*
X140980000Y-100336888D01*
X140980000Y-100437919D01*
X140707919Y-100710000D01*
X139173714Y-100710000D01*
X139090000Y-100693348D01*
X139006286Y-100710000D01*
X139006285Y-100710000D01*
X138758347Y-100759318D01*
X138477184Y-100947184D01*
X138429763Y-101018155D01*
X137528156Y-101919763D01*
X137457185Y-101967184D01*
X137391086Y-102066109D01*
X137269319Y-102248347D01*
X137203348Y-102580000D01*
X137220001Y-102663718D01*
X137220001Y-102921184D01*
X136820000Y-102921184D01*
X136644419Y-102956109D01*
X136495568Y-103055568D01*
X136396109Y-103204419D01*
X136361184Y-103380000D01*
X135311720Y-103380000D01*
X135239293Y-103350000D01*
X134980707Y-103350000D01*
X134741805Y-103448957D01*
X134558957Y-103631805D01*
X134460000Y-103870707D01*
X134460000Y-104129293D01*
X134558957Y-104368195D01*
X134660001Y-104469239D01*
X134660000Y-106983604D01*
X134523605Y-107120000D01*
X133712278Y-107120000D01*
X133483056Y-106776944D01*
X133119199Y-106533823D01*
X132798339Y-106470000D01*
X132581661Y-106470000D01*
X132260801Y-106533823D01*
X131896944Y-106776944D01*
X131653823Y-107140801D01*
X131568450Y-107570000D01*
X129500000Y-107570000D01*
X129500000Y-102490000D01*
X131568450Y-102490000D01*
X131653823Y-102919199D01*
X131896944Y-103283056D01*
X132260801Y-103526177D01*
X132581661Y-103590000D01*
X132798339Y-103590000D01*
X133119199Y-103526177D01*
X133483056Y-103283056D01*
X133493940Y-103266766D01*
X133491184Y-103280623D01*
X133500000Y-103324944D01*
X133500001Y-103583604D01*
X133094662Y-103988942D01*
X132798339Y-103930000D01*
X132581661Y-103930000D01*
X132260801Y-103993823D01*
X131896944Y-104236944D01*
X131653823Y-104600801D01*
X131568450Y-105030000D01*
X131653823Y-105459199D01*
X131896944Y-105823056D01*
X132260801Y-106066177D01*
X132581661Y-106130000D01*
X132798339Y-106130000D01*
X133119199Y-106066177D01*
X133483056Y-105823056D01*
X133726177Y-105459199D01*
X133811550Y-105030000D01*
X133731058Y-104625338D01*
X134236857Y-104119538D01*
X134274432Y-104094432D01*
X134373891Y-103945581D01*
X134400000Y-103814321D01*
X134408816Y-103770001D01*
X134400000Y-103725681D01*
X134400000Y-103467018D01*
X137526858Y-100340161D01*
X137564432Y-100315055D01*
X137663891Y-100166204D01*
X137690000Y-100034944D01*
X137690000Y-100034943D01*
X137698816Y-99990623D01*
X137690000Y-99946303D01*
X137690000Y-98284937D01*
X138566187Y-97408750D01*
X140875103Y-97408750D01*
X140875103Y-97896250D01*
X140913060Y-98087074D01*
X141021153Y-98248847D01*
X141182926Y-98356940D01*
X141373750Y-98394897D01*
X142286250Y-98394897D01*
X142477074Y-98356940D01*
X142638847Y-98248847D01*
X142746940Y-98087074D01*
X142784897Y-97896250D01*
X142784897Y-97408750D01*
X142746940Y-97217926D01*
X142638847Y-97056153D01*
X142477074Y-96948060D01*
X142394717Y-96931678D01*
X142406396Y-96920000D01*
X143555680Y-96920000D01*
X143600000Y-96928816D01*
X143644320Y-96920000D01*
X143644321Y-96920000D01*
X143775581Y-96893891D01*
X143924432Y-96794432D01*
X143949540Y-96756855D01*
X144331857Y-96374539D01*
X144369432Y-96349432D01*
X144468891Y-96200581D01*
X144495000Y-96069321D01*
X144503816Y-96025001D01*
X144495000Y-95980681D01*
X144495000Y-95825444D01*
X144525239Y-95805239D01*
X144580494Y-95722545D01*
X144599897Y-95625000D01*
X144599897Y-94075000D01*
X144580494Y-93977455D01*
X144525239Y-93894761D01*
X144442545Y-93839506D01*
X144345000Y-93820103D01*
X143745000Y-93820103D01*
X143647455Y-93839506D01*
X143595743Y-93874059D01*
X143548050Y-93758918D01*
X143391082Y-93601951D01*
X143185993Y-93517000D01*
X143064500Y-93517000D01*
X142925000Y-93656500D01*
X142925000Y-94646000D01*
X142999000Y-94646000D01*
X142999000Y-95054000D01*
X142925000Y-95054000D01*
X142925000Y-95074000D01*
X142625000Y-95074000D01*
X142625000Y-95054000D01*
X142056500Y-95054000D01*
X141917000Y-95193500D01*
X141917000Y-95735993D01*
X142001950Y-95941082D01*
X142096599Y-96035730D01*
X142044419Y-96046109D01*
X141895568Y-96145568D01*
X141870462Y-96183142D01*
X141543145Y-96510460D01*
X141505568Y-96535568D01*
X141406109Y-96684420D01*
X141384190Y-96794614D01*
X141371184Y-96860000D01*
X141380000Y-96904321D01*
X141380000Y-96910103D01*
X141373750Y-96910103D01*
X141182926Y-96948060D01*
X141021153Y-97056153D01*
X140913060Y-97217926D01*
X140875103Y-97408750D01*
X138566187Y-97408750D01*
X139146867Y-96828071D01*
X139184441Y-96802965D01*
X139283900Y-96654114D01*
X139310009Y-96522854D01*
X139310009Y-96522853D01*
X139318825Y-96478533D01*
X139310009Y-96434213D01*
X139310009Y-93964007D01*
X141917000Y-93964007D01*
X141917000Y-94506500D01*
X142056500Y-94646000D01*
X142625000Y-94646000D01*
X142625000Y-93656500D01*
X142485500Y-93517000D01*
X142364007Y-93517000D01*
X142158918Y-93601951D01*
X142001950Y-93758918D01*
X141917000Y-93964007D01*
X139310009Y-93964007D01*
X139310009Y-91416387D01*
X139336397Y-91389999D01*
X139852234Y-91389999D01*
X139610301Y-91631932D01*
X139420000Y-92091360D01*
X139420000Y-92588640D01*
X139610301Y-93048068D01*
X139961932Y-93399699D01*
X140421360Y-93590000D01*
X140918640Y-93590000D01*
X141378068Y-93399699D01*
X141729699Y-93048068D01*
X141733041Y-93040000D01*
X145410052Y-93040000D01*
X145971892Y-93601841D01*
X145971892Y-93743001D01*
X145960568Y-93750568D01*
X145861109Y-93899419D01*
X145846712Y-93971796D01*
X145795239Y-93894761D01*
X145712545Y-93839506D01*
X145615000Y-93820103D01*
X145015000Y-93820103D01*
X144917455Y-93839506D01*
X144834761Y-93894761D01*
X144779506Y-93977455D01*
X144760103Y-94075000D01*
X144760103Y-95625000D01*
X144779506Y-95722545D01*
X144834761Y-95805239D01*
X144865001Y-95825445D01*
X144865001Y-95980675D01*
X144856184Y-96025000D01*
X144887172Y-96180785D01*
X144891110Y-96200581D01*
X144990569Y-96349432D01*
X145028143Y-96374538D01*
X145380461Y-96726857D01*
X145405568Y-96764432D01*
X145554419Y-96863891D01*
X145685679Y-96890000D01*
X145685680Y-96890000D01*
X145730000Y-96898816D01*
X145774320Y-96890000D01*
X147033604Y-96890000D01*
X147073623Y-96930019D01*
X146982926Y-96948060D01*
X146821153Y-97056153D01*
X146713060Y-97217926D01*
X146675103Y-97408750D01*
X146675103Y-97896250D01*
X146713060Y-98087074D01*
X146821153Y-98248847D01*
X146982926Y-98356940D01*
X147173750Y-98394897D01*
X148086250Y-98394897D01*
X148277074Y-98356940D01*
X148438847Y-98248847D01*
X148546940Y-98087074D01*
X148584897Y-97896250D01*
X148584897Y-97408750D01*
X148546940Y-97217926D01*
X148438847Y-97056153D01*
X148277074Y-96948060D01*
X148086250Y-96910103D01*
X148080000Y-96910103D01*
X148080000Y-96894321D01*
X148088816Y-96850000D01*
X148053891Y-96674418D01*
X147979538Y-96563141D01*
X147979536Y-96563139D01*
X147954432Y-96525568D01*
X147916860Y-96500463D01*
X147755987Y-96339591D01*
X147939602Y-96376114D01*
X147939606Y-96376114D01*
X148008541Y-96389826D01*
X148077476Y-96376114D01*
X148740456Y-96376114D01*
X148745451Y-96401224D01*
X148897748Y-96629153D01*
X149125677Y-96781450D01*
X149394537Y-96834930D01*
X149882037Y-96834930D01*
X150150897Y-96781450D01*
X150378826Y-96629153D01*
X150470064Y-96492605D01*
X150552738Y-96692196D01*
X150709705Y-96849164D01*
X150914794Y-96934114D01*
X151169787Y-96934114D01*
X151309287Y-96794614D01*
X151309287Y-95880114D01*
X151717287Y-95880114D01*
X151717287Y-96794614D01*
X151856787Y-96934114D01*
X152111780Y-96934114D01*
X152316869Y-96849164D01*
X152473836Y-96692196D01*
X152558787Y-96487107D01*
X152558787Y-96019614D01*
X152419287Y-95880114D01*
X151717287Y-95880114D01*
X151309287Y-95880114D01*
X151289287Y-95880114D01*
X151289287Y-95472114D01*
X151309287Y-95472114D01*
X151309287Y-94557614D01*
X151299287Y-94547614D01*
X151299287Y-93800114D01*
X151707287Y-93800114D01*
X151707287Y-94714614D01*
X151717287Y-94724614D01*
X151717287Y-95472114D01*
X152419287Y-95472114D01*
X152558787Y-95332614D01*
X152558787Y-94865121D01*
X152473836Y-94660032D01*
X152444918Y-94631114D01*
X152463836Y-94612196D01*
X152548787Y-94407107D01*
X152548787Y-93939614D01*
X152409287Y-93800114D01*
X151707287Y-93800114D01*
X151299287Y-93800114D01*
X151279287Y-93800114D01*
X151279287Y-93392114D01*
X151299287Y-93392114D01*
X151299287Y-92477614D01*
X151707287Y-92477614D01*
X151707287Y-93392114D01*
X152409287Y-93392114D01*
X152548787Y-93252614D01*
X152548787Y-92785121D01*
X152463836Y-92580032D01*
X152306869Y-92423064D01*
X152101780Y-92338114D01*
X151846787Y-92338114D01*
X151707287Y-92477614D01*
X151299287Y-92477614D01*
X151159787Y-92338114D01*
X150904794Y-92338114D01*
X150699705Y-92423064D01*
X150542738Y-92580032D01*
X150478287Y-92735630D01*
X150478287Y-90398032D01*
X150583039Y-90328039D01*
X150735336Y-90100110D01*
X150788816Y-89831250D01*
X150788816Y-89343750D01*
X150735336Y-89074890D01*
X150583039Y-88846961D01*
X150355110Y-88694664D01*
X150086250Y-88641184D01*
X149173750Y-88641184D01*
X148904890Y-88694664D01*
X148676961Y-88846961D01*
X148524664Y-89074890D01*
X148471184Y-89343750D01*
X148471184Y-89831250D01*
X148524664Y-90100110D01*
X148676961Y-90328039D01*
X148778288Y-90395743D01*
X148778287Y-92806895D01*
X148735451Y-92871004D01*
X148681971Y-93139864D01*
X148681971Y-94052364D01*
X148735451Y-94321224D01*
X148788288Y-94400300D01*
X148788287Y-94886895D01*
X148745451Y-94951004D01*
X148740456Y-94976114D01*
X148298491Y-94976114D01*
X147990616Y-94668240D01*
X147951563Y-94609793D01*
X147720018Y-94455079D01*
X147515832Y-94414464D01*
X147515827Y-94414464D01*
X147446892Y-94400752D01*
X147377957Y-94414464D01*
X147371892Y-94414464D01*
X147371892Y-93380827D01*
X147385604Y-93311892D01*
X147371892Y-93242957D01*
X147371892Y-93242952D01*
X147331277Y-93038766D01*
X147219181Y-92871004D01*
X147215614Y-92865665D01*
X147215612Y-92865663D01*
X147176562Y-92807221D01*
X147118120Y-92768171D01*
X146243724Y-91893776D01*
X146204671Y-91835329D01*
X145973126Y-91680615D01*
X145768940Y-91640000D01*
X145768935Y-91640000D01*
X145700000Y-91626288D01*
X145631065Y-91640000D01*
X141733041Y-91640000D01*
X141729699Y-91631932D01*
X141487766Y-91389999D01*
X146160681Y-91389999D01*
X146205001Y-91398815D01*
X146249321Y-91389999D01*
X146249322Y-91389999D01*
X146380582Y-91363890D01*
X146529433Y-91264431D01*
X146554541Y-91226854D01*
X146871858Y-90909538D01*
X146909432Y-90884432D01*
X147008891Y-90735581D01*
X147035000Y-90604321D01*
X147035000Y-90604320D01*
X147043816Y-90560000D01*
X147035000Y-90515680D01*
X147035000Y-90425444D01*
X147065239Y-90405239D01*
X147120494Y-90322545D01*
X147139897Y-90225000D01*
X147139897Y-88675000D01*
X147120494Y-88577455D01*
X147065239Y-88494761D01*
X147035000Y-88474556D01*
X147035000Y-88461395D01*
X147333896Y-88162500D01*
X148723367Y-88162500D01*
X148821153Y-88308847D01*
X148982926Y-88416940D01*
X149173750Y-88454897D01*
X150086250Y-88454897D01*
X150277074Y-88416940D01*
X150438847Y-88308847D01*
X150546940Y-88147074D01*
X150584897Y-87956250D01*
X150584897Y-87468750D01*
X150546940Y-87277926D01*
X150438847Y-87116153D01*
X150277074Y-87008060D01*
X150086250Y-86970103D01*
X149173750Y-86970103D01*
X148982926Y-87008060D01*
X148821153Y-87116153D01*
X148723367Y-87262500D01*
X147191819Y-87262500D01*
X147147499Y-87253684D01*
X147103179Y-87262500D01*
X146971919Y-87288609D01*
X146823068Y-87388068D01*
X146797961Y-87425643D01*
X146298143Y-87925462D01*
X146260569Y-87950568D01*
X146183720Y-88065581D01*
X146161110Y-88099419D01*
X146126184Y-88275000D01*
X146135001Y-88319325D01*
X146135001Y-88474555D01*
X146104761Y-88494761D01*
X146049506Y-88577455D01*
X146030103Y-88675000D01*
X146030103Y-90225000D01*
X146049506Y-90322545D01*
X146104202Y-90404402D01*
X146018606Y-90489999D01*
X139387855Y-90489999D01*
X139977854Y-89900000D01*
X142220103Y-89900000D01*
X142220103Y-90225000D01*
X142239506Y-90322545D01*
X142294761Y-90405239D01*
X142377455Y-90460494D01*
X142475000Y-90479897D01*
X143075000Y-90479897D01*
X143172545Y-90460494D01*
X143255239Y-90405239D01*
X143310494Y-90322545D01*
X143329897Y-90225000D01*
X143329897Y-88675000D01*
X143310494Y-88577455D01*
X143255239Y-88494761D01*
X143172545Y-88439506D01*
X143075000Y-88420103D01*
X142475000Y-88420103D01*
X142377455Y-88439506D01*
X142294761Y-88494761D01*
X142239506Y-88577455D01*
X142220103Y-88675000D01*
X142220103Y-89000000D01*
X139835778Y-89000000D01*
X139791458Y-88991184D01*
X139747138Y-89000000D01*
X139747137Y-89000000D01*
X139615877Y-89026109D01*
X139467026Y-89125568D01*
X139441920Y-89163143D01*
X137973143Y-90631920D01*
X137935569Y-90657026D01*
X137910463Y-90694600D01*
X137836110Y-90805877D01*
X137801184Y-90981458D01*
X137810001Y-91025783D01*
X137810000Y-96043604D01*
X136353143Y-97500462D01*
X136315569Y-97525568D01*
X136290463Y-97563142D01*
X136216110Y-97674419D01*
X136181184Y-97850000D01*
X136190001Y-97894325D01*
X136190000Y-99553604D01*
X135623145Y-100120460D01*
X135585568Y-100145568D01*
X135556271Y-100189414D01*
X133709638Y-102036048D01*
X133483056Y-101696944D01*
X133119199Y-101453823D01*
X132798339Y-101390000D01*
X132581661Y-101390000D01*
X132260801Y-101453823D01*
X131896944Y-101696944D01*
X131653823Y-102060801D01*
X131568450Y-102490000D01*
X129500000Y-102490000D01*
X129500000Y-99950000D01*
X131568450Y-99950000D01*
X131653823Y-100379199D01*
X131896944Y-100743056D01*
X132260801Y-100986177D01*
X132581661Y-101050000D01*
X132798339Y-101050000D01*
X133119199Y-100986177D01*
X133483056Y-100743056D01*
X133726177Y-100379199D01*
X133811550Y-99950000D01*
X133726177Y-99520801D01*
X133483056Y-99156944D01*
X133119199Y-98913823D01*
X132798339Y-98850000D01*
X132581661Y-98850000D01*
X132260801Y-98913823D01*
X131896944Y-99156944D01*
X131653823Y-99520801D01*
X131568450Y-99950000D01*
X129500000Y-99950000D01*
X129500000Y-97410000D01*
X131568450Y-97410000D01*
X131653823Y-97839199D01*
X131896944Y-98203056D01*
X132260801Y-98446177D01*
X132581661Y-98510000D01*
X132798339Y-98510000D01*
X133119199Y-98446177D01*
X133483056Y-98203056D01*
X133726177Y-97839199D01*
X133811550Y-97410000D01*
X133726177Y-96980801D01*
X133483056Y-96616944D01*
X133119199Y-96373823D01*
X132798339Y-96310000D01*
X132581661Y-96310000D01*
X132260801Y-96373823D01*
X131896944Y-96616944D01*
X131653823Y-96980801D01*
X131568450Y-97410000D01*
X129500000Y-97410000D01*
X129500000Y-94870000D01*
X131568450Y-94870000D01*
X131653823Y-95299199D01*
X131896944Y-95663056D01*
X132260801Y-95906177D01*
X132581661Y-95970000D01*
X132798339Y-95970000D01*
X133119199Y-95906177D01*
X133483056Y-95663056D01*
X133726177Y-95299199D01*
X133811550Y-94870000D01*
X133726177Y-94440801D01*
X133483056Y-94076944D01*
X133119199Y-93833823D01*
X132798339Y-93770000D01*
X132581661Y-93770000D01*
X132260801Y-93833823D01*
X131896944Y-94076944D01*
X131653823Y-94440801D01*
X131568450Y-94870000D01*
X129500000Y-94870000D01*
X129500000Y-92330000D01*
X131364532Y-92330000D01*
X131465427Y-92837235D01*
X131752753Y-93267247D01*
X132182765Y-93554573D01*
X132561963Y-93630000D01*
X132818037Y-93630000D01*
X133197235Y-93554573D01*
X133627247Y-93267247D01*
X133685544Y-93180000D01*
X134371420Y-93180000D01*
X134280000Y-93400707D01*
X134280000Y-93659293D01*
X134378957Y-93898195D01*
X134561805Y-94081043D01*
X134657950Y-94120868D01*
X134657949Y-99130762D01*
X134556906Y-99231805D01*
X134457949Y-99470707D01*
X134457949Y-99729293D01*
X134556906Y-99968195D01*
X134739754Y-100151043D01*
X134978656Y-100250000D01*
X135237242Y-100250000D01*
X135476144Y-100151043D01*
X135658992Y-99968195D01*
X135757949Y-99729293D01*
X135757949Y-99470707D01*
X135658992Y-99231805D01*
X135557949Y-99130762D01*
X135557949Y-93752269D01*
X135566765Y-93707949D01*
X135564520Y-93696664D01*
X135580000Y-93659293D01*
X135580000Y-93400707D01*
X135521352Y-93259119D01*
X135661932Y-93399699D01*
X136121360Y-93590000D01*
X136618640Y-93590000D01*
X137078068Y-93399699D01*
X137429699Y-93048068D01*
X137620000Y-92588640D01*
X137620000Y-92091360D01*
X137429699Y-91631932D01*
X137078068Y-91280301D01*
X136618640Y-91090000D01*
X136121360Y-91090000D01*
X135661932Y-91280301D01*
X135507210Y-91435023D01*
X135580000Y-91259293D01*
X135580000Y-91000707D01*
X135481043Y-90761805D01*
X135380000Y-90660762D01*
X135380000Y-85526395D01*
X136258896Y-84647500D01*
X142753367Y-84647500D01*
X142851153Y-84793847D01*
X143012926Y-84901940D01*
X143203750Y-84939897D01*
X143210001Y-84939897D01*
X143210000Y-87845680D01*
X143201184Y-87890000D01*
X143210000Y-87934320D01*
X143236109Y-88065580D01*
X143335568Y-88214432D01*
X143373145Y-88239540D01*
X143595001Y-88461396D01*
X143595001Y-88474555D01*
X143564761Y-88494761D01*
X143509506Y-88577455D01*
X143490103Y-88675000D01*
X143490103Y-90225000D01*
X143509506Y-90322545D01*
X143564761Y-90405239D01*
X143647455Y-90460494D01*
X143745000Y-90479897D01*
X144345000Y-90479897D01*
X144442545Y-90460494D01*
X144525239Y-90405239D01*
X144580494Y-90322545D01*
X144599897Y-90225000D01*
X144599897Y-88675000D01*
X144760103Y-88675000D01*
X144760103Y-90225000D01*
X144779506Y-90322545D01*
X144834761Y-90405239D01*
X144917455Y-90460494D01*
X145015000Y-90479897D01*
X145615000Y-90479897D01*
X145712545Y-90460494D01*
X145795239Y-90405239D01*
X145850494Y-90322545D01*
X145869897Y-90225000D01*
X145869897Y-88675000D01*
X145850494Y-88577455D01*
X145795239Y-88494761D01*
X145765000Y-88474556D01*
X145765000Y-88461396D01*
X146086860Y-88139536D01*
X146124432Y-88114432D01*
X146149536Y-88076861D01*
X146149538Y-88076859D01*
X146223891Y-87965582D01*
X146258816Y-87790000D01*
X146250000Y-87745679D01*
X146250000Y-84939897D01*
X146256250Y-84939897D01*
X146447074Y-84901940D01*
X146608847Y-84793847D01*
X146706633Y-84647500D01*
X153541105Y-84647500D01*
X154440000Y-85546396D01*
X154440001Y-107145675D01*
X154431184Y-107190000D01*
X154449712Y-107283142D01*
X154466110Y-107365581D01*
X154565569Y-107514432D01*
X154603143Y-107539538D01*
X154920461Y-107856857D01*
X154945568Y-107894432D01*
X155094419Y-107993891D01*
X155225679Y-108020000D01*
X155269999Y-108028816D01*
X155314319Y-108020000D01*
X156067722Y-108020000D01*
X156296944Y-108363056D01*
X156660801Y-108606177D01*
X156981661Y-108670000D01*
X157198339Y-108670000D01*
X157519199Y-108606177D01*
X157883056Y-108363056D01*
X158126177Y-107999199D01*
X158211550Y-107570000D01*
X158126177Y-107140801D01*
X157883056Y-106776944D01*
X157519199Y-106533823D01*
X157198339Y-106470000D01*
X156981661Y-106470000D01*
X156660801Y-106533823D01*
X156296944Y-106776944D01*
X156067722Y-107120000D01*
X155456396Y-107120000D01*
X155340000Y-107003605D01*
X155340000Y-105030000D01*
X155968450Y-105030000D01*
X156053823Y-105459199D01*
X156296944Y-105823056D01*
X156660801Y-106066177D01*
X156981661Y-106130000D01*
X157198339Y-106130000D01*
X157519199Y-106066177D01*
X157883056Y-105823056D01*
X158126177Y-105459199D01*
X158211550Y-105030000D01*
X158126177Y-104600801D01*
X157883056Y-104236944D01*
X157519199Y-103993823D01*
X157198339Y-103930000D01*
X156981661Y-103930000D01*
X156660801Y-103993823D01*
X156296944Y-104236944D01*
X156053823Y-104600801D01*
X155968450Y-105030000D01*
X155340000Y-105030000D01*
X155340000Y-102490000D01*
X155968450Y-102490000D01*
X156053823Y-102919199D01*
X156296944Y-103283056D01*
X156660801Y-103526177D01*
X156981661Y-103590000D01*
X157198339Y-103590000D01*
X157519199Y-103526177D01*
X157883056Y-103283056D01*
X158126177Y-102919199D01*
X158211550Y-102490000D01*
X158126177Y-102060801D01*
X157883056Y-101696944D01*
X157519199Y-101453823D01*
X157198339Y-101390000D01*
X156981661Y-101390000D01*
X156660801Y-101453823D01*
X156296944Y-101696944D01*
X156053823Y-102060801D01*
X155968450Y-102490000D01*
X155340000Y-102490000D01*
X155340000Y-97410000D01*
X155968450Y-97410000D01*
X156053823Y-97839199D01*
X156296944Y-98203056D01*
X156660801Y-98446177D01*
X156981661Y-98510000D01*
X157198339Y-98510000D01*
X157519199Y-98446177D01*
X157883056Y-98203056D01*
X158126177Y-97839199D01*
X158211550Y-97410000D01*
X158126177Y-96980801D01*
X157883056Y-96616944D01*
X157519199Y-96373823D01*
X157198339Y-96310000D01*
X156981661Y-96310000D01*
X156660801Y-96373823D01*
X156296944Y-96616944D01*
X156053823Y-96980801D01*
X155968450Y-97410000D01*
X155340000Y-97410000D01*
X155340000Y-94870000D01*
X155968450Y-94870000D01*
X156053823Y-95299199D01*
X156296944Y-95663056D01*
X156660801Y-95906177D01*
X156981661Y-95970000D01*
X157198339Y-95970000D01*
X157519199Y-95906177D01*
X157883056Y-95663056D01*
X158126177Y-95299199D01*
X158211550Y-94870000D01*
X158126177Y-94440801D01*
X157883056Y-94076944D01*
X157519199Y-93833823D01*
X157198339Y-93770000D01*
X156981661Y-93770000D01*
X156660801Y-93833823D01*
X156296944Y-94076944D01*
X156053823Y-94440801D01*
X155968450Y-94870000D01*
X155340000Y-94870000D01*
X155340000Y-92330000D01*
X155968450Y-92330000D01*
X156053823Y-92759199D01*
X156296944Y-93123056D01*
X156660801Y-93366177D01*
X156981661Y-93430000D01*
X157198339Y-93430000D01*
X157519199Y-93366177D01*
X157883056Y-93123056D01*
X158126177Y-92759199D01*
X158211550Y-92330000D01*
X158126177Y-91900801D01*
X157883056Y-91536944D01*
X157519199Y-91293823D01*
X157198339Y-91230000D01*
X156981661Y-91230000D01*
X156660801Y-91293823D01*
X156296944Y-91536944D01*
X156053823Y-91900801D01*
X155968450Y-92330000D01*
X155340000Y-92330000D01*
X155340000Y-90209424D01*
X155745922Y-90209424D01*
X155843002Y-90443839D01*
X156188137Y-90871274D01*
X156670573Y-91134095D01*
X156886000Y-91043660D01*
X156886000Y-89994000D01*
X157294000Y-89994000D01*
X157294000Y-91043660D01*
X157509427Y-91134095D01*
X157991863Y-90871274D01*
X158336998Y-90443839D01*
X158434078Y-90209424D01*
X158341989Y-89994000D01*
X157294000Y-89994000D01*
X156886000Y-89994000D01*
X155838011Y-89994000D01*
X155745922Y-90209424D01*
X155340000Y-90209424D01*
X155340000Y-89370576D01*
X155745922Y-89370576D01*
X155838011Y-89586000D01*
X156886000Y-89586000D01*
X156886000Y-88536340D01*
X157294000Y-88536340D01*
X157294000Y-89586000D01*
X158341989Y-89586000D01*
X158434078Y-89370576D01*
X158336998Y-89136161D01*
X157991863Y-88708726D01*
X157509427Y-88445905D01*
X157294000Y-88536340D01*
X156886000Y-88536340D01*
X156670573Y-88445905D01*
X156188137Y-88708726D01*
X155843002Y-89136161D01*
X155745922Y-89370576D01*
X155340000Y-89370576D01*
X155340000Y-85404316D01*
X155348815Y-85359999D01*
X155340000Y-85315683D01*
X155340000Y-85315679D01*
X155313891Y-85184419D01*
X155214432Y-85035568D01*
X155176858Y-85010462D01*
X154077040Y-83910645D01*
X154051932Y-83873068D01*
X153903081Y-83773609D01*
X153771821Y-83747500D01*
X153771820Y-83747500D01*
X153727500Y-83738684D01*
X153683180Y-83747500D01*
X146706633Y-83747500D01*
X146608847Y-83601153D01*
X146447074Y-83493060D01*
X146256250Y-83455103D01*
X145343750Y-83455103D01*
X145152926Y-83493060D01*
X144991153Y-83601153D01*
X144883060Y-83762926D01*
X144845103Y-83953750D01*
X144845103Y-84441250D01*
X144883060Y-84632074D01*
X144991153Y-84793847D01*
X145152926Y-84901940D01*
X145343750Y-84939897D01*
X145350001Y-84939897D01*
X145350000Y-87603604D01*
X145028143Y-87925462D01*
X144990569Y-87950568D01*
X144913720Y-88065581D01*
X144891110Y-88099419D01*
X144856184Y-88275000D01*
X144865001Y-88319325D01*
X144865001Y-88474555D01*
X144834761Y-88494761D01*
X144779506Y-88577455D01*
X144760103Y-88675000D01*
X144599897Y-88675000D01*
X144580494Y-88577455D01*
X144525239Y-88494761D01*
X144495000Y-88474556D01*
X144495000Y-88319316D01*
X144503815Y-88274999D01*
X144495000Y-88230683D01*
X144495000Y-88230679D01*
X144468891Y-88099419D01*
X144369432Y-87950568D01*
X144331857Y-87925461D01*
X144110000Y-87703605D01*
X144110000Y-84939897D01*
X144116250Y-84939897D01*
X144307074Y-84901940D01*
X144468847Y-84793847D01*
X144576940Y-84632074D01*
X144614897Y-84441250D01*
X144614897Y-83953750D01*
X144576940Y-83762926D01*
X144468847Y-83601153D01*
X144307074Y-83493060D01*
X144116250Y-83455103D01*
X143203750Y-83455103D01*
X143012926Y-83493060D01*
X142851153Y-83601153D01*
X142753367Y-83747500D01*
X136116820Y-83747500D01*
X136072500Y-83738684D01*
X136028180Y-83747500D01*
X136028179Y-83747500D01*
X135896919Y-83773609D01*
X135748068Y-83873068D01*
X135722962Y-83910643D01*
X134643145Y-84990460D01*
X134605568Y-85015568D01*
X134506109Y-85164420D01*
X134502131Y-85184420D01*
X134471184Y-85340000D01*
X134480000Y-85384320D01*
X134480001Y-90660761D01*
X134378957Y-90761805D01*
X134280000Y-91000707D01*
X134280000Y-91259293D01*
X134371420Y-91480000D01*
X133685544Y-91480000D01*
X133627247Y-91392753D01*
X133197235Y-91105427D01*
X132818037Y-91030000D01*
X132561963Y-91030000D01*
X132182765Y-91105427D01*
X131752753Y-91392753D01*
X131465427Y-91822765D01*
X131364532Y-92330000D01*
X129500000Y-92330000D01*
X129500000Y-88940000D01*
X131585103Y-88940000D01*
X131585103Y-90640000D01*
X131604506Y-90737545D01*
X131659761Y-90820239D01*
X131742455Y-90875494D01*
X131840000Y-90894897D01*
X133540000Y-90894897D01*
X133637545Y-90875494D01*
X133720239Y-90820239D01*
X133775494Y-90737545D01*
X133794897Y-90640000D01*
X133794897Y-88940000D01*
X133775494Y-88842455D01*
X133720239Y-88759761D01*
X133637545Y-88704506D01*
X133540000Y-88685103D01*
X131840000Y-88685103D01*
X131742455Y-88704506D01*
X131659761Y-88759761D01*
X131604506Y-88842455D01*
X131585103Y-88940000D01*
X129500000Y-88940000D01*
X129500000Y-83147954D01*
X129554059Y-82666000D01*
X142402000Y-82666000D01*
X142402000Y-82920993D01*
X142486950Y-83126082D01*
X142643918Y-83283049D01*
X142849007Y-83368000D01*
X143316500Y-83368000D01*
X143456000Y-83228500D01*
X143456000Y-82526500D01*
X143864000Y-82526500D01*
X143864000Y-83228500D01*
X144003500Y-83368000D01*
X144470993Y-83368000D01*
X144676082Y-83283049D01*
X144730000Y-83229131D01*
X144783918Y-83283049D01*
X144989007Y-83368000D01*
X145456500Y-83368000D01*
X145596000Y-83228500D01*
X145596000Y-82526500D01*
X146004000Y-82526500D01*
X146004000Y-83228500D01*
X146143500Y-83368000D01*
X146610993Y-83368000D01*
X146816082Y-83283049D01*
X146973050Y-83126082D01*
X147058000Y-82920993D01*
X147058000Y-82666000D01*
X146918500Y-82526500D01*
X146004000Y-82526500D01*
X145596000Y-82526500D01*
X143864000Y-82526500D01*
X143456000Y-82526500D01*
X142541500Y-82526500D01*
X142402000Y-82666000D01*
X129554059Y-82666000D01*
X129568166Y-82540237D01*
X129760028Y-81989288D01*
X129925793Y-81724007D01*
X142402000Y-81724007D01*
X142402000Y-81979000D01*
X142541500Y-82118500D01*
X143456000Y-82118500D01*
X143456000Y-81416500D01*
X143864000Y-81416500D01*
X143864000Y-82118500D01*
X145596000Y-82118500D01*
X145596000Y-81416500D01*
X146004000Y-81416500D01*
X146004000Y-82118500D01*
X146918500Y-82118500D01*
X147058000Y-81979000D01*
X147058000Y-81724007D01*
X146973050Y-81518918D01*
X146816082Y-81361951D01*
X146610993Y-81277000D01*
X146143500Y-81277000D01*
X146004000Y-81416500D01*
X145596000Y-81416500D01*
X145456500Y-81277000D01*
X144989007Y-81277000D01*
X144783918Y-81361951D01*
X144730000Y-81415869D01*
X144676082Y-81361951D01*
X144470993Y-81277000D01*
X144003500Y-81277000D01*
X143864000Y-81416500D01*
X143456000Y-81416500D01*
X143316500Y-81277000D01*
X142849007Y-81277000D01*
X142643918Y-81361951D01*
X142486950Y-81518918D01*
X142402000Y-81724007D01*
X129925793Y-81724007D01*
X130069181Y-81494539D01*
X130480262Y-81080579D01*
X130972840Y-80767979D01*
X131522437Y-80572276D01*
X132128563Y-80500000D01*
X157852046Y-80500000D01*
X158459763Y-80568166D01*
M02*
