%TF.GenerationSoftware,KiCad,Pcbnew,5.0.1*%
%TF.CreationDate,2018-10-23T16:01:19+11:00*%
%TF.ProjectId,FP1,4650312E6B696361645F706362000000,0.1*%
%TF.SameCoordinates,Original*%
%TF.FileFunction,Paste,Top*%
%TF.FilePolarity,Positive*%
%FSLAX46Y46*%
G04 Gerber Fmt 4.6, Leading zero omitted, Abs format (unit mm)*
G04 Created by KiCad (PCBNEW 5.0.1) date Tue 23 Oct 2018 04:01:19 PM AEDT*
%MOMM*%
%LPD*%
G01*
G04 APERTURE LIST*
%ADD10C,0.150000*%
%ADD11C,0.975000*%
%ADD12R,2.700000X3.750000*%
%ADD13C,1.250000*%
%ADD14R,2.500000X2.300000*%
%ADD15R,1.500000X4.200000*%
G04 APERTURE END LIST*
D10*
X240100000Y-59500000D02*
G75*
G03X237599981Y-56999981I-2500019J0D01*
G01*
X237599981Y-127000019D02*
G75*
G03X240100000Y-124500000I0J2500019D01*
G01*
X45099981Y-124500000D02*
G75*
G03X47600000Y-127000019I2500019J0D01*
G01*
X45099981Y-59500000D02*
G75*
G02X47600000Y-56999981I2500019J0D01*
G01*
X135098002Y-59400080D02*
G75*
G03X132599981Y-56999981I-2498021J-99920D01*
G01*
X150101622Y-59409986D02*
G75*
G02X152600019Y-57000000I2498397J-90033D01*
G01*
X150100000Y-59400000D02*
G75*
G02X135100000Y-59400000I-7500000J0D01*
G01*
X237620000Y-57000000D02*
X152580000Y-57000000D01*
X45100000Y-124540000D02*
X45100000Y-59460000D01*
X47610000Y-57000000D02*
X132630000Y-57000000D01*
X240100000Y-124530000D02*
X240100000Y-59490000D01*
X47570000Y-127000000D02*
X237630000Y-127000000D01*
G36*
X228740142Y-116391174D02*
X228763803Y-116394684D01*
X228787007Y-116400496D01*
X228809529Y-116408554D01*
X228831153Y-116418782D01*
X228851670Y-116431079D01*
X228870883Y-116445329D01*
X228888607Y-116461393D01*
X228904671Y-116479117D01*
X228918921Y-116498330D01*
X228931218Y-116518847D01*
X228941446Y-116540471D01*
X228949504Y-116562993D01*
X228955316Y-116586197D01*
X228958826Y-116609858D01*
X228960000Y-116633750D01*
X228960000Y-117121250D01*
X228958826Y-117145142D01*
X228955316Y-117168803D01*
X228949504Y-117192007D01*
X228941446Y-117214529D01*
X228931218Y-117236153D01*
X228918921Y-117256670D01*
X228904671Y-117275883D01*
X228888607Y-117293607D01*
X228870883Y-117309671D01*
X228851670Y-117323921D01*
X228831153Y-117336218D01*
X228809529Y-117346446D01*
X228787007Y-117354504D01*
X228763803Y-117360316D01*
X228740142Y-117363826D01*
X228716250Y-117365000D01*
X227803750Y-117365000D01*
X227779858Y-117363826D01*
X227756197Y-117360316D01*
X227732993Y-117354504D01*
X227710471Y-117346446D01*
X227688847Y-117336218D01*
X227668330Y-117323921D01*
X227649117Y-117309671D01*
X227631393Y-117293607D01*
X227615329Y-117275883D01*
X227601079Y-117256670D01*
X227588782Y-117236153D01*
X227578554Y-117214529D01*
X227570496Y-117192007D01*
X227564684Y-117168803D01*
X227561174Y-117145142D01*
X227560000Y-117121250D01*
X227560000Y-116633750D01*
X227561174Y-116609858D01*
X227564684Y-116586197D01*
X227570496Y-116562993D01*
X227578554Y-116540471D01*
X227588782Y-116518847D01*
X227601079Y-116498330D01*
X227615329Y-116479117D01*
X227631393Y-116461393D01*
X227649117Y-116445329D01*
X227668330Y-116431079D01*
X227688847Y-116418782D01*
X227710471Y-116408554D01*
X227732993Y-116400496D01*
X227756197Y-116394684D01*
X227779858Y-116391174D01*
X227803750Y-116390000D01*
X228716250Y-116390000D01*
X228740142Y-116391174D01*
X228740142Y-116391174D01*
G37*
D11*
X228260000Y-116877500D03*
D10*
G36*
X228740142Y-114516174D02*
X228763803Y-114519684D01*
X228787007Y-114525496D01*
X228809529Y-114533554D01*
X228831153Y-114543782D01*
X228851670Y-114556079D01*
X228870883Y-114570329D01*
X228888607Y-114586393D01*
X228904671Y-114604117D01*
X228918921Y-114623330D01*
X228931218Y-114643847D01*
X228941446Y-114665471D01*
X228949504Y-114687993D01*
X228955316Y-114711197D01*
X228958826Y-114734858D01*
X228960000Y-114758750D01*
X228960000Y-115246250D01*
X228958826Y-115270142D01*
X228955316Y-115293803D01*
X228949504Y-115317007D01*
X228941446Y-115339529D01*
X228931218Y-115361153D01*
X228918921Y-115381670D01*
X228904671Y-115400883D01*
X228888607Y-115418607D01*
X228870883Y-115434671D01*
X228851670Y-115448921D01*
X228831153Y-115461218D01*
X228809529Y-115471446D01*
X228787007Y-115479504D01*
X228763803Y-115485316D01*
X228740142Y-115488826D01*
X228716250Y-115490000D01*
X227803750Y-115490000D01*
X227779858Y-115488826D01*
X227756197Y-115485316D01*
X227732993Y-115479504D01*
X227710471Y-115471446D01*
X227688847Y-115461218D01*
X227668330Y-115448921D01*
X227649117Y-115434671D01*
X227631393Y-115418607D01*
X227615329Y-115400883D01*
X227601079Y-115381670D01*
X227588782Y-115361153D01*
X227578554Y-115339529D01*
X227570496Y-115317007D01*
X227564684Y-115293803D01*
X227561174Y-115270142D01*
X227560000Y-115246250D01*
X227560000Y-114758750D01*
X227561174Y-114734858D01*
X227564684Y-114711197D01*
X227570496Y-114687993D01*
X227578554Y-114665471D01*
X227588782Y-114643847D01*
X227601079Y-114623330D01*
X227615329Y-114604117D01*
X227631393Y-114586393D01*
X227649117Y-114570329D01*
X227668330Y-114556079D01*
X227688847Y-114543782D01*
X227710471Y-114533554D01*
X227732993Y-114525496D01*
X227756197Y-114519684D01*
X227779858Y-114516174D01*
X227803750Y-114515000D01*
X228716250Y-114515000D01*
X228740142Y-114516174D01*
X228740142Y-114516174D01*
G37*
D11*
X228260000Y-115002500D03*
D10*
G36*
X215480142Y-65836174D02*
X215503803Y-65839684D01*
X215527007Y-65845496D01*
X215549529Y-65853554D01*
X215571153Y-65863782D01*
X215591670Y-65876079D01*
X215610883Y-65890329D01*
X215628607Y-65906393D01*
X215644671Y-65924117D01*
X215658921Y-65943330D01*
X215671218Y-65963847D01*
X215681446Y-65985471D01*
X215689504Y-66007993D01*
X215695316Y-66031197D01*
X215698826Y-66054858D01*
X215700000Y-66078750D01*
X215700000Y-66566250D01*
X215698826Y-66590142D01*
X215695316Y-66613803D01*
X215689504Y-66637007D01*
X215681446Y-66659529D01*
X215671218Y-66681153D01*
X215658921Y-66701670D01*
X215644671Y-66720883D01*
X215628607Y-66738607D01*
X215610883Y-66754671D01*
X215591670Y-66768921D01*
X215571153Y-66781218D01*
X215549529Y-66791446D01*
X215527007Y-66799504D01*
X215503803Y-66805316D01*
X215480142Y-66808826D01*
X215456250Y-66810000D01*
X214543750Y-66810000D01*
X214519858Y-66808826D01*
X214496197Y-66805316D01*
X214472993Y-66799504D01*
X214450471Y-66791446D01*
X214428847Y-66781218D01*
X214408330Y-66768921D01*
X214389117Y-66754671D01*
X214371393Y-66738607D01*
X214355329Y-66720883D01*
X214341079Y-66701670D01*
X214328782Y-66681153D01*
X214318554Y-66659529D01*
X214310496Y-66637007D01*
X214304684Y-66613803D01*
X214301174Y-66590142D01*
X214300000Y-66566250D01*
X214300000Y-66078750D01*
X214301174Y-66054858D01*
X214304684Y-66031197D01*
X214310496Y-66007993D01*
X214318554Y-65985471D01*
X214328782Y-65963847D01*
X214341079Y-65943330D01*
X214355329Y-65924117D01*
X214371393Y-65906393D01*
X214389117Y-65890329D01*
X214408330Y-65876079D01*
X214428847Y-65863782D01*
X214450471Y-65853554D01*
X214472993Y-65845496D01*
X214496197Y-65839684D01*
X214519858Y-65836174D01*
X214543750Y-65835000D01*
X215456250Y-65835000D01*
X215480142Y-65836174D01*
X215480142Y-65836174D01*
G37*
D11*
X215000000Y-66322500D03*
D10*
G36*
X215480142Y-67711174D02*
X215503803Y-67714684D01*
X215527007Y-67720496D01*
X215549529Y-67728554D01*
X215571153Y-67738782D01*
X215591670Y-67751079D01*
X215610883Y-67765329D01*
X215628607Y-67781393D01*
X215644671Y-67799117D01*
X215658921Y-67818330D01*
X215671218Y-67838847D01*
X215681446Y-67860471D01*
X215689504Y-67882993D01*
X215695316Y-67906197D01*
X215698826Y-67929858D01*
X215700000Y-67953750D01*
X215700000Y-68441250D01*
X215698826Y-68465142D01*
X215695316Y-68488803D01*
X215689504Y-68512007D01*
X215681446Y-68534529D01*
X215671218Y-68556153D01*
X215658921Y-68576670D01*
X215644671Y-68595883D01*
X215628607Y-68613607D01*
X215610883Y-68629671D01*
X215591670Y-68643921D01*
X215571153Y-68656218D01*
X215549529Y-68666446D01*
X215527007Y-68674504D01*
X215503803Y-68680316D01*
X215480142Y-68683826D01*
X215456250Y-68685000D01*
X214543750Y-68685000D01*
X214519858Y-68683826D01*
X214496197Y-68680316D01*
X214472993Y-68674504D01*
X214450471Y-68666446D01*
X214428847Y-68656218D01*
X214408330Y-68643921D01*
X214389117Y-68629671D01*
X214371393Y-68613607D01*
X214355329Y-68595883D01*
X214341079Y-68576670D01*
X214328782Y-68556153D01*
X214318554Y-68534529D01*
X214310496Y-68512007D01*
X214304684Y-68488803D01*
X214301174Y-68465142D01*
X214300000Y-68441250D01*
X214300000Y-67953750D01*
X214301174Y-67929858D01*
X214304684Y-67906197D01*
X214310496Y-67882993D01*
X214318554Y-67860471D01*
X214328782Y-67838847D01*
X214341079Y-67818330D01*
X214355329Y-67799117D01*
X214371393Y-67781393D01*
X214389117Y-67765329D01*
X214408330Y-67751079D01*
X214428847Y-67738782D01*
X214450471Y-67728554D01*
X214472993Y-67720496D01*
X214496197Y-67714684D01*
X214519858Y-67711174D01*
X214543750Y-67710000D01*
X215456250Y-67710000D01*
X215480142Y-67711174D01*
X215480142Y-67711174D01*
G37*
D11*
X215000000Y-68197500D03*
D12*
X59010000Y-123090000D03*
X68210000Y-123090000D03*
D10*
G36*
X81380142Y-62651174D02*
X81403803Y-62654684D01*
X81427007Y-62660496D01*
X81449529Y-62668554D01*
X81471153Y-62678782D01*
X81491670Y-62691079D01*
X81510883Y-62705329D01*
X81528607Y-62721393D01*
X81544671Y-62739117D01*
X81558921Y-62758330D01*
X81571218Y-62778847D01*
X81581446Y-62800471D01*
X81589504Y-62822993D01*
X81595316Y-62846197D01*
X81598826Y-62869858D01*
X81600000Y-62893750D01*
X81600000Y-63381250D01*
X81598826Y-63405142D01*
X81595316Y-63428803D01*
X81589504Y-63452007D01*
X81581446Y-63474529D01*
X81571218Y-63496153D01*
X81558921Y-63516670D01*
X81544671Y-63535883D01*
X81528607Y-63553607D01*
X81510883Y-63569671D01*
X81491670Y-63583921D01*
X81471153Y-63596218D01*
X81449529Y-63606446D01*
X81427007Y-63614504D01*
X81403803Y-63620316D01*
X81380142Y-63623826D01*
X81356250Y-63625000D01*
X80443750Y-63625000D01*
X80419858Y-63623826D01*
X80396197Y-63620316D01*
X80372993Y-63614504D01*
X80350471Y-63606446D01*
X80328847Y-63596218D01*
X80308330Y-63583921D01*
X80289117Y-63569671D01*
X80271393Y-63553607D01*
X80255329Y-63535883D01*
X80241079Y-63516670D01*
X80228782Y-63496153D01*
X80218554Y-63474529D01*
X80210496Y-63452007D01*
X80204684Y-63428803D01*
X80201174Y-63405142D01*
X80200000Y-63381250D01*
X80200000Y-62893750D01*
X80201174Y-62869858D01*
X80204684Y-62846197D01*
X80210496Y-62822993D01*
X80218554Y-62800471D01*
X80228782Y-62778847D01*
X80241079Y-62758330D01*
X80255329Y-62739117D01*
X80271393Y-62721393D01*
X80289117Y-62705329D01*
X80308330Y-62691079D01*
X80328847Y-62678782D01*
X80350471Y-62668554D01*
X80372993Y-62660496D01*
X80396197Y-62654684D01*
X80419858Y-62651174D01*
X80443750Y-62650000D01*
X81356250Y-62650000D01*
X81380142Y-62651174D01*
X81380142Y-62651174D01*
G37*
D11*
X80900000Y-63137500D03*
D10*
G36*
X81380142Y-60776174D02*
X81403803Y-60779684D01*
X81427007Y-60785496D01*
X81449529Y-60793554D01*
X81471153Y-60803782D01*
X81491670Y-60816079D01*
X81510883Y-60830329D01*
X81528607Y-60846393D01*
X81544671Y-60864117D01*
X81558921Y-60883330D01*
X81571218Y-60903847D01*
X81581446Y-60925471D01*
X81589504Y-60947993D01*
X81595316Y-60971197D01*
X81598826Y-60994858D01*
X81600000Y-61018750D01*
X81600000Y-61506250D01*
X81598826Y-61530142D01*
X81595316Y-61553803D01*
X81589504Y-61577007D01*
X81581446Y-61599529D01*
X81571218Y-61621153D01*
X81558921Y-61641670D01*
X81544671Y-61660883D01*
X81528607Y-61678607D01*
X81510883Y-61694671D01*
X81491670Y-61708921D01*
X81471153Y-61721218D01*
X81449529Y-61731446D01*
X81427007Y-61739504D01*
X81403803Y-61745316D01*
X81380142Y-61748826D01*
X81356250Y-61750000D01*
X80443750Y-61750000D01*
X80419858Y-61748826D01*
X80396197Y-61745316D01*
X80372993Y-61739504D01*
X80350471Y-61731446D01*
X80328847Y-61721218D01*
X80308330Y-61708921D01*
X80289117Y-61694671D01*
X80271393Y-61678607D01*
X80255329Y-61660883D01*
X80241079Y-61641670D01*
X80228782Y-61621153D01*
X80218554Y-61599529D01*
X80210496Y-61577007D01*
X80204684Y-61553803D01*
X80201174Y-61530142D01*
X80200000Y-61506250D01*
X80200000Y-61018750D01*
X80201174Y-60994858D01*
X80204684Y-60971197D01*
X80210496Y-60947993D01*
X80218554Y-60925471D01*
X80228782Y-60903847D01*
X80241079Y-60883330D01*
X80255329Y-60864117D01*
X80271393Y-60846393D01*
X80289117Y-60830329D01*
X80308330Y-60816079D01*
X80328847Y-60803782D01*
X80350471Y-60793554D01*
X80372993Y-60785496D01*
X80396197Y-60779684D01*
X80419858Y-60776174D01*
X80443750Y-60775000D01*
X81356250Y-60775000D01*
X81380142Y-60776174D01*
X81380142Y-60776174D01*
G37*
D11*
X80900000Y-61262500D03*
D10*
G36*
X106555142Y-122891174D02*
X106578803Y-122894684D01*
X106602007Y-122900496D01*
X106624529Y-122908554D01*
X106646153Y-122918782D01*
X106666670Y-122931079D01*
X106685883Y-122945329D01*
X106703607Y-122961393D01*
X106719671Y-122979117D01*
X106733921Y-122998330D01*
X106746218Y-123018847D01*
X106756446Y-123040471D01*
X106764504Y-123062993D01*
X106770316Y-123086197D01*
X106773826Y-123109858D01*
X106775000Y-123133750D01*
X106775000Y-124046250D01*
X106773826Y-124070142D01*
X106770316Y-124093803D01*
X106764504Y-124117007D01*
X106756446Y-124139529D01*
X106746218Y-124161153D01*
X106733921Y-124181670D01*
X106719671Y-124200883D01*
X106703607Y-124218607D01*
X106685883Y-124234671D01*
X106666670Y-124248921D01*
X106646153Y-124261218D01*
X106624529Y-124271446D01*
X106602007Y-124279504D01*
X106578803Y-124285316D01*
X106555142Y-124288826D01*
X106531250Y-124290000D01*
X106043750Y-124290000D01*
X106019858Y-124288826D01*
X105996197Y-124285316D01*
X105972993Y-124279504D01*
X105950471Y-124271446D01*
X105928847Y-124261218D01*
X105908330Y-124248921D01*
X105889117Y-124234671D01*
X105871393Y-124218607D01*
X105855329Y-124200883D01*
X105841079Y-124181670D01*
X105828782Y-124161153D01*
X105818554Y-124139529D01*
X105810496Y-124117007D01*
X105804684Y-124093803D01*
X105801174Y-124070142D01*
X105800000Y-124046250D01*
X105800000Y-123133750D01*
X105801174Y-123109858D01*
X105804684Y-123086197D01*
X105810496Y-123062993D01*
X105818554Y-123040471D01*
X105828782Y-123018847D01*
X105841079Y-122998330D01*
X105855329Y-122979117D01*
X105871393Y-122961393D01*
X105889117Y-122945329D01*
X105908330Y-122931079D01*
X105928847Y-122918782D01*
X105950471Y-122908554D01*
X105972993Y-122900496D01*
X105996197Y-122894684D01*
X106019858Y-122891174D01*
X106043750Y-122890000D01*
X106531250Y-122890000D01*
X106555142Y-122891174D01*
X106555142Y-122891174D01*
G37*
D11*
X106287500Y-123590000D03*
D10*
G36*
X104680142Y-122891174D02*
X104703803Y-122894684D01*
X104727007Y-122900496D01*
X104749529Y-122908554D01*
X104771153Y-122918782D01*
X104791670Y-122931079D01*
X104810883Y-122945329D01*
X104828607Y-122961393D01*
X104844671Y-122979117D01*
X104858921Y-122998330D01*
X104871218Y-123018847D01*
X104881446Y-123040471D01*
X104889504Y-123062993D01*
X104895316Y-123086197D01*
X104898826Y-123109858D01*
X104900000Y-123133750D01*
X104900000Y-124046250D01*
X104898826Y-124070142D01*
X104895316Y-124093803D01*
X104889504Y-124117007D01*
X104881446Y-124139529D01*
X104871218Y-124161153D01*
X104858921Y-124181670D01*
X104844671Y-124200883D01*
X104828607Y-124218607D01*
X104810883Y-124234671D01*
X104791670Y-124248921D01*
X104771153Y-124261218D01*
X104749529Y-124271446D01*
X104727007Y-124279504D01*
X104703803Y-124285316D01*
X104680142Y-124288826D01*
X104656250Y-124290000D01*
X104168750Y-124290000D01*
X104144858Y-124288826D01*
X104121197Y-124285316D01*
X104097993Y-124279504D01*
X104075471Y-124271446D01*
X104053847Y-124261218D01*
X104033330Y-124248921D01*
X104014117Y-124234671D01*
X103996393Y-124218607D01*
X103980329Y-124200883D01*
X103966079Y-124181670D01*
X103953782Y-124161153D01*
X103943554Y-124139529D01*
X103935496Y-124117007D01*
X103929684Y-124093803D01*
X103926174Y-124070142D01*
X103925000Y-124046250D01*
X103925000Y-123133750D01*
X103926174Y-123109858D01*
X103929684Y-123086197D01*
X103935496Y-123062993D01*
X103943554Y-123040471D01*
X103953782Y-123018847D01*
X103966079Y-122998330D01*
X103980329Y-122979117D01*
X103996393Y-122961393D01*
X104014117Y-122945329D01*
X104033330Y-122931079D01*
X104053847Y-122918782D01*
X104075471Y-122908554D01*
X104097993Y-122900496D01*
X104121197Y-122894684D01*
X104144858Y-122891174D01*
X104168750Y-122890000D01*
X104656250Y-122890000D01*
X104680142Y-122891174D01*
X104680142Y-122891174D01*
G37*
D11*
X104412500Y-123590000D03*
D10*
G36*
X170040142Y-70811174D02*
X170063803Y-70814684D01*
X170087007Y-70820496D01*
X170109529Y-70828554D01*
X170131153Y-70838782D01*
X170151670Y-70851079D01*
X170170883Y-70865329D01*
X170188607Y-70881393D01*
X170204671Y-70899117D01*
X170218921Y-70918330D01*
X170231218Y-70938847D01*
X170241446Y-70960471D01*
X170249504Y-70982993D01*
X170255316Y-71006197D01*
X170258826Y-71029858D01*
X170260000Y-71053750D01*
X170260000Y-71541250D01*
X170258826Y-71565142D01*
X170255316Y-71588803D01*
X170249504Y-71612007D01*
X170241446Y-71634529D01*
X170231218Y-71656153D01*
X170218921Y-71676670D01*
X170204671Y-71695883D01*
X170188607Y-71713607D01*
X170170883Y-71729671D01*
X170151670Y-71743921D01*
X170131153Y-71756218D01*
X170109529Y-71766446D01*
X170087007Y-71774504D01*
X170063803Y-71780316D01*
X170040142Y-71783826D01*
X170016250Y-71785000D01*
X169103750Y-71785000D01*
X169079858Y-71783826D01*
X169056197Y-71780316D01*
X169032993Y-71774504D01*
X169010471Y-71766446D01*
X168988847Y-71756218D01*
X168968330Y-71743921D01*
X168949117Y-71729671D01*
X168931393Y-71713607D01*
X168915329Y-71695883D01*
X168901079Y-71676670D01*
X168888782Y-71656153D01*
X168878554Y-71634529D01*
X168870496Y-71612007D01*
X168864684Y-71588803D01*
X168861174Y-71565142D01*
X168860000Y-71541250D01*
X168860000Y-71053750D01*
X168861174Y-71029858D01*
X168864684Y-71006197D01*
X168870496Y-70982993D01*
X168878554Y-70960471D01*
X168888782Y-70938847D01*
X168901079Y-70918330D01*
X168915329Y-70899117D01*
X168931393Y-70881393D01*
X168949117Y-70865329D01*
X168968330Y-70851079D01*
X168988847Y-70838782D01*
X169010471Y-70828554D01*
X169032993Y-70820496D01*
X169056197Y-70814684D01*
X169079858Y-70811174D01*
X169103750Y-70810000D01*
X170016250Y-70810000D01*
X170040142Y-70811174D01*
X170040142Y-70811174D01*
G37*
D11*
X169560000Y-71297500D03*
D10*
G36*
X170040142Y-68936174D02*
X170063803Y-68939684D01*
X170087007Y-68945496D01*
X170109529Y-68953554D01*
X170131153Y-68963782D01*
X170151670Y-68976079D01*
X170170883Y-68990329D01*
X170188607Y-69006393D01*
X170204671Y-69024117D01*
X170218921Y-69043330D01*
X170231218Y-69063847D01*
X170241446Y-69085471D01*
X170249504Y-69107993D01*
X170255316Y-69131197D01*
X170258826Y-69154858D01*
X170260000Y-69178750D01*
X170260000Y-69666250D01*
X170258826Y-69690142D01*
X170255316Y-69713803D01*
X170249504Y-69737007D01*
X170241446Y-69759529D01*
X170231218Y-69781153D01*
X170218921Y-69801670D01*
X170204671Y-69820883D01*
X170188607Y-69838607D01*
X170170883Y-69854671D01*
X170151670Y-69868921D01*
X170131153Y-69881218D01*
X170109529Y-69891446D01*
X170087007Y-69899504D01*
X170063803Y-69905316D01*
X170040142Y-69908826D01*
X170016250Y-69910000D01*
X169103750Y-69910000D01*
X169079858Y-69908826D01*
X169056197Y-69905316D01*
X169032993Y-69899504D01*
X169010471Y-69891446D01*
X168988847Y-69881218D01*
X168968330Y-69868921D01*
X168949117Y-69854671D01*
X168931393Y-69838607D01*
X168915329Y-69820883D01*
X168901079Y-69801670D01*
X168888782Y-69781153D01*
X168878554Y-69759529D01*
X168870496Y-69737007D01*
X168864684Y-69713803D01*
X168861174Y-69690142D01*
X168860000Y-69666250D01*
X168860000Y-69178750D01*
X168861174Y-69154858D01*
X168864684Y-69131197D01*
X168870496Y-69107993D01*
X168878554Y-69085471D01*
X168888782Y-69063847D01*
X168901079Y-69043330D01*
X168915329Y-69024117D01*
X168931393Y-69006393D01*
X168949117Y-68990329D01*
X168968330Y-68976079D01*
X168988847Y-68963782D01*
X169010471Y-68953554D01*
X169032993Y-68945496D01*
X169056197Y-68939684D01*
X169079858Y-68936174D01*
X169103750Y-68935000D01*
X170016250Y-68935000D01*
X170040142Y-68936174D01*
X170040142Y-68936174D01*
G37*
D11*
X169560000Y-69422500D03*
D10*
G36*
X172340142Y-70811174D02*
X172363803Y-70814684D01*
X172387007Y-70820496D01*
X172409529Y-70828554D01*
X172431153Y-70838782D01*
X172451670Y-70851079D01*
X172470883Y-70865329D01*
X172488607Y-70881393D01*
X172504671Y-70899117D01*
X172518921Y-70918330D01*
X172531218Y-70938847D01*
X172541446Y-70960471D01*
X172549504Y-70982993D01*
X172555316Y-71006197D01*
X172558826Y-71029858D01*
X172560000Y-71053750D01*
X172560000Y-71541250D01*
X172558826Y-71565142D01*
X172555316Y-71588803D01*
X172549504Y-71612007D01*
X172541446Y-71634529D01*
X172531218Y-71656153D01*
X172518921Y-71676670D01*
X172504671Y-71695883D01*
X172488607Y-71713607D01*
X172470883Y-71729671D01*
X172451670Y-71743921D01*
X172431153Y-71756218D01*
X172409529Y-71766446D01*
X172387007Y-71774504D01*
X172363803Y-71780316D01*
X172340142Y-71783826D01*
X172316250Y-71785000D01*
X171403750Y-71785000D01*
X171379858Y-71783826D01*
X171356197Y-71780316D01*
X171332993Y-71774504D01*
X171310471Y-71766446D01*
X171288847Y-71756218D01*
X171268330Y-71743921D01*
X171249117Y-71729671D01*
X171231393Y-71713607D01*
X171215329Y-71695883D01*
X171201079Y-71676670D01*
X171188782Y-71656153D01*
X171178554Y-71634529D01*
X171170496Y-71612007D01*
X171164684Y-71588803D01*
X171161174Y-71565142D01*
X171160000Y-71541250D01*
X171160000Y-71053750D01*
X171161174Y-71029858D01*
X171164684Y-71006197D01*
X171170496Y-70982993D01*
X171178554Y-70960471D01*
X171188782Y-70938847D01*
X171201079Y-70918330D01*
X171215329Y-70899117D01*
X171231393Y-70881393D01*
X171249117Y-70865329D01*
X171268330Y-70851079D01*
X171288847Y-70838782D01*
X171310471Y-70828554D01*
X171332993Y-70820496D01*
X171356197Y-70814684D01*
X171379858Y-70811174D01*
X171403750Y-70810000D01*
X172316250Y-70810000D01*
X172340142Y-70811174D01*
X172340142Y-70811174D01*
G37*
D11*
X171860000Y-71297500D03*
D10*
G36*
X172340142Y-68936174D02*
X172363803Y-68939684D01*
X172387007Y-68945496D01*
X172409529Y-68953554D01*
X172431153Y-68963782D01*
X172451670Y-68976079D01*
X172470883Y-68990329D01*
X172488607Y-69006393D01*
X172504671Y-69024117D01*
X172518921Y-69043330D01*
X172531218Y-69063847D01*
X172541446Y-69085471D01*
X172549504Y-69107993D01*
X172555316Y-69131197D01*
X172558826Y-69154858D01*
X172560000Y-69178750D01*
X172560000Y-69666250D01*
X172558826Y-69690142D01*
X172555316Y-69713803D01*
X172549504Y-69737007D01*
X172541446Y-69759529D01*
X172531218Y-69781153D01*
X172518921Y-69801670D01*
X172504671Y-69820883D01*
X172488607Y-69838607D01*
X172470883Y-69854671D01*
X172451670Y-69868921D01*
X172431153Y-69881218D01*
X172409529Y-69891446D01*
X172387007Y-69899504D01*
X172363803Y-69905316D01*
X172340142Y-69908826D01*
X172316250Y-69910000D01*
X171403750Y-69910000D01*
X171379858Y-69908826D01*
X171356197Y-69905316D01*
X171332993Y-69899504D01*
X171310471Y-69891446D01*
X171288847Y-69881218D01*
X171268330Y-69868921D01*
X171249117Y-69854671D01*
X171231393Y-69838607D01*
X171215329Y-69820883D01*
X171201079Y-69801670D01*
X171188782Y-69781153D01*
X171178554Y-69759529D01*
X171170496Y-69737007D01*
X171164684Y-69713803D01*
X171161174Y-69690142D01*
X171160000Y-69666250D01*
X171160000Y-69178750D01*
X171161174Y-69154858D01*
X171164684Y-69131197D01*
X171170496Y-69107993D01*
X171178554Y-69085471D01*
X171188782Y-69063847D01*
X171201079Y-69043330D01*
X171215329Y-69024117D01*
X171231393Y-69006393D01*
X171249117Y-68990329D01*
X171268330Y-68976079D01*
X171288847Y-68963782D01*
X171310471Y-68953554D01*
X171332993Y-68945496D01*
X171356197Y-68939684D01*
X171379858Y-68936174D01*
X171403750Y-68935000D01*
X172316250Y-68935000D01*
X172340142Y-68936174D01*
X172340142Y-68936174D01*
G37*
D11*
X171860000Y-69422500D03*
D10*
G36*
X122200142Y-122891174D02*
X122223803Y-122894684D01*
X122247007Y-122900496D01*
X122269529Y-122908554D01*
X122291153Y-122918782D01*
X122311670Y-122931079D01*
X122330883Y-122945329D01*
X122348607Y-122961393D01*
X122364671Y-122979117D01*
X122378921Y-122998330D01*
X122391218Y-123018847D01*
X122401446Y-123040471D01*
X122409504Y-123062993D01*
X122415316Y-123086197D01*
X122418826Y-123109858D01*
X122420000Y-123133750D01*
X122420000Y-124046250D01*
X122418826Y-124070142D01*
X122415316Y-124093803D01*
X122409504Y-124117007D01*
X122401446Y-124139529D01*
X122391218Y-124161153D01*
X122378921Y-124181670D01*
X122364671Y-124200883D01*
X122348607Y-124218607D01*
X122330883Y-124234671D01*
X122311670Y-124248921D01*
X122291153Y-124261218D01*
X122269529Y-124271446D01*
X122247007Y-124279504D01*
X122223803Y-124285316D01*
X122200142Y-124288826D01*
X122176250Y-124290000D01*
X121688750Y-124290000D01*
X121664858Y-124288826D01*
X121641197Y-124285316D01*
X121617993Y-124279504D01*
X121595471Y-124271446D01*
X121573847Y-124261218D01*
X121553330Y-124248921D01*
X121534117Y-124234671D01*
X121516393Y-124218607D01*
X121500329Y-124200883D01*
X121486079Y-124181670D01*
X121473782Y-124161153D01*
X121463554Y-124139529D01*
X121455496Y-124117007D01*
X121449684Y-124093803D01*
X121446174Y-124070142D01*
X121445000Y-124046250D01*
X121445000Y-123133750D01*
X121446174Y-123109858D01*
X121449684Y-123086197D01*
X121455496Y-123062993D01*
X121463554Y-123040471D01*
X121473782Y-123018847D01*
X121486079Y-122998330D01*
X121500329Y-122979117D01*
X121516393Y-122961393D01*
X121534117Y-122945329D01*
X121553330Y-122931079D01*
X121573847Y-122918782D01*
X121595471Y-122908554D01*
X121617993Y-122900496D01*
X121641197Y-122894684D01*
X121664858Y-122891174D01*
X121688750Y-122890000D01*
X122176250Y-122890000D01*
X122200142Y-122891174D01*
X122200142Y-122891174D01*
G37*
D11*
X121932500Y-123590000D03*
D10*
G36*
X124075142Y-122891174D02*
X124098803Y-122894684D01*
X124122007Y-122900496D01*
X124144529Y-122908554D01*
X124166153Y-122918782D01*
X124186670Y-122931079D01*
X124205883Y-122945329D01*
X124223607Y-122961393D01*
X124239671Y-122979117D01*
X124253921Y-122998330D01*
X124266218Y-123018847D01*
X124276446Y-123040471D01*
X124284504Y-123062993D01*
X124290316Y-123086197D01*
X124293826Y-123109858D01*
X124295000Y-123133750D01*
X124295000Y-124046250D01*
X124293826Y-124070142D01*
X124290316Y-124093803D01*
X124284504Y-124117007D01*
X124276446Y-124139529D01*
X124266218Y-124161153D01*
X124253921Y-124181670D01*
X124239671Y-124200883D01*
X124223607Y-124218607D01*
X124205883Y-124234671D01*
X124186670Y-124248921D01*
X124166153Y-124261218D01*
X124144529Y-124271446D01*
X124122007Y-124279504D01*
X124098803Y-124285316D01*
X124075142Y-124288826D01*
X124051250Y-124290000D01*
X123563750Y-124290000D01*
X123539858Y-124288826D01*
X123516197Y-124285316D01*
X123492993Y-124279504D01*
X123470471Y-124271446D01*
X123448847Y-124261218D01*
X123428330Y-124248921D01*
X123409117Y-124234671D01*
X123391393Y-124218607D01*
X123375329Y-124200883D01*
X123361079Y-124181670D01*
X123348782Y-124161153D01*
X123338554Y-124139529D01*
X123330496Y-124117007D01*
X123324684Y-124093803D01*
X123321174Y-124070142D01*
X123320000Y-124046250D01*
X123320000Y-123133750D01*
X123321174Y-123109858D01*
X123324684Y-123086197D01*
X123330496Y-123062993D01*
X123338554Y-123040471D01*
X123348782Y-123018847D01*
X123361079Y-122998330D01*
X123375329Y-122979117D01*
X123391393Y-122961393D01*
X123409117Y-122945329D01*
X123428330Y-122931079D01*
X123448847Y-122918782D01*
X123470471Y-122908554D01*
X123492993Y-122900496D01*
X123516197Y-122894684D01*
X123539858Y-122891174D01*
X123563750Y-122890000D01*
X124051250Y-122890000D01*
X124075142Y-122891174D01*
X124075142Y-122891174D01*
G37*
D11*
X123807500Y-123590000D03*
D10*
G36*
X69309504Y-108676204D02*
X69333773Y-108679804D01*
X69357571Y-108685765D01*
X69380671Y-108694030D01*
X69402849Y-108704520D01*
X69423893Y-108717133D01*
X69443598Y-108731747D01*
X69461777Y-108748223D01*
X69478253Y-108766402D01*
X69492867Y-108786107D01*
X69505480Y-108807151D01*
X69515970Y-108829329D01*
X69524235Y-108852429D01*
X69530196Y-108876227D01*
X69533796Y-108900496D01*
X69535000Y-108925000D01*
X69535000Y-111075000D01*
X69533796Y-111099504D01*
X69530196Y-111123773D01*
X69524235Y-111147571D01*
X69515970Y-111170671D01*
X69505480Y-111192849D01*
X69492867Y-111213893D01*
X69478253Y-111233598D01*
X69461777Y-111251777D01*
X69443598Y-111268253D01*
X69423893Y-111282867D01*
X69402849Y-111295480D01*
X69380671Y-111305970D01*
X69357571Y-111314235D01*
X69333773Y-111320196D01*
X69309504Y-111323796D01*
X69285000Y-111325000D01*
X68535000Y-111325000D01*
X68510496Y-111323796D01*
X68486227Y-111320196D01*
X68462429Y-111314235D01*
X68439329Y-111305970D01*
X68417151Y-111295480D01*
X68396107Y-111282867D01*
X68376402Y-111268253D01*
X68358223Y-111251777D01*
X68341747Y-111233598D01*
X68327133Y-111213893D01*
X68314520Y-111192849D01*
X68304030Y-111170671D01*
X68295765Y-111147571D01*
X68289804Y-111123773D01*
X68286204Y-111099504D01*
X68285000Y-111075000D01*
X68285000Y-108925000D01*
X68286204Y-108900496D01*
X68289804Y-108876227D01*
X68295765Y-108852429D01*
X68304030Y-108829329D01*
X68314520Y-108807151D01*
X68327133Y-108786107D01*
X68341747Y-108766402D01*
X68358223Y-108748223D01*
X68376402Y-108731747D01*
X68396107Y-108717133D01*
X68417151Y-108704520D01*
X68439329Y-108694030D01*
X68462429Y-108685765D01*
X68486227Y-108679804D01*
X68510496Y-108676204D01*
X68535000Y-108675000D01*
X69285000Y-108675000D01*
X69309504Y-108676204D01*
X69309504Y-108676204D01*
G37*
D13*
X68910000Y-110000000D03*
D10*
G36*
X72109504Y-108676204D02*
X72133773Y-108679804D01*
X72157571Y-108685765D01*
X72180671Y-108694030D01*
X72202849Y-108704520D01*
X72223893Y-108717133D01*
X72243598Y-108731747D01*
X72261777Y-108748223D01*
X72278253Y-108766402D01*
X72292867Y-108786107D01*
X72305480Y-108807151D01*
X72315970Y-108829329D01*
X72324235Y-108852429D01*
X72330196Y-108876227D01*
X72333796Y-108900496D01*
X72335000Y-108925000D01*
X72335000Y-111075000D01*
X72333796Y-111099504D01*
X72330196Y-111123773D01*
X72324235Y-111147571D01*
X72315970Y-111170671D01*
X72305480Y-111192849D01*
X72292867Y-111213893D01*
X72278253Y-111233598D01*
X72261777Y-111251777D01*
X72243598Y-111268253D01*
X72223893Y-111282867D01*
X72202849Y-111295480D01*
X72180671Y-111305970D01*
X72157571Y-111314235D01*
X72133773Y-111320196D01*
X72109504Y-111323796D01*
X72085000Y-111325000D01*
X71335000Y-111325000D01*
X71310496Y-111323796D01*
X71286227Y-111320196D01*
X71262429Y-111314235D01*
X71239329Y-111305970D01*
X71217151Y-111295480D01*
X71196107Y-111282867D01*
X71176402Y-111268253D01*
X71158223Y-111251777D01*
X71141747Y-111233598D01*
X71127133Y-111213893D01*
X71114520Y-111192849D01*
X71104030Y-111170671D01*
X71095765Y-111147571D01*
X71089804Y-111123773D01*
X71086204Y-111099504D01*
X71085000Y-111075000D01*
X71085000Y-108925000D01*
X71086204Y-108900496D01*
X71089804Y-108876227D01*
X71095765Y-108852429D01*
X71104030Y-108829329D01*
X71114520Y-108807151D01*
X71127133Y-108786107D01*
X71141747Y-108766402D01*
X71158223Y-108748223D01*
X71176402Y-108731747D01*
X71196107Y-108717133D01*
X71217151Y-108704520D01*
X71239329Y-108694030D01*
X71262429Y-108685765D01*
X71286227Y-108679804D01*
X71310496Y-108676204D01*
X71335000Y-108675000D01*
X72085000Y-108675000D01*
X72109504Y-108676204D01*
X72109504Y-108676204D01*
G37*
D13*
X71710000Y-110000000D03*
D14*
X68050000Y-60300000D03*
X63750000Y-60300000D03*
D15*
X69300000Y-104720000D03*
X65700000Y-104720000D03*
D10*
G36*
X213060142Y-69591174D02*
X213083803Y-69594684D01*
X213107007Y-69600496D01*
X213129529Y-69608554D01*
X213151153Y-69618782D01*
X213171670Y-69631079D01*
X213190883Y-69645329D01*
X213208607Y-69661393D01*
X213224671Y-69679117D01*
X213238921Y-69698330D01*
X213251218Y-69718847D01*
X213261446Y-69740471D01*
X213269504Y-69762993D01*
X213275316Y-69786197D01*
X213278826Y-69809858D01*
X213280000Y-69833750D01*
X213280000Y-70321250D01*
X213278826Y-70345142D01*
X213275316Y-70368803D01*
X213269504Y-70392007D01*
X213261446Y-70414529D01*
X213251218Y-70436153D01*
X213238921Y-70456670D01*
X213224671Y-70475883D01*
X213208607Y-70493607D01*
X213190883Y-70509671D01*
X213171670Y-70523921D01*
X213151153Y-70536218D01*
X213129529Y-70546446D01*
X213107007Y-70554504D01*
X213083803Y-70560316D01*
X213060142Y-70563826D01*
X213036250Y-70565000D01*
X212123750Y-70565000D01*
X212099858Y-70563826D01*
X212076197Y-70560316D01*
X212052993Y-70554504D01*
X212030471Y-70546446D01*
X212008847Y-70536218D01*
X211988330Y-70523921D01*
X211969117Y-70509671D01*
X211951393Y-70493607D01*
X211935329Y-70475883D01*
X211921079Y-70456670D01*
X211908782Y-70436153D01*
X211898554Y-70414529D01*
X211890496Y-70392007D01*
X211884684Y-70368803D01*
X211881174Y-70345142D01*
X211880000Y-70321250D01*
X211880000Y-69833750D01*
X211881174Y-69809858D01*
X211884684Y-69786197D01*
X211890496Y-69762993D01*
X211898554Y-69740471D01*
X211908782Y-69718847D01*
X211921079Y-69698330D01*
X211935329Y-69679117D01*
X211951393Y-69661393D01*
X211969117Y-69645329D01*
X211988330Y-69631079D01*
X212008847Y-69618782D01*
X212030471Y-69608554D01*
X212052993Y-69600496D01*
X212076197Y-69594684D01*
X212099858Y-69591174D01*
X212123750Y-69590000D01*
X213036250Y-69590000D01*
X213060142Y-69591174D01*
X213060142Y-69591174D01*
G37*
D11*
X212580000Y-70077500D03*
D10*
G36*
X213060142Y-67716174D02*
X213083803Y-67719684D01*
X213107007Y-67725496D01*
X213129529Y-67733554D01*
X213151153Y-67743782D01*
X213171670Y-67756079D01*
X213190883Y-67770329D01*
X213208607Y-67786393D01*
X213224671Y-67804117D01*
X213238921Y-67823330D01*
X213251218Y-67843847D01*
X213261446Y-67865471D01*
X213269504Y-67887993D01*
X213275316Y-67911197D01*
X213278826Y-67934858D01*
X213280000Y-67958750D01*
X213280000Y-68446250D01*
X213278826Y-68470142D01*
X213275316Y-68493803D01*
X213269504Y-68517007D01*
X213261446Y-68539529D01*
X213251218Y-68561153D01*
X213238921Y-68581670D01*
X213224671Y-68600883D01*
X213208607Y-68618607D01*
X213190883Y-68634671D01*
X213171670Y-68648921D01*
X213151153Y-68661218D01*
X213129529Y-68671446D01*
X213107007Y-68679504D01*
X213083803Y-68685316D01*
X213060142Y-68688826D01*
X213036250Y-68690000D01*
X212123750Y-68690000D01*
X212099858Y-68688826D01*
X212076197Y-68685316D01*
X212052993Y-68679504D01*
X212030471Y-68671446D01*
X212008847Y-68661218D01*
X211988330Y-68648921D01*
X211969117Y-68634671D01*
X211951393Y-68618607D01*
X211935329Y-68600883D01*
X211921079Y-68581670D01*
X211908782Y-68561153D01*
X211898554Y-68539529D01*
X211890496Y-68517007D01*
X211884684Y-68493803D01*
X211881174Y-68470142D01*
X211880000Y-68446250D01*
X211880000Y-67958750D01*
X211881174Y-67934858D01*
X211884684Y-67911197D01*
X211890496Y-67887993D01*
X211898554Y-67865471D01*
X211908782Y-67843847D01*
X211921079Y-67823330D01*
X211935329Y-67804117D01*
X211951393Y-67786393D01*
X211969117Y-67770329D01*
X211988330Y-67756079D01*
X212008847Y-67743782D01*
X212030471Y-67733554D01*
X212052993Y-67725496D01*
X212076197Y-67719684D01*
X212099858Y-67716174D01*
X212123750Y-67715000D01*
X213036250Y-67715000D01*
X213060142Y-67716174D01*
X213060142Y-67716174D01*
G37*
D11*
X212580000Y-68202500D03*
D10*
G36*
X210530142Y-69591174D02*
X210553803Y-69594684D01*
X210577007Y-69600496D01*
X210599529Y-69608554D01*
X210621153Y-69618782D01*
X210641670Y-69631079D01*
X210660883Y-69645329D01*
X210678607Y-69661393D01*
X210694671Y-69679117D01*
X210708921Y-69698330D01*
X210721218Y-69718847D01*
X210731446Y-69740471D01*
X210739504Y-69762993D01*
X210745316Y-69786197D01*
X210748826Y-69809858D01*
X210750000Y-69833750D01*
X210750000Y-70321250D01*
X210748826Y-70345142D01*
X210745316Y-70368803D01*
X210739504Y-70392007D01*
X210731446Y-70414529D01*
X210721218Y-70436153D01*
X210708921Y-70456670D01*
X210694671Y-70475883D01*
X210678607Y-70493607D01*
X210660883Y-70509671D01*
X210641670Y-70523921D01*
X210621153Y-70536218D01*
X210599529Y-70546446D01*
X210577007Y-70554504D01*
X210553803Y-70560316D01*
X210530142Y-70563826D01*
X210506250Y-70565000D01*
X209593750Y-70565000D01*
X209569858Y-70563826D01*
X209546197Y-70560316D01*
X209522993Y-70554504D01*
X209500471Y-70546446D01*
X209478847Y-70536218D01*
X209458330Y-70523921D01*
X209439117Y-70509671D01*
X209421393Y-70493607D01*
X209405329Y-70475883D01*
X209391079Y-70456670D01*
X209378782Y-70436153D01*
X209368554Y-70414529D01*
X209360496Y-70392007D01*
X209354684Y-70368803D01*
X209351174Y-70345142D01*
X209350000Y-70321250D01*
X209350000Y-69833750D01*
X209351174Y-69809858D01*
X209354684Y-69786197D01*
X209360496Y-69762993D01*
X209368554Y-69740471D01*
X209378782Y-69718847D01*
X209391079Y-69698330D01*
X209405329Y-69679117D01*
X209421393Y-69661393D01*
X209439117Y-69645329D01*
X209458330Y-69631079D01*
X209478847Y-69618782D01*
X209500471Y-69608554D01*
X209522993Y-69600496D01*
X209546197Y-69594684D01*
X209569858Y-69591174D01*
X209593750Y-69590000D01*
X210506250Y-69590000D01*
X210530142Y-69591174D01*
X210530142Y-69591174D01*
G37*
D11*
X210050000Y-70077500D03*
D10*
G36*
X210530142Y-67716174D02*
X210553803Y-67719684D01*
X210577007Y-67725496D01*
X210599529Y-67733554D01*
X210621153Y-67743782D01*
X210641670Y-67756079D01*
X210660883Y-67770329D01*
X210678607Y-67786393D01*
X210694671Y-67804117D01*
X210708921Y-67823330D01*
X210721218Y-67843847D01*
X210731446Y-67865471D01*
X210739504Y-67887993D01*
X210745316Y-67911197D01*
X210748826Y-67934858D01*
X210750000Y-67958750D01*
X210750000Y-68446250D01*
X210748826Y-68470142D01*
X210745316Y-68493803D01*
X210739504Y-68517007D01*
X210731446Y-68539529D01*
X210721218Y-68561153D01*
X210708921Y-68581670D01*
X210694671Y-68600883D01*
X210678607Y-68618607D01*
X210660883Y-68634671D01*
X210641670Y-68648921D01*
X210621153Y-68661218D01*
X210599529Y-68671446D01*
X210577007Y-68679504D01*
X210553803Y-68685316D01*
X210530142Y-68688826D01*
X210506250Y-68690000D01*
X209593750Y-68690000D01*
X209569858Y-68688826D01*
X209546197Y-68685316D01*
X209522993Y-68679504D01*
X209500471Y-68671446D01*
X209478847Y-68661218D01*
X209458330Y-68648921D01*
X209439117Y-68634671D01*
X209421393Y-68618607D01*
X209405329Y-68600883D01*
X209391079Y-68581670D01*
X209378782Y-68561153D01*
X209368554Y-68539529D01*
X209360496Y-68517007D01*
X209354684Y-68493803D01*
X209351174Y-68470142D01*
X209350000Y-68446250D01*
X209350000Y-67958750D01*
X209351174Y-67934858D01*
X209354684Y-67911197D01*
X209360496Y-67887993D01*
X209368554Y-67865471D01*
X209378782Y-67843847D01*
X209391079Y-67823330D01*
X209405329Y-67804117D01*
X209421393Y-67786393D01*
X209439117Y-67770329D01*
X209458330Y-67756079D01*
X209478847Y-67743782D01*
X209500471Y-67733554D01*
X209522993Y-67725496D01*
X209546197Y-67719684D01*
X209569858Y-67716174D01*
X209593750Y-67715000D01*
X210506250Y-67715000D01*
X210530142Y-67716174D01*
X210530142Y-67716174D01*
G37*
D11*
X210050000Y-68202500D03*
M02*
