%TF.GenerationSoftware,KiCad,Pcbnew,5.0.1*%
%TF.CreationDate,2018-10-23T16:01:19+11:00*%
%TF.ProjectId,FP1,4650312E6B696361645F706362000000,0.1*%
%TF.SameCoordinates,Original*%
%TF.FileFunction,Soldermask,Top*%
%TF.FilePolarity,Negative*%
%FSLAX46Y46*%
G04 Gerber Fmt 4.6, Leading zero omitted, Abs format (unit mm)*
G04 Created by KiCad (PCBNEW 5.0.1) date Tue 23 Oct 2018 04:01:19 PM AEDT*
%MOMM*%
%LPD*%
G01*
G04 APERTURE LIST*
%ADD10C,0.150000*%
G04 APERTURE END LIST*
D10*
X240100000Y-59500000D02*
G75*
G03X237599981Y-56999981I-2500019J0D01*
G01*
X237599981Y-127000019D02*
G75*
G03X240100000Y-124500000I0J2500019D01*
G01*
X45099981Y-124500000D02*
G75*
G03X47600000Y-127000019I2500019J0D01*
G01*
X45099981Y-59500000D02*
G75*
G02X47600000Y-56999981I2500019J0D01*
G01*
X135098002Y-59400080D02*
G75*
G03X132599981Y-56999981I-2498021J-99920D01*
G01*
X150101622Y-59409986D02*
G75*
G02X152600019Y-57000000I2498397J-90033D01*
G01*
X150100000Y-59400000D02*
G75*
G02X135100000Y-59400000I-7500000J0D01*
G01*
X237620000Y-57000000D02*
X152580000Y-57000000D01*
X45100000Y-124540000D02*
X45100000Y-59460000D01*
X47610000Y-57000000D02*
X132630000Y-57000000D01*
X240100000Y-124530000D02*
X240100000Y-59490000D01*
X47570000Y-127000000D02*
X237630000Y-127000000D01*
G36*
X237440483Y-120573366D02*
X237977348Y-120795743D01*
X237977349Y-120795744D01*
X238460516Y-121118585D01*
X238871415Y-121529484D01*
X239012963Y-121741326D01*
X239194257Y-122012652D01*
X239416634Y-122549517D01*
X239530000Y-123119449D01*
X239530000Y-123700551D01*
X239416634Y-124270483D01*
X239194257Y-124807348D01*
X239187012Y-124818191D01*
X238871415Y-125290516D01*
X238460516Y-125701415D01*
X238367708Y-125763427D01*
X237977348Y-126024257D01*
X237440483Y-126246634D01*
X236870551Y-126360000D01*
X236289449Y-126360000D01*
X235719517Y-126246634D01*
X235182652Y-126024257D01*
X234792292Y-125763427D01*
X234699484Y-125701415D01*
X234288585Y-125290516D01*
X233972988Y-124818191D01*
X233965743Y-124807348D01*
X233812548Y-124437503D01*
X233800997Y-124415892D01*
X233785451Y-124396950D01*
X233766509Y-124381404D01*
X233744898Y-124369853D01*
X233721449Y-124362740D01*
X233697063Y-124360338D01*
X233672677Y-124362740D01*
X233649228Y-124369853D01*
X233627617Y-124381404D01*
X233608675Y-124396950D01*
X233593129Y-124415892D01*
X233434662Y-124653055D01*
X233163055Y-124924662D01*
X232843670Y-125138068D01*
X232488793Y-125285063D01*
X232112060Y-125360000D01*
X231727940Y-125360000D01*
X231351207Y-125285063D01*
X230996330Y-125138068D01*
X230676945Y-124924662D01*
X230405338Y-124653055D01*
X230191932Y-124333670D01*
X230044937Y-123978793D01*
X229970000Y-123602060D01*
X229970000Y-123217940D01*
X230044937Y-122841207D01*
X230191932Y-122486330D01*
X230405338Y-122166945D01*
X230676945Y-121895338D01*
X230996330Y-121681932D01*
X231351207Y-121534937D01*
X231727940Y-121460000D01*
X232112060Y-121460000D01*
X232488793Y-121534937D01*
X232843670Y-121681932D01*
X233163055Y-121895338D01*
X233434662Y-122166945D01*
X233593129Y-122404108D01*
X233608675Y-122423050D01*
X233627617Y-122438596D01*
X233649227Y-122450147D01*
X233672677Y-122457260D01*
X233697063Y-122459662D01*
X233721449Y-122457260D01*
X233744898Y-122450147D01*
X233766509Y-122438596D01*
X233785451Y-122423050D01*
X233800997Y-122404108D01*
X233812548Y-122382497D01*
X233965743Y-122012652D01*
X234147037Y-121741326D01*
X234288585Y-121529484D01*
X234699484Y-121118585D01*
X235182651Y-120795744D01*
X235182652Y-120795743D01*
X235719517Y-120573366D01*
X236289449Y-120460000D01*
X236870551Y-120460000D01*
X237440483Y-120573366D01*
X237440483Y-120573366D01*
G37*
G36*
X223250026Y-123546115D02*
X223468412Y-123636573D01*
X223664958Y-123767901D01*
X223832099Y-123935042D01*
X223963427Y-124131588D01*
X224053885Y-124349974D01*
X224100000Y-124581809D01*
X224100000Y-124818191D01*
X224053885Y-125050026D01*
X223963427Y-125268412D01*
X223832099Y-125464958D01*
X223664958Y-125632099D01*
X223468412Y-125763427D01*
X223250026Y-125853885D01*
X223018191Y-125900000D01*
X222781809Y-125900000D01*
X222549974Y-125853885D01*
X222331588Y-125763427D01*
X222135042Y-125632099D01*
X221967901Y-125464958D01*
X221836573Y-125268412D01*
X221746115Y-125050026D01*
X221700000Y-124818191D01*
X221700000Y-124581809D01*
X221746115Y-124349974D01*
X221836573Y-124131588D01*
X221967901Y-123935042D01*
X222135042Y-123767901D01*
X222331588Y-123636573D01*
X222549974Y-123546115D01*
X222781809Y-123500000D01*
X223018191Y-123500000D01*
X223250026Y-123546115D01*
X223250026Y-123546115D01*
G37*
G36*
X201650026Y-123546115D02*
X201868412Y-123636573D01*
X202064958Y-123767901D01*
X202232099Y-123935042D01*
X202363427Y-124131588D01*
X202453885Y-124349974D01*
X202500000Y-124581809D01*
X202500000Y-124818191D01*
X202453885Y-125050026D01*
X202363427Y-125268412D01*
X202232099Y-125464958D01*
X202064958Y-125632099D01*
X201868412Y-125763427D01*
X201650026Y-125853885D01*
X201418191Y-125900000D01*
X201181809Y-125900000D01*
X200949974Y-125853885D01*
X200731588Y-125763427D01*
X200535042Y-125632099D01*
X200367901Y-125464958D01*
X200236573Y-125268412D01*
X200146115Y-125050026D01*
X200100000Y-124818191D01*
X200100000Y-124581809D01*
X200146115Y-124349974D01*
X200236573Y-124131588D01*
X200367901Y-123935042D01*
X200535042Y-123767901D01*
X200731588Y-123636573D01*
X200949974Y-123546115D01*
X201181809Y-123500000D01*
X201418191Y-123500000D01*
X201650026Y-123546115D01*
X201650026Y-123546115D01*
G37*
G36*
X216050026Y-123546115D02*
X216268412Y-123636573D01*
X216464958Y-123767901D01*
X216632099Y-123935042D01*
X216763427Y-124131588D01*
X216853885Y-124349974D01*
X216900000Y-124581809D01*
X216900000Y-124818191D01*
X216853885Y-125050026D01*
X216763427Y-125268412D01*
X216632099Y-125464958D01*
X216464958Y-125632099D01*
X216268412Y-125763427D01*
X216050026Y-125853885D01*
X215818191Y-125900000D01*
X215581809Y-125900000D01*
X215349974Y-125853885D01*
X215131588Y-125763427D01*
X214935042Y-125632099D01*
X214767901Y-125464958D01*
X214636573Y-125268412D01*
X214546115Y-125050026D01*
X214500000Y-124818191D01*
X214500000Y-124581809D01*
X214546115Y-124349974D01*
X214636573Y-124131588D01*
X214767901Y-123935042D01*
X214935042Y-123767901D01*
X215131588Y-123636573D01*
X215349974Y-123546115D01*
X215581809Y-123500000D01*
X215818191Y-123500000D01*
X216050026Y-123546115D01*
X216050026Y-123546115D01*
G37*
G36*
X208850026Y-123546115D02*
X209068412Y-123636573D01*
X209264958Y-123767901D01*
X209432099Y-123935042D01*
X209563427Y-124131588D01*
X209653885Y-124349974D01*
X209700000Y-124581809D01*
X209700000Y-124818191D01*
X209653885Y-125050026D01*
X209563427Y-125268412D01*
X209432099Y-125464958D01*
X209264958Y-125632099D01*
X209068412Y-125763427D01*
X208850026Y-125853885D01*
X208618191Y-125900000D01*
X208381809Y-125900000D01*
X208149974Y-125853885D01*
X207931588Y-125763427D01*
X207735042Y-125632099D01*
X207567901Y-125464958D01*
X207436573Y-125268412D01*
X207346115Y-125050026D01*
X207300000Y-124818191D01*
X207300000Y-124581809D01*
X207346115Y-124349974D01*
X207436573Y-124131588D01*
X207567901Y-123935042D01*
X207735042Y-123767901D01*
X207931588Y-123636573D01*
X208149974Y-123546115D01*
X208381809Y-123500000D01*
X208618191Y-123500000D01*
X208850026Y-123546115D01*
X208850026Y-123546115D01*
G37*
G36*
X194450026Y-123546115D02*
X194668412Y-123636573D01*
X194864958Y-123767901D01*
X195032099Y-123935042D01*
X195163427Y-124131588D01*
X195253885Y-124349974D01*
X195300000Y-124581809D01*
X195300000Y-124818191D01*
X195253885Y-125050026D01*
X195163427Y-125268412D01*
X195032099Y-125464958D01*
X194864958Y-125632099D01*
X194668412Y-125763427D01*
X194450026Y-125853885D01*
X194218191Y-125900000D01*
X193981809Y-125900000D01*
X193749974Y-125853885D01*
X193531588Y-125763427D01*
X193335042Y-125632099D01*
X193167901Y-125464958D01*
X193036573Y-125268412D01*
X192946115Y-125050026D01*
X192900000Y-124818191D01*
X192900000Y-124581809D01*
X192946115Y-124349974D01*
X193036573Y-124131588D01*
X193167901Y-123935042D01*
X193335042Y-123767901D01*
X193531588Y-123636573D01*
X193749974Y-123546115D01*
X193981809Y-123500000D01*
X194218191Y-123500000D01*
X194450026Y-123546115D01*
X194450026Y-123546115D01*
G37*
G36*
X165550026Y-123546115D02*
X165768412Y-123636573D01*
X165964958Y-123767901D01*
X166132099Y-123935042D01*
X166263427Y-124131588D01*
X166353885Y-124349974D01*
X166400000Y-124581809D01*
X166400000Y-124818191D01*
X166353885Y-125050026D01*
X166263427Y-125268412D01*
X166132099Y-125464958D01*
X165964958Y-125632099D01*
X165768412Y-125763427D01*
X165550026Y-125853885D01*
X165318191Y-125900000D01*
X165081809Y-125900000D01*
X164849974Y-125853885D01*
X164631588Y-125763427D01*
X164435042Y-125632099D01*
X164267901Y-125464958D01*
X164136573Y-125268412D01*
X164046115Y-125050026D01*
X164000000Y-124818191D01*
X164000000Y-124581809D01*
X164046115Y-124349974D01*
X164136573Y-124131588D01*
X164267901Y-123935042D01*
X164435042Y-123767901D01*
X164631588Y-123636573D01*
X164849974Y-123546115D01*
X165081809Y-123500000D01*
X165318191Y-123500000D01*
X165550026Y-123546115D01*
X165550026Y-123546115D01*
G37*
G36*
X187150026Y-123546115D02*
X187368412Y-123636573D01*
X187564958Y-123767901D01*
X187732099Y-123935042D01*
X187863427Y-124131588D01*
X187953885Y-124349974D01*
X188000000Y-124581809D01*
X188000000Y-124818191D01*
X187953885Y-125050026D01*
X187863427Y-125268412D01*
X187732099Y-125464958D01*
X187564958Y-125632099D01*
X187368412Y-125763427D01*
X187150026Y-125853885D01*
X186918191Y-125900000D01*
X186681809Y-125900000D01*
X186449974Y-125853885D01*
X186231588Y-125763427D01*
X186035042Y-125632099D01*
X185867901Y-125464958D01*
X185736573Y-125268412D01*
X185646115Y-125050026D01*
X185600000Y-124818191D01*
X185600000Y-124581809D01*
X185646115Y-124349974D01*
X185736573Y-124131588D01*
X185867901Y-123935042D01*
X186035042Y-123767901D01*
X186231588Y-123636573D01*
X186449974Y-123546115D01*
X186681809Y-123500000D01*
X186918191Y-123500000D01*
X187150026Y-123546115D01*
X187150026Y-123546115D01*
G37*
G36*
X172750026Y-123546115D02*
X172968412Y-123636573D01*
X173164958Y-123767901D01*
X173332099Y-123935042D01*
X173463427Y-124131588D01*
X173553885Y-124349974D01*
X173600000Y-124581809D01*
X173600000Y-124818191D01*
X173553885Y-125050026D01*
X173463427Y-125268412D01*
X173332099Y-125464958D01*
X173164958Y-125632099D01*
X172968412Y-125763427D01*
X172750026Y-125853885D01*
X172518191Y-125900000D01*
X172281809Y-125900000D01*
X172049974Y-125853885D01*
X171831588Y-125763427D01*
X171635042Y-125632099D01*
X171467901Y-125464958D01*
X171336573Y-125268412D01*
X171246115Y-125050026D01*
X171200000Y-124818191D01*
X171200000Y-124581809D01*
X171246115Y-124349974D01*
X171336573Y-124131588D01*
X171467901Y-123935042D01*
X171635042Y-123767901D01*
X171831588Y-123636573D01*
X172049974Y-123546115D01*
X172281809Y-123500000D01*
X172518191Y-123500000D01*
X172750026Y-123546115D01*
X172750026Y-123546115D01*
G37*
G36*
X179950026Y-123546115D02*
X180168412Y-123636573D01*
X180364958Y-123767901D01*
X180532099Y-123935042D01*
X180663427Y-124131588D01*
X180753885Y-124349974D01*
X180800000Y-124581809D01*
X180800000Y-124818191D01*
X180753885Y-125050026D01*
X180663427Y-125268412D01*
X180532099Y-125464958D01*
X180364958Y-125632099D01*
X180168412Y-125763427D01*
X179950026Y-125853885D01*
X179718191Y-125900000D01*
X179481809Y-125900000D01*
X179249974Y-125853885D01*
X179031588Y-125763427D01*
X178835042Y-125632099D01*
X178667901Y-125464958D01*
X178536573Y-125268412D01*
X178446115Y-125050026D01*
X178400000Y-124818191D01*
X178400000Y-124581809D01*
X178446115Y-124349974D01*
X178536573Y-124131588D01*
X178667901Y-123935042D01*
X178835042Y-123767901D01*
X179031588Y-123636573D01*
X179249974Y-123546115D01*
X179481809Y-123500000D01*
X179718191Y-123500000D01*
X179950026Y-123546115D01*
X179950026Y-123546115D01*
G37*
G36*
X158350026Y-123546115D02*
X158568412Y-123636573D01*
X158764958Y-123767901D01*
X158932099Y-123935042D01*
X159063427Y-124131588D01*
X159153885Y-124349974D01*
X159200000Y-124581809D01*
X159200000Y-124818191D01*
X159153885Y-125050026D01*
X159063427Y-125268412D01*
X158932099Y-125464958D01*
X158764958Y-125632099D01*
X158568412Y-125763427D01*
X158350026Y-125853885D01*
X158118191Y-125900000D01*
X157881809Y-125900000D01*
X157649974Y-125853885D01*
X157431588Y-125763427D01*
X157235042Y-125632099D01*
X157067901Y-125464958D01*
X156936573Y-125268412D01*
X156846115Y-125050026D01*
X156800000Y-124818191D01*
X156800000Y-124581809D01*
X156846115Y-124349974D01*
X156936573Y-124131588D01*
X157067901Y-123935042D01*
X157235042Y-123767901D01*
X157431588Y-123636573D01*
X157649974Y-123546115D01*
X157881809Y-123500000D01*
X158118191Y-123500000D01*
X158350026Y-123546115D01*
X158350026Y-123546115D01*
G37*
G36*
X60560000Y-125165000D02*
X57460000Y-125165000D01*
X57460000Y-121015000D01*
X60560000Y-121015000D01*
X60560000Y-125165000D01*
X60560000Y-125165000D01*
G37*
G36*
X69760000Y-125165000D02*
X66660000Y-125165000D01*
X66660000Y-121015000D01*
X69760000Y-121015000D01*
X69760000Y-125165000D01*
X69760000Y-125165000D01*
G37*
G36*
X51800823Y-121554151D02*
X51835451Y-121564656D01*
X51867362Y-121581712D01*
X51895333Y-121604667D01*
X51918288Y-121632638D01*
X51935344Y-121664549D01*
X51945849Y-121699177D01*
X51950000Y-121741326D01*
X51950000Y-124458674D01*
X51945849Y-124500823D01*
X51935344Y-124535451D01*
X51918288Y-124567362D01*
X51895333Y-124595333D01*
X51867362Y-124618288D01*
X51835451Y-124635344D01*
X51800823Y-124645849D01*
X51758674Y-124650000D01*
X49041326Y-124650000D01*
X48999177Y-124645849D01*
X48964549Y-124635344D01*
X48932638Y-124618288D01*
X48904667Y-124595333D01*
X48881712Y-124567362D01*
X48864656Y-124535451D01*
X48854151Y-124500823D01*
X48850000Y-124458674D01*
X48850000Y-121741326D01*
X48854151Y-121699177D01*
X48864656Y-121664549D01*
X48881712Y-121632638D01*
X48904667Y-121604667D01*
X48932638Y-121581712D01*
X48964549Y-121564656D01*
X48999177Y-121554151D01*
X49041326Y-121550000D01*
X51758674Y-121550000D01*
X51800823Y-121554151D01*
X51800823Y-121554151D01*
G37*
G36*
X169150026Y-122146115D02*
X169368412Y-122236573D01*
X169564958Y-122367901D01*
X169732099Y-122535042D01*
X169863427Y-122731588D01*
X169953885Y-122949974D01*
X170000000Y-123181809D01*
X170000000Y-123418191D01*
X169953885Y-123650026D01*
X169863427Y-123868412D01*
X169732099Y-124064958D01*
X169564958Y-124232099D01*
X169368412Y-124363427D01*
X169150026Y-124453885D01*
X168918191Y-124500000D01*
X168681809Y-124500000D01*
X168449974Y-124453885D01*
X168231588Y-124363427D01*
X168035042Y-124232099D01*
X167867901Y-124064958D01*
X167736573Y-123868412D01*
X167646115Y-123650026D01*
X167600000Y-123418191D01*
X167600000Y-123181809D01*
X167646115Y-122949974D01*
X167736573Y-122731588D01*
X167867901Y-122535042D01*
X168035042Y-122367901D01*
X168231588Y-122236573D01*
X168449974Y-122146115D01*
X168681809Y-122100000D01*
X168918191Y-122100000D01*
X169150026Y-122146115D01*
X169150026Y-122146115D01*
G37*
G36*
X176350026Y-122146115D02*
X176568412Y-122236573D01*
X176764958Y-122367901D01*
X176932099Y-122535042D01*
X177063427Y-122731588D01*
X177153885Y-122949974D01*
X177200000Y-123181809D01*
X177200000Y-123418191D01*
X177153885Y-123650026D01*
X177063427Y-123868412D01*
X176932099Y-124064958D01*
X176764958Y-124232099D01*
X176568412Y-124363427D01*
X176350026Y-124453885D01*
X176118191Y-124500000D01*
X175881809Y-124500000D01*
X175649974Y-124453885D01*
X175431588Y-124363427D01*
X175235042Y-124232099D01*
X175067901Y-124064958D01*
X174936573Y-123868412D01*
X174846115Y-123650026D01*
X174800000Y-123418191D01*
X174800000Y-123181809D01*
X174846115Y-122949974D01*
X174936573Y-122731588D01*
X175067901Y-122535042D01*
X175235042Y-122367901D01*
X175431588Y-122236573D01*
X175649974Y-122146115D01*
X175881809Y-122100000D01*
X176118191Y-122100000D01*
X176350026Y-122146115D01*
X176350026Y-122146115D01*
G37*
G36*
X212450026Y-122146115D02*
X212668412Y-122236573D01*
X212864958Y-122367901D01*
X213032099Y-122535042D01*
X213163427Y-122731588D01*
X213253885Y-122949974D01*
X213300000Y-123181809D01*
X213300000Y-123418191D01*
X213253885Y-123650026D01*
X213163427Y-123868412D01*
X213032099Y-124064958D01*
X212864958Y-124232099D01*
X212668412Y-124363427D01*
X212450026Y-124453885D01*
X212218191Y-124500000D01*
X211981809Y-124500000D01*
X211749974Y-124453885D01*
X211531588Y-124363427D01*
X211335042Y-124232099D01*
X211167901Y-124064958D01*
X211036573Y-123868412D01*
X210946115Y-123650026D01*
X210900000Y-123418191D01*
X210900000Y-123181809D01*
X210946115Y-122949974D01*
X211036573Y-122731588D01*
X211167901Y-122535042D01*
X211335042Y-122367901D01*
X211531588Y-122236573D01*
X211749974Y-122146115D01*
X211981809Y-122100000D01*
X212218191Y-122100000D01*
X212450026Y-122146115D01*
X212450026Y-122146115D01*
G37*
G36*
X205250026Y-122146115D02*
X205468412Y-122236573D01*
X205664958Y-122367901D01*
X205832099Y-122535042D01*
X205963427Y-122731588D01*
X206053885Y-122949974D01*
X206100000Y-123181809D01*
X206100000Y-123418191D01*
X206053885Y-123650026D01*
X205963427Y-123868412D01*
X205832099Y-124064958D01*
X205664958Y-124232099D01*
X205468412Y-124363427D01*
X205250026Y-124453885D01*
X205018191Y-124500000D01*
X204781809Y-124500000D01*
X204549974Y-124453885D01*
X204331588Y-124363427D01*
X204135042Y-124232099D01*
X203967901Y-124064958D01*
X203836573Y-123868412D01*
X203746115Y-123650026D01*
X203700000Y-123418191D01*
X203700000Y-123181809D01*
X203746115Y-122949974D01*
X203836573Y-122731588D01*
X203967901Y-122535042D01*
X204135042Y-122367901D01*
X204331588Y-122236573D01*
X204549974Y-122146115D01*
X204781809Y-122100000D01*
X205018191Y-122100000D01*
X205250026Y-122146115D01*
X205250026Y-122146115D01*
G37*
G36*
X198050026Y-122146115D02*
X198268412Y-122236573D01*
X198464958Y-122367901D01*
X198632099Y-122535042D01*
X198763427Y-122731588D01*
X198853885Y-122949974D01*
X198900000Y-123181809D01*
X198900000Y-123418191D01*
X198853885Y-123650026D01*
X198763427Y-123868412D01*
X198632099Y-124064958D01*
X198464958Y-124232099D01*
X198268412Y-124363427D01*
X198050026Y-124453885D01*
X197818191Y-124500000D01*
X197581809Y-124500000D01*
X197349974Y-124453885D01*
X197131588Y-124363427D01*
X196935042Y-124232099D01*
X196767901Y-124064958D01*
X196636573Y-123868412D01*
X196546115Y-123650026D01*
X196500000Y-123418191D01*
X196500000Y-123181809D01*
X196546115Y-122949974D01*
X196636573Y-122731588D01*
X196767901Y-122535042D01*
X196935042Y-122367901D01*
X197131588Y-122236573D01*
X197349974Y-122146115D01*
X197581809Y-122100000D01*
X197818191Y-122100000D01*
X198050026Y-122146115D01*
X198050026Y-122146115D01*
G37*
G36*
X190850026Y-122146115D02*
X191068412Y-122236573D01*
X191264958Y-122367901D01*
X191432099Y-122535042D01*
X191563427Y-122731588D01*
X191653885Y-122949974D01*
X191700000Y-123181809D01*
X191700000Y-123418191D01*
X191653885Y-123650026D01*
X191563427Y-123868412D01*
X191432099Y-124064958D01*
X191264958Y-124232099D01*
X191068412Y-124363427D01*
X190850026Y-124453885D01*
X190618191Y-124500000D01*
X190381809Y-124500000D01*
X190149974Y-124453885D01*
X189931588Y-124363427D01*
X189735042Y-124232099D01*
X189567901Y-124064958D01*
X189436573Y-123868412D01*
X189346115Y-123650026D01*
X189300000Y-123418191D01*
X189300000Y-123181809D01*
X189346115Y-122949974D01*
X189436573Y-122731588D01*
X189567901Y-122535042D01*
X189735042Y-122367901D01*
X189931588Y-122236573D01*
X190149974Y-122146115D01*
X190381809Y-122100000D01*
X190618191Y-122100000D01*
X190850026Y-122146115D01*
X190850026Y-122146115D01*
G37*
G36*
X161950026Y-122146115D02*
X162168412Y-122236573D01*
X162364958Y-122367901D01*
X162532099Y-122535042D01*
X162663427Y-122731588D01*
X162753885Y-122949974D01*
X162800000Y-123181809D01*
X162800000Y-123418191D01*
X162753885Y-123650026D01*
X162663427Y-123868412D01*
X162532099Y-124064958D01*
X162364958Y-124232099D01*
X162168412Y-124363427D01*
X161950026Y-124453885D01*
X161718191Y-124500000D01*
X161481809Y-124500000D01*
X161249974Y-124453885D01*
X161031588Y-124363427D01*
X160835042Y-124232099D01*
X160667901Y-124064958D01*
X160536573Y-123868412D01*
X160446115Y-123650026D01*
X160400000Y-123418191D01*
X160400000Y-123181809D01*
X160446115Y-122949974D01*
X160536573Y-122731588D01*
X160667901Y-122535042D01*
X160835042Y-122367901D01*
X161031588Y-122236573D01*
X161249974Y-122146115D01*
X161481809Y-122100000D01*
X161718191Y-122100000D01*
X161950026Y-122146115D01*
X161950026Y-122146115D01*
G37*
G36*
X183550026Y-122146115D02*
X183768412Y-122236573D01*
X183964958Y-122367901D01*
X184132099Y-122535042D01*
X184263427Y-122731588D01*
X184353885Y-122949974D01*
X184400000Y-123181809D01*
X184400000Y-123418191D01*
X184353885Y-123650026D01*
X184263427Y-123868412D01*
X184132099Y-124064958D01*
X183964958Y-124232099D01*
X183768412Y-124363427D01*
X183550026Y-124453885D01*
X183318191Y-124500000D01*
X183081809Y-124500000D01*
X182849974Y-124453885D01*
X182631588Y-124363427D01*
X182435042Y-124232099D01*
X182267901Y-124064958D01*
X182136573Y-123868412D01*
X182046115Y-123650026D01*
X182000000Y-123418191D01*
X182000000Y-123181809D01*
X182046115Y-122949974D01*
X182136573Y-122731588D01*
X182267901Y-122535042D01*
X182435042Y-122367901D01*
X182631588Y-122236573D01*
X182849974Y-122146115D01*
X183081809Y-122100000D01*
X183318191Y-122100000D01*
X183550026Y-122146115D01*
X183550026Y-122146115D01*
G37*
G36*
X122393497Y-122695997D02*
X122446153Y-122711970D01*
X122494665Y-122737900D01*
X122537196Y-122772804D01*
X122572100Y-122815335D01*
X122598030Y-122863847D01*
X122614003Y-122916503D01*
X122620000Y-122977390D01*
X122620000Y-124202610D01*
X122614003Y-124263497D01*
X122598030Y-124316153D01*
X122572100Y-124364665D01*
X122537196Y-124407196D01*
X122494665Y-124442100D01*
X122446153Y-124468030D01*
X122393497Y-124484003D01*
X122332610Y-124490000D01*
X121532390Y-124490000D01*
X121471503Y-124484003D01*
X121418847Y-124468030D01*
X121370335Y-124442100D01*
X121327804Y-124407196D01*
X121292900Y-124364665D01*
X121266970Y-124316153D01*
X121250997Y-124263497D01*
X121245000Y-124202610D01*
X121245000Y-122977390D01*
X121250997Y-122916503D01*
X121266970Y-122863847D01*
X121292900Y-122815335D01*
X121327804Y-122772804D01*
X121370335Y-122737900D01*
X121418847Y-122711970D01*
X121471503Y-122695997D01*
X121532390Y-122690000D01*
X122332610Y-122690000D01*
X122393497Y-122695997D01*
X122393497Y-122695997D01*
G37*
G36*
X124268497Y-122695997D02*
X124321153Y-122711970D01*
X124369665Y-122737900D01*
X124412196Y-122772804D01*
X124447100Y-122815335D01*
X124473030Y-122863847D01*
X124489003Y-122916503D01*
X124495000Y-122977390D01*
X124495000Y-124202610D01*
X124489003Y-124263497D01*
X124473030Y-124316153D01*
X124447100Y-124364665D01*
X124412196Y-124407196D01*
X124369665Y-124442100D01*
X124321153Y-124468030D01*
X124268497Y-124484003D01*
X124207610Y-124490000D01*
X123407390Y-124490000D01*
X123346503Y-124484003D01*
X123293847Y-124468030D01*
X123245335Y-124442100D01*
X123202804Y-124407196D01*
X123167900Y-124364665D01*
X123141970Y-124316153D01*
X123125997Y-124263497D01*
X123120000Y-124202610D01*
X123120000Y-122977390D01*
X123125997Y-122916503D01*
X123141970Y-122863847D01*
X123167900Y-122815335D01*
X123202804Y-122772804D01*
X123245335Y-122737900D01*
X123293847Y-122711970D01*
X123346503Y-122695997D01*
X123407390Y-122690000D01*
X124207610Y-122690000D01*
X124268497Y-122695997D01*
X124268497Y-122695997D01*
G37*
G36*
X106748497Y-122695997D02*
X106801153Y-122711970D01*
X106849665Y-122737900D01*
X106892196Y-122772804D01*
X106927100Y-122815335D01*
X106953030Y-122863847D01*
X106969003Y-122916503D01*
X106975000Y-122977390D01*
X106975000Y-124202610D01*
X106969003Y-124263497D01*
X106953030Y-124316153D01*
X106927100Y-124364665D01*
X106892196Y-124407196D01*
X106849665Y-124442100D01*
X106801153Y-124468030D01*
X106748497Y-124484003D01*
X106687610Y-124490000D01*
X105887390Y-124490000D01*
X105826503Y-124484003D01*
X105773847Y-124468030D01*
X105725335Y-124442100D01*
X105682804Y-124407196D01*
X105647900Y-124364665D01*
X105621970Y-124316153D01*
X105605997Y-124263497D01*
X105600000Y-124202610D01*
X105600000Y-122977390D01*
X105605997Y-122916503D01*
X105621970Y-122863847D01*
X105647900Y-122815335D01*
X105682804Y-122772804D01*
X105725335Y-122737900D01*
X105773847Y-122711970D01*
X105826503Y-122695997D01*
X105887390Y-122690000D01*
X106687610Y-122690000D01*
X106748497Y-122695997D01*
X106748497Y-122695997D01*
G37*
G36*
X104873497Y-122695997D02*
X104926153Y-122711970D01*
X104974665Y-122737900D01*
X105017196Y-122772804D01*
X105052100Y-122815335D01*
X105078030Y-122863847D01*
X105094003Y-122916503D01*
X105100000Y-122977390D01*
X105100000Y-124202610D01*
X105094003Y-124263497D01*
X105078030Y-124316153D01*
X105052100Y-124364665D01*
X105017196Y-124407196D01*
X104974665Y-124442100D01*
X104926153Y-124468030D01*
X104873497Y-124484003D01*
X104812610Y-124490000D01*
X104012390Y-124490000D01*
X103951503Y-124484003D01*
X103898847Y-124468030D01*
X103850335Y-124442100D01*
X103807804Y-124407196D01*
X103772900Y-124364665D01*
X103746970Y-124316153D01*
X103730997Y-124263497D01*
X103725000Y-124202610D01*
X103725000Y-122977390D01*
X103730997Y-122916503D01*
X103746970Y-122863847D01*
X103772900Y-122815335D01*
X103807804Y-122772804D01*
X103850335Y-122737900D01*
X103898847Y-122711970D01*
X103951503Y-122695997D01*
X104012390Y-122690000D01*
X104812610Y-122690000D01*
X104873497Y-122695997D01*
X104873497Y-122695997D01*
G37*
G36*
X226850026Y-122066115D02*
X227068412Y-122156573D01*
X227264958Y-122287901D01*
X227432099Y-122455042D01*
X227563427Y-122651588D01*
X227653885Y-122869974D01*
X227700000Y-123101809D01*
X227700000Y-123338191D01*
X227653885Y-123570026D01*
X227563427Y-123788412D01*
X227432099Y-123984958D01*
X227264958Y-124152099D01*
X227068412Y-124283427D01*
X226850026Y-124373885D01*
X226618191Y-124420000D01*
X226381809Y-124420000D01*
X226149974Y-124373885D01*
X225931588Y-124283427D01*
X225735042Y-124152099D01*
X225567901Y-123984958D01*
X225436573Y-123788412D01*
X225346115Y-123570026D01*
X225300000Y-123338191D01*
X225300000Y-123101809D01*
X225346115Y-122869974D01*
X225436573Y-122651588D01*
X225567901Y-122455042D01*
X225735042Y-122287901D01*
X225931588Y-122156573D01*
X226149974Y-122066115D01*
X226381809Y-122020000D01*
X226618191Y-122020000D01*
X226850026Y-122066115D01*
X226850026Y-122066115D01*
G37*
G36*
X219650026Y-122046115D02*
X219868412Y-122136573D01*
X220064958Y-122267901D01*
X220232099Y-122435042D01*
X220363427Y-122631588D01*
X220453885Y-122849974D01*
X220500000Y-123081809D01*
X220500000Y-123318191D01*
X220453885Y-123550026D01*
X220363427Y-123768412D01*
X220232099Y-123964958D01*
X220064958Y-124132099D01*
X219868412Y-124263427D01*
X219650026Y-124353885D01*
X219418191Y-124400000D01*
X219181809Y-124400000D01*
X218949974Y-124353885D01*
X218731588Y-124263427D01*
X218535042Y-124132099D01*
X218367901Y-123964958D01*
X218236573Y-123768412D01*
X218146115Y-123550026D01*
X218100000Y-123318191D01*
X218100000Y-123081809D01*
X218146115Y-122849974D01*
X218236573Y-122631588D01*
X218367901Y-122435042D01*
X218535042Y-122267901D01*
X218731588Y-122136573D01*
X218949974Y-122046115D01*
X219181809Y-122000000D01*
X219418191Y-122000000D01*
X219650026Y-122046115D01*
X219650026Y-122046115D01*
G37*
G36*
X138182481Y-120409855D02*
X138382118Y-120449565D01*
X138570173Y-120527460D01*
X138664201Y-120566408D01*
X138918071Y-120736038D01*
X139133962Y-120951929D01*
X139303592Y-121205799D01*
X139303592Y-121205800D01*
X139420435Y-121487882D01*
X139455576Y-121664549D01*
X139480000Y-121787337D01*
X139480000Y-122092663D01*
X139467287Y-122156573D01*
X139420435Y-122392118D01*
X139361232Y-122535045D01*
X139303592Y-122674201D01*
X139133962Y-122928071D01*
X138918071Y-123143962D01*
X138664201Y-123313592D01*
X138598459Y-123340823D01*
X138382118Y-123430435D01*
X138242090Y-123458288D01*
X138082663Y-123490000D01*
X137777337Y-123490000D01*
X137617910Y-123458288D01*
X137477882Y-123430435D01*
X137261541Y-123340823D01*
X137195799Y-123313592D01*
X136941929Y-123143962D01*
X136726038Y-122928071D01*
X136556408Y-122674201D01*
X136498768Y-122535045D01*
X136439565Y-122392118D01*
X136392713Y-122156573D01*
X136380000Y-122092663D01*
X136380000Y-121787337D01*
X136404424Y-121664549D01*
X136439565Y-121487882D01*
X136556408Y-121205800D01*
X136556408Y-121205799D01*
X136726038Y-120951929D01*
X136941929Y-120736038D01*
X137195799Y-120566408D01*
X137289827Y-120527460D01*
X137477882Y-120449565D01*
X137677519Y-120409855D01*
X137777337Y-120390000D01*
X138082663Y-120390000D01*
X138182481Y-120409855D01*
X138182481Y-120409855D01*
G37*
G36*
X143290823Y-120394151D02*
X143325451Y-120404656D01*
X143357362Y-120421712D01*
X143385333Y-120444667D01*
X143408288Y-120472638D01*
X143425344Y-120504549D01*
X143435849Y-120539177D01*
X143440000Y-120581326D01*
X143440000Y-123298674D01*
X143435849Y-123340823D01*
X143425344Y-123375451D01*
X143408288Y-123407362D01*
X143385333Y-123435333D01*
X143357362Y-123458288D01*
X143325451Y-123475344D01*
X143290823Y-123485849D01*
X143248674Y-123490000D01*
X140531326Y-123490000D01*
X140489177Y-123485849D01*
X140454549Y-123475344D01*
X140422638Y-123458288D01*
X140394667Y-123435333D01*
X140371712Y-123407362D01*
X140354656Y-123375451D01*
X140344151Y-123340823D01*
X140340000Y-123298674D01*
X140340000Y-120581326D01*
X140344151Y-120539177D01*
X140354656Y-120504549D01*
X140371712Y-120472638D01*
X140394667Y-120444667D01*
X140422638Y-120421712D01*
X140454549Y-120404656D01*
X140489177Y-120394151D01*
X140531326Y-120390000D01*
X143248674Y-120390000D01*
X143290823Y-120394151D01*
X143290823Y-120394151D01*
G37*
G36*
X50596838Y-117598787D02*
X50852118Y-117649565D01*
X51040173Y-117727460D01*
X51134201Y-117766408D01*
X51388071Y-117936038D01*
X51603962Y-118151929D01*
X51773592Y-118405799D01*
X51773592Y-118405800D01*
X51890435Y-118687882D01*
X51950000Y-118987338D01*
X51950000Y-119292662D01*
X51890435Y-119592118D01*
X51812540Y-119780173D01*
X51773592Y-119874201D01*
X51603962Y-120128071D01*
X51388071Y-120343962D01*
X51134201Y-120513592D01*
X51072433Y-120539177D01*
X50852118Y-120630435D01*
X50652481Y-120670145D01*
X50552663Y-120690000D01*
X50247337Y-120690000D01*
X50147519Y-120670145D01*
X49947882Y-120630435D01*
X49727567Y-120539177D01*
X49665799Y-120513592D01*
X49411929Y-120343962D01*
X49196038Y-120128071D01*
X49026408Y-119874201D01*
X48987460Y-119780173D01*
X48909565Y-119592118D01*
X48850000Y-119292662D01*
X48850000Y-118987338D01*
X48909565Y-118687882D01*
X49026408Y-118405800D01*
X49026408Y-118405799D01*
X49196038Y-118151929D01*
X49411929Y-117936038D01*
X49665799Y-117766408D01*
X49759827Y-117727460D01*
X49947882Y-117649565D01*
X50203162Y-117598787D01*
X50247337Y-117590000D01*
X50552663Y-117590000D01*
X50596838Y-117598787D01*
X50596838Y-117598787D01*
G37*
G36*
X75370857Y-117242272D02*
X75571042Y-117325191D01*
X75571045Y-117325193D01*
X75674323Y-117394201D01*
X75751213Y-117445578D01*
X75904422Y-117598787D01*
X76024809Y-117778958D01*
X76107728Y-117979143D01*
X76150000Y-118191658D01*
X76150000Y-118408342D01*
X76107728Y-118620857D01*
X76024809Y-118821042D01*
X75904422Y-119001213D01*
X75751213Y-119154422D01*
X75571042Y-119274809D01*
X75370857Y-119357728D01*
X75158342Y-119400000D01*
X74941658Y-119400000D01*
X74729143Y-119357728D01*
X74528958Y-119274809D01*
X74348787Y-119154422D01*
X74195578Y-119001213D01*
X74075191Y-118821042D01*
X73992272Y-118620857D01*
X73950000Y-118408342D01*
X73950000Y-118191658D01*
X73992272Y-117979143D01*
X74075191Y-117778958D01*
X74195578Y-117598787D01*
X74348787Y-117445578D01*
X74425678Y-117394201D01*
X74528955Y-117325193D01*
X74528958Y-117325191D01*
X74729143Y-117242272D01*
X74941658Y-117200000D01*
X75158342Y-117200000D01*
X75370857Y-117242272D01*
X75370857Y-117242272D01*
G37*
G36*
X89209122Y-115246115D02*
X89325041Y-115269173D01*
X89652620Y-115404861D01*
X89740375Y-115463497D01*
X89947436Y-115601851D01*
X90198149Y-115852564D01*
X90198151Y-115852567D01*
X90395139Y-116147380D01*
X90530827Y-116474959D01*
X90542521Y-116533750D01*
X90598001Y-116812663D01*
X90600000Y-116822716D01*
X90600000Y-117177284D01*
X90530827Y-117525041D01*
X90395139Y-117852620D01*
X90310599Y-117979143D01*
X90198149Y-118147436D01*
X89947436Y-118398149D01*
X89947433Y-118398151D01*
X89652620Y-118595139D01*
X89652619Y-118595140D01*
X89652618Y-118595140D01*
X89590529Y-118620858D01*
X89325041Y-118730827D01*
X89209122Y-118753885D01*
X88977286Y-118800000D01*
X88622714Y-118800000D01*
X88390878Y-118753885D01*
X88274959Y-118730827D01*
X88009471Y-118620858D01*
X87947382Y-118595140D01*
X87947381Y-118595140D01*
X87947380Y-118595139D01*
X87652567Y-118398151D01*
X87652564Y-118398149D01*
X87401851Y-118147436D01*
X87289401Y-117979143D01*
X87204861Y-117852620D01*
X87069173Y-117525041D01*
X87000000Y-117177284D01*
X87000000Y-116822716D01*
X87002000Y-116812663D01*
X87057479Y-116533750D01*
X87069173Y-116474959D01*
X87204861Y-116147380D01*
X87401849Y-115852567D01*
X87401851Y-115852564D01*
X87652564Y-115601851D01*
X87859625Y-115463497D01*
X87947380Y-115404861D01*
X88274959Y-115269173D01*
X88390878Y-115246115D01*
X88622714Y-115200000D01*
X88977286Y-115200000D01*
X89209122Y-115246115D01*
X89209122Y-115246115D01*
G37*
G36*
X106709122Y-115246115D02*
X106825041Y-115269173D01*
X107152620Y-115404861D01*
X107240375Y-115463497D01*
X107447436Y-115601851D01*
X107698149Y-115852564D01*
X107698151Y-115852567D01*
X107895139Y-116147380D01*
X108030827Y-116474959D01*
X108042521Y-116533750D01*
X108098001Y-116812663D01*
X108100000Y-116822716D01*
X108100000Y-117177284D01*
X108030827Y-117525041D01*
X107895139Y-117852620D01*
X107810599Y-117979143D01*
X107698149Y-118147436D01*
X107447436Y-118398149D01*
X107447433Y-118398151D01*
X107152620Y-118595139D01*
X107152619Y-118595140D01*
X107152618Y-118595140D01*
X107090529Y-118620858D01*
X106825041Y-118730827D01*
X106709122Y-118753885D01*
X106477286Y-118800000D01*
X106122714Y-118800000D01*
X105890878Y-118753885D01*
X105774959Y-118730827D01*
X105509471Y-118620858D01*
X105447382Y-118595140D01*
X105447381Y-118595140D01*
X105447380Y-118595139D01*
X105152567Y-118398151D01*
X105152564Y-118398149D01*
X104901851Y-118147436D01*
X104789401Y-117979143D01*
X104704861Y-117852620D01*
X104569173Y-117525041D01*
X104500000Y-117177284D01*
X104500000Y-116822716D01*
X104502000Y-116812663D01*
X104557479Y-116533750D01*
X104569173Y-116474959D01*
X104704861Y-116147380D01*
X104901849Y-115852567D01*
X104901851Y-115852564D01*
X105152564Y-115601851D01*
X105359625Y-115463497D01*
X105447380Y-115404861D01*
X105774959Y-115269173D01*
X105890878Y-115246115D01*
X106122714Y-115200000D01*
X106477286Y-115200000D01*
X106709122Y-115246115D01*
X106709122Y-115246115D01*
G37*
G36*
X124209122Y-115246115D02*
X124325041Y-115269173D01*
X124652620Y-115404861D01*
X124740375Y-115463497D01*
X124947436Y-115601851D01*
X125198149Y-115852564D01*
X125198151Y-115852567D01*
X125395139Y-116147380D01*
X125530827Y-116474959D01*
X125542521Y-116533750D01*
X125598001Y-116812663D01*
X125600000Y-116822716D01*
X125600000Y-117177284D01*
X125530827Y-117525041D01*
X125395139Y-117852620D01*
X125310599Y-117979143D01*
X125198149Y-118147436D01*
X124947436Y-118398149D01*
X124947433Y-118398151D01*
X124652620Y-118595139D01*
X124652619Y-118595140D01*
X124652618Y-118595140D01*
X124590529Y-118620858D01*
X124325041Y-118730827D01*
X124209122Y-118753885D01*
X123977286Y-118800000D01*
X123622714Y-118800000D01*
X123390878Y-118753885D01*
X123274959Y-118730827D01*
X123009471Y-118620858D01*
X122947382Y-118595140D01*
X122947381Y-118595140D01*
X122947380Y-118595139D01*
X122652567Y-118398151D01*
X122652564Y-118398149D01*
X122401851Y-118147436D01*
X122289401Y-117979143D01*
X122204861Y-117852620D01*
X122069173Y-117525041D01*
X122000000Y-117177284D01*
X122000000Y-116822716D01*
X122002000Y-116812663D01*
X122057479Y-116533750D01*
X122069173Y-116474959D01*
X122204861Y-116147380D01*
X122401849Y-115852567D01*
X122401851Y-115852564D01*
X122652564Y-115601851D01*
X122859625Y-115463497D01*
X122947380Y-115404861D01*
X123274959Y-115269173D01*
X123390878Y-115246115D01*
X123622714Y-115200000D01*
X123977286Y-115200000D01*
X124209122Y-115246115D01*
X124209122Y-115246115D01*
G37*
G36*
X235852481Y-115129855D02*
X236052118Y-115169565D01*
X236240173Y-115247460D01*
X236334201Y-115286408D01*
X236588071Y-115456038D01*
X236803962Y-115671929D01*
X236973592Y-115925799D01*
X236973592Y-115925800D01*
X237090435Y-116207882D01*
X237117266Y-116342773D01*
X237143560Y-116474959D01*
X237150000Y-116507338D01*
X237150000Y-116812662D01*
X237090435Y-117112118D01*
X237012540Y-117300173D01*
X236973592Y-117394201D01*
X236803962Y-117648071D01*
X236588071Y-117863962D01*
X236334201Y-118033592D01*
X236240173Y-118072540D01*
X236052118Y-118150435D01*
X235852481Y-118190145D01*
X235752663Y-118210000D01*
X235447337Y-118210000D01*
X235347519Y-118190145D01*
X235147882Y-118150435D01*
X234959827Y-118072540D01*
X234865799Y-118033592D01*
X234611929Y-117863962D01*
X234396038Y-117648071D01*
X234226408Y-117394201D01*
X234187460Y-117300173D01*
X234109565Y-117112118D01*
X234050000Y-116812662D01*
X234050000Y-116507338D01*
X234056441Y-116474959D01*
X234082734Y-116342773D01*
X234109565Y-116207882D01*
X234226408Y-115925800D01*
X234226408Y-115925799D01*
X234396038Y-115671929D01*
X234611929Y-115456038D01*
X234865799Y-115286408D01*
X234959827Y-115247460D01*
X235147882Y-115169565D01*
X235347519Y-115129855D01*
X235447337Y-115110000D01*
X235752663Y-115110000D01*
X235852481Y-115129855D01*
X235852481Y-115129855D01*
G37*
G36*
X228933497Y-116195997D02*
X228986153Y-116211970D01*
X229034665Y-116237900D01*
X229077196Y-116272804D01*
X229112100Y-116315335D01*
X229138030Y-116363847D01*
X229154003Y-116416503D01*
X229160000Y-116477390D01*
X229160000Y-117277610D01*
X229154003Y-117338497D01*
X229138030Y-117391153D01*
X229112100Y-117439665D01*
X229077196Y-117482196D01*
X229034665Y-117517100D01*
X228986153Y-117543030D01*
X228933497Y-117559003D01*
X228872610Y-117565000D01*
X227647390Y-117565000D01*
X227586503Y-117559003D01*
X227533847Y-117543030D01*
X227485335Y-117517100D01*
X227442804Y-117482196D01*
X227407900Y-117439665D01*
X227381970Y-117391153D01*
X227365997Y-117338497D01*
X227360000Y-117277610D01*
X227360000Y-116477390D01*
X227365997Y-116416503D01*
X227381970Y-116363847D01*
X227407900Y-116315335D01*
X227442804Y-116272804D01*
X227485335Y-116237900D01*
X227533847Y-116211970D01*
X227586503Y-116195997D01*
X227647390Y-116190000D01*
X228872610Y-116190000D01*
X228933497Y-116195997D01*
X228933497Y-116195997D01*
G37*
G36*
X50652481Y-113649855D02*
X50852118Y-113689565D01*
X51040173Y-113767460D01*
X51134201Y-113806408D01*
X51388071Y-113976038D01*
X51603962Y-114191929D01*
X51773592Y-114445799D01*
X51812540Y-114539827D01*
X51890435Y-114727882D01*
X51908966Y-114821045D01*
X51944804Y-115001213D01*
X51950000Y-115027338D01*
X51950000Y-115332662D01*
X51890435Y-115632118D01*
X51873943Y-115671932D01*
X51773592Y-115914201D01*
X51603962Y-116168071D01*
X51388071Y-116383962D01*
X51134201Y-116553592D01*
X51040173Y-116592540D01*
X50852118Y-116670435D01*
X50652481Y-116710145D01*
X50552663Y-116730000D01*
X50247337Y-116730000D01*
X50147519Y-116710145D01*
X49947882Y-116670435D01*
X49759827Y-116592540D01*
X49665799Y-116553592D01*
X49411929Y-116383962D01*
X49196038Y-116168071D01*
X49026408Y-115914201D01*
X48926057Y-115671932D01*
X48909565Y-115632118D01*
X48850000Y-115332662D01*
X48850000Y-115027338D01*
X48855197Y-115001213D01*
X48891034Y-114821045D01*
X48909565Y-114727882D01*
X48987460Y-114539827D01*
X49026408Y-114445799D01*
X49196038Y-114191929D01*
X49411929Y-113976038D01*
X49665799Y-113806408D01*
X49759827Y-113767460D01*
X49947882Y-113689565D01*
X50147519Y-113649855D01*
X50247337Y-113630000D01*
X50552663Y-113630000D01*
X50652481Y-113649855D01*
X50652481Y-113649855D01*
G37*
G36*
X228933497Y-114320997D02*
X228986153Y-114336970D01*
X229034665Y-114362900D01*
X229077196Y-114397804D01*
X229112100Y-114440335D01*
X229138030Y-114488847D01*
X229154003Y-114541503D01*
X229160000Y-114602390D01*
X229160000Y-115402610D01*
X229154003Y-115463497D01*
X229138030Y-115516153D01*
X229112100Y-115564665D01*
X229077196Y-115607196D01*
X229034665Y-115642100D01*
X228986153Y-115668030D01*
X228933497Y-115684003D01*
X228872610Y-115690000D01*
X227647390Y-115690000D01*
X227586503Y-115684003D01*
X227533847Y-115668030D01*
X227485335Y-115642100D01*
X227442804Y-115607196D01*
X227407900Y-115564665D01*
X227381970Y-115516153D01*
X227365997Y-115463497D01*
X227360000Y-115402610D01*
X227360000Y-114602390D01*
X227365997Y-114541503D01*
X227381970Y-114488847D01*
X227407900Y-114440335D01*
X227442804Y-114397804D01*
X227485335Y-114362900D01*
X227533847Y-114336970D01*
X227586503Y-114320997D01*
X227647390Y-114315000D01*
X228872610Y-114315000D01*
X228933497Y-114320997D01*
X228933497Y-114320997D01*
G37*
G36*
X67870857Y-113242272D02*
X68071042Y-113325191D01*
X68251213Y-113445578D01*
X68404422Y-113598787D01*
X68524809Y-113778958D01*
X68607728Y-113979143D01*
X68650000Y-114191658D01*
X68650000Y-114408342D01*
X68607728Y-114620857D01*
X68524809Y-114821042D01*
X68404422Y-115001213D01*
X68251213Y-115154422D01*
X68071042Y-115274809D01*
X67870857Y-115357728D01*
X67658342Y-115400000D01*
X67441658Y-115400000D01*
X67229143Y-115357728D01*
X67028958Y-115274809D01*
X66848787Y-115154422D01*
X66695578Y-115001213D01*
X66575191Y-114821042D01*
X66492272Y-114620857D01*
X66450000Y-114408342D01*
X66450000Y-114191658D01*
X66492272Y-113979143D01*
X66575191Y-113778958D01*
X66695578Y-113598787D01*
X66848787Y-113445578D01*
X67028958Y-113325191D01*
X67229143Y-113242272D01*
X67441658Y-113200000D01*
X67658342Y-113200000D01*
X67870857Y-113242272D01*
X67870857Y-113242272D01*
G37*
G36*
X237000823Y-111154151D02*
X237035451Y-111164656D01*
X237067362Y-111181712D01*
X237095333Y-111204667D01*
X237118288Y-111232638D01*
X237135344Y-111264549D01*
X237145849Y-111299177D01*
X237150000Y-111341326D01*
X237150000Y-114058674D01*
X237145849Y-114100823D01*
X237135344Y-114135451D01*
X237118288Y-114167362D01*
X237095333Y-114195333D01*
X237067362Y-114218288D01*
X237035451Y-114235344D01*
X237000823Y-114245849D01*
X236958674Y-114250000D01*
X234241326Y-114250000D01*
X234199177Y-114245849D01*
X234164549Y-114235344D01*
X234132638Y-114218288D01*
X234104667Y-114195333D01*
X234081712Y-114167362D01*
X234064656Y-114135451D01*
X234054151Y-114100823D01*
X234050000Y-114058674D01*
X234050000Y-111341326D01*
X234054151Y-111299177D01*
X234064656Y-111264549D01*
X234081712Y-111232638D01*
X234104667Y-111204667D01*
X234132638Y-111181712D01*
X234164549Y-111164656D01*
X234199177Y-111154151D01*
X234241326Y-111150000D01*
X236958674Y-111150000D01*
X237000823Y-111154151D01*
X237000823Y-111154151D01*
G37*
G36*
X193725443Y-67604194D02*
X193934728Y-67690883D01*
X194123085Y-67816739D01*
X194283261Y-67976915D01*
X194409117Y-68165272D01*
X194495806Y-68374557D01*
X194540000Y-68596734D01*
X194540000Y-68823266D01*
X194495806Y-69045443D01*
X194409117Y-69254728D01*
X194283261Y-69443085D01*
X194123085Y-69603261D01*
X193934728Y-69729117D01*
X193845081Y-69766250D01*
X193725443Y-69815806D01*
X193637434Y-69833312D01*
X193516327Y-69857402D01*
X193492877Y-69864515D01*
X193471267Y-69876066D01*
X193452325Y-69891612D01*
X193436779Y-69910554D01*
X193425228Y-69932165D01*
X193418115Y-69955614D01*
X193415713Y-69980000D01*
X193418115Y-70004386D01*
X193425228Y-70027836D01*
X193436779Y-70049446D01*
X193452325Y-70068388D01*
X193471267Y-70083934D01*
X193492878Y-70095485D01*
X193516327Y-70102598D01*
X193620158Y-70123251D01*
X193725443Y-70144194D01*
X193812132Y-70180102D01*
X193934728Y-70230883D01*
X194123085Y-70356739D01*
X194283261Y-70516915D01*
X194409117Y-70705272D01*
X194495806Y-70914557D01*
X194540000Y-71136734D01*
X194540000Y-71363266D01*
X194495806Y-71585443D01*
X194409117Y-71794728D01*
X194283261Y-71983085D01*
X194123085Y-72143261D01*
X193934728Y-72269117D01*
X193812132Y-72319898D01*
X193725443Y-72355806D01*
X193620158Y-72376749D01*
X193516327Y-72397402D01*
X193492877Y-72404515D01*
X193471267Y-72416066D01*
X193452325Y-72431612D01*
X193436779Y-72450554D01*
X193425228Y-72472165D01*
X193418115Y-72495614D01*
X193415713Y-72520000D01*
X193418115Y-72544386D01*
X193425228Y-72567836D01*
X193436779Y-72589446D01*
X193452325Y-72608388D01*
X193471267Y-72623934D01*
X193492878Y-72635485D01*
X193516327Y-72642598D01*
X193620158Y-72663251D01*
X193725443Y-72684194D01*
X193773654Y-72704164D01*
X193934728Y-72770883D01*
X194123085Y-72896739D01*
X194283261Y-73056915D01*
X194409117Y-73245272D01*
X194495806Y-73454557D01*
X194540000Y-73676734D01*
X194540000Y-73903266D01*
X194495806Y-74125443D01*
X194409117Y-74334728D01*
X194283261Y-74523085D01*
X194123085Y-74683261D01*
X193934728Y-74809117D01*
X193812132Y-74859898D01*
X193725443Y-74895806D01*
X193620158Y-74916749D01*
X193516327Y-74937402D01*
X193492877Y-74944515D01*
X193471267Y-74956066D01*
X193452325Y-74971612D01*
X193436779Y-74990554D01*
X193425228Y-75012165D01*
X193418115Y-75035614D01*
X193415713Y-75060000D01*
X193418115Y-75084386D01*
X193425228Y-75107836D01*
X193436779Y-75129446D01*
X193452325Y-75148388D01*
X193471267Y-75163934D01*
X193492878Y-75175485D01*
X193516327Y-75182598D01*
X193578675Y-75195000D01*
X193725443Y-75224194D01*
X193812132Y-75260102D01*
X193934728Y-75310883D01*
X194123085Y-75436739D01*
X194283261Y-75596915D01*
X194409117Y-75785272D01*
X194495806Y-75994557D01*
X194540000Y-76216734D01*
X194540000Y-76443266D01*
X194495806Y-76665443D01*
X194409117Y-76874728D01*
X194283261Y-77063085D01*
X194123085Y-77223261D01*
X193934728Y-77349117D01*
X193812132Y-77399898D01*
X193725443Y-77435806D01*
X193620158Y-77456749D01*
X193516327Y-77477402D01*
X193492877Y-77484515D01*
X193471267Y-77496066D01*
X193452325Y-77511612D01*
X193436779Y-77530554D01*
X193425228Y-77552165D01*
X193418115Y-77575614D01*
X193415713Y-77600000D01*
X193418115Y-77624386D01*
X193425228Y-77647836D01*
X193436779Y-77669446D01*
X193452325Y-77688388D01*
X193471267Y-77703934D01*
X193492878Y-77715485D01*
X193516327Y-77722598D01*
X193620158Y-77743251D01*
X193725443Y-77764194D01*
X193778659Y-77786237D01*
X193934728Y-77850883D01*
X194123085Y-77976739D01*
X194283261Y-78136915D01*
X194409117Y-78325272D01*
X194495806Y-78534557D01*
X194540000Y-78756734D01*
X194540000Y-78983266D01*
X194495806Y-79205443D01*
X194409117Y-79414728D01*
X194283261Y-79603085D01*
X194123085Y-79763261D01*
X193934728Y-79889117D01*
X193812132Y-79939898D01*
X193725443Y-79975806D01*
X193620158Y-79996749D01*
X193516327Y-80017402D01*
X193492877Y-80024515D01*
X193471267Y-80036066D01*
X193452325Y-80051612D01*
X193436779Y-80070554D01*
X193425228Y-80092165D01*
X193418115Y-80115614D01*
X193415713Y-80140000D01*
X193418115Y-80164386D01*
X193425228Y-80187836D01*
X193436779Y-80209446D01*
X193452325Y-80228388D01*
X193471267Y-80243934D01*
X193492878Y-80255485D01*
X193516327Y-80262598D01*
X193620158Y-80283251D01*
X193725443Y-80304194D01*
X193812132Y-80340102D01*
X193934728Y-80390883D01*
X194123085Y-80516739D01*
X194283261Y-80676915D01*
X194409117Y-80865272D01*
X194495806Y-81074557D01*
X194540000Y-81296734D01*
X194540000Y-81523266D01*
X194495806Y-81745443D01*
X194409117Y-81954728D01*
X194283261Y-82143085D01*
X194123085Y-82303261D01*
X193934728Y-82429117D01*
X193812132Y-82479898D01*
X193725443Y-82515806D01*
X193620158Y-82536749D01*
X193516327Y-82557402D01*
X193492877Y-82564515D01*
X193471267Y-82576066D01*
X193452325Y-82591612D01*
X193436779Y-82610554D01*
X193425228Y-82632165D01*
X193418115Y-82655614D01*
X193415713Y-82680000D01*
X193418115Y-82704386D01*
X193425228Y-82727836D01*
X193436779Y-82749446D01*
X193452325Y-82768388D01*
X193471267Y-82783934D01*
X193492878Y-82795485D01*
X193516327Y-82802598D01*
X193620158Y-82823251D01*
X193725443Y-82844194D01*
X193812132Y-82880102D01*
X193934728Y-82930883D01*
X194123085Y-83056739D01*
X194283261Y-83216915D01*
X194409117Y-83405272D01*
X194495806Y-83614557D01*
X194540000Y-83836734D01*
X194540000Y-84063266D01*
X194495806Y-84285443D01*
X194409117Y-84494728D01*
X194283261Y-84683085D01*
X194123085Y-84843261D01*
X193934728Y-84969117D01*
X193812132Y-85019898D01*
X193725443Y-85055806D01*
X193620158Y-85076749D01*
X193516327Y-85097402D01*
X193492877Y-85104515D01*
X193471267Y-85116066D01*
X193452325Y-85131612D01*
X193436779Y-85150554D01*
X193425228Y-85172165D01*
X193418115Y-85195614D01*
X193415713Y-85220000D01*
X193418115Y-85244386D01*
X193425228Y-85267836D01*
X193436779Y-85289446D01*
X193452325Y-85308388D01*
X193471267Y-85323934D01*
X193492878Y-85335485D01*
X193516327Y-85342598D01*
X193620158Y-85363251D01*
X193725443Y-85384194D01*
X193812132Y-85420102D01*
X193934728Y-85470883D01*
X194123085Y-85596739D01*
X194283261Y-85756915D01*
X194409117Y-85945272D01*
X194495806Y-86154557D01*
X194540000Y-86376734D01*
X194540000Y-86603266D01*
X194495806Y-86825443D01*
X194409117Y-87034728D01*
X194283261Y-87223085D01*
X194123085Y-87383261D01*
X193934728Y-87509117D01*
X193812132Y-87559898D01*
X193725443Y-87595806D01*
X193620158Y-87616749D01*
X193516327Y-87637402D01*
X193492877Y-87644515D01*
X193471267Y-87656066D01*
X193452325Y-87671612D01*
X193436779Y-87690554D01*
X193425228Y-87712165D01*
X193418115Y-87735614D01*
X193415713Y-87760000D01*
X193418115Y-87784386D01*
X193425228Y-87807836D01*
X193436779Y-87829446D01*
X193452325Y-87848388D01*
X193471267Y-87863934D01*
X193492878Y-87875485D01*
X193516327Y-87882598D01*
X193620158Y-87903251D01*
X193725443Y-87924194D01*
X193812132Y-87960102D01*
X193934728Y-88010883D01*
X194123085Y-88136739D01*
X194283261Y-88296915D01*
X194409117Y-88485272D01*
X194495806Y-88694557D01*
X194540000Y-88916734D01*
X194540000Y-89143266D01*
X194495806Y-89365443D01*
X194409117Y-89574728D01*
X194283261Y-89763085D01*
X194123085Y-89923261D01*
X193934728Y-90049117D01*
X193812132Y-90099898D01*
X193725443Y-90135806D01*
X193620158Y-90156749D01*
X193516327Y-90177402D01*
X193492877Y-90184515D01*
X193471267Y-90196066D01*
X193452325Y-90211612D01*
X193436779Y-90230554D01*
X193425228Y-90252165D01*
X193418115Y-90275614D01*
X193415713Y-90300000D01*
X193418115Y-90324386D01*
X193425228Y-90347836D01*
X193436779Y-90369446D01*
X193452325Y-90388388D01*
X193471267Y-90403934D01*
X193492878Y-90415485D01*
X193516327Y-90422598D01*
X193620158Y-90443251D01*
X193725443Y-90464194D01*
X193812132Y-90500102D01*
X193934728Y-90550883D01*
X194123085Y-90676739D01*
X194283261Y-90836915D01*
X194409117Y-91025272D01*
X194495806Y-91234557D01*
X194540000Y-91456734D01*
X194540000Y-91683266D01*
X194495806Y-91905443D01*
X194409117Y-92114728D01*
X194283261Y-92303085D01*
X194123085Y-92463261D01*
X193934728Y-92589117D01*
X193812132Y-92639898D01*
X193725443Y-92675806D01*
X193620158Y-92696749D01*
X193516327Y-92717402D01*
X193492877Y-92724515D01*
X193471267Y-92736066D01*
X193452325Y-92751612D01*
X193436779Y-92770554D01*
X193425228Y-92792165D01*
X193418115Y-92815614D01*
X193415713Y-92840000D01*
X193418115Y-92864386D01*
X193425228Y-92887836D01*
X193436779Y-92909446D01*
X193452325Y-92928388D01*
X193471267Y-92943934D01*
X193492878Y-92955485D01*
X193516327Y-92962598D01*
X193620158Y-92983251D01*
X193725443Y-93004194D01*
X193812132Y-93040102D01*
X193934728Y-93090883D01*
X194123085Y-93216739D01*
X194283261Y-93376915D01*
X194409117Y-93565272D01*
X194495806Y-93774557D01*
X194540000Y-93996734D01*
X194540000Y-94223266D01*
X194495806Y-94445443D01*
X194409117Y-94654728D01*
X194283261Y-94843085D01*
X194123085Y-95003261D01*
X193934728Y-95129117D01*
X193812132Y-95179898D01*
X193725443Y-95215806D01*
X193620158Y-95236749D01*
X193516327Y-95257402D01*
X193492877Y-95264515D01*
X193471267Y-95276066D01*
X193452325Y-95291612D01*
X193436779Y-95310554D01*
X193425228Y-95332165D01*
X193418115Y-95355614D01*
X193415713Y-95380000D01*
X193418115Y-95404386D01*
X193425228Y-95427836D01*
X193436779Y-95449446D01*
X193452325Y-95468388D01*
X193471267Y-95483934D01*
X193492878Y-95495485D01*
X193516327Y-95502598D01*
X193620158Y-95523251D01*
X193725443Y-95544194D01*
X193812132Y-95580102D01*
X193934728Y-95630883D01*
X194123085Y-95756739D01*
X194283261Y-95916915D01*
X194409117Y-96105272D01*
X194495806Y-96314557D01*
X194540000Y-96536734D01*
X194540000Y-96763266D01*
X194495806Y-96985443D01*
X194409117Y-97194728D01*
X194283261Y-97383085D01*
X194123085Y-97543261D01*
X193934728Y-97669117D01*
X193826945Y-97713762D01*
X193725443Y-97755806D01*
X193620158Y-97776749D01*
X193516327Y-97797402D01*
X193492877Y-97804515D01*
X193471267Y-97816066D01*
X193452325Y-97831612D01*
X193436779Y-97850554D01*
X193425228Y-97872165D01*
X193418115Y-97895614D01*
X193415713Y-97920000D01*
X193418115Y-97944386D01*
X193425228Y-97967836D01*
X193436779Y-97989446D01*
X193452325Y-98008388D01*
X193471267Y-98023934D01*
X193492878Y-98035485D01*
X193516327Y-98042598D01*
X193583974Y-98056054D01*
X193725443Y-98084194D01*
X193812132Y-98120102D01*
X193934728Y-98170883D01*
X194123085Y-98296739D01*
X194283261Y-98456915D01*
X194409117Y-98645272D01*
X194495806Y-98854557D01*
X194540000Y-99076734D01*
X194540000Y-99303266D01*
X194495806Y-99525443D01*
X194409117Y-99734728D01*
X194283261Y-99923085D01*
X194123085Y-100083261D01*
X193934728Y-100209117D01*
X193812132Y-100259898D01*
X193725443Y-100295806D01*
X193620158Y-100316749D01*
X193516327Y-100337402D01*
X193492877Y-100344515D01*
X193471267Y-100356066D01*
X193452325Y-100371612D01*
X193436779Y-100390554D01*
X193425228Y-100412165D01*
X193418115Y-100435614D01*
X193415713Y-100460000D01*
X193418115Y-100484386D01*
X193425228Y-100507836D01*
X193436779Y-100529446D01*
X193452325Y-100548388D01*
X193471267Y-100563934D01*
X193492878Y-100575485D01*
X193516327Y-100582598D01*
X193620158Y-100603251D01*
X193725443Y-100624194D01*
X193805343Y-100657290D01*
X193934728Y-100710883D01*
X194123085Y-100836739D01*
X194283261Y-100996915D01*
X194409117Y-101185272D01*
X194495806Y-101394557D01*
X194540000Y-101616734D01*
X194540000Y-101843266D01*
X194495806Y-102065443D01*
X194409117Y-102274728D01*
X194283261Y-102463085D01*
X194123085Y-102623261D01*
X193934728Y-102749117D01*
X193821943Y-102795834D01*
X193725443Y-102835806D01*
X193620158Y-102856749D01*
X193516327Y-102877402D01*
X193492877Y-102884515D01*
X193471267Y-102896066D01*
X193452325Y-102911612D01*
X193436779Y-102930554D01*
X193425228Y-102952165D01*
X193418115Y-102975614D01*
X193415713Y-103000000D01*
X193418115Y-103024386D01*
X193425228Y-103047836D01*
X193436779Y-103069446D01*
X193452325Y-103088388D01*
X193471267Y-103103934D01*
X193492878Y-103115485D01*
X193516327Y-103122598D01*
X193620158Y-103143251D01*
X193725443Y-103164194D01*
X193812132Y-103200102D01*
X193934728Y-103250883D01*
X194123085Y-103376739D01*
X194283261Y-103536915D01*
X194409117Y-103725272D01*
X194495806Y-103934557D01*
X194540000Y-104156734D01*
X194540000Y-104383266D01*
X194495806Y-104605443D01*
X194409117Y-104814728D01*
X194283261Y-105003085D01*
X194123085Y-105163261D01*
X193934728Y-105289117D01*
X193812132Y-105339898D01*
X193725443Y-105375806D01*
X193620158Y-105396749D01*
X193516327Y-105417402D01*
X193492877Y-105424515D01*
X193471267Y-105436066D01*
X193452325Y-105451612D01*
X193436779Y-105470554D01*
X193425228Y-105492165D01*
X193418115Y-105515614D01*
X193415713Y-105540000D01*
X193418115Y-105564386D01*
X193425228Y-105587836D01*
X193436779Y-105609446D01*
X193452325Y-105628388D01*
X193471267Y-105643934D01*
X193492878Y-105655485D01*
X193516327Y-105662598D01*
X193620158Y-105683251D01*
X193725443Y-105704194D01*
X193812132Y-105740102D01*
X193934728Y-105790883D01*
X194123085Y-105916739D01*
X194283261Y-106076915D01*
X194409117Y-106265272D01*
X194495806Y-106474557D01*
X194540000Y-106696734D01*
X194540000Y-106923266D01*
X194495806Y-107145443D01*
X194409117Y-107354728D01*
X194283261Y-107543085D01*
X194123085Y-107703261D01*
X193934728Y-107829117D01*
X193812132Y-107879898D01*
X193725443Y-107915806D01*
X193620158Y-107936749D01*
X193516327Y-107957402D01*
X193492877Y-107964515D01*
X193471267Y-107976066D01*
X193452325Y-107991612D01*
X193436779Y-108010554D01*
X193425228Y-108032165D01*
X193418115Y-108055614D01*
X193415713Y-108080000D01*
X193418115Y-108104386D01*
X193425228Y-108127836D01*
X193436779Y-108149446D01*
X193452325Y-108168388D01*
X193471267Y-108183934D01*
X193492878Y-108195485D01*
X193516327Y-108202598D01*
X193620158Y-108223251D01*
X193725443Y-108244194D01*
X193812132Y-108280102D01*
X193934728Y-108330883D01*
X194123085Y-108456739D01*
X194283261Y-108616915D01*
X194409117Y-108805272D01*
X194495806Y-109014557D01*
X194540000Y-109236734D01*
X194540000Y-109463266D01*
X194495806Y-109685443D01*
X194409117Y-109894728D01*
X194283261Y-110083085D01*
X194123085Y-110243261D01*
X193934728Y-110369117D01*
X193812132Y-110419898D01*
X193725443Y-110455806D01*
X193620158Y-110476749D01*
X193516327Y-110497402D01*
X193492877Y-110504515D01*
X193471267Y-110516066D01*
X193452325Y-110531612D01*
X193436779Y-110550554D01*
X193425228Y-110572165D01*
X193418115Y-110595614D01*
X193415713Y-110620000D01*
X193418115Y-110644386D01*
X193425228Y-110667836D01*
X193436779Y-110689446D01*
X193452325Y-110708388D01*
X193471267Y-110723934D01*
X193492878Y-110735485D01*
X193516327Y-110742598D01*
X193620158Y-110763251D01*
X193725443Y-110784194D01*
X193812132Y-110820102D01*
X193934728Y-110870883D01*
X194123085Y-110996739D01*
X194283261Y-111156915D01*
X194409117Y-111345272D01*
X194495806Y-111554557D01*
X194540000Y-111776734D01*
X194540000Y-112003266D01*
X194495806Y-112225443D01*
X194409117Y-112434728D01*
X194283261Y-112623085D01*
X194123085Y-112783261D01*
X193934728Y-112909117D01*
X193725443Y-112995806D01*
X193503266Y-113040000D01*
X193276734Y-113040000D01*
X193054557Y-112995806D01*
X192845272Y-112909117D01*
X192656915Y-112783261D01*
X192496739Y-112623085D01*
X192370883Y-112434728D01*
X192284194Y-112225443D01*
X192240000Y-112003266D01*
X192240000Y-111776734D01*
X192284194Y-111554557D01*
X192370883Y-111345272D01*
X192496739Y-111156915D01*
X192656915Y-110996739D01*
X192845272Y-110870883D01*
X192967868Y-110820102D01*
X193054557Y-110784194D01*
X193159842Y-110763251D01*
X193263673Y-110742598D01*
X193287123Y-110735485D01*
X193308733Y-110723934D01*
X193327675Y-110708388D01*
X193343221Y-110689446D01*
X193354772Y-110667835D01*
X193361885Y-110644386D01*
X193364287Y-110620000D01*
X193361885Y-110595614D01*
X193354772Y-110572164D01*
X193343221Y-110550554D01*
X193327675Y-110531612D01*
X193308733Y-110516066D01*
X193287122Y-110504515D01*
X193263673Y-110497402D01*
X193159842Y-110476749D01*
X193054557Y-110455806D01*
X192967868Y-110419898D01*
X192845272Y-110369117D01*
X192656915Y-110243261D01*
X192496739Y-110083085D01*
X192370883Y-109894728D01*
X192284194Y-109685443D01*
X192240000Y-109463266D01*
X192240000Y-109236734D01*
X192284194Y-109014557D01*
X192370883Y-108805272D01*
X192496739Y-108616915D01*
X192656915Y-108456739D01*
X192845272Y-108330883D01*
X192967868Y-108280102D01*
X193054557Y-108244194D01*
X193159842Y-108223251D01*
X193263673Y-108202598D01*
X193287123Y-108195485D01*
X193308733Y-108183934D01*
X193327675Y-108168388D01*
X193343221Y-108149446D01*
X193354772Y-108127835D01*
X193361885Y-108104386D01*
X193364287Y-108080000D01*
X193361885Y-108055614D01*
X193354772Y-108032164D01*
X193343221Y-108010554D01*
X193327675Y-107991612D01*
X193308733Y-107976066D01*
X193287122Y-107964515D01*
X193263673Y-107957402D01*
X193159842Y-107936749D01*
X193054557Y-107915806D01*
X192967868Y-107879898D01*
X192845272Y-107829117D01*
X192656915Y-107703261D01*
X192496739Y-107543085D01*
X192370883Y-107354728D01*
X192284194Y-107145443D01*
X192240000Y-106923266D01*
X192240000Y-106696734D01*
X192284194Y-106474557D01*
X192370883Y-106265272D01*
X192496739Y-106076915D01*
X192656915Y-105916739D01*
X192845272Y-105790883D01*
X192967868Y-105740102D01*
X193054557Y-105704194D01*
X193159842Y-105683251D01*
X193263673Y-105662598D01*
X193287123Y-105655485D01*
X193308733Y-105643934D01*
X193327675Y-105628388D01*
X193343221Y-105609446D01*
X193354772Y-105587835D01*
X193361885Y-105564386D01*
X193364287Y-105540000D01*
X193361885Y-105515614D01*
X193354772Y-105492164D01*
X193343221Y-105470554D01*
X193327675Y-105451612D01*
X193308733Y-105436066D01*
X193287122Y-105424515D01*
X193263673Y-105417402D01*
X193159842Y-105396749D01*
X193054557Y-105375806D01*
X192967868Y-105339898D01*
X192845272Y-105289117D01*
X192656915Y-105163261D01*
X192496739Y-105003085D01*
X192370883Y-104814728D01*
X192284194Y-104605443D01*
X192240000Y-104383266D01*
X192240000Y-104156734D01*
X192284194Y-103934557D01*
X192370883Y-103725272D01*
X192496739Y-103536915D01*
X192656915Y-103376739D01*
X192845272Y-103250883D01*
X192967868Y-103200102D01*
X193054557Y-103164194D01*
X193159842Y-103143251D01*
X193263673Y-103122598D01*
X193287123Y-103115485D01*
X193308733Y-103103934D01*
X193327675Y-103088388D01*
X193343221Y-103069446D01*
X193354772Y-103047835D01*
X193361885Y-103024386D01*
X193364287Y-103000000D01*
X193361885Y-102975614D01*
X193354772Y-102952164D01*
X193343221Y-102930554D01*
X193327675Y-102911612D01*
X193308733Y-102896066D01*
X193287122Y-102884515D01*
X193263673Y-102877402D01*
X193159842Y-102856749D01*
X193054557Y-102835806D01*
X192958057Y-102795834D01*
X192845272Y-102749117D01*
X192656915Y-102623261D01*
X192496739Y-102463085D01*
X192370883Y-102274728D01*
X192284194Y-102065443D01*
X192240000Y-101843266D01*
X192240000Y-101616734D01*
X192284194Y-101394557D01*
X192370883Y-101185272D01*
X192496739Y-100996915D01*
X192656915Y-100836739D01*
X192845272Y-100710883D01*
X192974657Y-100657290D01*
X193054557Y-100624194D01*
X193159842Y-100603251D01*
X193263673Y-100582598D01*
X193287123Y-100575485D01*
X193308733Y-100563934D01*
X193327675Y-100548388D01*
X193343221Y-100529446D01*
X193354772Y-100507835D01*
X193361885Y-100484386D01*
X193364287Y-100460000D01*
X193361885Y-100435614D01*
X193354772Y-100412164D01*
X193343221Y-100390554D01*
X193327675Y-100371612D01*
X193308733Y-100356066D01*
X193287122Y-100344515D01*
X193263673Y-100337402D01*
X193159842Y-100316749D01*
X193054557Y-100295806D01*
X192967868Y-100259898D01*
X192845272Y-100209117D01*
X192656915Y-100083261D01*
X192496739Y-99923085D01*
X192370883Y-99734728D01*
X192284194Y-99525443D01*
X192240000Y-99303266D01*
X192240000Y-99076734D01*
X192284194Y-98854557D01*
X192370883Y-98645272D01*
X192496739Y-98456915D01*
X192656915Y-98296739D01*
X192845272Y-98170883D01*
X192967868Y-98120102D01*
X193054557Y-98084194D01*
X193196026Y-98056054D01*
X193263673Y-98042598D01*
X193287123Y-98035485D01*
X193308733Y-98023934D01*
X193327675Y-98008388D01*
X193343221Y-97989446D01*
X193354772Y-97967835D01*
X193361885Y-97944386D01*
X193364287Y-97920000D01*
X193361885Y-97895614D01*
X193354772Y-97872164D01*
X193343221Y-97850554D01*
X193327675Y-97831612D01*
X193308733Y-97816066D01*
X193287122Y-97804515D01*
X193263673Y-97797402D01*
X193159842Y-97776749D01*
X193054557Y-97755806D01*
X192953055Y-97713762D01*
X192845272Y-97669117D01*
X192656915Y-97543261D01*
X192496739Y-97383085D01*
X192370883Y-97194728D01*
X192284194Y-96985443D01*
X192240000Y-96763266D01*
X192240000Y-96536734D01*
X192284194Y-96314557D01*
X192370883Y-96105272D01*
X192496739Y-95916915D01*
X192656915Y-95756739D01*
X192845272Y-95630883D01*
X192967868Y-95580102D01*
X193054557Y-95544194D01*
X193159842Y-95523251D01*
X193263673Y-95502598D01*
X193287123Y-95495485D01*
X193308733Y-95483934D01*
X193327675Y-95468388D01*
X193343221Y-95449446D01*
X193354772Y-95427835D01*
X193361885Y-95404386D01*
X193364287Y-95380000D01*
X193361885Y-95355614D01*
X193354772Y-95332164D01*
X193343221Y-95310554D01*
X193327675Y-95291612D01*
X193308733Y-95276066D01*
X193287122Y-95264515D01*
X193263673Y-95257402D01*
X193159842Y-95236749D01*
X193054557Y-95215806D01*
X192967868Y-95179898D01*
X192845272Y-95129117D01*
X192656915Y-95003261D01*
X192496739Y-94843085D01*
X192370883Y-94654728D01*
X192284194Y-94445443D01*
X192240000Y-94223266D01*
X192240000Y-93996734D01*
X192284194Y-93774557D01*
X192370883Y-93565272D01*
X192496739Y-93376915D01*
X192656915Y-93216739D01*
X192845272Y-93090883D01*
X192967868Y-93040102D01*
X193054557Y-93004194D01*
X193159842Y-92983251D01*
X193263673Y-92962598D01*
X193287123Y-92955485D01*
X193308733Y-92943934D01*
X193327675Y-92928388D01*
X193343221Y-92909446D01*
X193354772Y-92887835D01*
X193361885Y-92864386D01*
X193364287Y-92840000D01*
X193361885Y-92815614D01*
X193354772Y-92792164D01*
X193343221Y-92770554D01*
X193327675Y-92751612D01*
X193308733Y-92736066D01*
X193287122Y-92724515D01*
X193263673Y-92717402D01*
X193159842Y-92696749D01*
X193054557Y-92675806D01*
X192967868Y-92639898D01*
X192845272Y-92589117D01*
X192656915Y-92463261D01*
X192496739Y-92303085D01*
X192370883Y-92114728D01*
X192284194Y-91905443D01*
X192240000Y-91683266D01*
X192240000Y-91456734D01*
X192284194Y-91234557D01*
X192370883Y-91025272D01*
X192496739Y-90836915D01*
X192656915Y-90676739D01*
X192845272Y-90550883D01*
X192967868Y-90500102D01*
X193054557Y-90464194D01*
X193159842Y-90443251D01*
X193263673Y-90422598D01*
X193287123Y-90415485D01*
X193308733Y-90403934D01*
X193327675Y-90388388D01*
X193343221Y-90369446D01*
X193354772Y-90347835D01*
X193361885Y-90324386D01*
X193364287Y-90300000D01*
X193361885Y-90275614D01*
X193354772Y-90252164D01*
X193343221Y-90230554D01*
X193327675Y-90211612D01*
X193308733Y-90196066D01*
X193287122Y-90184515D01*
X193263673Y-90177402D01*
X193159842Y-90156749D01*
X193054557Y-90135806D01*
X192967868Y-90099898D01*
X192845272Y-90049117D01*
X192656915Y-89923261D01*
X192496739Y-89763085D01*
X192370883Y-89574728D01*
X192284194Y-89365443D01*
X192240000Y-89143266D01*
X192240000Y-88916734D01*
X192284194Y-88694557D01*
X192370883Y-88485272D01*
X192496739Y-88296915D01*
X192656915Y-88136739D01*
X192845272Y-88010883D01*
X192967868Y-87960102D01*
X193054557Y-87924194D01*
X193159842Y-87903251D01*
X193263673Y-87882598D01*
X193287123Y-87875485D01*
X193308733Y-87863934D01*
X193327675Y-87848388D01*
X193343221Y-87829446D01*
X193354772Y-87807835D01*
X193361885Y-87784386D01*
X193364287Y-87760000D01*
X193361885Y-87735614D01*
X193354772Y-87712164D01*
X193343221Y-87690554D01*
X193327675Y-87671612D01*
X193308733Y-87656066D01*
X193287122Y-87644515D01*
X193263673Y-87637402D01*
X193159842Y-87616749D01*
X193054557Y-87595806D01*
X192967868Y-87559898D01*
X192845272Y-87509117D01*
X192656915Y-87383261D01*
X192496739Y-87223085D01*
X192370883Y-87034728D01*
X192284194Y-86825443D01*
X192240000Y-86603266D01*
X192240000Y-86376734D01*
X192284194Y-86154557D01*
X192370883Y-85945272D01*
X192496739Y-85756915D01*
X192656915Y-85596739D01*
X192845272Y-85470883D01*
X192967868Y-85420102D01*
X193054557Y-85384194D01*
X193159842Y-85363251D01*
X193263673Y-85342598D01*
X193287123Y-85335485D01*
X193308733Y-85323934D01*
X193327675Y-85308388D01*
X193343221Y-85289446D01*
X193354772Y-85267835D01*
X193361885Y-85244386D01*
X193364287Y-85220000D01*
X193361885Y-85195614D01*
X193354772Y-85172164D01*
X193343221Y-85150554D01*
X193327675Y-85131612D01*
X193308733Y-85116066D01*
X193287122Y-85104515D01*
X193263673Y-85097402D01*
X193159842Y-85076749D01*
X193054557Y-85055806D01*
X192967868Y-85019898D01*
X192845272Y-84969117D01*
X192656915Y-84843261D01*
X192496739Y-84683085D01*
X192370883Y-84494728D01*
X192284194Y-84285443D01*
X192240000Y-84063266D01*
X192240000Y-83836734D01*
X192284194Y-83614557D01*
X192370883Y-83405272D01*
X192496739Y-83216915D01*
X192656915Y-83056739D01*
X192845272Y-82930883D01*
X192967868Y-82880102D01*
X193054557Y-82844194D01*
X193159842Y-82823251D01*
X193263673Y-82802598D01*
X193287123Y-82795485D01*
X193308733Y-82783934D01*
X193327675Y-82768388D01*
X193343221Y-82749446D01*
X193354772Y-82727835D01*
X193361885Y-82704386D01*
X193364287Y-82680000D01*
X193361885Y-82655614D01*
X193354772Y-82632164D01*
X193343221Y-82610554D01*
X193327675Y-82591612D01*
X193308733Y-82576066D01*
X193287122Y-82564515D01*
X193263673Y-82557402D01*
X193159842Y-82536749D01*
X193054557Y-82515806D01*
X192967868Y-82479898D01*
X192845272Y-82429117D01*
X192656915Y-82303261D01*
X192496739Y-82143085D01*
X192370883Y-81954728D01*
X192284194Y-81745443D01*
X192240000Y-81523266D01*
X192240000Y-81296734D01*
X192284194Y-81074557D01*
X192370883Y-80865272D01*
X192496739Y-80676915D01*
X192656915Y-80516739D01*
X192845272Y-80390883D01*
X192967868Y-80340102D01*
X193054557Y-80304194D01*
X193159842Y-80283251D01*
X193263673Y-80262598D01*
X193287123Y-80255485D01*
X193308733Y-80243934D01*
X193327675Y-80228388D01*
X193343221Y-80209446D01*
X193354772Y-80187835D01*
X193361885Y-80164386D01*
X193364287Y-80140000D01*
X193361885Y-80115614D01*
X193354772Y-80092164D01*
X193343221Y-80070554D01*
X193327675Y-80051612D01*
X193308733Y-80036066D01*
X193287122Y-80024515D01*
X193263673Y-80017402D01*
X193159842Y-79996749D01*
X193054557Y-79975806D01*
X192967868Y-79939898D01*
X192845272Y-79889117D01*
X192656915Y-79763261D01*
X192496739Y-79603085D01*
X192370883Y-79414728D01*
X192284194Y-79205443D01*
X192240000Y-78983266D01*
X192240000Y-78756734D01*
X192284194Y-78534557D01*
X192370883Y-78325272D01*
X192496739Y-78136915D01*
X192656915Y-77976739D01*
X192845272Y-77850883D01*
X193001341Y-77786237D01*
X193054557Y-77764194D01*
X193159842Y-77743251D01*
X193263673Y-77722598D01*
X193287123Y-77715485D01*
X193308733Y-77703934D01*
X193327675Y-77688388D01*
X193343221Y-77669446D01*
X193354772Y-77647835D01*
X193361885Y-77624386D01*
X193364287Y-77600000D01*
X193361885Y-77575614D01*
X193354772Y-77552164D01*
X193343221Y-77530554D01*
X193327675Y-77511612D01*
X193308733Y-77496066D01*
X193287122Y-77484515D01*
X193263673Y-77477402D01*
X193159842Y-77456749D01*
X193054557Y-77435806D01*
X192967868Y-77399898D01*
X192845272Y-77349117D01*
X192656915Y-77223261D01*
X192496739Y-77063085D01*
X192370883Y-76874728D01*
X192284194Y-76665443D01*
X192240000Y-76443266D01*
X192240000Y-76216734D01*
X192284194Y-75994557D01*
X192370883Y-75785272D01*
X192496739Y-75596915D01*
X192656915Y-75436739D01*
X192845272Y-75310883D01*
X192967868Y-75260102D01*
X193054557Y-75224194D01*
X193201325Y-75195000D01*
X193263673Y-75182598D01*
X193287123Y-75175485D01*
X193308733Y-75163934D01*
X193327675Y-75148388D01*
X193343221Y-75129446D01*
X193354772Y-75107835D01*
X193361885Y-75084386D01*
X193364287Y-75060000D01*
X193361885Y-75035614D01*
X193354772Y-75012164D01*
X193343221Y-74990554D01*
X193327675Y-74971612D01*
X193308733Y-74956066D01*
X193287122Y-74944515D01*
X193263673Y-74937402D01*
X193159842Y-74916749D01*
X193054557Y-74895806D01*
X192967868Y-74859898D01*
X192845272Y-74809117D01*
X192656915Y-74683261D01*
X192496739Y-74523085D01*
X192370883Y-74334728D01*
X192284194Y-74125443D01*
X192240000Y-73903266D01*
X192240000Y-73676734D01*
X192284194Y-73454557D01*
X192370883Y-73245272D01*
X192496739Y-73056915D01*
X192656915Y-72896739D01*
X192845272Y-72770883D01*
X193006346Y-72704164D01*
X193054557Y-72684194D01*
X193159842Y-72663251D01*
X193263673Y-72642598D01*
X193287123Y-72635485D01*
X193308733Y-72623934D01*
X193327675Y-72608388D01*
X193343221Y-72589446D01*
X193354772Y-72567835D01*
X193361885Y-72544386D01*
X193364287Y-72520000D01*
X193361885Y-72495614D01*
X193354772Y-72472164D01*
X193343221Y-72450554D01*
X193327675Y-72431612D01*
X193308733Y-72416066D01*
X193287122Y-72404515D01*
X193263673Y-72397402D01*
X193159842Y-72376749D01*
X193054557Y-72355806D01*
X192967868Y-72319898D01*
X192845272Y-72269117D01*
X192656915Y-72143261D01*
X192496739Y-71983085D01*
X192370883Y-71794728D01*
X192284194Y-71585443D01*
X192240000Y-71363266D01*
X192240000Y-71136734D01*
X192284194Y-70914557D01*
X192370883Y-70705272D01*
X192496739Y-70516915D01*
X192656915Y-70356739D01*
X192845272Y-70230883D01*
X192967868Y-70180102D01*
X193054557Y-70144194D01*
X193159842Y-70123251D01*
X193263673Y-70102598D01*
X193287123Y-70095485D01*
X193308733Y-70083934D01*
X193327675Y-70068388D01*
X193343221Y-70049446D01*
X193354772Y-70027835D01*
X193361885Y-70004386D01*
X193364287Y-69980000D01*
X193361885Y-69955614D01*
X193354772Y-69932164D01*
X193343221Y-69910554D01*
X193327675Y-69891612D01*
X193308733Y-69876066D01*
X193287122Y-69864515D01*
X193263673Y-69857402D01*
X193142566Y-69833312D01*
X193054557Y-69815806D01*
X192934919Y-69766250D01*
X192845272Y-69729117D01*
X192656915Y-69603261D01*
X192496739Y-69443085D01*
X192370883Y-69254728D01*
X192284194Y-69045443D01*
X192240000Y-68823266D01*
X192240000Y-68596734D01*
X192284194Y-68374557D01*
X192370883Y-68165272D01*
X192496739Y-67976915D01*
X192656915Y-67816739D01*
X192845272Y-67690883D01*
X193054557Y-67604194D01*
X193276734Y-67560000D01*
X193503266Y-67560000D01*
X193725443Y-67604194D01*
X193725443Y-67604194D01*
G37*
G36*
X175945443Y-67604194D02*
X176154728Y-67690883D01*
X176343085Y-67816739D01*
X176503261Y-67976915D01*
X176629117Y-68165272D01*
X176715806Y-68374557D01*
X176760000Y-68596734D01*
X176760000Y-68823266D01*
X176715806Y-69045443D01*
X176629117Y-69254728D01*
X176503261Y-69443085D01*
X176343085Y-69603261D01*
X176154728Y-69729117D01*
X176065081Y-69766250D01*
X175945443Y-69815806D01*
X175857434Y-69833312D01*
X175736327Y-69857402D01*
X175712877Y-69864515D01*
X175691267Y-69876066D01*
X175672325Y-69891612D01*
X175656779Y-69910554D01*
X175645228Y-69932165D01*
X175638115Y-69955614D01*
X175635713Y-69980000D01*
X175638115Y-70004386D01*
X175645228Y-70027836D01*
X175656779Y-70049446D01*
X175672325Y-70068388D01*
X175691267Y-70083934D01*
X175712878Y-70095485D01*
X175736327Y-70102598D01*
X175840158Y-70123251D01*
X175945443Y-70144194D01*
X176032132Y-70180102D01*
X176154728Y-70230883D01*
X176343085Y-70356739D01*
X176503261Y-70516915D01*
X176629117Y-70705272D01*
X176715806Y-70914557D01*
X176760000Y-71136734D01*
X176760000Y-71363266D01*
X176715806Y-71585443D01*
X176629117Y-71794728D01*
X176503261Y-71983085D01*
X176343085Y-72143261D01*
X176154728Y-72269117D01*
X176032132Y-72319898D01*
X175945443Y-72355806D01*
X175840158Y-72376749D01*
X175736327Y-72397402D01*
X175712877Y-72404515D01*
X175691267Y-72416066D01*
X175672325Y-72431612D01*
X175656779Y-72450554D01*
X175645228Y-72472165D01*
X175638115Y-72495614D01*
X175635713Y-72520000D01*
X175638115Y-72544386D01*
X175645228Y-72567836D01*
X175656779Y-72589446D01*
X175672325Y-72608388D01*
X175691267Y-72623934D01*
X175712878Y-72635485D01*
X175736327Y-72642598D01*
X175840158Y-72663251D01*
X175945443Y-72684194D01*
X175993654Y-72704164D01*
X176154728Y-72770883D01*
X176343085Y-72896739D01*
X176503261Y-73056915D01*
X176629117Y-73245272D01*
X176715806Y-73454557D01*
X176760000Y-73676734D01*
X176760000Y-73903266D01*
X176715806Y-74125443D01*
X176629117Y-74334728D01*
X176503261Y-74523085D01*
X176343085Y-74683261D01*
X176154728Y-74809117D01*
X176032132Y-74859898D01*
X175945443Y-74895806D01*
X175840158Y-74916749D01*
X175736327Y-74937402D01*
X175712877Y-74944515D01*
X175691267Y-74956066D01*
X175672325Y-74971612D01*
X175656779Y-74990554D01*
X175645228Y-75012165D01*
X175638115Y-75035614D01*
X175635713Y-75060000D01*
X175638115Y-75084386D01*
X175645228Y-75107836D01*
X175656779Y-75129446D01*
X175672325Y-75148388D01*
X175691267Y-75163934D01*
X175712878Y-75175485D01*
X175736327Y-75182598D01*
X175798675Y-75195000D01*
X175945443Y-75224194D01*
X176032132Y-75260102D01*
X176154728Y-75310883D01*
X176343085Y-75436739D01*
X176503261Y-75596915D01*
X176629117Y-75785272D01*
X176715806Y-75994557D01*
X176760000Y-76216734D01*
X176760000Y-76443266D01*
X176715806Y-76665443D01*
X176629117Y-76874728D01*
X176503261Y-77063085D01*
X176343085Y-77223261D01*
X176154728Y-77349117D01*
X176032132Y-77399898D01*
X175945443Y-77435806D01*
X175840158Y-77456749D01*
X175736327Y-77477402D01*
X175712877Y-77484515D01*
X175691267Y-77496066D01*
X175672325Y-77511612D01*
X175656779Y-77530554D01*
X175645228Y-77552165D01*
X175638115Y-77575614D01*
X175635713Y-77600000D01*
X175638115Y-77624386D01*
X175645228Y-77647836D01*
X175656779Y-77669446D01*
X175672325Y-77688388D01*
X175691267Y-77703934D01*
X175712878Y-77715485D01*
X175736327Y-77722598D01*
X175840158Y-77743251D01*
X175945443Y-77764194D01*
X175998659Y-77786237D01*
X176154728Y-77850883D01*
X176343085Y-77976739D01*
X176503261Y-78136915D01*
X176629117Y-78325272D01*
X176715806Y-78534557D01*
X176760000Y-78756734D01*
X176760000Y-78983266D01*
X176715806Y-79205443D01*
X176629117Y-79414728D01*
X176503261Y-79603085D01*
X176343085Y-79763261D01*
X176154728Y-79889117D01*
X176032132Y-79939898D01*
X175945443Y-79975806D01*
X175840158Y-79996749D01*
X175736327Y-80017402D01*
X175712877Y-80024515D01*
X175691267Y-80036066D01*
X175672325Y-80051612D01*
X175656779Y-80070554D01*
X175645228Y-80092165D01*
X175638115Y-80115614D01*
X175635713Y-80140000D01*
X175638115Y-80164386D01*
X175645228Y-80187836D01*
X175656779Y-80209446D01*
X175672325Y-80228388D01*
X175691267Y-80243934D01*
X175712878Y-80255485D01*
X175736327Y-80262598D01*
X175840158Y-80283251D01*
X175945443Y-80304194D01*
X176032132Y-80340102D01*
X176154728Y-80390883D01*
X176343085Y-80516739D01*
X176503261Y-80676915D01*
X176629117Y-80865272D01*
X176715806Y-81074557D01*
X176760000Y-81296734D01*
X176760000Y-81523266D01*
X176715806Y-81745443D01*
X176629117Y-81954728D01*
X176503261Y-82143085D01*
X176343085Y-82303261D01*
X176154728Y-82429117D01*
X176032132Y-82479898D01*
X175945443Y-82515806D01*
X175840158Y-82536749D01*
X175736327Y-82557402D01*
X175712877Y-82564515D01*
X175691267Y-82576066D01*
X175672325Y-82591612D01*
X175656779Y-82610554D01*
X175645228Y-82632165D01*
X175638115Y-82655614D01*
X175635713Y-82680000D01*
X175638115Y-82704386D01*
X175645228Y-82727836D01*
X175656779Y-82749446D01*
X175672325Y-82768388D01*
X175691267Y-82783934D01*
X175712878Y-82795485D01*
X175736327Y-82802598D01*
X175840158Y-82823251D01*
X175945443Y-82844194D01*
X176032132Y-82880102D01*
X176154728Y-82930883D01*
X176343085Y-83056739D01*
X176503261Y-83216915D01*
X176629117Y-83405272D01*
X176715806Y-83614557D01*
X176760000Y-83836734D01*
X176760000Y-84063266D01*
X176715806Y-84285443D01*
X176629117Y-84494728D01*
X176503261Y-84683085D01*
X176343085Y-84843261D01*
X176154728Y-84969117D01*
X176032132Y-85019898D01*
X175945443Y-85055806D01*
X175840158Y-85076749D01*
X175736327Y-85097402D01*
X175712877Y-85104515D01*
X175691267Y-85116066D01*
X175672325Y-85131612D01*
X175656779Y-85150554D01*
X175645228Y-85172165D01*
X175638115Y-85195614D01*
X175635713Y-85220000D01*
X175638115Y-85244386D01*
X175645228Y-85267836D01*
X175656779Y-85289446D01*
X175672325Y-85308388D01*
X175691267Y-85323934D01*
X175712878Y-85335485D01*
X175736327Y-85342598D01*
X175840158Y-85363251D01*
X175945443Y-85384194D01*
X176032132Y-85420102D01*
X176154728Y-85470883D01*
X176343085Y-85596739D01*
X176503261Y-85756915D01*
X176629117Y-85945272D01*
X176715806Y-86154557D01*
X176760000Y-86376734D01*
X176760000Y-86603266D01*
X176715806Y-86825443D01*
X176629117Y-87034728D01*
X176503261Y-87223085D01*
X176343085Y-87383261D01*
X176154728Y-87509117D01*
X176032132Y-87559898D01*
X175945443Y-87595806D01*
X175840158Y-87616749D01*
X175736327Y-87637402D01*
X175712877Y-87644515D01*
X175691267Y-87656066D01*
X175672325Y-87671612D01*
X175656779Y-87690554D01*
X175645228Y-87712165D01*
X175638115Y-87735614D01*
X175635713Y-87760000D01*
X175638115Y-87784386D01*
X175645228Y-87807836D01*
X175656779Y-87829446D01*
X175672325Y-87848388D01*
X175691267Y-87863934D01*
X175712878Y-87875485D01*
X175736327Y-87882598D01*
X175840158Y-87903251D01*
X175945443Y-87924194D01*
X176032132Y-87960102D01*
X176154728Y-88010883D01*
X176343085Y-88136739D01*
X176503261Y-88296915D01*
X176629117Y-88485272D01*
X176715806Y-88694557D01*
X176760000Y-88916734D01*
X176760000Y-89143266D01*
X176715806Y-89365443D01*
X176629117Y-89574728D01*
X176503261Y-89763085D01*
X176343085Y-89923261D01*
X176154728Y-90049117D01*
X176032132Y-90099898D01*
X175945443Y-90135806D01*
X175840158Y-90156749D01*
X175736327Y-90177402D01*
X175712877Y-90184515D01*
X175691267Y-90196066D01*
X175672325Y-90211612D01*
X175656779Y-90230554D01*
X175645228Y-90252165D01*
X175638115Y-90275614D01*
X175635713Y-90300000D01*
X175638115Y-90324386D01*
X175645228Y-90347836D01*
X175656779Y-90369446D01*
X175672325Y-90388388D01*
X175691267Y-90403934D01*
X175712878Y-90415485D01*
X175736327Y-90422598D01*
X175840158Y-90443251D01*
X175945443Y-90464194D01*
X176032132Y-90500102D01*
X176154728Y-90550883D01*
X176343085Y-90676739D01*
X176503261Y-90836915D01*
X176629117Y-91025272D01*
X176715806Y-91234557D01*
X176760000Y-91456734D01*
X176760000Y-91683266D01*
X176715806Y-91905443D01*
X176629117Y-92114728D01*
X176503261Y-92303085D01*
X176343085Y-92463261D01*
X176154728Y-92589117D01*
X176032132Y-92639898D01*
X175945443Y-92675806D01*
X175840158Y-92696749D01*
X175736327Y-92717402D01*
X175712877Y-92724515D01*
X175691267Y-92736066D01*
X175672325Y-92751612D01*
X175656779Y-92770554D01*
X175645228Y-92792165D01*
X175638115Y-92815614D01*
X175635713Y-92840000D01*
X175638115Y-92864386D01*
X175645228Y-92887836D01*
X175656779Y-92909446D01*
X175672325Y-92928388D01*
X175691267Y-92943934D01*
X175712878Y-92955485D01*
X175736327Y-92962598D01*
X175840158Y-92983251D01*
X175945443Y-93004194D01*
X176032132Y-93040102D01*
X176154728Y-93090883D01*
X176343085Y-93216739D01*
X176503261Y-93376915D01*
X176629117Y-93565272D01*
X176715806Y-93774557D01*
X176760000Y-93996734D01*
X176760000Y-94223266D01*
X176715806Y-94445443D01*
X176629117Y-94654728D01*
X176503261Y-94843085D01*
X176343085Y-95003261D01*
X176154728Y-95129117D01*
X176032132Y-95179898D01*
X175945443Y-95215806D01*
X175840158Y-95236749D01*
X175736327Y-95257402D01*
X175712877Y-95264515D01*
X175691267Y-95276066D01*
X175672325Y-95291612D01*
X175656779Y-95310554D01*
X175645228Y-95332165D01*
X175638115Y-95355614D01*
X175635713Y-95380000D01*
X175638115Y-95404386D01*
X175645228Y-95427836D01*
X175656779Y-95449446D01*
X175672325Y-95468388D01*
X175691267Y-95483934D01*
X175712878Y-95495485D01*
X175736327Y-95502598D01*
X175840158Y-95523251D01*
X175945443Y-95544194D01*
X176032132Y-95580102D01*
X176154728Y-95630883D01*
X176343085Y-95756739D01*
X176503261Y-95916915D01*
X176629117Y-96105272D01*
X176715806Y-96314557D01*
X176760000Y-96536734D01*
X176760000Y-96763266D01*
X176715806Y-96985443D01*
X176629117Y-97194728D01*
X176503261Y-97383085D01*
X176343085Y-97543261D01*
X176154728Y-97669117D01*
X176046945Y-97713762D01*
X175945443Y-97755806D01*
X175840158Y-97776749D01*
X175736327Y-97797402D01*
X175712877Y-97804515D01*
X175691267Y-97816066D01*
X175672325Y-97831612D01*
X175656779Y-97850554D01*
X175645228Y-97872165D01*
X175638115Y-97895614D01*
X175635713Y-97920000D01*
X175638115Y-97944386D01*
X175645228Y-97967836D01*
X175656779Y-97989446D01*
X175672325Y-98008388D01*
X175691267Y-98023934D01*
X175712878Y-98035485D01*
X175736327Y-98042598D01*
X175803974Y-98056054D01*
X175945443Y-98084194D01*
X176032132Y-98120102D01*
X176154728Y-98170883D01*
X176343085Y-98296739D01*
X176503261Y-98456915D01*
X176629117Y-98645272D01*
X176715806Y-98854557D01*
X176760000Y-99076734D01*
X176760000Y-99303266D01*
X176715806Y-99525443D01*
X176629117Y-99734728D01*
X176503261Y-99923085D01*
X176343085Y-100083261D01*
X176154728Y-100209117D01*
X176032132Y-100259898D01*
X175945443Y-100295806D01*
X175840158Y-100316749D01*
X175736327Y-100337402D01*
X175712877Y-100344515D01*
X175691267Y-100356066D01*
X175672325Y-100371612D01*
X175656779Y-100390554D01*
X175645228Y-100412165D01*
X175638115Y-100435614D01*
X175635713Y-100460000D01*
X175638115Y-100484386D01*
X175645228Y-100507836D01*
X175656779Y-100529446D01*
X175672325Y-100548388D01*
X175691267Y-100563934D01*
X175712878Y-100575485D01*
X175736327Y-100582598D01*
X175840158Y-100603251D01*
X175945443Y-100624194D01*
X176025343Y-100657290D01*
X176154728Y-100710883D01*
X176343085Y-100836739D01*
X176503261Y-100996915D01*
X176629117Y-101185272D01*
X176715806Y-101394557D01*
X176760000Y-101616734D01*
X176760000Y-101843266D01*
X176715806Y-102065443D01*
X176629117Y-102274728D01*
X176503261Y-102463085D01*
X176343085Y-102623261D01*
X176154728Y-102749117D01*
X176041943Y-102795834D01*
X175945443Y-102835806D01*
X175840158Y-102856749D01*
X175736327Y-102877402D01*
X175712877Y-102884515D01*
X175691267Y-102896066D01*
X175672325Y-102911612D01*
X175656779Y-102930554D01*
X175645228Y-102952165D01*
X175638115Y-102975614D01*
X175635713Y-103000000D01*
X175638115Y-103024386D01*
X175645228Y-103047836D01*
X175656779Y-103069446D01*
X175672325Y-103088388D01*
X175691267Y-103103934D01*
X175712878Y-103115485D01*
X175736327Y-103122598D01*
X175840158Y-103143251D01*
X175945443Y-103164194D01*
X176032132Y-103200102D01*
X176154728Y-103250883D01*
X176343085Y-103376739D01*
X176503261Y-103536915D01*
X176629117Y-103725272D01*
X176715806Y-103934557D01*
X176760000Y-104156734D01*
X176760000Y-104383266D01*
X176715806Y-104605443D01*
X176629117Y-104814728D01*
X176503261Y-105003085D01*
X176343085Y-105163261D01*
X176154728Y-105289117D01*
X176032132Y-105339898D01*
X175945443Y-105375806D01*
X175840158Y-105396749D01*
X175736327Y-105417402D01*
X175712877Y-105424515D01*
X175691267Y-105436066D01*
X175672325Y-105451612D01*
X175656779Y-105470554D01*
X175645228Y-105492165D01*
X175638115Y-105515614D01*
X175635713Y-105540000D01*
X175638115Y-105564386D01*
X175645228Y-105587836D01*
X175656779Y-105609446D01*
X175672325Y-105628388D01*
X175691267Y-105643934D01*
X175712878Y-105655485D01*
X175736327Y-105662598D01*
X175840158Y-105683251D01*
X175945443Y-105704194D01*
X176032132Y-105740102D01*
X176154728Y-105790883D01*
X176343085Y-105916739D01*
X176503261Y-106076915D01*
X176629117Y-106265272D01*
X176715806Y-106474557D01*
X176760000Y-106696734D01*
X176760000Y-106923266D01*
X176715806Y-107145443D01*
X176629117Y-107354728D01*
X176503261Y-107543085D01*
X176343085Y-107703261D01*
X176154728Y-107829117D01*
X176032132Y-107879898D01*
X175945443Y-107915806D01*
X175840158Y-107936749D01*
X175736327Y-107957402D01*
X175712877Y-107964515D01*
X175691267Y-107976066D01*
X175672325Y-107991612D01*
X175656779Y-108010554D01*
X175645228Y-108032165D01*
X175638115Y-108055614D01*
X175635713Y-108080000D01*
X175638115Y-108104386D01*
X175645228Y-108127836D01*
X175656779Y-108149446D01*
X175672325Y-108168388D01*
X175691267Y-108183934D01*
X175712878Y-108195485D01*
X175736327Y-108202598D01*
X175840158Y-108223251D01*
X175945443Y-108244194D01*
X176032132Y-108280102D01*
X176154728Y-108330883D01*
X176343085Y-108456739D01*
X176503261Y-108616915D01*
X176629117Y-108805272D01*
X176715806Y-109014557D01*
X176760000Y-109236734D01*
X176760000Y-109463266D01*
X176715806Y-109685443D01*
X176629117Y-109894728D01*
X176503261Y-110083085D01*
X176343085Y-110243261D01*
X176154728Y-110369117D01*
X176032132Y-110419898D01*
X175945443Y-110455806D01*
X175840158Y-110476749D01*
X175736327Y-110497402D01*
X175712877Y-110504515D01*
X175691267Y-110516066D01*
X175672325Y-110531612D01*
X175656779Y-110550554D01*
X175645228Y-110572165D01*
X175638115Y-110595614D01*
X175635713Y-110620000D01*
X175638115Y-110644386D01*
X175645228Y-110667836D01*
X175656779Y-110689446D01*
X175672325Y-110708388D01*
X175691267Y-110723934D01*
X175712878Y-110735485D01*
X175736327Y-110742598D01*
X175840158Y-110763251D01*
X175945443Y-110784194D01*
X176032132Y-110820102D01*
X176154728Y-110870883D01*
X176343085Y-110996739D01*
X176503261Y-111156915D01*
X176629117Y-111345272D01*
X176715806Y-111554557D01*
X176760000Y-111776734D01*
X176760000Y-112003266D01*
X176715806Y-112225443D01*
X176629117Y-112434728D01*
X176503261Y-112623085D01*
X176343085Y-112783261D01*
X176154728Y-112909117D01*
X175945443Y-112995806D01*
X175723266Y-113040000D01*
X175496734Y-113040000D01*
X175274557Y-112995806D01*
X175065272Y-112909117D01*
X174876915Y-112783261D01*
X174716739Y-112623085D01*
X174590883Y-112434728D01*
X174504194Y-112225443D01*
X174460000Y-112003266D01*
X174460000Y-111776734D01*
X174504194Y-111554557D01*
X174590883Y-111345272D01*
X174716739Y-111156915D01*
X174876915Y-110996739D01*
X175065272Y-110870883D01*
X175187868Y-110820102D01*
X175274557Y-110784194D01*
X175379842Y-110763251D01*
X175483673Y-110742598D01*
X175507123Y-110735485D01*
X175528733Y-110723934D01*
X175547675Y-110708388D01*
X175563221Y-110689446D01*
X175574772Y-110667835D01*
X175581885Y-110644386D01*
X175584287Y-110620000D01*
X175581885Y-110595614D01*
X175574772Y-110572164D01*
X175563221Y-110550554D01*
X175547675Y-110531612D01*
X175528733Y-110516066D01*
X175507122Y-110504515D01*
X175483673Y-110497402D01*
X175379842Y-110476749D01*
X175274557Y-110455806D01*
X175187868Y-110419898D01*
X175065272Y-110369117D01*
X174876915Y-110243261D01*
X174716739Y-110083085D01*
X174590883Y-109894728D01*
X174504194Y-109685443D01*
X174460000Y-109463266D01*
X174460000Y-109236734D01*
X174504194Y-109014557D01*
X174590883Y-108805272D01*
X174716739Y-108616915D01*
X174876915Y-108456739D01*
X175065272Y-108330883D01*
X175187868Y-108280102D01*
X175274557Y-108244194D01*
X175379842Y-108223251D01*
X175483673Y-108202598D01*
X175507123Y-108195485D01*
X175528733Y-108183934D01*
X175547675Y-108168388D01*
X175563221Y-108149446D01*
X175574772Y-108127835D01*
X175581885Y-108104386D01*
X175584287Y-108080000D01*
X175581885Y-108055614D01*
X175574772Y-108032164D01*
X175563221Y-108010554D01*
X175547675Y-107991612D01*
X175528733Y-107976066D01*
X175507122Y-107964515D01*
X175483673Y-107957402D01*
X175379842Y-107936749D01*
X175274557Y-107915806D01*
X175187868Y-107879898D01*
X175065272Y-107829117D01*
X174876915Y-107703261D01*
X174716739Y-107543085D01*
X174590883Y-107354728D01*
X174504194Y-107145443D01*
X174460000Y-106923266D01*
X174460000Y-106696734D01*
X174504194Y-106474557D01*
X174590883Y-106265272D01*
X174716739Y-106076915D01*
X174876915Y-105916739D01*
X175065272Y-105790883D01*
X175187868Y-105740102D01*
X175274557Y-105704194D01*
X175379842Y-105683251D01*
X175483673Y-105662598D01*
X175507123Y-105655485D01*
X175528733Y-105643934D01*
X175547675Y-105628388D01*
X175563221Y-105609446D01*
X175574772Y-105587835D01*
X175581885Y-105564386D01*
X175584287Y-105540000D01*
X175581885Y-105515614D01*
X175574772Y-105492164D01*
X175563221Y-105470554D01*
X175547675Y-105451612D01*
X175528733Y-105436066D01*
X175507122Y-105424515D01*
X175483673Y-105417402D01*
X175379842Y-105396749D01*
X175274557Y-105375806D01*
X175187868Y-105339898D01*
X175065272Y-105289117D01*
X174876915Y-105163261D01*
X174716739Y-105003085D01*
X174590883Y-104814728D01*
X174504194Y-104605443D01*
X174460000Y-104383266D01*
X174460000Y-104156734D01*
X174504194Y-103934557D01*
X174590883Y-103725272D01*
X174716739Y-103536915D01*
X174876915Y-103376739D01*
X175065272Y-103250883D01*
X175187868Y-103200102D01*
X175274557Y-103164194D01*
X175379842Y-103143251D01*
X175483673Y-103122598D01*
X175507123Y-103115485D01*
X175528733Y-103103934D01*
X175547675Y-103088388D01*
X175563221Y-103069446D01*
X175574772Y-103047835D01*
X175581885Y-103024386D01*
X175584287Y-103000000D01*
X175581885Y-102975614D01*
X175574772Y-102952164D01*
X175563221Y-102930554D01*
X175547675Y-102911612D01*
X175528733Y-102896066D01*
X175507122Y-102884515D01*
X175483673Y-102877402D01*
X175379842Y-102856749D01*
X175274557Y-102835806D01*
X175178057Y-102795834D01*
X175065272Y-102749117D01*
X174876915Y-102623261D01*
X174716739Y-102463085D01*
X174590883Y-102274728D01*
X174504194Y-102065443D01*
X174460000Y-101843266D01*
X174460000Y-101616734D01*
X174504194Y-101394557D01*
X174590883Y-101185272D01*
X174716739Y-100996915D01*
X174876915Y-100836739D01*
X175065272Y-100710883D01*
X175194657Y-100657290D01*
X175274557Y-100624194D01*
X175379842Y-100603251D01*
X175483673Y-100582598D01*
X175507123Y-100575485D01*
X175528733Y-100563934D01*
X175547675Y-100548388D01*
X175563221Y-100529446D01*
X175574772Y-100507835D01*
X175581885Y-100484386D01*
X175584287Y-100460000D01*
X175581885Y-100435614D01*
X175574772Y-100412164D01*
X175563221Y-100390554D01*
X175547675Y-100371612D01*
X175528733Y-100356066D01*
X175507122Y-100344515D01*
X175483673Y-100337402D01*
X175379842Y-100316749D01*
X175274557Y-100295806D01*
X175187868Y-100259898D01*
X175065272Y-100209117D01*
X174876915Y-100083261D01*
X174716739Y-99923085D01*
X174590883Y-99734728D01*
X174504194Y-99525443D01*
X174460000Y-99303266D01*
X174460000Y-99076734D01*
X174504194Y-98854557D01*
X174590883Y-98645272D01*
X174716739Y-98456915D01*
X174876915Y-98296739D01*
X175065272Y-98170883D01*
X175187868Y-98120102D01*
X175274557Y-98084194D01*
X175416026Y-98056054D01*
X175483673Y-98042598D01*
X175507123Y-98035485D01*
X175528733Y-98023934D01*
X175547675Y-98008388D01*
X175563221Y-97989446D01*
X175574772Y-97967835D01*
X175581885Y-97944386D01*
X175584287Y-97920000D01*
X175581885Y-97895614D01*
X175574772Y-97872164D01*
X175563221Y-97850554D01*
X175547675Y-97831612D01*
X175528733Y-97816066D01*
X175507122Y-97804515D01*
X175483673Y-97797402D01*
X175379842Y-97776749D01*
X175274557Y-97755806D01*
X175173055Y-97713762D01*
X175065272Y-97669117D01*
X174876915Y-97543261D01*
X174716739Y-97383085D01*
X174590883Y-97194728D01*
X174504194Y-96985443D01*
X174460000Y-96763266D01*
X174460000Y-96536734D01*
X174504194Y-96314557D01*
X174590883Y-96105272D01*
X174716739Y-95916915D01*
X174876915Y-95756739D01*
X175065272Y-95630883D01*
X175187868Y-95580102D01*
X175274557Y-95544194D01*
X175379842Y-95523251D01*
X175483673Y-95502598D01*
X175507123Y-95495485D01*
X175528733Y-95483934D01*
X175547675Y-95468388D01*
X175563221Y-95449446D01*
X175574772Y-95427835D01*
X175581885Y-95404386D01*
X175584287Y-95380000D01*
X175581885Y-95355614D01*
X175574772Y-95332164D01*
X175563221Y-95310554D01*
X175547675Y-95291612D01*
X175528733Y-95276066D01*
X175507122Y-95264515D01*
X175483673Y-95257402D01*
X175379842Y-95236749D01*
X175274557Y-95215806D01*
X175187868Y-95179898D01*
X175065272Y-95129117D01*
X174876915Y-95003261D01*
X174716739Y-94843085D01*
X174590883Y-94654728D01*
X174504194Y-94445443D01*
X174460000Y-94223266D01*
X174460000Y-93996734D01*
X174504194Y-93774557D01*
X174590883Y-93565272D01*
X174716739Y-93376915D01*
X174876915Y-93216739D01*
X175065272Y-93090883D01*
X175187868Y-93040102D01*
X175274557Y-93004194D01*
X175379842Y-92983251D01*
X175483673Y-92962598D01*
X175507123Y-92955485D01*
X175528733Y-92943934D01*
X175547675Y-92928388D01*
X175563221Y-92909446D01*
X175574772Y-92887835D01*
X175581885Y-92864386D01*
X175584287Y-92840000D01*
X175581885Y-92815614D01*
X175574772Y-92792164D01*
X175563221Y-92770554D01*
X175547675Y-92751612D01*
X175528733Y-92736066D01*
X175507122Y-92724515D01*
X175483673Y-92717402D01*
X175379842Y-92696749D01*
X175274557Y-92675806D01*
X175187868Y-92639898D01*
X175065272Y-92589117D01*
X174876915Y-92463261D01*
X174716739Y-92303085D01*
X174590883Y-92114728D01*
X174504194Y-91905443D01*
X174460000Y-91683266D01*
X174460000Y-91456734D01*
X174504194Y-91234557D01*
X174590883Y-91025272D01*
X174716739Y-90836915D01*
X174876915Y-90676739D01*
X175065272Y-90550883D01*
X175187868Y-90500102D01*
X175274557Y-90464194D01*
X175379842Y-90443251D01*
X175483673Y-90422598D01*
X175507123Y-90415485D01*
X175528733Y-90403934D01*
X175547675Y-90388388D01*
X175563221Y-90369446D01*
X175574772Y-90347835D01*
X175581885Y-90324386D01*
X175584287Y-90300000D01*
X175581885Y-90275614D01*
X175574772Y-90252164D01*
X175563221Y-90230554D01*
X175547675Y-90211612D01*
X175528733Y-90196066D01*
X175507122Y-90184515D01*
X175483673Y-90177402D01*
X175379842Y-90156749D01*
X175274557Y-90135806D01*
X175187868Y-90099898D01*
X175065272Y-90049117D01*
X174876915Y-89923261D01*
X174716739Y-89763085D01*
X174590883Y-89574728D01*
X174504194Y-89365443D01*
X174460000Y-89143266D01*
X174460000Y-88916734D01*
X174504194Y-88694557D01*
X174590883Y-88485272D01*
X174716739Y-88296915D01*
X174876915Y-88136739D01*
X175065272Y-88010883D01*
X175187868Y-87960102D01*
X175274557Y-87924194D01*
X175379842Y-87903251D01*
X175483673Y-87882598D01*
X175507123Y-87875485D01*
X175528733Y-87863934D01*
X175547675Y-87848388D01*
X175563221Y-87829446D01*
X175574772Y-87807835D01*
X175581885Y-87784386D01*
X175584287Y-87760000D01*
X175581885Y-87735614D01*
X175574772Y-87712164D01*
X175563221Y-87690554D01*
X175547675Y-87671612D01*
X175528733Y-87656066D01*
X175507122Y-87644515D01*
X175483673Y-87637402D01*
X175379842Y-87616749D01*
X175274557Y-87595806D01*
X175187868Y-87559898D01*
X175065272Y-87509117D01*
X174876915Y-87383261D01*
X174716739Y-87223085D01*
X174590883Y-87034728D01*
X174504194Y-86825443D01*
X174460000Y-86603266D01*
X174460000Y-86376734D01*
X174504194Y-86154557D01*
X174590883Y-85945272D01*
X174716739Y-85756915D01*
X174876915Y-85596739D01*
X175065272Y-85470883D01*
X175187868Y-85420102D01*
X175274557Y-85384194D01*
X175379842Y-85363251D01*
X175483673Y-85342598D01*
X175507123Y-85335485D01*
X175528733Y-85323934D01*
X175547675Y-85308388D01*
X175563221Y-85289446D01*
X175574772Y-85267835D01*
X175581885Y-85244386D01*
X175584287Y-85220000D01*
X175581885Y-85195614D01*
X175574772Y-85172164D01*
X175563221Y-85150554D01*
X175547675Y-85131612D01*
X175528733Y-85116066D01*
X175507122Y-85104515D01*
X175483673Y-85097402D01*
X175379842Y-85076749D01*
X175274557Y-85055806D01*
X175187868Y-85019898D01*
X175065272Y-84969117D01*
X174876915Y-84843261D01*
X174716739Y-84683085D01*
X174590883Y-84494728D01*
X174504194Y-84285443D01*
X174460000Y-84063266D01*
X174460000Y-83836734D01*
X174504194Y-83614557D01*
X174590883Y-83405272D01*
X174716739Y-83216915D01*
X174876915Y-83056739D01*
X175065272Y-82930883D01*
X175187868Y-82880102D01*
X175274557Y-82844194D01*
X175379842Y-82823251D01*
X175483673Y-82802598D01*
X175507123Y-82795485D01*
X175528733Y-82783934D01*
X175547675Y-82768388D01*
X175563221Y-82749446D01*
X175574772Y-82727835D01*
X175581885Y-82704386D01*
X175584287Y-82680000D01*
X175581885Y-82655614D01*
X175574772Y-82632164D01*
X175563221Y-82610554D01*
X175547675Y-82591612D01*
X175528733Y-82576066D01*
X175507122Y-82564515D01*
X175483673Y-82557402D01*
X175379842Y-82536749D01*
X175274557Y-82515806D01*
X175187868Y-82479898D01*
X175065272Y-82429117D01*
X174876915Y-82303261D01*
X174716739Y-82143085D01*
X174590883Y-81954728D01*
X174504194Y-81745443D01*
X174460000Y-81523266D01*
X174460000Y-81296734D01*
X174504194Y-81074557D01*
X174590883Y-80865272D01*
X174716739Y-80676915D01*
X174876915Y-80516739D01*
X175065272Y-80390883D01*
X175187868Y-80340102D01*
X175274557Y-80304194D01*
X175379842Y-80283251D01*
X175483673Y-80262598D01*
X175507123Y-80255485D01*
X175528733Y-80243934D01*
X175547675Y-80228388D01*
X175563221Y-80209446D01*
X175574772Y-80187835D01*
X175581885Y-80164386D01*
X175584287Y-80140000D01*
X175581885Y-80115614D01*
X175574772Y-80092164D01*
X175563221Y-80070554D01*
X175547675Y-80051612D01*
X175528733Y-80036066D01*
X175507122Y-80024515D01*
X175483673Y-80017402D01*
X175379842Y-79996749D01*
X175274557Y-79975806D01*
X175187868Y-79939898D01*
X175065272Y-79889117D01*
X174876915Y-79763261D01*
X174716739Y-79603085D01*
X174590883Y-79414728D01*
X174504194Y-79205443D01*
X174460000Y-78983266D01*
X174460000Y-78756734D01*
X174504194Y-78534557D01*
X174590883Y-78325272D01*
X174716739Y-78136915D01*
X174876915Y-77976739D01*
X175065272Y-77850883D01*
X175221341Y-77786237D01*
X175274557Y-77764194D01*
X175379842Y-77743251D01*
X175483673Y-77722598D01*
X175507123Y-77715485D01*
X175528733Y-77703934D01*
X175547675Y-77688388D01*
X175563221Y-77669446D01*
X175574772Y-77647835D01*
X175581885Y-77624386D01*
X175584287Y-77600000D01*
X175581885Y-77575614D01*
X175574772Y-77552164D01*
X175563221Y-77530554D01*
X175547675Y-77511612D01*
X175528733Y-77496066D01*
X175507122Y-77484515D01*
X175483673Y-77477402D01*
X175379842Y-77456749D01*
X175274557Y-77435806D01*
X175187868Y-77399898D01*
X175065272Y-77349117D01*
X174876915Y-77223261D01*
X174716739Y-77063085D01*
X174590883Y-76874728D01*
X174504194Y-76665443D01*
X174460000Y-76443266D01*
X174460000Y-76216734D01*
X174504194Y-75994557D01*
X174590883Y-75785272D01*
X174716739Y-75596915D01*
X174876915Y-75436739D01*
X175065272Y-75310883D01*
X175187868Y-75260102D01*
X175274557Y-75224194D01*
X175421325Y-75195000D01*
X175483673Y-75182598D01*
X175507123Y-75175485D01*
X175528733Y-75163934D01*
X175547675Y-75148388D01*
X175563221Y-75129446D01*
X175574772Y-75107835D01*
X175581885Y-75084386D01*
X175584287Y-75060000D01*
X175581885Y-75035614D01*
X175574772Y-75012164D01*
X175563221Y-74990554D01*
X175547675Y-74971612D01*
X175528733Y-74956066D01*
X175507122Y-74944515D01*
X175483673Y-74937402D01*
X175379842Y-74916749D01*
X175274557Y-74895806D01*
X175187868Y-74859898D01*
X175065272Y-74809117D01*
X174876915Y-74683261D01*
X174716739Y-74523085D01*
X174590883Y-74334728D01*
X174504194Y-74125443D01*
X174460000Y-73903266D01*
X174460000Y-73676734D01*
X174504194Y-73454557D01*
X174590883Y-73245272D01*
X174716739Y-73056915D01*
X174876915Y-72896739D01*
X175065272Y-72770883D01*
X175226346Y-72704164D01*
X175274557Y-72684194D01*
X175379842Y-72663251D01*
X175483673Y-72642598D01*
X175507123Y-72635485D01*
X175528733Y-72623934D01*
X175547675Y-72608388D01*
X175563221Y-72589446D01*
X175574772Y-72567835D01*
X175581885Y-72544386D01*
X175584287Y-72520000D01*
X175581885Y-72495614D01*
X175574772Y-72472164D01*
X175563221Y-72450554D01*
X175547675Y-72431612D01*
X175528733Y-72416066D01*
X175507122Y-72404515D01*
X175483673Y-72397402D01*
X175379842Y-72376749D01*
X175274557Y-72355806D01*
X175187868Y-72319898D01*
X175065272Y-72269117D01*
X174876915Y-72143261D01*
X174716739Y-71983085D01*
X174590883Y-71794728D01*
X174504194Y-71585443D01*
X174460000Y-71363266D01*
X174460000Y-71136734D01*
X174504194Y-70914557D01*
X174590883Y-70705272D01*
X174716739Y-70516915D01*
X174876915Y-70356739D01*
X175065272Y-70230883D01*
X175187868Y-70180102D01*
X175274557Y-70144194D01*
X175379842Y-70123251D01*
X175483673Y-70102598D01*
X175507123Y-70095485D01*
X175528733Y-70083934D01*
X175547675Y-70068388D01*
X175563221Y-70049446D01*
X175574772Y-70027835D01*
X175581885Y-70004386D01*
X175584287Y-69980000D01*
X175581885Y-69955614D01*
X175574772Y-69932164D01*
X175563221Y-69910554D01*
X175547675Y-69891612D01*
X175528733Y-69876066D01*
X175507122Y-69864515D01*
X175483673Y-69857402D01*
X175362566Y-69833312D01*
X175274557Y-69815806D01*
X175154919Y-69766250D01*
X175065272Y-69729117D01*
X174876915Y-69603261D01*
X174716739Y-69443085D01*
X174590883Y-69254728D01*
X174504194Y-69045443D01*
X174460000Y-68823266D01*
X174460000Y-68596734D01*
X174504194Y-68374557D01*
X174590883Y-68165272D01*
X174716739Y-67976915D01*
X174876915Y-67816739D01*
X175065272Y-67690883D01*
X175274557Y-67604194D01*
X175496734Y-67560000D01*
X175723266Y-67560000D01*
X175945443Y-67604194D01*
X175945443Y-67604194D01*
G37*
G36*
X72329628Y-108480493D02*
X72377354Y-108494970D01*
X72421336Y-108518479D01*
X72459885Y-108550115D01*
X72491521Y-108588664D01*
X72515030Y-108632646D01*
X72529507Y-108680372D01*
X72535000Y-108736141D01*
X72535000Y-111263859D01*
X72529507Y-111319628D01*
X72515030Y-111367354D01*
X72491521Y-111411336D01*
X72459885Y-111449885D01*
X72421336Y-111481521D01*
X72377354Y-111505030D01*
X72329628Y-111519507D01*
X72273859Y-111525000D01*
X71146141Y-111525000D01*
X71090372Y-111519507D01*
X71042646Y-111505030D01*
X70998664Y-111481521D01*
X70960115Y-111449885D01*
X70928479Y-111411336D01*
X70904970Y-111367354D01*
X70890493Y-111319628D01*
X70885000Y-111263859D01*
X70885000Y-108736141D01*
X70890493Y-108680372D01*
X70904970Y-108632646D01*
X70928479Y-108588664D01*
X70960115Y-108550115D01*
X70998664Y-108518479D01*
X71042646Y-108494970D01*
X71090372Y-108480493D01*
X71146141Y-108475000D01*
X72273859Y-108475000D01*
X72329628Y-108480493D01*
X72329628Y-108480493D01*
G37*
G36*
X69529628Y-108480493D02*
X69577354Y-108494970D01*
X69621336Y-108518479D01*
X69659885Y-108550115D01*
X69691521Y-108588664D01*
X69715030Y-108632646D01*
X69729507Y-108680372D01*
X69735000Y-108736141D01*
X69735000Y-111263859D01*
X69729507Y-111319628D01*
X69715030Y-111367354D01*
X69691521Y-111411336D01*
X69659885Y-111449885D01*
X69621336Y-111481521D01*
X69577354Y-111505030D01*
X69529628Y-111519507D01*
X69473859Y-111525000D01*
X68346141Y-111525000D01*
X68290372Y-111519507D01*
X68242646Y-111505030D01*
X68198664Y-111481521D01*
X68160115Y-111449885D01*
X68128479Y-111411336D01*
X68104970Y-111367354D01*
X68090493Y-111319628D01*
X68085000Y-111263859D01*
X68085000Y-108736141D01*
X68090493Y-108680372D01*
X68104970Y-108632646D01*
X68128479Y-108588664D01*
X68160115Y-108550115D01*
X68198664Y-108518479D01*
X68242646Y-108494970D01*
X68290372Y-108480493D01*
X68346141Y-108475000D01*
X69473859Y-108475000D01*
X69529628Y-108480493D01*
X69529628Y-108480493D01*
G37*
G36*
X66650000Y-107020000D02*
X64750000Y-107020000D01*
X64750000Y-102420000D01*
X66650000Y-102420000D01*
X66650000Y-107020000D01*
X66650000Y-107020000D01*
G37*
G36*
X70250000Y-107020000D02*
X68350000Y-107020000D01*
X68350000Y-102420000D01*
X70250000Y-102420000D01*
X70250000Y-107020000D01*
X70250000Y-107020000D01*
G37*
G36*
X59557560Y-100453759D02*
X60048928Y-100657290D01*
X60048930Y-100657291D01*
X60317490Y-100836737D01*
X60491153Y-100952775D01*
X60867225Y-101328847D01*
X60867227Y-101328850D01*
X61059586Y-101616735D01*
X61162710Y-101771072D01*
X61366241Y-102262440D01*
X61470000Y-102784072D01*
X61470000Y-103315928D01*
X61366241Y-103837560D01*
X61162710Y-104328928D01*
X61162709Y-104328930D01*
X61126403Y-104383266D01*
X60867225Y-104771153D01*
X60491153Y-105147225D01*
X60491150Y-105147227D01*
X60048930Y-105442709D01*
X60048929Y-105442710D01*
X60048928Y-105442710D01*
X59557560Y-105646241D01*
X59035928Y-105750000D01*
X58504072Y-105750000D01*
X57982440Y-105646241D01*
X57491072Y-105442710D01*
X57491071Y-105442710D01*
X57491070Y-105442709D01*
X57048850Y-105147227D01*
X57048847Y-105147225D01*
X56672775Y-104771153D01*
X56413597Y-104383266D01*
X56377291Y-104328930D01*
X56377290Y-104328928D01*
X56173759Y-103837560D01*
X56070000Y-103315928D01*
X56070000Y-102784072D01*
X56173759Y-102262440D01*
X56377290Y-101771072D01*
X56480415Y-101616735D01*
X56672773Y-101328850D01*
X56672775Y-101328847D01*
X57048847Y-100952775D01*
X57222510Y-100836737D01*
X57491070Y-100657291D01*
X57491072Y-100657290D01*
X57982440Y-100453759D01*
X58504072Y-100350000D01*
X59035928Y-100350000D01*
X59557560Y-100453759D01*
X59557560Y-100453759D01*
G37*
G36*
X227217560Y-100453759D02*
X227708928Y-100657290D01*
X227708930Y-100657291D01*
X227977490Y-100836737D01*
X228151153Y-100952775D01*
X228527225Y-101328847D01*
X228527227Y-101328850D01*
X228719586Y-101616735D01*
X228822710Y-101771072D01*
X229026241Y-102262440D01*
X229130000Y-102784072D01*
X229130000Y-103315928D01*
X229026241Y-103837560D01*
X228822710Y-104328928D01*
X228822709Y-104328930D01*
X228786403Y-104383266D01*
X228527225Y-104771153D01*
X228151153Y-105147225D01*
X228151150Y-105147227D01*
X227708930Y-105442709D01*
X227708929Y-105442710D01*
X227708928Y-105442710D01*
X227217560Y-105646241D01*
X226695928Y-105750000D01*
X226164072Y-105750000D01*
X225642440Y-105646241D01*
X225151072Y-105442710D01*
X225151071Y-105442710D01*
X225151070Y-105442709D01*
X224708850Y-105147227D01*
X224708847Y-105147225D01*
X224332775Y-104771153D01*
X224073597Y-104383266D01*
X224037291Y-104328930D01*
X224037290Y-104328928D01*
X223833759Y-103837560D01*
X223730000Y-103315928D01*
X223730000Y-102784072D01*
X223833759Y-102262440D01*
X224037290Y-101771072D01*
X224140415Y-101616735D01*
X224332773Y-101328850D01*
X224332775Y-101328847D01*
X224708847Y-100952775D01*
X224882510Y-100836737D01*
X225151070Y-100657291D01*
X225151072Y-100657290D01*
X225642440Y-100453759D01*
X226164072Y-100350000D01*
X226695928Y-100350000D01*
X227217560Y-100453759D01*
X227217560Y-100453759D01*
G37*
G36*
X157358707Y-101547596D02*
X157435836Y-101555193D01*
X157567787Y-101595220D01*
X157633763Y-101615233D01*
X157816172Y-101712733D01*
X157976054Y-101843946D01*
X158107267Y-102003828D01*
X158204767Y-102186237D01*
X158204767Y-102186238D01*
X158264807Y-102384164D01*
X158285080Y-102590000D01*
X158264807Y-102795836D01*
X158234403Y-102896066D01*
X158204767Y-102993763D01*
X158107267Y-103176172D01*
X157976054Y-103336054D01*
X157816172Y-103467267D01*
X157633763Y-103564767D01*
X157567787Y-103584780D01*
X157435836Y-103624807D01*
X157358707Y-103632403D01*
X157281580Y-103640000D01*
X157178420Y-103640000D01*
X157101293Y-103632403D01*
X157024164Y-103624807D01*
X156892213Y-103584780D01*
X156826237Y-103564767D01*
X156643828Y-103467267D01*
X156483946Y-103336054D01*
X156352733Y-103176172D01*
X156255233Y-102993763D01*
X156225597Y-102896066D01*
X156195193Y-102795836D01*
X156174920Y-102590000D01*
X156195193Y-102384164D01*
X156255233Y-102186238D01*
X156255233Y-102186237D01*
X156352733Y-102003828D01*
X156483946Y-101843946D01*
X156643828Y-101712733D01*
X156826237Y-101615233D01*
X156892213Y-101595220D01*
X157024164Y-101555193D01*
X157101293Y-101547596D01*
X157178420Y-101540000D01*
X157281580Y-101540000D01*
X157358707Y-101547596D01*
X157358707Y-101547596D01*
G37*
G36*
X149738707Y-101547596D02*
X149815836Y-101555193D01*
X149947787Y-101595220D01*
X150013763Y-101615233D01*
X150196172Y-101712733D01*
X150356054Y-101843946D01*
X150487267Y-102003828D01*
X150584767Y-102186237D01*
X150584767Y-102186238D01*
X150644807Y-102384164D01*
X150665080Y-102590000D01*
X150644807Y-102795836D01*
X150614403Y-102896066D01*
X150584767Y-102993763D01*
X150487267Y-103176172D01*
X150356054Y-103336054D01*
X150196172Y-103467267D01*
X150013763Y-103564767D01*
X149947787Y-103584780D01*
X149815836Y-103624807D01*
X149738707Y-103632403D01*
X149661580Y-103640000D01*
X149558420Y-103640000D01*
X149481293Y-103632403D01*
X149404164Y-103624807D01*
X149272213Y-103584780D01*
X149206237Y-103564767D01*
X149023828Y-103467267D01*
X148863946Y-103336054D01*
X148732733Y-103176172D01*
X148635233Y-102993763D01*
X148605597Y-102896066D01*
X148575193Y-102795836D01*
X148554920Y-102590000D01*
X148575193Y-102384164D01*
X148635233Y-102186238D01*
X148635233Y-102186237D01*
X148732733Y-102003828D01*
X148863946Y-101843946D01*
X149023828Y-101712733D01*
X149206237Y-101615233D01*
X149272213Y-101595220D01*
X149404164Y-101555193D01*
X149481293Y-101547596D01*
X149558420Y-101540000D01*
X149661580Y-101540000D01*
X149738707Y-101547596D01*
X149738707Y-101547596D01*
G37*
G36*
X147198707Y-101547596D02*
X147275836Y-101555193D01*
X147407787Y-101595220D01*
X147473763Y-101615233D01*
X147656172Y-101712733D01*
X147816054Y-101843946D01*
X147947267Y-102003828D01*
X148044767Y-102186237D01*
X148044767Y-102186238D01*
X148104807Y-102384164D01*
X148125080Y-102590000D01*
X148104807Y-102795836D01*
X148074403Y-102896066D01*
X148044767Y-102993763D01*
X147947267Y-103176172D01*
X147816054Y-103336054D01*
X147656172Y-103467267D01*
X147473763Y-103564767D01*
X147407787Y-103584780D01*
X147275836Y-103624807D01*
X147198707Y-103632403D01*
X147121580Y-103640000D01*
X147018420Y-103640000D01*
X146941293Y-103632403D01*
X146864164Y-103624807D01*
X146732213Y-103584780D01*
X146666237Y-103564767D01*
X146483828Y-103467267D01*
X146323946Y-103336054D01*
X146192733Y-103176172D01*
X146095233Y-102993763D01*
X146065597Y-102896066D01*
X146035193Y-102795836D01*
X146014920Y-102590000D01*
X146035193Y-102384164D01*
X146095233Y-102186238D01*
X146095233Y-102186237D01*
X146192733Y-102003828D01*
X146323946Y-101843946D01*
X146483828Y-101712733D01*
X146666237Y-101615233D01*
X146732213Y-101595220D01*
X146864164Y-101555193D01*
X146941293Y-101547596D01*
X147018420Y-101540000D01*
X147121580Y-101540000D01*
X147198707Y-101547596D01*
X147198707Y-101547596D01*
G37*
G36*
X144658707Y-101547596D02*
X144735836Y-101555193D01*
X144867787Y-101595220D01*
X144933763Y-101615233D01*
X145116172Y-101712733D01*
X145276054Y-101843946D01*
X145407267Y-102003828D01*
X145504767Y-102186237D01*
X145504767Y-102186238D01*
X145564807Y-102384164D01*
X145585080Y-102590000D01*
X145564807Y-102795836D01*
X145534403Y-102896066D01*
X145504767Y-102993763D01*
X145407267Y-103176172D01*
X145276054Y-103336054D01*
X145116172Y-103467267D01*
X144933763Y-103564767D01*
X144867787Y-103584780D01*
X144735836Y-103624807D01*
X144658707Y-103632403D01*
X144581580Y-103640000D01*
X144478420Y-103640000D01*
X144401293Y-103632403D01*
X144324164Y-103624807D01*
X144192213Y-103584780D01*
X144126237Y-103564767D01*
X143943828Y-103467267D01*
X143783946Y-103336054D01*
X143652733Y-103176172D01*
X143555233Y-102993763D01*
X143525597Y-102896066D01*
X143495193Y-102795836D01*
X143474920Y-102590000D01*
X143495193Y-102384164D01*
X143555233Y-102186238D01*
X143555233Y-102186237D01*
X143652733Y-102003828D01*
X143783946Y-101843946D01*
X143943828Y-101712733D01*
X144126237Y-101615233D01*
X144192213Y-101595220D01*
X144324164Y-101555193D01*
X144401293Y-101547596D01*
X144478420Y-101540000D01*
X144581580Y-101540000D01*
X144658707Y-101547596D01*
X144658707Y-101547596D01*
G37*
G36*
X154818707Y-101547596D02*
X154895836Y-101555193D01*
X155027787Y-101595220D01*
X155093763Y-101615233D01*
X155276172Y-101712733D01*
X155436054Y-101843946D01*
X155567267Y-102003828D01*
X155664767Y-102186237D01*
X155664767Y-102186238D01*
X155724807Y-102384164D01*
X155745080Y-102590000D01*
X155724807Y-102795836D01*
X155694403Y-102896066D01*
X155664767Y-102993763D01*
X155567267Y-103176172D01*
X155436054Y-103336054D01*
X155276172Y-103467267D01*
X155093763Y-103564767D01*
X155027787Y-103584780D01*
X154895836Y-103624807D01*
X154818707Y-103632403D01*
X154741580Y-103640000D01*
X154638420Y-103640000D01*
X154561293Y-103632403D01*
X154484164Y-103624807D01*
X154352213Y-103584780D01*
X154286237Y-103564767D01*
X154103828Y-103467267D01*
X153943946Y-103336054D01*
X153812733Y-103176172D01*
X153715233Y-102993763D01*
X153685597Y-102896066D01*
X153655193Y-102795836D01*
X153634920Y-102590000D01*
X153655193Y-102384164D01*
X153715233Y-102186238D01*
X153715233Y-102186237D01*
X153812733Y-102003828D01*
X153943946Y-101843946D01*
X154103828Y-101712733D01*
X154286237Y-101615233D01*
X154352213Y-101595220D01*
X154484164Y-101555193D01*
X154561293Y-101547596D01*
X154638420Y-101540000D01*
X154741580Y-101540000D01*
X154818707Y-101547596D01*
X154818707Y-101547596D01*
G37*
G36*
X162438707Y-101547596D02*
X162515836Y-101555193D01*
X162647787Y-101595220D01*
X162713763Y-101615233D01*
X162896172Y-101712733D01*
X163056054Y-101843946D01*
X163187267Y-102003828D01*
X163284767Y-102186237D01*
X163284767Y-102186238D01*
X163344807Y-102384164D01*
X163365080Y-102590000D01*
X163344807Y-102795836D01*
X163314403Y-102896066D01*
X163284767Y-102993763D01*
X163187267Y-103176172D01*
X163056054Y-103336054D01*
X162896172Y-103467267D01*
X162713763Y-103564767D01*
X162647787Y-103584780D01*
X162515836Y-103624807D01*
X162438707Y-103632403D01*
X162361580Y-103640000D01*
X162258420Y-103640000D01*
X162181293Y-103632403D01*
X162104164Y-103624807D01*
X161972213Y-103584780D01*
X161906237Y-103564767D01*
X161723828Y-103467267D01*
X161563946Y-103336054D01*
X161432733Y-103176172D01*
X161335233Y-102993763D01*
X161305597Y-102896066D01*
X161275193Y-102795836D01*
X161254920Y-102590000D01*
X161275193Y-102384164D01*
X161335233Y-102186238D01*
X161335233Y-102186237D01*
X161432733Y-102003828D01*
X161563946Y-101843946D01*
X161723828Y-101712733D01*
X161906237Y-101615233D01*
X161972213Y-101595220D01*
X162104164Y-101555193D01*
X162181293Y-101547596D01*
X162258420Y-101540000D01*
X162361580Y-101540000D01*
X162438707Y-101547596D01*
X162438707Y-101547596D01*
G37*
G36*
X159898707Y-101547596D02*
X159975836Y-101555193D01*
X160107787Y-101595220D01*
X160173763Y-101615233D01*
X160356172Y-101712733D01*
X160516054Y-101843946D01*
X160647267Y-102003828D01*
X160744767Y-102186237D01*
X160744767Y-102186238D01*
X160804807Y-102384164D01*
X160825080Y-102590000D01*
X160804807Y-102795836D01*
X160774403Y-102896066D01*
X160744767Y-102993763D01*
X160647267Y-103176172D01*
X160516054Y-103336054D01*
X160356172Y-103467267D01*
X160173763Y-103564767D01*
X160107787Y-103584780D01*
X159975836Y-103624807D01*
X159898707Y-103632403D01*
X159821580Y-103640000D01*
X159718420Y-103640000D01*
X159641293Y-103632403D01*
X159564164Y-103624807D01*
X159432213Y-103584780D01*
X159366237Y-103564767D01*
X159183828Y-103467267D01*
X159023946Y-103336054D01*
X158892733Y-103176172D01*
X158795233Y-102993763D01*
X158765597Y-102896066D01*
X158735193Y-102795836D01*
X158714920Y-102590000D01*
X158735193Y-102384164D01*
X158795233Y-102186238D01*
X158795233Y-102186237D01*
X158892733Y-102003828D01*
X159023946Y-101843946D01*
X159183828Y-101712733D01*
X159366237Y-101615233D01*
X159432213Y-101595220D01*
X159564164Y-101555193D01*
X159641293Y-101547596D01*
X159718420Y-101540000D01*
X159821580Y-101540000D01*
X159898707Y-101547596D01*
X159898707Y-101547596D01*
G37*
G36*
X142118707Y-101547596D02*
X142195836Y-101555193D01*
X142327787Y-101595220D01*
X142393763Y-101615233D01*
X142576172Y-101712733D01*
X142736054Y-101843946D01*
X142867267Y-102003828D01*
X142964767Y-102186237D01*
X142964767Y-102186238D01*
X143024807Y-102384164D01*
X143045080Y-102590000D01*
X143024807Y-102795836D01*
X142994403Y-102896066D01*
X142964767Y-102993763D01*
X142867267Y-103176172D01*
X142736054Y-103336054D01*
X142576172Y-103467267D01*
X142393763Y-103564767D01*
X142327787Y-103584780D01*
X142195836Y-103624807D01*
X142118707Y-103632403D01*
X142041580Y-103640000D01*
X141938420Y-103640000D01*
X141861293Y-103632403D01*
X141784164Y-103624807D01*
X141652213Y-103584780D01*
X141586237Y-103564767D01*
X141403828Y-103467267D01*
X141243946Y-103336054D01*
X141112733Y-103176172D01*
X141015233Y-102993763D01*
X140985597Y-102896066D01*
X140955193Y-102795836D01*
X140934920Y-102590000D01*
X140955193Y-102384164D01*
X141015233Y-102186238D01*
X141015233Y-102186237D01*
X141112733Y-102003828D01*
X141243946Y-101843946D01*
X141403828Y-101712733D01*
X141586237Y-101615233D01*
X141652213Y-101595220D01*
X141784164Y-101555193D01*
X141861293Y-101547596D01*
X141938420Y-101540000D01*
X142041580Y-101540000D01*
X142118707Y-101547596D01*
X142118707Y-101547596D01*
G37*
G36*
X227938707Y-96267597D02*
X228015836Y-96275193D01*
X228145602Y-96314557D01*
X228213763Y-96335233D01*
X228396172Y-96432733D01*
X228556054Y-96563946D01*
X228687267Y-96723828D01*
X228784767Y-96906237D01*
X228784767Y-96906238D01*
X228844807Y-97104164D01*
X228865080Y-97310000D01*
X228844807Y-97515836D01*
X228836487Y-97543263D01*
X228784767Y-97713763D01*
X228687267Y-97896172D01*
X228556054Y-98056054D01*
X228396172Y-98187267D01*
X228213763Y-98284767D01*
X228147787Y-98304780D01*
X228015836Y-98344807D01*
X227938707Y-98352404D01*
X227861580Y-98360000D01*
X227758420Y-98360000D01*
X227681293Y-98352404D01*
X227604164Y-98344807D01*
X227472213Y-98304780D01*
X227406237Y-98284767D01*
X227223828Y-98187267D01*
X227063946Y-98056054D01*
X226932733Y-97896172D01*
X226835233Y-97713763D01*
X226783513Y-97543263D01*
X226775193Y-97515836D01*
X226754920Y-97310000D01*
X226775193Y-97104164D01*
X226835233Y-96906238D01*
X226835233Y-96906237D01*
X226932733Y-96723828D01*
X227063946Y-96563946D01*
X227223828Y-96432733D01*
X227406237Y-96335233D01*
X227474398Y-96314557D01*
X227604164Y-96275193D01*
X227681293Y-96267597D01*
X227758420Y-96260000D01*
X227861580Y-96260000D01*
X227938707Y-96267597D01*
X227938707Y-96267597D01*
G37*
G36*
X220318707Y-96267597D02*
X220395836Y-96275193D01*
X220525602Y-96314557D01*
X220593763Y-96335233D01*
X220776172Y-96432733D01*
X220936054Y-96563946D01*
X221067267Y-96723828D01*
X221164767Y-96906237D01*
X221164767Y-96906238D01*
X221224807Y-97104164D01*
X221245080Y-97310000D01*
X221224807Y-97515836D01*
X221216487Y-97543263D01*
X221164767Y-97713763D01*
X221067267Y-97896172D01*
X220936054Y-98056054D01*
X220776172Y-98187267D01*
X220593763Y-98284767D01*
X220527787Y-98304780D01*
X220395836Y-98344807D01*
X220318707Y-98352404D01*
X220241580Y-98360000D01*
X220138420Y-98360000D01*
X220061293Y-98352404D01*
X219984164Y-98344807D01*
X219852213Y-98304780D01*
X219786237Y-98284767D01*
X219603828Y-98187267D01*
X219443946Y-98056054D01*
X219312733Y-97896172D01*
X219215233Y-97713763D01*
X219163513Y-97543263D01*
X219155193Y-97515836D01*
X219134920Y-97310000D01*
X219155193Y-97104164D01*
X219215233Y-96906238D01*
X219215233Y-96906237D01*
X219312733Y-96723828D01*
X219443946Y-96563946D01*
X219603828Y-96432733D01*
X219786237Y-96335233D01*
X219854398Y-96314557D01*
X219984164Y-96275193D01*
X220061293Y-96267597D01*
X220138420Y-96260000D01*
X220241580Y-96260000D01*
X220318707Y-96267597D01*
X220318707Y-96267597D01*
G37*
G36*
X217778707Y-96267597D02*
X217855836Y-96275193D01*
X217985602Y-96314557D01*
X218053763Y-96335233D01*
X218236172Y-96432733D01*
X218396054Y-96563946D01*
X218527267Y-96723828D01*
X218624767Y-96906237D01*
X218624767Y-96906238D01*
X218684807Y-97104164D01*
X218705080Y-97310000D01*
X218684807Y-97515836D01*
X218676487Y-97543263D01*
X218624767Y-97713763D01*
X218527267Y-97896172D01*
X218396054Y-98056054D01*
X218236172Y-98187267D01*
X218053763Y-98284767D01*
X217987787Y-98304780D01*
X217855836Y-98344807D01*
X217778707Y-98352404D01*
X217701580Y-98360000D01*
X217598420Y-98360000D01*
X217521293Y-98352404D01*
X217444164Y-98344807D01*
X217312213Y-98304780D01*
X217246237Y-98284767D01*
X217063828Y-98187267D01*
X216903946Y-98056054D01*
X216772733Y-97896172D01*
X216675233Y-97713763D01*
X216623513Y-97543263D01*
X216615193Y-97515836D01*
X216594920Y-97310000D01*
X216615193Y-97104164D01*
X216675233Y-96906238D01*
X216675233Y-96906237D01*
X216772733Y-96723828D01*
X216903946Y-96563946D01*
X217063828Y-96432733D01*
X217246237Y-96335233D01*
X217314398Y-96314557D01*
X217444164Y-96275193D01*
X217521293Y-96267597D01*
X217598420Y-96260000D01*
X217701580Y-96260000D01*
X217778707Y-96267597D01*
X217778707Y-96267597D01*
G37*
G36*
X212698707Y-96267597D02*
X212775836Y-96275193D01*
X212905602Y-96314557D01*
X212973763Y-96335233D01*
X213156172Y-96432733D01*
X213316054Y-96563946D01*
X213447267Y-96723828D01*
X213544767Y-96906237D01*
X213544767Y-96906238D01*
X213604807Y-97104164D01*
X213625080Y-97310000D01*
X213604807Y-97515836D01*
X213596487Y-97543263D01*
X213544767Y-97713763D01*
X213447267Y-97896172D01*
X213316054Y-98056054D01*
X213156172Y-98187267D01*
X212973763Y-98284767D01*
X212907787Y-98304780D01*
X212775836Y-98344807D01*
X212698707Y-98352404D01*
X212621580Y-98360000D01*
X212518420Y-98360000D01*
X212441293Y-98352404D01*
X212364164Y-98344807D01*
X212232213Y-98304780D01*
X212166237Y-98284767D01*
X211983828Y-98187267D01*
X211823946Y-98056054D01*
X211692733Y-97896172D01*
X211595233Y-97713763D01*
X211543513Y-97543263D01*
X211535193Y-97515836D01*
X211514920Y-97310000D01*
X211535193Y-97104164D01*
X211595233Y-96906238D01*
X211595233Y-96906237D01*
X211692733Y-96723828D01*
X211823946Y-96563946D01*
X211983828Y-96432733D01*
X212166237Y-96335233D01*
X212234398Y-96314557D01*
X212364164Y-96275193D01*
X212441293Y-96267597D01*
X212518420Y-96260000D01*
X212621580Y-96260000D01*
X212698707Y-96267597D01*
X212698707Y-96267597D01*
G37*
G36*
X210158707Y-96267597D02*
X210235836Y-96275193D01*
X210365602Y-96314557D01*
X210433763Y-96335233D01*
X210616172Y-96432733D01*
X210776054Y-96563946D01*
X210907267Y-96723828D01*
X211004767Y-96906237D01*
X211004767Y-96906238D01*
X211064807Y-97104164D01*
X211085080Y-97310000D01*
X211064807Y-97515836D01*
X211056487Y-97543263D01*
X211004767Y-97713763D01*
X210907267Y-97896172D01*
X210776054Y-98056054D01*
X210616172Y-98187267D01*
X210433763Y-98284767D01*
X210367787Y-98304780D01*
X210235836Y-98344807D01*
X210158707Y-98352404D01*
X210081580Y-98360000D01*
X209978420Y-98360000D01*
X209901293Y-98352404D01*
X209824164Y-98344807D01*
X209692213Y-98304780D01*
X209626237Y-98284767D01*
X209443828Y-98187267D01*
X209283946Y-98056054D01*
X209152733Y-97896172D01*
X209055233Y-97713763D01*
X209003513Y-97543263D01*
X208995193Y-97515836D01*
X208974920Y-97310000D01*
X208995193Y-97104164D01*
X209055233Y-96906238D01*
X209055233Y-96906237D01*
X209152733Y-96723828D01*
X209283946Y-96563946D01*
X209443828Y-96432733D01*
X209626237Y-96335233D01*
X209694398Y-96314557D01*
X209824164Y-96275193D01*
X209901293Y-96267597D01*
X209978420Y-96260000D01*
X210081580Y-96260000D01*
X210158707Y-96267597D01*
X210158707Y-96267597D01*
G37*
G36*
X222858707Y-96267597D02*
X222935836Y-96275193D01*
X223065602Y-96314557D01*
X223133763Y-96335233D01*
X223316172Y-96432733D01*
X223476054Y-96563946D01*
X223607267Y-96723828D01*
X223704767Y-96906237D01*
X223704767Y-96906238D01*
X223764807Y-97104164D01*
X223785080Y-97310000D01*
X223764807Y-97515836D01*
X223756487Y-97543263D01*
X223704767Y-97713763D01*
X223607267Y-97896172D01*
X223476054Y-98056054D01*
X223316172Y-98187267D01*
X223133763Y-98284767D01*
X223067787Y-98304780D01*
X222935836Y-98344807D01*
X222858707Y-98352404D01*
X222781580Y-98360000D01*
X222678420Y-98360000D01*
X222601293Y-98352404D01*
X222524164Y-98344807D01*
X222392213Y-98304780D01*
X222326237Y-98284767D01*
X222143828Y-98187267D01*
X221983946Y-98056054D01*
X221852733Y-97896172D01*
X221755233Y-97713763D01*
X221703513Y-97543263D01*
X221695193Y-97515836D01*
X221674920Y-97310000D01*
X221695193Y-97104164D01*
X221755233Y-96906238D01*
X221755233Y-96906237D01*
X221852733Y-96723828D01*
X221983946Y-96563946D01*
X222143828Y-96432733D01*
X222326237Y-96335233D01*
X222394398Y-96314557D01*
X222524164Y-96275193D01*
X222601293Y-96267597D01*
X222678420Y-96260000D01*
X222781580Y-96260000D01*
X222858707Y-96267597D01*
X222858707Y-96267597D01*
G37*
G36*
X215238707Y-96267597D02*
X215315836Y-96275193D01*
X215445602Y-96314557D01*
X215513763Y-96335233D01*
X215696172Y-96432733D01*
X215856054Y-96563946D01*
X215987267Y-96723828D01*
X216084767Y-96906237D01*
X216084767Y-96906238D01*
X216144807Y-97104164D01*
X216165080Y-97310000D01*
X216144807Y-97515836D01*
X216136487Y-97543263D01*
X216084767Y-97713763D01*
X215987267Y-97896172D01*
X215856054Y-98056054D01*
X215696172Y-98187267D01*
X215513763Y-98284767D01*
X215447787Y-98304780D01*
X215315836Y-98344807D01*
X215238707Y-98352404D01*
X215161580Y-98360000D01*
X215058420Y-98360000D01*
X214981293Y-98352404D01*
X214904164Y-98344807D01*
X214772213Y-98304780D01*
X214706237Y-98284767D01*
X214523828Y-98187267D01*
X214363946Y-98056054D01*
X214232733Y-97896172D01*
X214135233Y-97713763D01*
X214083513Y-97543263D01*
X214075193Y-97515836D01*
X214054920Y-97310000D01*
X214075193Y-97104164D01*
X214135233Y-96906238D01*
X214135233Y-96906237D01*
X214232733Y-96723828D01*
X214363946Y-96563946D01*
X214523828Y-96432733D01*
X214706237Y-96335233D01*
X214774398Y-96314557D01*
X214904164Y-96275193D01*
X214981293Y-96267597D01*
X215058420Y-96260000D01*
X215161580Y-96260000D01*
X215238707Y-96267597D01*
X215238707Y-96267597D01*
G37*
G36*
X208540000Y-98360000D02*
X206440000Y-98360000D01*
X206440000Y-96260000D01*
X208540000Y-96260000D01*
X208540000Y-98360000D01*
X208540000Y-98360000D01*
G37*
G36*
X225398707Y-96267597D02*
X225475836Y-96275193D01*
X225605602Y-96314557D01*
X225673763Y-96335233D01*
X225856172Y-96432733D01*
X226016054Y-96563946D01*
X226147267Y-96723828D01*
X226244767Y-96906237D01*
X226244767Y-96906238D01*
X226304807Y-97104164D01*
X226325080Y-97310000D01*
X226304807Y-97515836D01*
X226296487Y-97543263D01*
X226244767Y-97713763D01*
X226147267Y-97896172D01*
X226016054Y-98056054D01*
X225856172Y-98187267D01*
X225673763Y-98284767D01*
X225607787Y-98304780D01*
X225475836Y-98344807D01*
X225398707Y-98352404D01*
X225321580Y-98360000D01*
X225218420Y-98360000D01*
X225141293Y-98352404D01*
X225064164Y-98344807D01*
X224932213Y-98304780D01*
X224866237Y-98284767D01*
X224683828Y-98187267D01*
X224523946Y-98056054D01*
X224392733Y-97896172D01*
X224295233Y-97713763D01*
X224243513Y-97543263D01*
X224235193Y-97515836D01*
X224214920Y-97310000D01*
X224235193Y-97104164D01*
X224295233Y-96906238D01*
X224295233Y-96906237D01*
X224392733Y-96723828D01*
X224523946Y-96563946D01*
X224683828Y-96432733D01*
X224866237Y-96335233D01*
X224934398Y-96314557D01*
X225064164Y-96275193D01*
X225141293Y-96267597D01*
X225218420Y-96260000D01*
X225321580Y-96260000D01*
X225398707Y-96267597D01*
X225398707Y-96267597D01*
G37*
G36*
X50326716Y-91429544D02*
X50727090Y-91595384D01*
X51087421Y-91836150D01*
X51393850Y-92142579D01*
X51634616Y-92502910D01*
X51800456Y-92903284D01*
X51885000Y-93328317D01*
X51885000Y-93761683D01*
X51800456Y-94186716D01*
X51634616Y-94587090D01*
X51393850Y-94947421D01*
X51087421Y-95253850D01*
X50727090Y-95494616D01*
X50326716Y-95660456D01*
X49901683Y-95745000D01*
X49468317Y-95745000D01*
X49043284Y-95660456D01*
X48642910Y-95494616D01*
X48282579Y-95253850D01*
X47976150Y-94947421D01*
X47735384Y-94587090D01*
X47569544Y-94186716D01*
X47485000Y-93761683D01*
X47485000Y-93328317D01*
X47569544Y-92903284D01*
X47735384Y-92502910D01*
X47976150Y-92142579D01*
X48282579Y-91836150D01*
X48642910Y-91595384D01*
X49043284Y-91429544D01*
X49468317Y-91345000D01*
X49901683Y-91345000D01*
X50326716Y-91429544D01*
X50326716Y-91429544D01*
G37*
G36*
X80876716Y-91429544D02*
X81277090Y-91595384D01*
X81637421Y-91836150D01*
X81943850Y-92142579D01*
X82184616Y-92502910D01*
X82350456Y-92903284D01*
X82435000Y-93328317D01*
X82435000Y-93761683D01*
X82350456Y-94186716D01*
X82184616Y-94587090D01*
X81943850Y-94947421D01*
X81637421Y-95253850D01*
X81277090Y-95494616D01*
X80876716Y-95660456D01*
X80451683Y-95745000D01*
X80018317Y-95745000D01*
X79593284Y-95660456D01*
X79192910Y-95494616D01*
X78832579Y-95253850D01*
X78526150Y-94947421D01*
X78285384Y-94587090D01*
X78119544Y-94186716D01*
X78035000Y-93761683D01*
X78035000Y-93328317D01*
X78119544Y-92903284D01*
X78285384Y-92502910D01*
X78526150Y-92142579D01*
X78832579Y-91836150D01*
X79192910Y-91595384D01*
X79593284Y-91429544D01*
X80018317Y-91345000D01*
X80451683Y-91345000D01*
X80876716Y-91429544D01*
X80876716Y-91429544D01*
G37*
G36*
X149738707Y-77147596D02*
X149815836Y-77155193D01*
X149947787Y-77195220D01*
X150013763Y-77215233D01*
X150196172Y-77312733D01*
X150356054Y-77443946D01*
X150487267Y-77603828D01*
X150584767Y-77786237D01*
X150584767Y-77786238D01*
X150644807Y-77984164D01*
X150665080Y-78190000D01*
X150644807Y-78395836D01*
X150604780Y-78527787D01*
X150584767Y-78593763D01*
X150487267Y-78776172D01*
X150356054Y-78936054D01*
X150196172Y-79067267D01*
X150013763Y-79164767D01*
X149947787Y-79184780D01*
X149815836Y-79224807D01*
X149738707Y-79232403D01*
X149661580Y-79240000D01*
X149558420Y-79240000D01*
X149481293Y-79232403D01*
X149404164Y-79224807D01*
X149272213Y-79184780D01*
X149206237Y-79164767D01*
X149023828Y-79067267D01*
X148863946Y-78936054D01*
X148732733Y-78776172D01*
X148635233Y-78593763D01*
X148615220Y-78527787D01*
X148575193Y-78395836D01*
X148554920Y-78190000D01*
X148575193Y-77984164D01*
X148635233Y-77786238D01*
X148635233Y-77786237D01*
X148732733Y-77603828D01*
X148863946Y-77443946D01*
X149023828Y-77312733D01*
X149206237Y-77215233D01*
X149272213Y-77195220D01*
X149404164Y-77155193D01*
X149481293Y-77147596D01*
X149558420Y-77140000D01*
X149661580Y-77140000D01*
X149738707Y-77147596D01*
X149738707Y-77147596D01*
G37*
G36*
X157358707Y-77147596D02*
X157435836Y-77155193D01*
X157567787Y-77195220D01*
X157633763Y-77215233D01*
X157816172Y-77312733D01*
X157976054Y-77443946D01*
X158107267Y-77603828D01*
X158204767Y-77786237D01*
X158204767Y-77786238D01*
X158264807Y-77984164D01*
X158285080Y-78190000D01*
X158264807Y-78395836D01*
X158224780Y-78527787D01*
X158204767Y-78593763D01*
X158107267Y-78776172D01*
X157976054Y-78936054D01*
X157816172Y-79067267D01*
X157633763Y-79164767D01*
X157567787Y-79184780D01*
X157435836Y-79224807D01*
X157358707Y-79232403D01*
X157281580Y-79240000D01*
X157178420Y-79240000D01*
X157101293Y-79232403D01*
X157024164Y-79224807D01*
X156892213Y-79184780D01*
X156826237Y-79164767D01*
X156643828Y-79067267D01*
X156483946Y-78936054D01*
X156352733Y-78776172D01*
X156255233Y-78593763D01*
X156235220Y-78527787D01*
X156195193Y-78395836D01*
X156174920Y-78190000D01*
X156195193Y-77984164D01*
X156255233Y-77786238D01*
X156255233Y-77786237D01*
X156352733Y-77603828D01*
X156483946Y-77443946D01*
X156643828Y-77312733D01*
X156826237Y-77215233D01*
X156892213Y-77195220D01*
X157024164Y-77155193D01*
X157101293Y-77147596D01*
X157178420Y-77140000D01*
X157281580Y-77140000D01*
X157358707Y-77147596D01*
X157358707Y-77147596D01*
G37*
G36*
X152278707Y-77147596D02*
X152355836Y-77155193D01*
X152487787Y-77195220D01*
X152553763Y-77215233D01*
X152736172Y-77312733D01*
X152896054Y-77443946D01*
X153027267Y-77603828D01*
X153124767Y-77786237D01*
X153124767Y-77786238D01*
X153184807Y-77984164D01*
X153205080Y-78190000D01*
X153184807Y-78395836D01*
X153144780Y-78527787D01*
X153124767Y-78593763D01*
X153027267Y-78776172D01*
X152896054Y-78936054D01*
X152736172Y-79067267D01*
X152553763Y-79164767D01*
X152487787Y-79184780D01*
X152355836Y-79224807D01*
X152278707Y-79232403D01*
X152201580Y-79240000D01*
X152098420Y-79240000D01*
X152021293Y-79232403D01*
X151944164Y-79224807D01*
X151812213Y-79184780D01*
X151746237Y-79164767D01*
X151563828Y-79067267D01*
X151403946Y-78936054D01*
X151272733Y-78776172D01*
X151175233Y-78593763D01*
X151155220Y-78527787D01*
X151115193Y-78395836D01*
X151094920Y-78190000D01*
X151115193Y-77984164D01*
X151175233Y-77786238D01*
X151175233Y-77786237D01*
X151272733Y-77603828D01*
X151403946Y-77443946D01*
X151563828Y-77312733D01*
X151746237Y-77215233D01*
X151812213Y-77195220D01*
X151944164Y-77155193D01*
X152021293Y-77147596D01*
X152098420Y-77140000D01*
X152201580Y-77140000D01*
X152278707Y-77147596D01*
X152278707Y-77147596D01*
G37*
G36*
X154818707Y-77147596D02*
X154895836Y-77155193D01*
X155027787Y-77195220D01*
X155093763Y-77215233D01*
X155276172Y-77312733D01*
X155436054Y-77443946D01*
X155567267Y-77603828D01*
X155664767Y-77786237D01*
X155664767Y-77786238D01*
X155724807Y-77984164D01*
X155745080Y-78190000D01*
X155724807Y-78395836D01*
X155684780Y-78527787D01*
X155664767Y-78593763D01*
X155567267Y-78776172D01*
X155436054Y-78936054D01*
X155276172Y-79067267D01*
X155093763Y-79164767D01*
X155027787Y-79184780D01*
X154895836Y-79224807D01*
X154818707Y-79232403D01*
X154741580Y-79240000D01*
X154638420Y-79240000D01*
X154561293Y-79232403D01*
X154484164Y-79224807D01*
X154352213Y-79184780D01*
X154286237Y-79164767D01*
X154103828Y-79067267D01*
X153943946Y-78936054D01*
X153812733Y-78776172D01*
X153715233Y-78593763D01*
X153695220Y-78527787D01*
X153655193Y-78395836D01*
X153634920Y-78190000D01*
X153655193Y-77984164D01*
X153715233Y-77786238D01*
X153715233Y-77786237D01*
X153812733Y-77603828D01*
X153943946Y-77443946D01*
X154103828Y-77312733D01*
X154286237Y-77215233D01*
X154352213Y-77195220D01*
X154484164Y-77155193D01*
X154561293Y-77147596D01*
X154638420Y-77140000D01*
X154741580Y-77140000D01*
X154818707Y-77147596D01*
X154818707Y-77147596D01*
G37*
G36*
X163360000Y-79240000D02*
X161260000Y-79240000D01*
X161260000Y-77140000D01*
X163360000Y-77140000D01*
X163360000Y-79240000D01*
X163360000Y-79240000D01*
G37*
G36*
X159898707Y-77147596D02*
X159975836Y-77155193D01*
X160107787Y-77195220D01*
X160173763Y-77215233D01*
X160356172Y-77312733D01*
X160516054Y-77443946D01*
X160647267Y-77603828D01*
X160744767Y-77786237D01*
X160744767Y-77786238D01*
X160804807Y-77984164D01*
X160825080Y-78190000D01*
X160804807Y-78395836D01*
X160764780Y-78527787D01*
X160744767Y-78593763D01*
X160647267Y-78776172D01*
X160516054Y-78936054D01*
X160356172Y-79067267D01*
X160173763Y-79164767D01*
X160107787Y-79184780D01*
X159975836Y-79224807D01*
X159898707Y-79232403D01*
X159821580Y-79240000D01*
X159718420Y-79240000D01*
X159641293Y-79232403D01*
X159564164Y-79224807D01*
X159432213Y-79184780D01*
X159366237Y-79164767D01*
X159183828Y-79067267D01*
X159023946Y-78936054D01*
X158892733Y-78776172D01*
X158795233Y-78593763D01*
X158775220Y-78527787D01*
X158735193Y-78395836D01*
X158714920Y-78190000D01*
X158735193Y-77984164D01*
X158795233Y-77786238D01*
X158795233Y-77786237D01*
X158892733Y-77603828D01*
X159023946Y-77443946D01*
X159183828Y-77312733D01*
X159366237Y-77215233D01*
X159432213Y-77195220D01*
X159564164Y-77155193D01*
X159641293Y-77147596D01*
X159718420Y-77140000D01*
X159821580Y-77140000D01*
X159898707Y-77147596D01*
X159898707Y-77147596D01*
G37*
G36*
X147198707Y-77147596D02*
X147275836Y-77155193D01*
X147407787Y-77195220D01*
X147473763Y-77215233D01*
X147656172Y-77312733D01*
X147816054Y-77443946D01*
X147947267Y-77603828D01*
X148044767Y-77786237D01*
X148044767Y-77786238D01*
X148104807Y-77984164D01*
X148125080Y-78190000D01*
X148104807Y-78395836D01*
X148064780Y-78527787D01*
X148044767Y-78593763D01*
X147947267Y-78776172D01*
X147816054Y-78936054D01*
X147656172Y-79067267D01*
X147473763Y-79164767D01*
X147407787Y-79184780D01*
X147275836Y-79224807D01*
X147198707Y-79232403D01*
X147121580Y-79240000D01*
X147018420Y-79240000D01*
X146941293Y-79232403D01*
X146864164Y-79224807D01*
X146732213Y-79184780D01*
X146666237Y-79164767D01*
X146483828Y-79067267D01*
X146323946Y-78936054D01*
X146192733Y-78776172D01*
X146095233Y-78593763D01*
X146075220Y-78527787D01*
X146035193Y-78395836D01*
X146014920Y-78190000D01*
X146035193Y-77984164D01*
X146095233Y-77786238D01*
X146095233Y-77786237D01*
X146192733Y-77603828D01*
X146323946Y-77443946D01*
X146483828Y-77312733D01*
X146666237Y-77215233D01*
X146732213Y-77195220D01*
X146864164Y-77155193D01*
X146941293Y-77147596D01*
X147018420Y-77140000D01*
X147121580Y-77140000D01*
X147198707Y-77147596D01*
X147198707Y-77147596D01*
G37*
G36*
X144658707Y-77147596D02*
X144735836Y-77155193D01*
X144867787Y-77195220D01*
X144933763Y-77215233D01*
X145116172Y-77312733D01*
X145276054Y-77443946D01*
X145407267Y-77603828D01*
X145504767Y-77786237D01*
X145504767Y-77786238D01*
X145564807Y-77984164D01*
X145585080Y-78190000D01*
X145564807Y-78395836D01*
X145524780Y-78527787D01*
X145504767Y-78593763D01*
X145407267Y-78776172D01*
X145276054Y-78936054D01*
X145116172Y-79067267D01*
X144933763Y-79164767D01*
X144867787Y-79184780D01*
X144735836Y-79224807D01*
X144658707Y-79232403D01*
X144581580Y-79240000D01*
X144478420Y-79240000D01*
X144401293Y-79232403D01*
X144324164Y-79224807D01*
X144192213Y-79184780D01*
X144126237Y-79164767D01*
X143943828Y-79067267D01*
X143783946Y-78936054D01*
X143652733Y-78776172D01*
X143555233Y-78593763D01*
X143535220Y-78527787D01*
X143495193Y-78395836D01*
X143474920Y-78190000D01*
X143495193Y-77984164D01*
X143555233Y-77786238D01*
X143555233Y-77786237D01*
X143652733Y-77603828D01*
X143783946Y-77443946D01*
X143943828Y-77312733D01*
X144126237Y-77215233D01*
X144192213Y-77195220D01*
X144324164Y-77155193D01*
X144401293Y-77147596D01*
X144478420Y-77140000D01*
X144581580Y-77140000D01*
X144658707Y-77147596D01*
X144658707Y-77147596D01*
G37*
G36*
X142118707Y-77147596D02*
X142195836Y-77155193D01*
X142327787Y-77195220D01*
X142393763Y-77215233D01*
X142576172Y-77312733D01*
X142736054Y-77443946D01*
X142867267Y-77603828D01*
X142964767Y-77786237D01*
X142964767Y-77786238D01*
X143024807Y-77984164D01*
X143045080Y-78190000D01*
X143024807Y-78395836D01*
X142984780Y-78527787D01*
X142964767Y-78593763D01*
X142867267Y-78776172D01*
X142736054Y-78936054D01*
X142576172Y-79067267D01*
X142393763Y-79164767D01*
X142327787Y-79184780D01*
X142195836Y-79224807D01*
X142118707Y-79232403D01*
X142041580Y-79240000D01*
X141938420Y-79240000D01*
X141861293Y-79232403D01*
X141784164Y-79224807D01*
X141652213Y-79184780D01*
X141586237Y-79164767D01*
X141403828Y-79067267D01*
X141243946Y-78936054D01*
X141112733Y-78776172D01*
X141015233Y-78593763D01*
X140995220Y-78527787D01*
X140955193Y-78395836D01*
X140934920Y-78190000D01*
X140955193Y-77984164D01*
X141015233Y-77786238D01*
X141015233Y-77786237D01*
X141112733Y-77603828D01*
X141243946Y-77443946D01*
X141403828Y-77312733D01*
X141586237Y-77215233D01*
X141652213Y-77195220D01*
X141784164Y-77155193D01*
X141861293Y-77147596D01*
X141938420Y-77140000D01*
X142041580Y-77140000D01*
X142118707Y-77147596D01*
X142118707Y-77147596D01*
G37*
G36*
X51885000Y-75195000D02*
X47485000Y-75195000D01*
X47485000Y-70795000D01*
X51885000Y-70795000D01*
X51885000Y-75195000D01*
X51885000Y-75195000D01*
G37*
G36*
X80876716Y-70879544D02*
X81277090Y-71045384D01*
X81637421Y-71286150D01*
X81943850Y-71592579D01*
X82184616Y-71952910D01*
X82350456Y-72353284D01*
X82435000Y-72778317D01*
X82435000Y-73211683D01*
X82350456Y-73636716D01*
X82184616Y-74037090D01*
X81943850Y-74397421D01*
X81637421Y-74703850D01*
X81277090Y-74944616D01*
X80876716Y-75110456D01*
X80451683Y-75195000D01*
X80018317Y-75195000D01*
X79593284Y-75110456D01*
X79192910Y-74944616D01*
X78832579Y-74703850D01*
X78526150Y-74397421D01*
X78285384Y-74037090D01*
X78119544Y-73636716D01*
X78035000Y-73211683D01*
X78035000Y-72778317D01*
X78119544Y-72353284D01*
X78285384Y-71952910D01*
X78526150Y-71592579D01*
X78832579Y-71286150D01*
X79192910Y-71045384D01*
X79593284Y-70879544D01*
X80018317Y-70795000D01*
X80451683Y-70795000D01*
X80876716Y-70879544D01*
X80876716Y-70879544D01*
G37*
G36*
X215238707Y-71867596D02*
X215315836Y-71875193D01*
X215404853Y-71902196D01*
X215513763Y-71935233D01*
X215696172Y-72032733D01*
X215856054Y-72163946D01*
X215987267Y-72323828D01*
X216084767Y-72506237D01*
X216104780Y-72572213D01*
X216144807Y-72704164D01*
X216165080Y-72910000D01*
X216144807Y-73115836D01*
X216115733Y-73211681D01*
X216084767Y-73313763D01*
X215987267Y-73496172D01*
X215856054Y-73656054D01*
X215696172Y-73787267D01*
X215513763Y-73884767D01*
X215452782Y-73903265D01*
X215315836Y-73944807D01*
X215238707Y-73952403D01*
X215161580Y-73960000D01*
X215058420Y-73960000D01*
X214981293Y-73952403D01*
X214904164Y-73944807D01*
X214767218Y-73903265D01*
X214706237Y-73884767D01*
X214523828Y-73787267D01*
X214363946Y-73656054D01*
X214232733Y-73496172D01*
X214135233Y-73313763D01*
X214104267Y-73211681D01*
X214075193Y-73115836D01*
X214054920Y-72910000D01*
X214075193Y-72704164D01*
X214115220Y-72572213D01*
X214135233Y-72506237D01*
X214232733Y-72323828D01*
X214363946Y-72163946D01*
X214523828Y-72032733D01*
X214706237Y-71935233D01*
X214815147Y-71902196D01*
X214904164Y-71875193D01*
X214981293Y-71867596D01*
X215058420Y-71860000D01*
X215161580Y-71860000D01*
X215238707Y-71867596D01*
X215238707Y-71867596D01*
G37*
G36*
X220318707Y-71867596D02*
X220395836Y-71875193D01*
X220484853Y-71902196D01*
X220593763Y-71935233D01*
X220776172Y-72032733D01*
X220936054Y-72163946D01*
X221067267Y-72323828D01*
X221164767Y-72506237D01*
X221184780Y-72572213D01*
X221224807Y-72704164D01*
X221245080Y-72910000D01*
X221224807Y-73115836D01*
X221195733Y-73211681D01*
X221164767Y-73313763D01*
X221067267Y-73496172D01*
X220936054Y-73656054D01*
X220776172Y-73787267D01*
X220593763Y-73884767D01*
X220532782Y-73903265D01*
X220395836Y-73944807D01*
X220318707Y-73952403D01*
X220241580Y-73960000D01*
X220138420Y-73960000D01*
X220061293Y-73952403D01*
X219984164Y-73944807D01*
X219847218Y-73903265D01*
X219786237Y-73884767D01*
X219603828Y-73787267D01*
X219443946Y-73656054D01*
X219312733Y-73496172D01*
X219215233Y-73313763D01*
X219184267Y-73211681D01*
X219155193Y-73115836D01*
X219134920Y-72910000D01*
X219155193Y-72704164D01*
X219195220Y-72572213D01*
X219215233Y-72506237D01*
X219312733Y-72323828D01*
X219443946Y-72163946D01*
X219603828Y-72032733D01*
X219786237Y-71935233D01*
X219895147Y-71902196D01*
X219984164Y-71875193D01*
X220061293Y-71867596D01*
X220138420Y-71860000D01*
X220241580Y-71860000D01*
X220318707Y-71867596D01*
X220318707Y-71867596D01*
G37*
G36*
X222858707Y-71867596D02*
X222935836Y-71875193D01*
X223024853Y-71902196D01*
X223133763Y-71935233D01*
X223316172Y-72032733D01*
X223476054Y-72163946D01*
X223607267Y-72323828D01*
X223704767Y-72506237D01*
X223724780Y-72572213D01*
X223764807Y-72704164D01*
X223785080Y-72910000D01*
X223764807Y-73115836D01*
X223735733Y-73211681D01*
X223704767Y-73313763D01*
X223607267Y-73496172D01*
X223476054Y-73656054D01*
X223316172Y-73787267D01*
X223133763Y-73884767D01*
X223072782Y-73903265D01*
X222935836Y-73944807D01*
X222858707Y-73952403D01*
X222781580Y-73960000D01*
X222678420Y-73960000D01*
X222601293Y-73952403D01*
X222524164Y-73944807D01*
X222387218Y-73903265D01*
X222326237Y-73884767D01*
X222143828Y-73787267D01*
X221983946Y-73656054D01*
X221852733Y-73496172D01*
X221755233Y-73313763D01*
X221724267Y-73211681D01*
X221695193Y-73115836D01*
X221674920Y-72910000D01*
X221695193Y-72704164D01*
X221735220Y-72572213D01*
X221755233Y-72506237D01*
X221852733Y-72323828D01*
X221983946Y-72163946D01*
X222143828Y-72032733D01*
X222326237Y-71935233D01*
X222435147Y-71902196D01*
X222524164Y-71875193D01*
X222601293Y-71867596D01*
X222678420Y-71860000D01*
X222781580Y-71860000D01*
X222858707Y-71867596D01*
X222858707Y-71867596D01*
G37*
G36*
X225398707Y-71867596D02*
X225475836Y-71875193D01*
X225564853Y-71902196D01*
X225673763Y-71935233D01*
X225856172Y-72032733D01*
X226016054Y-72163946D01*
X226147267Y-72323828D01*
X226244767Y-72506237D01*
X226264780Y-72572213D01*
X226304807Y-72704164D01*
X226325080Y-72910000D01*
X226304807Y-73115836D01*
X226275733Y-73211681D01*
X226244767Y-73313763D01*
X226147267Y-73496172D01*
X226016054Y-73656054D01*
X225856172Y-73787267D01*
X225673763Y-73884767D01*
X225612782Y-73903265D01*
X225475836Y-73944807D01*
X225398707Y-73952403D01*
X225321580Y-73960000D01*
X225218420Y-73960000D01*
X225141293Y-73952403D01*
X225064164Y-73944807D01*
X224927218Y-73903265D01*
X224866237Y-73884767D01*
X224683828Y-73787267D01*
X224523946Y-73656054D01*
X224392733Y-73496172D01*
X224295233Y-73313763D01*
X224264267Y-73211681D01*
X224235193Y-73115836D01*
X224214920Y-72910000D01*
X224235193Y-72704164D01*
X224275220Y-72572213D01*
X224295233Y-72506237D01*
X224392733Y-72323828D01*
X224523946Y-72163946D01*
X224683828Y-72032733D01*
X224866237Y-71935233D01*
X224975147Y-71902196D01*
X225064164Y-71875193D01*
X225141293Y-71867596D01*
X225218420Y-71860000D01*
X225321580Y-71860000D01*
X225398707Y-71867596D01*
X225398707Y-71867596D01*
G37*
G36*
X227938707Y-71867596D02*
X228015836Y-71875193D01*
X228104853Y-71902196D01*
X228213763Y-71935233D01*
X228396172Y-72032733D01*
X228556054Y-72163946D01*
X228687267Y-72323828D01*
X228784767Y-72506237D01*
X228804780Y-72572213D01*
X228844807Y-72704164D01*
X228865080Y-72910000D01*
X228844807Y-73115836D01*
X228815733Y-73211681D01*
X228784767Y-73313763D01*
X228687267Y-73496172D01*
X228556054Y-73656054D01*
X228396172Y-73787267D01*
X228213763Y-73884767D01*
X228152782Y-73903265D01*
X228015836Y-73944807D01*
X227938707Y-73952403D01*
X227861580Y-73960000D01*
X227758420Y-73960000D01*
X227681293Y-73952403D01*
X227604164Y-73944807D01*
X227467218Y-73903265D01*
X227406237Y-73884767D01*
X227223828Y-73787267D01*
X227063946Y-73656054D01*
X226932733Y-73496172D01*
X226835233Y-73313763D01*
X226804267Y-73211681D01*
X226775193Y-73115836D01*
X226754920Y-72910000D01*
X226775193Y-72704164D01*
X226815220Y-72572213D01*
X226835233Y-72506237D01*
X226932733Y-72323828D01*
X227063946Y-72163946D01*
X227223828Y-72032733D01*
X227406237Y-71935233D01*
X227515147Y-71902196D01*
X227604164Y-71875193D01*
X227681293Y-71867596D01*
X227758420Y-71860000D01*
X227861580Y-71860000D01*
X227938707Y-71867596D01*
X227938707Y-71867596D01*
G37*
G36*
X207618707Y-71867596D02*
X207695836Y-71875193D01*
X207784853Y-71902196D01*
X207893763Y-71935233D01*
X208076172Y-72032733D01*
X208236054Y-72163946D01*
X208367267Y-72323828D01*
X208464767Y-72506237D01*
X208484780Y-72572213D01*
X208524807Y-72704164D01*
X208545080Y-72910000D01*
X208524807Y-73115836D01*
X208495733Y-73211681D01*
X208464767Y-73313763D01*
X208367267Y-73496172D01*
X208236054Y-73656054D01*
X208076172Y-73787267D01*
X207893763Y-73884767D01*
X207832782Y-73903265D01*
X207695836Y-73944807D01*
X207618707Y-73952403D01*
X207541580Y-73960000D01*
X207438420Y-73960000D01*
X207361293Y-73952403D01*
X207284164Y-73944807D01*
X207147218Y-73903265D01*
X207086237Y-73884767D01*
X206903828Y-73787267D01*
X206743946Y-73656054D01*
X206612733Y-73496172D01*
X206515233Y-73313763D01*
X206484267Y-73211681D01*
X206455193Y-73115836D01*
X206434920Y-72910000D01*
X206455193Y-72704164D01*
X206495220Y-72572213D01*
X206515233Y-72506237D01*
X206612733Y-72323828D01*
X206743946Y-72163946D01*
X206903828Y-72032733D01*
X207086237Y-71935233D01*
X207195147Y-71902196D01*
X207284164Y-71875193D01*
X207361293Y-71867596D01*
X207438420Y-71860000D01*
X207541580Y-71860000D01*
X207618707Y-71867596D01*
X207618707Y-71867596D01*
G37*
G36*
X210158707Y-71867596D02*
X210235836Y-71875193D01*
X210324853Y-71902196D01*
X210433763Y-71935233D01*
X210616172Y-72032733D01*
X210776054Y-72163946D01*
X210907267Y-72323828D01*
X211004767Y-72506237D01*
X211024780Y-72572213D01*
X211064807Y-72704164D01*
X211085080Y-72910000D01*
X211064807Y-73115836D01*
X211035733Y-73211681D01*
X211004767Y-73313763D01*
X210907267Y-73496172D01*
X210776054Y-73656054D01*
X210616172Y-73787267D01*
X210433763Y-73884767D01*
X210372782Y-73903265D01*
X210235836Y-73944807D01*
X210158707Y-73952403D01*
X210081580Y-73960000D01*
X209978420Y-73960000D01*
X209901293Y-73952403D01*
X209824164Y-73944807D01*
X209687218Y-73903265D01*
X209626237Y-73884767D01*
X209443828Y-73787267D01*
X209283946Y-73656054D01*
X209152733Y-73496172D01*
X209055233Y-73313763D01*
X209024267Y-73211681D01*
X208995193Y-73115836D01*
X208974920Y-72910000D01*
X208995193Y-72704164D01*
X209035220Y-72572213D01*
X209055233Y-72506237D01*
X209152733Y-72323828D01*
X209283946Y-72163946D01*
X209443828Y-72032733D01*
X209626237Y-71935233D01*
X209735147Y-71902196D01*
X209824164Y-71875193D01*
X209901293Y-71867596D01*
X209978420Y-71860000D01*
X210081580Y-71860000D01*
X210158707Y-71867596D01*
X210158707Y-71867596D01*
G37*
G36*
X212698707Y-71867596D02*
X212775836Y-71875193D01*
X212864853Y-71902196D01*
X212973763Y-71935233D01*
X213156172Y-72032733D01*
X213316054Y-72163946D01*
X213447267Y-72323828D01*
X213544767Y-72506237D01*
X213564780Y-72572213D01*
X213604807Y-72704164D01*
X213625080Y-72910000D01*
X213604807Y-73115836D01*
X213575733Y-73211681D01*
X213544767Y-73313763D01*
X213447267Y-73496172D01*
X213316054Y-73656054D01*
X213156172Y-73787267D01*
X212973763Y-73884767D01*
X212912782Y-73903265D01*
X212775836Y-73944807D01*
X212698707Y-73952403D01*
X212621580Y-73960000D01*
X212518420Y-73960000D01*
X212441293Y-73952403D01*
X212364164Y-73944807D01*
X212227218Y-73903265D01*
X212166237Y-73884767D01*
X211983828Y-73787267D01*
X211823946Y-73656054D01*
X211692733Y-73496172D01*
X211595233Y-73313763D01*
X211564267Y-73211681D01*
X211535193Y-73115836D01*
X211514920Y-72910000D01*
X211535193Y-72704164D01*
X211575220Y-72572213D01*
X211595233Y-72506237D01*
X211692733Y-72323828D01*
X211823946Y-72163946D01*
X211983828Y-72032733D01*
X212166237Y-71935233D01*
X212275147Y-71902196D01*
X212364164Y-71875193D01*
X212441293Y-71867596D01*
X212518420Y-71860000D01*
X212621580Y-71860000D01*
X212698707Y-71867596D01*
X212698707Y-71867596D01*
G37*
G36*
X170233497Y-70615997D02*
X170286153Y-70631970D01*
X170334665Y-70657900D01*
X170377196Y-70692804D01*
X170412100Y-70735335D01*
X170438030Y-70783847D01*
X170454003Y-70836503D01*
X170460000Y-70897390D01*
X170460000Y-71697610D01*
X170454003Y-71758497D01*
X170438030Y-71811153D01*
X170412100Y-71859665D01*
X170377196Y-71902196D01*
X170334665Y-71937100D01*
X170286153Y-71963030D01*
X170233497Y-71979003D01*
X170172610Y-71985000D01*
X168947390Y-71985000D01*
X168886503Y-71979003D01*
X168833847Y-71963030D01*
X168785335Y-71937100D01*
X168742804Y-71902196D01*
X168707900Y-71859665D01*
X168681970Y-71811153D01*
X168665997Y-71758497D01*
X168660000Y-71697610D01*
X168660000Y-70897390D01*
X168665997Y-70836503D01*
X168681970Y-70783847D01*
X168707900Y-70735335D01*
X168742804Y-70692804D01*
X168785335Y-70657900D01*
X168833847Y-70631970D01*
X168886503Y-70615997D01*
X168947390Y-70610000D01*
X170172610Y-70610000D01*
X170233497Y-70615997D01*
X170233497Y-70615997D01*
G37*
G36*
X172533497Y-70615997D02*
X172586153Y-70631970D01*
X172634665Y-70657900D01*
X172677196Y-70692804D01*
X172712100Y-70735335D01*
X172738030Y-70783847D01*
X172754003Y-70836503D01*
X172760000Y-70897390D01*
X172760000Y-71697610D01*
X172754003Y-71758497D01*
X172738030Y-71811153D01*
X172712100Y-71859665D01*
X172677196Y-71902196D01*
X172634665Y-71937100D01*
X172586153Y-71963030D01*
X172533497Y-71979003D01*
X172472610Y-71985000D01*
X171247390Y-71985000D01*
X171186503Y-71979003D01*
X171133847Y-71963030D01*
X171085335Y-71937100D01*
X171042804Y-71902196D01*
X171007900Y-71859665D01*
X170981970Y-71811153D01*
X170965997Y-71758497D01*
X170960000Y-71697610D01*
X170960000Y-70897390D01*
X170965997Y-70836503D01*
X170981970Y-70783847D01*
X171007900Y-70735335D01*
X171042804Y-70692804D01*
X171085335Y-70657900D01*
X171133847Y-70631970D01*
X171186503Y-70615997D01*
X171247390Y-70610000D01*
X172472610Y-70610000D01*
X172533497Y-70615997D01*
X172533497Y-70615997D01*
G37*
G36*
X213253497Y-69395997D02*
X213306153Y-69411970D01*
X213354665Y-69437900D01*
X213397196Y-69472804D01*
X213432100Y-69515335D01*
X213458030Y-69563847D01*
X213474003Y-69616503D01*
X213480000Y-69677390D01*
X213480000Y-70477610D01*
X213474003Y-70538497D01*
X213458030Y-70591153D01*
X213432100Y-70639665D01*
X213397196Y-70682196D01*
X213354665Y-70717100D01*
X213306153Y-70743030D01*
X213253497Y-70759003D01*
X213192610Y-70765000D01*
X211967390Y-70765000D01*
X211906503Y-70759003D01*
X211853847Y-70743030D01*
X211805335Y-70717100D01*
X211762804Y-70682196D01*
X211727900Y-70639665D01*
X211701970Y-70591153D01*
X211685997Y-70538497D01*
X211680000Y-70477610D01*
X211680000Y-69677390D01*
X211685997Y-69616503D01*
X211701970Y-69563847D01*
X211727900Y-69515335D01*
X211762804Y-69472804D01*
X211805335Y-69437900D01*
X211853847Y-69411970D01*
X211906503Y-69395997D01*
X211967390Y-69390000D01*
X213192610Y-69390000D01*
X213253497Y-69395997D01*
X213253497Y-69395997D01*
G37*
G36*
X210723497Y-69395997D02*
X210776153Y-69411970D01*
X210824665Y-69437900D01*
X210867196Y-69472804D01*
X210902100Y-69515335D01*
X210928030Y-69563847D01*
X210944003Y-69616503D01*
X210950000Y-69677390D01*
X210950000Y-70477610D01*
X210944003Y-70538497D01*
X210928030Y-70591153D01*
X210902100Y-70639665D01*
X210867196Y-70682196D01*
X210824665Y-70717100D01*
X210776153Y-70743030D01*
X210723497Y-70759003D01*
X210662610Y-70765000D01*
X209437390Y-70765000D01*
X209376503Y-70759003D01*
X209323847Y-70743030D01*
X209275335Y-70717100D01*
X209232804Y-70682196D01*
X209197900Y-70639665D01*
X209171970Y-70591153D01*
X209155997Y-70538497D01*
X209150000Y-70477610D01*
X209150000Y-69677390D01*
X209155997Y-69616503D01*
X209171970Y-69563847D01*
X209197900Y-69515335D01*
X209232804Y-69472804D01*
X209275335Y-69437900D01*
X209323847Y-69411970D01*
X209376503Y-69395997D01*
X209437390Y-69390000D01*
X210662610Y-69390000D01*
X210723497Y-69395997D01*
X210723497Y-69395997D01*
G37*
G36*
X172533497Y-68740997D02*
X172586153Y-68756970D01*
X172634665Y-68782900D01*
X172677196Y-68817804D01*
X172712100Y-68860335D01*
X172738030Y-68908847D01*
X172754003Y-68961503D01*
X172760000Y-69022390D01*
X172760000Y-69822610D01*
X172754003Y-69883497D01*
X172738030Y-69936153D01*
X172712100Y-69984665D01*
X172677196Y-70027196D01*
X172634665Y-70062100D01*
X172586153Y-70088030D01*
X172533497Y-70104003D01*
X172472610Y-70110000D01*
X171247390Y-70110000D01*
X171186503Y-70104003D01*
X171133847Y-70088030D01*
X171085335Y-70062100D01*
X171042804Y-70027196D01*
X171007900Y-69984665D01*
X170981970Y-69936153D01*
X170965997Y-69883497D01*
X170960000Y-69822610D01*
X170960000Y-69022390D01*
X170965997Y-68961503D01*
X170981970Y-68908847D01*
X171007900Y-68860335D01*
X171042804Y-68817804D01*
X171085335Y-68782900D01*
X171133847Y-68756970D01*
X171186503Y-68740997D01*
X171247390Y-68735000D01*
X172472610Y-68735000D01*
X172533497Y-68740997D01*
X172533497Y-68740997D01*
G37*
G36*
X170233497Y-68740997D02*
X170286153Y-68756970D01*
X170334665Y-68782900D01*
X170377196Y-68817804D01*
X170412100Y-68860335D01*
X170438030Y-68908847D01*
X170454003Y-68961503D01*
X170460000Y-69022390D01*
X170460000Y-69822610D01*
X170454003Y-69883497D01*
X170438030Y-69936153D01*
X170412100Y-69984665D01*
X170377196Y-70027196D01*
X170334665Y-70062100D01*
X170286153Y-70088030D01*
X170233497Y-70104003D01*
X170172610Y-70110000D01*
X168947390Y-70110000D01*
X168886503Y-70104003D01*
X168833847Y-70088030D01*
X168785335Y-70062100D01*
X168742804Y-70027196D01*
X168707900Y-69984665D01*
X168681970Y-69936153D01*
X168665997Y-69883497D01*
X168660000Y-69822610D01*
X168660000Y-69022390D01*
X168665997Y-68961503D01*
X168681970Y-68908847D01*
X168707900Y-68860335D01*
X168742804Y-68817804D01*
X168785335Y-68782900D01*
X168833847Y-68756970D01*
X168886503Y-68740997D01*
X168947390Y-68735000D01*
X170172610Y-68735000D01*
X170233497Y-68740997D01*
X170233497Y-68740997D01*
G37*
G36*
X213253497Y-67520997D02*
X213306153Y-67536970D01*
X213354665Y-67562900D01*
X213397196Y-67597804D01*
X213432100Y-67640335D01*
X213458030Y-67688847D01*
X213474003Y-67741503D01*
X213480000Y-67802390D01*
X213480000Y-68602610D01*
X213474003Y-68663497D01*
X213458030Y-68716153D01*
X213432100Y-68764665D01*
X213397196Y-68807196D01*
X213354665Y-68842100D01*
X213306153Y-68868030D01*
X213253497Y-68884003D01*
X213192610Y-68890000D01*
X211967390Y-68890000D01*
X211906503Y-68884003D01*
X211853847Y-68868030D01*
X211805335Y-68842100D01*
X211762804Y-68807196D01*
X211727900Y-68764665D01*
X211701970Y-68716153D01*
X211685997Y-68663497D01*
X211680000Y-68602610D01*
X211680000Y-67802390D01*
X211685997Y-67741503D01*
X211701970Y-67688847D01*
X211727900Y-67640335D01*
X211762804Y-67597804D01*
X211805335Y-67562900D01*
X211853847Y-67536970D01*
X211906503Y-67520997D01*
X211967390Y-67515000D01*
X213192610Y-67515000D01*
X213253497Y-67520997D01*
X213253497Y-67520997D01*
G37*
G36*
X210723497Y-67520997D02*
X210776153Y-67536970D01*
X210824665Y-67562900D01*
X210867196Y-67597804D01*
X210902100Y-67640335D01*
X210928030Y-67688847D01*
X210944003Y-67741503D01*
X210950000Y-67802390D01*
X210950000Y-68602610D01*
X210944003Y-68663497D01*
X210928030Y-68716153D01*
X210902100Y-68764665D01*
X210867196Y-68807196D01*
X210824665Y-68842100D01*
X210776153Y-68868030D01*
X210723497Y-68884003D01*
X210662610Y-68890000D01*
X209437390Y-68890000D01*
X209376503Y-68884003D01*
X209323847Y-68868030D01*
X209275335Y-68842100D01*
X209232804Y-68807196D01*
X209197900Y-68764665D01*
X209171970Y-68716153D01*
X209155997Y-68663497D01*
X209150000Y-68602610D01*
X209150000Y-67802390D01*
X209155997Y-67741503D01*
X209171970Y-67688847D01*
X209197900Y-67640335D01*
X209232804Y-67597804D01*
X209275335Y-67562900D01*
X209323847Y-67536970D01*
X209376503Y-67520997D01*
X209437390Y-67515000D01*
X210662610Y-67515000D01*
X210723497Y-67520997D01*
X210723497Y-67520997D01*
G37*
G36*
X215673497Y-67515997D02*
X215726153Y-67531970D01*
X215774665Y-67557900D01*
X215817196Y-67592804D01*
X215852100Y-67635335D01*
X215878030Y-67683847D01*
X215894003Y-67736503D01*
X215900000Y-67797390D01*
X215900000Y-68597610D01*
X215894003Y-68658497D01*
X215878030Y-68711153D01*
X215852100Y-68759665D01*
X215817196Y-68802196D01*
X215774665Y-68837100D01*
X215726153Y-68863030D01*
X215673497Y-68879003D01*
X215612610Y-68885000D01*
X214387390Y-68885000D01*
X214326503Y-68879003D01*
X214273847Y-68863030D01*
X214225335Y-68837100D01*
X214182804Y-68802196D01*
X214147900Y-68759665D01*
X214121970Y-68711153D01*
X214105997Y-68658497D01*
X214100000Y-68597610D01*
X214100000Y-67797390D01*
X214105997Y-67736503D01*
X214121970Y-67683847D01*
X214147900Y-67635335D01*
X214182804Y-67592804D01*
X214225335Y-67557900D01*
X214273847Y-67531970D01*
X214326503Y-67515997D01*
X214387390Y-67510000D01*
X215612610Y-67510000D01*
X215673497Y-67515997D01*
X215673497Y-67515997D01*
G37*
G36*
X234967560Y-62653759D02*
X235414675Y-62838960D01*
X235458930Y-62857291D01*
X235704873Y-63021625D01*
X235901153Y-63152775D01*
X236277225Y-63528847D01*
X236277227Y-63528850D01*
X236457625Y-63798834D01*
X236572710Y-63971072D01*
X236776241Y-64462440D01*
X236880000Y-64984072D01*
X236880000Y-65515928D01*
X236776241Y-66037560D01*
X236572710Y-66528928D01*
X236572709Y-66528930D01*
X236443296Y-66722610D01*
X236277225Y-66971153D01*
X235901153Y-67347225D01*
X235901150Y-67347227D01*
X235458930Y-67642709D01*
X235458929Y-67642710D01*
X235458928Y-67642710D01*
X234967560Y-67846241D01*
X234445928Y-67950000D01*
X233914072Y-67950000D01*
X233392440Y-67846241D01*
X232901072Y-67642710D01*
X232901071Y-67642710D01*
X232901070Y-67642709D01*
X232458850Y-67347227D01*
X232458847Y-67347225D01*
X232082775Y-66971153D01*
X231916704Y-66722610D01*
X231787291Y-66528930D01*
X231787290Y-66528928D01*
X231583759Y-66037560D01*
X231480000Y-65515928D01*
X231480000Y-64984072D01*
X231583759Y-64462440D01*
X231787290Y-63971072D01*
X231902376Y-63798834D01*
X232082773Y-63528850D01*
X232082775Y-63528847D01*
X232458847Y-63152775D01*
X232655127Y-63021625D01*
X232901070Y-62857291D01*
X232945325Y-62838960D01*
X233392440Y-62653759D01*
X233914072Y-62550000D01*
X234445928Y-62550000D01*
X234967560Y-62653759D01*
X234967560Y-62653759D01*
G37*
G36*
X51807560Y-62653759D02*
X52254675Y-62838960D01*
X52298930Y-62857291D01*
X52544873Y-63021625D01*
X52741153Y-63152775D01*
X53117225Y-63528847D01*
X53117227Y-63528850D01*
X53297625Y-63798834D01*
X53412710Y-63971072D01*
X53616241Y-64462440D01*
X53720000Y-64984072D01*
X53720000Y-65515928D01*
X53616241Y-66037560D01*
X53412710Y-66528928D01*
X53412709Y-66528930D01*
X53283296Y-66722610D01*
X53117225Y-66971153D01*
X52741153Y-67347225D01*
X52741150Y-67347227D01*
X52298930Y-67642709D01*
X52298929Y-67642710D01*
X52298928Y-67642710D01*
X51807560Y-67846241D01*
X51285928Y-67950000D01*
X50754072Y-67950000D01*
X50232440Y-67846241D01*
X49741072Y-67642710D01*
X49741071Y-67642710D01*
X49741070Y-67642709D01*
X49298850Y-67347227D01*
X49298847Y-67347225D01*
X48922775Y-66971153D01*
X48756704Y-66722610D01*
X48627291Y-66528930D01*
X48627290Y-66528928D01*
X48423759Y-66037560D01*
X48320000Y-65515928D01*
X48320000Y-64984072D01*
X48423759Y-64462440D01*
X48627290Y-63971072D01*
X48742376Y-63798834D01*
X48922773Y-63528850D01*
X48922775Y-63528847D01*
X49298847Y-63152775D01*
X49495127Y-63021625D01*
X49741070Y-62857291D01*
X49785325Y-62838960D01*
X50232440Y-62653759D01*
X50754072Y-62550000D01*
X51285928Y-62550000D01*
X51807560Y-62653759D01*
X51807560Y-62653759D01*
G37*
G36*
X215673497Y-65640997D02*
X215726153Y-65656970D01*
X215774665Y-65682900D01*
X215817196Y-65717804D01*
X215852100Y-65760335D01*
X215878030Y-65808847D01*
X215894003Y-65861503D01*
X215900000Y-65922390D01*
X215900000Y-66722610D01*
X215894003Y-66783497D01*
X215878030Y-66836153D01*
X215852100Y-66884665D01*
X215817196Y-66927196D01*
X215774665Y-66962100D01*
X215726153Y-66988030D01*
X215673497Y-67004003D01*
X215612610Y-67010000D01*
X214387390Y-67010000D01*
X214326503Y-67004003D01*
X214273847Y-66988030D01*
X214225335Y-66962100D01*
X214182804Y-66927196D01*
X214147900Y-66884665D01*
X214121970Y-66836153D01*
X214105997Y-66783497D01*
X214100000Y-66722610D01*
X214100000Y-65922390D01*
X214105997Y-65861503D01*
X214121970Y-65808847D01*
X214147900Y-65760335D01*
X214182804Y-65717804D01*
X214225335Y-65682900D01*
X214273847Y-65656970D01*
X214326503Y-65640997D01*
X214387390Y-65635000D01*
X215612610Y-65635000D01*
X215673497Y-65640997D01*
X215673497Y-65640997D01*
G37*
G36*
X101709122Y-61246115D02*
X101825041Y-61269173D01*
X102152620Y-61404861D01*
X102343045Y-61532099D01*
X102447436Y-61601851D01*
X102698149Y-61852564D01*
X102698151Y-61852567D01*
X102895139Y-62147380D01*
X103030827Y-62474959D01*
X103045889Y-62550682D01*
X103100000Y-62822714D01*
X103100000Y-63177286D01*
X103093828Y-63208314D01*
X103030827Y-63525041D01*
X102969860Y-63672227D01*
X102909316Y-63818395D01*
X102895139Y-63852620D01*
X102704813Y-64137463D01*
X102698149Y-64147436D01*
X102447436Y-64398149D01*
X102447433Y-64398151D01*
X102152620Y-64595139D01*
X101825041Y-64730827D01*
X101709122Y-64753885D01*
X101477286Y-64800000D01*
X101122714Y-64800000D01*
X100890878Y-64753885D01*
X100774959Y-64730827D01*
X100447380Y-64595139D01*
X100152567Y-64398151D01*
X100152564Y-64398149D01*
X99901851Y-64147436D01*
X99895187Y-64137463D01*
X99704861Y-63852620D01*
X99690685Y-63818395D01*
X99630140Y-63672227D01*
X99569173Y-63525041D01*
X99506172Y-63208314D01*
X99500000Y-63177286D01*
X99500000Y-62822714D01*
X99554111Y-62550682D01*
X99569173Y-62474959D01*
X99704861Y-62147380D01*
X99901849Y-61852567D01*
X99901851Y-61852564D01*
X100152564Y-61601851D01*
X100256955Y-61532099D01*
X100447380Y-61404861D01*
X100774959Y-61269173D01*
X100890878Y-61246115D01*
X101122714Y-61200000D01*
X101477286Y-61200000D01*
X101709122Y-61246115D01*
X101709122Y-61246115D01*
G37*
G36*
X96709122Y-61246115D02*
X96825041Y-61269173D01*
X97152620Y-61404861D01*
X97343045Y-61532099D01*
X97447436Y-61601851D01*
X97698149Y-61852564D01*
X97698151Y-61852567D01*
X97895139Y-62147380D01*
X98030827Y-62474959D01*
X98045889Y-62550682D01*
X98100000Y-62822714D01*
X98100000Y-63177286D01*
X98093828Y-63208314D01*
X98030827Y-63525041D01*
X97969860Y-63672227D01*
X97909316Y-63818395D01*
X97895139Y-63852620D01*
X97704813Y-64137463D01*
X97698149Y-64147436D01*
X97447436Y-64398149D01*
X97447433Y-64398151D01*
X97152620Y-64595139D01*
X96825041Y-64730827D01*
X96709122Y-64753885D01*
X96477286Y-64800000D01*
X96122714Y-64800000D01*
X95890878Y-64753885D01*
X95774959Y-64730827D01*
X95447380Y-64595139D01*
X95152567Y-64398151D01*
X95152564Y-64398149D01*
X94901851Y-64147436D01*
X94895187Y-64137463D01*
X94704861Y-63852620D01*
X94690685Y-63818395D01*
X94630140Y-63672227D01*
X94569173Y-63525041D01*
X94506172Y-63208314D01*
X94500000Y-63177286D01*
X94500000Y-62822714D01*
X94554111Y-62550682D01*
X94569173Y-62474959D01*
X94704861Y-62147380D01*
X94901849Y-61852567D01*
X94901851Y-61852564D01*
X95152564Y-61601851D01*
X95256955Y-61532099D01*
X95447380Y-61404861D01*
X95774959Y-61269173D01*
X95890878Y-61246115D01*
X96122714Y-61200000D01*
X96477286Y-61200000D01*
X96709122Y-61246115D01*
X96709122Y-61246115D01*
G37*
G36*
X111709122Y-61246115D02*
X111825041Y-61269173D01*
X112152620Y-61404861D01*
X112343045Y-61532099D01*
X112447436Y-61601851D01*
X112698149Y-61852564D01*
X112698151Y-61852567D01*
X112895139Y-62147380D01*
X113030827Y-62474959D01*
X113045889Y-62550682D01*
X113100000Y-62822714D01*
X113100000Y-63177286D01*
X113093828Y-63208314D01*
X113030827Y-63525041D01*
X112969860Y-63672227D01*
X112909316Y-63818395D01*
X112895139Y-63852620D01*
X112704813Y-64137463D01*
X112698149Y-64147436D01*
X112447436Y-64398149D01*
X112447433Y-64398151D01*
X112152620Y-64595139D01*
X111825041Y-64730827D01*
X111709122Y-64753885D01*
X111477286Y-64800000D01*
X111122714Y-64800000D01*
X110890878Y-64753885D01*
X110774959Y-64730827D01*
X110447380Y-64595139D01*
X110152567Y-64398151D01*
X110152564Y-64398149D01*
X109901851Y-64147436D01*
X109895187Y-64137463D01*
X109704861Y-63852620D01*
X109690685Y-63818395D01*
X109630140Y-63672227D01*
X109569173Y-63525041D01*
X109506172Y-63208314D01*
X109500000Y-63177286D01*
X109500000Y-62822714D01*
X109554111Y-62550682D01*
X109569173Y-62474959D01*
X109704861Y-62147380D01*
X109901849Y-61852567D01*
X109901851Y-61852564D01*
X110152564Y-61601851D01*
X110256955Y-61532099D01*
X110447380Y-61404861D01*
X110774959Y-61269173D01*
X110890878Y-61246115D01*
X111122714Y-61200000D01*
X111477286Y-61200000D01*
X111709122Y-61246115D01*
X111709122Y-61246115D01*
G37*
G36*
X116709122Y-61246115D02*
X116825041Y-61269173D01*
X117152620Y-61404861D01*
X117343045Y-61532099D01*
X117447436Y-61601851D01*
X117698149Y-61852564D01*
X117698151Y-61852567D01*
X117895139Y-62147380D01*
X118030827Y-62474959D01*
X118045889Y-62550682D01*
X118100000Y-62822714D01*
X118100000Y-63177286D01*
X118093828Y-63208314D01*
X118030827Y-63525041D01*
X117969860Y-63672227D01*
X117909316Y-63818395D01*
X117895139Y-63852620D01*
X117704813Y-64137463D01*
X117698149Y-64147436D01*
X117447436Y-64398149D01*
X117447433Y-64398151D01*
X117152620Y-64595139D01*
X116825041Y-64730827D01*
X116709122Y-64753885D01*
X116477286Y-64800000D01*
X116122714Y-64800000D01*
X115890878Y-64753885D01*
X115774959Y-64730827D01*
X115447380Y-64595139D01*
X115152567Y-64398151D01*
X115152564Y-64398149D01*
X114901851Y-64147436D01*
X114895187Y-64137463D01*
X114704861Y-63852620D01*
X114690685Y-63818395D01*
X114630140Y-63672227D01*
X114569173Y-63525041D01*
X114506172Y-63208314D01*
X114500000Y-63177286D01*
X114500000Y-62822714D01*
X114554111Y-62550682D01*
X114569173Y-62474959D01*
X114704861Y-62147380D01*
X114901849Y-61852567D01*
X114901851Y-61852564D01*
X115152564Y-61601851D01*
X115256955Y-61532099D01*
X115447380Y-61404861D01*
X115774959Y-61269173D01*
X115890878Y-61246115D01*
X116122714Y-61200000D01*
X116477286Y-61200000D01*
X116709122Y-61246115D01*
X116709122Y-61246115D01*
G37*
G36*
X106709122Y-61246115D02*
X106825041Y-61269173D01*
X107152620Y-61404861D01*
X107343045Y-61532099D01*
X107447436Y-61601851D01*
X107698149Y-61852564D01*
X107698151Y-61852567D01*
X107895139Y-62147380D01*
X108030827Y-62474959D01*
X108045889Y-62550682D01*
X108100000Y-62822714D01*
X108100000Y-63177286D01*
X108093828Y-63208314D01*
X108030827Y-63525041D01*
X107969860Y-63672227D01*
X107909316Y-63818395D01*
X107895139Y-63852620D01*
X107704813Y-64137463D01*
X107698149Y-64147436D01*
X107447436Y-64398149D01*
X107447433Y-64398151D01*
X107152620Y-64595139D01*
X106825041Y-64730827D01*
X106709122Y-64753885D01*
X106477286Y-64800000D01*
X106122714Y-64800000D01*
X105890878Y-64753885D01*
X105774959Y-64730827D01*
X105447380Y-64595139D01*
X105152567Y-64398151D01*
X105152564Y-64398149D01*
X104901851Y-64147436D01*
X104895187Y-64137463D01*
X104704861Y-63852620D01*
X104690685Y-63818395D01*
X104630140Y-63672227D01*
X104569173Y-63525041D01*
X104506172Y-63208314D01*
X104500000Y-63177286D01*
X104500000Y-62822714D01*
X104554111Y-62550682D01*
X104569173Y-62474959D01*
X104704861Y-62147380D01*
X104901849Y-61852567D01*
X104901851Y-61852564D01*
X105152564Y-61601851D01*
X105256955Y-61532099D01*
X105447380Y-61404861D01*
X105774959Y-61269173D01*
X105890878Y-61246115D01*
X106122714Y-61200000D01*
X106477286Y-61200000D01*
X106709122Y-61246115D01*
X106709122Y-61246115D01*
G37*
G36*
X75975770Y-62515372D02*
X76091689Y-62538429D01*
X76273678Y-62613811D01*
X76437463Y-62723249D01*
X76576751Y-62862537D01*
X76686189Y-63026322D01*
X76761571Y-63208311D01*
X76784628Y-63324230D01*
X76800000Y-63401507D01*
X76800000Y-63598493D01*
X76789525Y-63651153D01*
X76761571Y-63791689D01*
X76686189Y-63973678D01*
X76576751Y-64137463D01*
X76437463Y-64276751D01*
X76273678Y-64386189D01*
X76091689Y-64461571D01*
X75975770Y-64484628D01*
X75898493Y-64500000D01*
X75701507Y-64500000D01*
X75624230Y-64484628D01*
X75508311Y-64461571D01*
X75326322Y-64386189D01*
X75162537Y-64276751D01*
X75023249Y-64137463D01*
X74913811Y-63973678D01*
X74838429Y-63791689D01*
X74810475Y-63651153D01*
X74800000Y-63598493D01*
X74800000Y-63401507D01*
X74815372Y-63324230D01*
X74838429Y-63208311D01*
X74913811Y-63026322D01*
X75023249Y-62862537D01*
X75162537Y-62723249D01*
X75326322Y-62613811D01*
X75508311Y-62538429D01*
X75624230Y-62515372D01*
X75701507Y-62500000D01*
X75898493Y-62500000D01*
X75975770Y-62515372D01*
X75975770Y-62515372D01*
G37*
G36*
X81573497Y-62455997D02*
X81626153Y-62471970D01*
X81674665Y-62497900D01*
X81717196Y-62532804D01*
X81752100Y-62575335D01*
X81778030Y-62623847D01*
X81794003Y-62676503D01*
X81800000Y-62737390D01*
X81800000Y-63537610D01*
X81794003Y-63598497D01*
X81778030Y-63651153D01*
X81752100Y-63699665D01*
X81717196Y-63742196D01*
X81674665Y-63777100D01*
X81626153Y-63803030D01*
X81573497Y-63819003D01*
X81512610Y-63825000D01*
X80287390Y-63825000D01*
X80226503Y-63819003D01*
X80173847Y-63803030D01*
X80125335Y-63777100D01*
X80082804Y-63742196D01*
X80047900Y-63699665D01*
X80021970Y-63651153D01*
X80005997Y-63598497D01*
X80000000Y-63537610D01*
X80000000Y-62737390D01*
X80005997Y-62676503D01*
X80021970Y-62623847D01*
X80047900Y-62575335D01*
X80082804Y-62532804D01*
X80125335Y-62497900D01*
X80173847Y-62471970D01*
X80226503Y-62455997D01*
X80287390Y-62450000D01*
X81512610Y-62450000D01*
X81573497Y-62455997D01*
X81573497Y-62455997D01*
G37*
G36*
X220440823Y-59974151D02*
X220475451Y-59984656D01*
X220507362Y-60001712D01*
X220535333Y-60024667D01*
X220558288Y-60052638D01*
X220575344Y-60084549D01*
X220585849Y-60119177D01*
X220590000Y-60161326D01*
X220590000Y-62878674D01*
X220585849Y-62920823D01*
X220575344Y-62955451D01*
X220558288Y-62987362D01*
X220535333Y-63015333D01*
X220507362Y-63038288D01*
X220475451Y-63055344D01*
X220440823Y-63065849D01*
X220398674Y-63070000D01*
X217681326Y-63070000D01*
X217639177Y-63065849D01*
X217604549Y-63055344D01*
X217572638Y-63038288D01*
X217544667Y-63015333D01*
X217521712Y-62987362D01*
X217504656Y-62955451D01*
X217494151Y-62920823D01*
X217490000Y-62878674D01*
X217490000Y-60161326D01*
X217494151Y-60119177D01*
X217504656Y-60084549D01*
X217521712Y-60052638D01*
X217544667Y-60024667D01*
X217572638Y-60001712D01*
X217604549Y-59984656D01*
X217639177Y-59974151D01*
X217681326Y-59970000D01*
X220398674Y-59970000D01*
X220440823Y-59974151D01*
X220440823Y-59974151D01*
G37*
G36*
X223252481Y-59989855D02*
X223452118Y-60029565D01*
X223640173Y-60107460D01*
X223734201Y-60146408D01*
X223988071Y-60316038D01*
X224203962Y-60531929D01*
X224373592Y-60785799D01*
X224400884Y-60851688D01*
X224490435Y-61067882D01*
X224550000Y-61367338D01*
X224550000Y-61672662D01*
X224490435Y-61972118D01*
X224417839Y-62147380D01*
X224373592Y-62254201D01*
X224203962Y-62508071D01*
X223988071Y-62723962D01*
X223734201Y-62893592D01*
X223668459Y-62920823D01*
X223452118Y-63010435D01*
X223312090Y-63038288D01*
X223152663Y-63070000D01*
X222847337Y-63070000D01*
X222687910Y-63038288D01*
X222547882Y-63010435D01*
X222331541Y-62920823D01*
X222265799Y-62893592D01*
X222011929Y-62723962D01*
X221796038Y-62508071D01*
X221626408Y-62254201D01*
X221582161Y-62147380D01*
X221509565Y-61972118D01*
X221450000Y-61672662D01*
X221450000Y-61367338D01*
X221509565Y-61067882D01*
X221599116Y-60851688D01*
X221626408Y-60785799D01*
X221796038Y-60531929D01*
X222011929Y-60316038D01*
X222265799Y-60146408D01*
X222359827Y-60107460D01*
X222547882Y-60029565D01*
X222747519Y-59989855D01*
X222847337Y-59970000D01*
X223152663Y-59970000D01*
X223252481Y-59989855D01*
X223252481Y-59989855D01*
G37*
G36*
X76800000Y-62000000D02*
X74800000Y-62000000D01*
X74800000Y-60000000D01*
X76800000Y-60000000D01*
X76800000Y-62000000D01*
X76800000Y-62000000D01*
G37*
G36*
X81573497Y-60580997D02*
X81626153Y-60596970D01*
X81674665Y-60622900D01*
X81717196Y-60657804D01*
X81752100Y-60700335D01*
X81778030Y-60748847D01*
X81794003Y-60801503D01*
X81800000Y-60862390D01*
X81800000Y-61662610D01*
X81794003Y-61723497D01*
X81778030Y-61776153D01*
X81752100Y-61824665D01*
X81717196Y-61867196D01*
X81674665Y-61902100D01*
X81626153Y-61928030D01*
X81573497Y-61944003D01*
X81512610Y-61950000D01*
X80287390Y-61950000D01*
X80226503Y-61944003D01*
X80173847Y-61928030D01*
X80125335Y-61902100D01*
X80082804Y-61867196D01*
X80047900Y-61824665D01*
X80021970Y-61776153D01*
X80005997Y-61723497D01*
X80000000Y-61662610D01*
X80000000Y-60862390D01*
X80005997Y-60801503D01*
X80021970Y-60748847D01*
X80047900Y-60700335D01*
X80082804Y-60657804D01*
X80125335Y-60622900D01*
X80173847Y-60596970D01*
X80226503Y-60580997D01*
X80287390Y-60575000D01*
X81512610Y-60575000D01*
X81573497Y-60580997D01*
X81573497Y-60580997D01*
G37*
G36*
X193350026Y-59446115D02*
X193568412Y-59536573D01*
X193764958Y-59667901D01*
X193932099Y-59835042D01*
X194063427Y-60031588D01*
X194153885Y-60249974D01*
X194200000Y-60481809D01*
X194200000Y-60718191D01*
X194153885Y-60950026D01*
X194063427Y-61168412D01*
X193932099Y-61364958D01*
X193764958Y-61532099D01*
X193568412Y-61663427D01*
X193350026Y-61753885D01*
X193118191Y-61800000D01*
X192881809Y-61800000D01*
X192649974Y-61753885D01*
X192431588Y-61663427D01*
X192235042Y-61532099D01*
X192067901Y-61364958D01*
X191936573Y-61168412D01*
X191846115Y-60950026D01*
X191800000Y-60718191D01*
X191800000Y-60481809D01*
X191846115Y-60249974D01*
X191936573Y-60031588D01*
X192067901Y-59835042D01*
X192235042Y-59667901D01*
X192431588Y-59536573D01*
X192649974Y-59446115D01*
X192881809Y-59400000D01*
X193118191Y-59400000D01*
X193350026Y-59446115D01*
X193350026Y-59446115D01*
G37*
G36*
X207750026Y-59446115D02*
X207968412Y-59536573D01*
X208164958Y-59667901D01*
X208332099Y-59835042D01*
X208463427Y-60031588D01*
X208553885Y-60249974D01*
X208600000Y-60481809D01*
X208600000Y-60718191D01*
X208553885Y-60950026D01*
X208463427Y-61168412D01*
X208332099Y-61364958D01*
X208164958Y-61532099D01*
X207968412Y-61663427D01*
X207750026Y-61753885D01*
X207518191Y-61800000D01*
X207281809Y-61800000D01*
X207049974Y-61753885D01*
X206831588Y-61663427D01*
X206635042Y-61532099D01*
X206467901Y-61364958D01*
X206336573Y-61168412D01*
X206246115Y-60950026D01*
X206200000Y-60718191D01*
X206200000Y-60481809D01*
X206246115Y-60249974D01*
X206336573Y-60031588D01*
X206467901Y-59835042D01*
X206635042Y-59667901D01*
X206831588Y-59536573D01*
X207049974Y-59446115D01*
X207281809Y-59400000D01*
X207518191Y-59400000D01*
X207750026Y-59446115D01*
X207750026Y-59446115D01*
G37*
G36*
X200550026Y-59446115D02*
X200768412Y-59536573D01*
X200964958Y-59667901D01*
X201132099Y-59835042D01*
X201263427Y-60031588D01*
X201353885Y-60249974D01*
X201400000Y-60481809D01*
X201400000Y-60718191D01*
X201353885Y-60950026D01*
X201263427Y-61168412D01*
X201132099Y-61364958D01*
X200964958Y-61532099D01*
X200768412Y-61663427D01*
X200550026Y-61753885D01*
X200318191Y-61800000D01*
X200081809Y-61800000D01*
X199849974Y-61753885D01*
X199631588Y-61663427D01*
X199435042Y-61532099D01*
X199267901Y-61364958D01*
X199136573Y-61168412D01*
X199046115Y-60950026D01*
X199000000Y-60718191D01*
X199000000Y-60481809D01*
X199046115Y-60249974D01*
X199136573Y-60031588D01*
X199267901Y-59835042D01*
X199435042Y-59667901D01*
X199631588Y-59536573D01*
X199849974Y-59446115D01*
X200081809Y-59400000D01*
X200318191Y-59400000D01*
X200550026Y-59446115D01*
X200550026Y-59446115D01*
G37*
G36*
X164450026Y-59446115D02*
X164668412Y-59536573D01*
X164864958Y-59667901D01*
X165032099Y-59835042D01*
X165163427Y-60031588D01*
X165253885Y-60249974D01*
X165300000Y-60481809D01*
X165300000Y-60718191D01*
X165253885Y-60950026D01*
X165163427Y-61168412D01*
X165032099Y-61364958D01*
X164864958Y-61532099D01*
X164668412Y-61663427D01*
X164450026Y-61753885D01*
X164218191Y-61800000D01*
X163981809Y-61800000D01*
X163749974Y-61753885D01*
X163531588Y-61663427D01*
X163335042Y-61532099D01*
X163167901Y-61364958D01*
X163036573Y-61168412D01*
X162946115Y-60950026D01*
X162900000Y-60718191D01*
X162900000Y-60481809D01*
X162946115Y-60249974D01*
X163036573Y-60031588D01*
X163167901Y-59835042D01*
X163335042Y-59667901D01*
X163531588Y-59536573D01*
X163749974Y-59446115D01*
X163981809Y-59400000D01*
X164218191Y-59400000D01*
X164450026Y-59446115D01*
X164450026Y-59446115D01*
G37*
G36*
X171650026Y-59446115D02*
X171868412Y-59536573D01*
X172064958Y-59667901D01*
X172232099Y-59835042D01*
X172363427Y-60031588D01*
X172453885Y-60249974D01*
X172500000Y-60481809D01*
X172500000Y-60718191D01*
X172453885Y-60950026D01*
X172363427Y-61168412D01*
X172232099Y-61364958D01*
X172064958Y-61532099D01*
X171868412Y-61663427D01*
X171650026Y-61753885D01*
X171418191Y-61800000D01*
X171181809Y-61800000D01*
X170949974Y-61753885D01*
X170731588Y-61663427D01*
X170535042Y-61532099D01*
X170367901Y-61364958D01*
X170236573Y-61168412D01*
X170146115Y-60950026D01*
X170100000Y-60718191D01*
X170100000Y-60481809D01*
X170146115Y-60249974D01*
X170236573Y-60031588D01*
X170367901Y-59835042D01*
X170535042Y-59667901D01*
X170731588Y-59536573D01*
X170949974Y-59446115D01*
X171181809Y-59400000D01*
X171418191Y-59400000D01*
X171650026Y-59446115D01*
X171650026Y-59446115D01*
G37*
G36*
X178850026Y-59446115D02*
X179068412Y-59536573D01*
X179264958Y-59667901D01*
X179432099Y-59835042D01*
X179563427Y-60031588D01*
X179653885Y-60249974D01*
X179700000Y-60481809D01*
X179700000Y-60718191D01*
X179653885Y-60950026D01*
X179563427Y-61168412D01*
X179432099Y-61364958D01*
X179264958Y-61532099D01*
X179068412Y-61663427D01*
X178850026Y-61753885D01*
X178618191Y-61800000D01*
X178381809Y-61800000D01*
X178149974Y-61753885D01*
X177931588Y-61663427D01*
X177735042Y-61532099D01*
X177567901Y-61364958D01*
X177436573Y-61168412D01*
X177346115Y-60950026D01*
X177300000Y-60718191D01*
X177300000Y-60481809D01*
X177346115Y-60249974D01*
X177436573Y-60031588D01*
X177567901Y-59835042D01*
X177735042Y-59667901D01*
X177931588Y-59536573D01*
X178149974Y-59446115D01*
X178381809Y-59400000D01*
X178618191Y-59400000D01*
X178850026Y-59446115D01*
X178850026Y-59446115D01*
G37*
G36*
X186150026Y-59446115D02*
X186368412Y-59536573D01*
X186564958Y-59667901D01*
X186732099Y-59835042D01*
X186863427Y-60031588D01*
X186953885Y-60249974D01*
X187000000Y-60481809D01*
X187000000Y-60718191D01*
X186953885Y-60950026D01*
X186863427Y-61168412D01*
X186732099Y-61364958D01*
X186564958Y-61532099D01*
X186368412Y-61663427D01*
X186150026Y-61753885D01*
X185918191Y-61800000D01*
X185681809Y-61800000D01*
X185449974Y-61753885D01*
X185231588Y-61663427D01*
X185035042Y-61532099D01*
X184867901Y-61364958D01*
X184736573Y-61168412D01*
X184646115Y-60950026D01*
X184600000Y-60718191D01*
X184600000Y-60481809D01*
X184646115Y-60249974D01*
X184736573Y-60031588D01*
X184867901Y-59835042D01*
X185035042Y-59667901D01*
X185231588Y-59536573D01*
X185449974Y-59446115D01*
X185681809Y-59400000D01*
X185918191Y-59400000D01*
X186150026Y-59446115D01*
X186150026Y-59446115D01*
G37*
G36*
X69500000Y-61650000D02*
X66600000Y-61650000D01*
X66600000Y-58950000D01*
X69500000Y-58950000D01*
X69500000Y-61650000D01*
X69500000Y-61650000D01*
G37*
G36*
X65200000Y-61650000D02*
X62300000Y-61650000D01*
X62300000Y-58950000D01*
X65200000Y-58950000D01*
X65200000Y-61650000D01*
X65200000Y-61650000D01*
G37*
G36*
X204150026Y-58046115D02*
X204368412Y-58136573D01*
X204564958Y-58267901D01*
X204732099Y-58435042D01*
X204863427Y-58631588D01*
X204953885Y-58849974D01*
X205000000Y-59081809D01*
X205000000Y-59318191D01*
X204953885Y-59550026D01*
X204863427Y-59768412D01*
X204732099Y-59964958D01*
X204564958Y-60132099D01*
X204368412Y-60263427D01*
X204150026Y-60353885D01*
X203918191Y-60400000D01*
X203681809Y-60400000D01*
X203449974Y-60353885D01*
X203231588Y-60263427D01*
X203035042Y-60132099D01*
X202867901Y-59964958D01*
X202736573Y-59768412D01*
X202646115Y-59550026D01*
X202600000Y-59318191D01*
X202600000Y-59081809D01*
X202646115Y-58849974D01*
X202736573Y-58631588D01*
X202867901Y-58435042D01*
X203035042Y-58267901D01*
X203231588Y-58136573D01*
X203449974Y-58046115D01*
X203681809Y-58000000D01*
X203918191Y-58000000D01*
X204150026Y-58046115D01*
X204150026Y-58046115D01*
G37*
G36*
X196950026Y-58046115D02*
X197168412Y-58136573D01*
X197364958Y-58267901D01*
X197532099Y-58435042D01*
X197663427Y-58631588D01*
X197753885Y-58849974D01*
X197800000Y-59081809D01*
X197800000Y-59318191D01*
X197753885Y-59550026D01*
X197663427Y-59768412D01*
X197532099Y-59964958D01*
X197364958Y-60132099D01*
X197168412Y-60263427D01*
X196950026Y-60353885D01*
X196718191Y-60400000D01*
X196481809Y-60400000D01*
X196249974Y-60353885D01*
X196031588Y-60263427D01*
X195835042Y-60132099D01*
X195667901Y-59964958D01*
X195536573Y-59768412D01*
X195446115Y-59550026D01*
X195400000Y-59318191D01*
X195400000Y-59081809D01*
X195446115Y-58849974D01*
X195536573Y-58631588D01*
X195667901Y-58435042D01*
X195835042Y-58267901D01*
X196031588Y-58136573D01*
X196249974Y-58046115D01*
X196481809Y-58000000D01*
X196718191Y-58000000D01*
X196950026Y-58046115D01*
X196950026Y-58046115D01*
G37*
G36*
X211350026Y-58046115D02*
X211568412Y-58136573D01*
X211764958Y-58267901D01*
X211932099Y-58435042D01*
X212063427Y-58631588D01*
X212153885Y-58849974D01*
X212200000Y-59081809D01*
X212200000Y-59318191D01*
X212153885Y-59550026D01*
X212063427Y-59768412D01*
X211932099Y-59964958D01*
X211764958Y-60132099D01*
X211568412Y-60263427D01*
X211350026Y-60353885D01*
X211118191Y-60400000D01*
X210881809Y-60400000D01*
X210649974Y-60353885D01*
X210431588Y-60263427D01*
X210235042Y-60132099D01*
X210067901Y-59964958D01*
X209936573Y-59768412D01*
X209846115Y-59550026D01*
X209800000Y-59318191D01*
X209800000Y-59081809D01*
X209846115Y-58849974D01*
X209936573Y-58631588D01*
X210067901Y-58435042D01*
X210235042Y-58267901D01*
X210431588Y-58136573D01*
X210649974Y-58046115D01*
X210881809Y-58000000D01*
X211118191Y-58000000D01*
X211350026Y-58046115D01*
X211350026Y-58046115D01*
G37*
G36*
X189750026Y-58046115D02*
X189968412Y-58136573D01*
X190164958Y-58267901D01*
X190332099Y-58435042D01*
X190463427Y-58631588D01*
X190553885Y-58849974D01*
X190600000Y-59081809D01*
X190600000Y-59318191D01*
X190553885Y-59550026D01*
X190463427Y-59768412D01*
X190332099Y-59964958D01*
X190164958Y-60132099D01*
X189968412Y-60263427D01*
X189750026Y-60353885D01*
X189518191Y-60400000D01*
X189281809Y-60400000D01*
X189049974Y-60353885D01*
X188831588Y-60263427D01*
X188635042Y-60132099D01*
X188467901Y-59964958D01*
X188336573Y-59768412D01*
X188246115Y-59550026D01*
X188200000Y-59318191D01*
X188200000Y-59081809D01*
X188246115Y-58849974D01*
X188336573Y-58631588D01*
X188467901Y-58435042D01*
X188635042Y-58267901D01*
X188831588Y-58136573D01*
X189049974Y-58046115D01*
X189281809Y-58000000D01*
X189518191Y-58000000D01*
X189750026Y-58046115D01*
X189750026Y-58046115D01*
G37*
G36*
X182450026Y-58046115D02*
X182668412Y-58136573D01*
X182864958Y-58267901D01*
X183032099Y-58435042D01*
X183163427Y-58631588D01*
X183253885Y-58849974D01*
X183300000Y-59081809D01*
X183300000Y-59318191D01*
X183253885Y-59550026D01*
X183163427Y-59768412D01*
X183032099Y-59964958D01*
X182864958Y-60132099D01*
X182668412Y-60263427D01*
X182450026Y-60353885D01*
X182218191Y-60400000D01*
X181981809Y-60400000D01*
X181749974Y-60353885D01*
X181531588Y-60263427D01*
X181335042Y-60132099D01*
X181167901Y-59964958D01*
X181036573Y-59768412D01*
X180946115Y-59550026D01*
X180900000Y-59318191D01*
X180900000Y-59081809D01*
X180946115Y-58849974D01*
X181036573Y-58631588D01*
X181167901Y-58435042D01*
X181335042Y-58267901D01*
X181531588Y-58136573D01*
X181749974Y-58046115D01*
X181981809Y-58000000D01*
X182218191Y-58000000D01*
X182450026Y-58046115D01*
X182450026Y-58046115D01*
G37*
G36*
X175250026Y-57946115D02*
X175468412Y-58036573D01*
X175664958Y-58167901D01*
X175832099Y-58335042D01*
X175963427Y-58531588D01*
X176053885Y-58749974D01*
X176100000Y-58981809D01*
X176100000Y-59218191D01*
X176053885Y-59450026D01*
X175963427Y-59668412D01*
X175832099Y-59864958D01*
X175664958Y-60032099D01*
X175468412Y-60163427D01*
X175250026Y-60253885D01*
X175018191Y-60300000D01*
X174781809Y-60300000D01*
X174549974Y-60253885D01*
X174331588Y-60163427D01*
X174135042Y-60032099D01*
X173967901Y-59864958D01*
X173836573Y-59668412D01*
X173746115Y-59450026D01*
X173700000Y-59218191D01*
X173700000Y-58981809D01*
X173746115Y-58749974D01*
X173836573Y-58531588D01*
X173967901Y-58335042D01*
X174135042Y-58167901D01*
X174331588Y-58036573D01*
X174549974Y-57946115D01*
X174781809Y-57900000D01*
X175018191Y-57900000D01*
X175250026Y-57946115D01*
X175250026Y-57946115D01*
G37*
G36*
X168050026Y-57946115D02*
X168268412Y-58036573D01*
X168464958Y-58167901D01*
X168632099Y-58335042D01*
X168763427Y-58531588D01*
X168853885Y-58749974D01*
X168900000Y-58981809D01*
X168900000Y-59218191D01*
X168853885Y-59450026D01*
X168763427Y-59668412D01*
X168632099Y-59864958D01*
X168464958Y-60032099D01*
X168268412Y-60163427D01*
X168050026Y-60253885D01*
X167818191Y-60300000D01*
X167581809Y-60300000D01*
X167349974Y-60253885D01*
X167131588Y-60163427D01*
X166935042Y-60032099D01*
X166767901Y-59864958D01*
X166636573Y-59668412D01*
X166546115Y-59450026D01*
X166500000Y-59218191D01*
X166500000Y-58981809D01*
X166546115Y-58749974D01*
X166636573Y-58531588D01*
X166767901Y-58335042D01*
X166935042Y-58167901D01*
X167131588Y-58036573D01*
X167349974Y-57946115D01*
X167581809Y-57900000D01*
X167818191Y-57900000D01*
X168050026Y-57946115D01*
X168050026Y-57946115D01*
G37*
M02*
