%TF.GenerationSoftware,KiCad,Pcbnew,5.0.1*%
%TF.CreationDate,2018-10-23T16:01:19+11:00*%
%TF.ProjectId,FP1,4650312E6B696361645F706362000000,0.1*%
%TF.SameCoordinates,Original*%
%TF.FileFunction,Legend,Top*%
%TF.FilePolarity,Positive*%
%FSLAX46Y46*%
G04 Gerber Fmt 4.6, Leading zero omitted, Abs format (unit mm)*
G04 Created by KiCad (PCBNEW 5.0.1) date Tue 23 Oct 2018 04:01:19 PM AEDT*
%MOMM*%
%LPD*%
G01*
G04 APERTURE LIST*
%ADD10C,0.150000*%
%ADD11C,0.300000*%
%ADD12C,0.200000*%
%ADD13C,0.120000*%
%ADD14C,0.075000*%
%ADD15C,0.500000*%
%ADD16C,0.600000*%
%ADD17C,0.800000*%
%ADD18C,0.100000*%
G04 APERTURE END LIST*
D10*
X240100000Y-59500000D02*
G75*
G03X237599981Y-56999981I-2500019J0D01*
G01*
X237599981Y-127000019D02*
G75*
G03X240100000Y-124500000I0J2500019D01*
G01*
X45099981Y-124500000D02*
G75*
G03X47600000Y-127000019I2500019J0D01*
G01*
X45099981Y-59500000D02*
G75*
G02X47600000Y-56999981I2500019J0D01*
G01*
X135098002Y-59400080D02*
G75*
G03X132599981Y-56999981I-2498021J-99920D01*
G01*
X150101622Y-59409986D02*
G75*
G02X152600019Y-57000000I2498397J-90033D01*
G01*
D11*
X56158571Y-114632857D02*
X56658571Y-114632857D01*
X56872857Y-115418571D02*
X56158571Y-115418571D01*
X56158571Y-113918571D01*
X56872857Y-113918571D01*
X56051428Y-119378571D02*
X56051428Y-117878571D01*
X56908571Y-119378571D01*
X56908571Y-117878571D01*
X56122857Y-122910000D02*
X56837142Y-122910000D01*
X55980000Y-123338571D02*
X56480000Y-121838571D01*
X56980000Y-123338571D01*
D10*
X150100000Y-59400000D02*
G75*
G02X135100000Y-59400000I-7500000J0D01*
G01*
X237620000Y-57000000D02*
X152580000Y-57000000D01*
X45100000Y-124540000D02*
X45100000Y-59460000D01*
X47610000Y-57000000D02*
X132630000Y-57000000D01*
X240100000Y-124530000D02*
X240100000Y-59490000D01*
X47570000Y-127000000D02*
X237630000Y-127000000D01*
D12*
X229820000Y-122040000D02*
X231600000Y-120260000D01*
X231610000Y-126540000D02*
X229820000Y-124750000D01*
X231600000Y-120260000D02*
X237860000Y-120260000D01*
X239650000Y-124750000D02*
X237860000Y-126540000D01*
X239650000Y-122050000D02*
X239650000Y-124750000D01*
X237860000Y-126540000D02*
X231610000Y-126540000D01*
X237860000Y-120260000D02*
X239650000Y-122050000D01*
X229820000Y-124750000D02*
X229820000Y-122050000D01*
D13*
X235900000Y-109840000D02*
X235600000Y-110440000D01*
X235300000Y-109840000D02*
X235900000Y-109840000D01*
X235600000Y-110440000D02*
X235300000Y-109840000D01*
X230690000Y-118720000D02*
X230690000Y-110640000D01*
X237710000Y-118720000D02*
X230690000Y-118720000D01*
X237710000Y-117520000D02*
X237710000Y-118720000D01*
X239410000Y-117520000D02*
X237710000Y-117520000D01*
X239410000Y-111840000D02*
X239410000Y-117520000D01*
X237710000Y-111840000D02*
X239410000Y-111840000D01*
X237710000Y-110640000D02*
X237710000Y-111840000D01*
X230690000Y-110640000D02*
X237710000Y-110640000D01*
X216980000Y-66430000D02*
X216980000Y-59410000D01*
X216980000Y-59410000D02*
X218180000Y-59410000D01*
X218180000Y-59410000D02*
X218180000Y-57710000D01*
X218180000Y-57710000D02*
X223860000Y-57710000D01*
X223860000Y-57710000D02*
X223860000Y-59410000D01*
X223860000Y-59410000D02*
X225060000Y-59410000D01*
X225060000Y-59410000D02*
X225060000Y-66430000D01*
X225060000Y-66430000D02*
X216980000Y-66430000D01*
X216780000Y-61520000D02*
X216180000Y-61820000D01*
X216180000Y-61820000D02*
X216180000Y-61220000D01*
X216180000Y-61220000D02*
X216780000Y-61520000D01*
X227550000Y-115681422D02*
X227550000Y-116198578D01*
X228970000Y-115681422D02*
X228970000Y-116198578D01*
X215710000Y-67001422D02*
X215710000Y-67518578D01*
X214290000Y-67001422D02*
X214290000Y-67518578D01*
D14*
X57460000Y-125090000D02*
X57460000Y-121090000D01*
X69760000Y-121090000D02*
X69760000Y-125090000D01*
X69760000Y-121090000D02*
X57460000Y-121090000D01*
X69760000Y-125090000D02*
X57460000Y-125090000D01*
D15*
X162550000Y-75700000D02*
G75*
G03X162550000Y-75700000I-250000J0D01*
G01*
D13*
X140660000Y-101260000D02*
X140660000Y-103920000D01*
X163660000Y-103920000D02*
X140660000Y-103920000D01*
X163660000Y-101260000D02*
X140660000Y-101260000D01*
X163660000Y-101260000D02*
X163660000Y-103890000D01*
X161040000Y-76860000D02*
X161040000Y-79520000D01*
X161040000Y-76860000D02*
X140660000Y-76860000D01*
X161040000Y-79520000D02*
X140660000Y-79520000D01*
X140660000Y-76860000D02*
X140660000Y-79520000D01*
X163640000Y-76860000D02*
X163640000Y-78190000D01*
X162310000Y-76860000D02*
X163640000Y-76860000D01*
D16*
X173724429Y-68710000D02*
G75*
G03X173724429Y-68710000I-284429J0D01*
G01*
D14*
X194311358Y-66170000D02*
G75*
G03X194311358Y-66170000I-921358J0D01*
G01*
X176531358Y-66170000D02*
G75*
G03X176531358Y-66170000I-921358J0D01*
G01*
X184260000Y-63900000D02*
X192260000Y-63900000D01*
X184260000Y-63900000D02*
X184260000Y-69500000D01*
X184260000Y-69500000D02*
X192260000Y-69500000D01*
X192260000Y-63900000D02*
X192260000Y-69500000D01*
D10*
X174340000Y-64900000D02*
X194660000Y-64900000D01*
X174340000Y-64900000D02*
X174340000Y-113160000D01*
X194660000Y-64900000D02*
X194660000Y-113160000D01*
X175610000Y-115700000D02*
X193390000Y-115700000D01*
X174340000Y-113160000D02*
X175610000Y-115700000D01*
X194660000Y-113160000D02*
X193390000Y-115700000D01*
D15*
X207750000Y-99800000D02*
G75*
G03X207750000Y-99800000I-250000J0D01*
G01*
D13*
X229140000Y-74240000D02*
X229140000Y-71580000D01*
X206140000Y-71580000D02*
X229140000Y-71580000D01*
X206140000Y-74240000D02*
X229140000Y-74240000D01*
X206140000Y-74240000D02*
X206140000Y-71610000D01*
X208760000Y-98640000D02*
X208760000Y-95980000D01*
X208760000Y-98640000D02*
X229140000Y-98640000D01*
X208760000Y-95980000D02*
X229140000Y-95980000D01*
X229140000Y-98640000D02*
X229140000Y-95980000D01*
X206160000Y-98640000D02*
X206160000Y-97310000D01*
X207490000Y-98640000D02*
X206160000Y-98640000D01*
X177500000Y-123300000D02*
G75*
G03X177500000Y-123300000I-1500000J0D01*
G01*
X159500000Y-124700000D02*
G75*
G03X159500000Y-124700000I-1500000J0D01*
G01*
X181100000Y-124700000D02*
G75*
G03X181100000Y-124700000I-1500000J0D01*
G01*
X173900000Y-124700000D02*
G75*
G03X173900000Y-124700000I-1500000J0D01*
G01*
X188300000Y-124700000D02*
G75*
G03X188300000Y-124700000I-1500000J0D01*
G01*
X166700000Y-124700000D02*
G75*
G03X166700000Y-124700000I-1500000J0D01*
G01*
X170300000Y-123300000D02*
G75*
G03X170300000Y-123300000I-1500000J0D01*
G01*
X163100000Y-123300000D02*
G75*
G03X163100000Y-123300000I-1500000J0D01*
G01*
X184700000Y-123300000D02*
G75*
G03X184700000Y-123300000I-1500000J0D01*
G01*
X195600000Y-124700000D02*
G75*
G03X195600000Y-124700000I-1500000J0D01*
G01*
X199200000Y-123300000D02*
G75*
G03X199200000Y-123300000I-1500000J0D01*
G01*
X213600000Y-123300000D02*
G75*
G03X213600000Y-123300000I-1500000J0D01*
G01*
X210000000Y-124700000D02*
G75*
G03X210000000Y-124700000I-1500000J0D01*
G01*
X206400000Y-123300000D02*
G75*
G03X206400000Y-123300000I-1500000J0D01*
G01*
X217200000Y-124700000D02*
G75*
G03X217200000Y-124700000I-1500000J0D01*
G01*
X192000000Y-123300000D02*
G75*
G03X192000000Y-123300000I-1500000J0D01*
G01*
X202800000Y-124700000D02*
G75*
G03X202800000Y-124700000I-1500000J0D01*
G01*
X224400000Y-124700000D02*
G75*
G03X224400000Y-124700000I-1500000J0D01*
G01*
X220800000Y-123200000D02*
G75*
G03X220800000Y-123200000I-1500000J0D01*
G01*
X228000000Y-123220000D02*
G75*
G03X228000000Y-123220000I-1500000J0D01*
G01*
X208900000Y-60600000D02*
G75*
G03X208900000Y-60600000I-1500000J0D01*
G01*
X201700000Y-60600000D02*
G75*
G03X201700000Y-60600000I-1500000J0D01*
G01*
X212500000Y-59200000D02*
G75*
G03X212500000Y-59200000I-1500000J0D01*
G01*
X198100000Y-59200000D02*
G75*
G03X198100000Y-59200000I-1500000J0D01*
G01*
X205300000Y-59200000D02*
G75*
G03X205300000Y-59200000I-1500000J0D01*
G01*
X172800000Y-60600000D02*
G75*
G03X172800000Y-60600000I-1500000J0D01*
G01*
X169200000Y-59100000D02*
G75*
G03X169200000Y-59100000I-1500000J0D01*
G01*
X194500000Y-60600000D02*
G75*
G03X194500000Y-60600000I-1500000J0D01*
G01*
X190900000Y-59200000D02*
G75*
G03X190900000Y-59200000I-1500000J0D01*
G01*
X165600000Y-60600000D02*
G75*
G03X165600000Y-60600000I-1500000J0D01*
G01*
X176400000Y-59100000D02*
G75*
G03X176400000Y-59100000I-1500000J0D01*
G01*
X180000000Y-60600000D02*
G75*
G03X180000000Y-60600000I-1500000J0D01*
G01*
X183600000Y-59200000D02*
G75*
G03X183600000Y-59200000I-1500000J0D01*
G01*
X187300000Y-60600000D02*
G75*
G03X187300000Y-60600000I-1500000J0D01*
G01*
X77954000Y-59064759D02*
X77324000Y-59064759D01*
X77639000Y-58749759D02*
X77639000Y-59379759D01*
X76202000Y-65491000D02*
X75398000Y-65491000D01*
X76433000Y-65451000D02*
X75167000Y-65451000D01*
X76602000Y-65411000D02*
X74998000Y-65411000D01*
X76740000Y-65371000D02*
X74860000Y-65371000D01*
X76859000Y-65331000D02*
X74741000Y-65331000D01*
X76965000Y-65291000D02*
X74635000Y-65291000D01*
X77062000Y-65251000D02*
X74538000Y-65251000D01*
X77150000Y-65211000D02*
X74450000Y-65211000D01*
X77232000Y-65171000D02*
X74368000Y-65171000D01*
X77309000Y-65131000D02*
X74291000Y-65131000D01*
X77381000Y-65091000D02*
X74219000Y-65091000D01*
X77450000Y-65051000D02*
X74150000Y-65051000D01*
X77514000Y-65011000D02*
X74086000Y-65011000D01*
X77576000Y-64971000D02*
X74024000Y-64971000D01*
X77634000Y-64931000D02*
X73966000Y-64931000D01*
X77690000Y-64891000D02*
X73910000Y-64891000D01*
X77744000Y-64851000D02*
X73856000Y-64851000D01*
X77795000Y-64811000D02*
X73805000Y-64811000D01*
X77844000Y-64771000D02*
X73756000Y-64771000D01*
X77892000Y-64731000D02*
X73708000Y-64731000D01*
X77937000Y-64691000D02*
X73663000Y-64691000D01*
X77982000Y-64651000D02*
X73618000Y-64651000D01*
X78024000Y-64611000D02*
X73576000Y-64611000D01*
X78065000Y-64571000D02*
X73535000Y-64571000D01*
X74760000Y-64531000D02*
X73495000Y-64531000D01*
X78105000Y-64531000D02*
X76840000Y-64531000D01*
X74760000Y-64491000D02*
X73457000Y-64491000D01*
X78143000Y-64491000D02*
X76840000Y-64491000D01*
X74760000Y-64451000D02*
X73420000Y-64451000D01*
X78180000Y-64451000D02*
X76840000Y-64451000D01*
X74760000Y-64411000D02*
X73384000Y-64411000D01*
X78216000Y-64411000D02*
X76840000Y-64411000D01*
X74760000Y-64371000D02*
X73350000Y-64371000D01*
X78250000Y-64371000D02*
X76840000Y-64371000D01*
X74760000Y-64331000D02*
X73316000Y-64331000D01*
X78284000Y-64331000D02*
X76840000Y-64331000D01*
X74760000Y-64291000D02*
X73284000Y-64291000D01*
X78316000Y-64291000D02*
X76840000Y-64291000D01*
X74760000Y-64251000D02*
X73252000Y-64251000D01*
X78348000Y-64251000D02*
X76840000Y-64251000D01*
X74760000Y-64211000D02*
X73222000Y-64211000D01*
X78378000Y-64211000D02*
X76840000Y-64211000D01*
X74760000Y-64171000D02*
X73193000Y-64171000D01*
X78407000Y-64171000D02*
X76840000Y-64171000D01*
X74760000Y-64131000D02*
X73164000Y-64131000D01*
X78436000Y-64131000D02*
X76840000Y-64131000D01*
X74760000Y-64091000D02*
X73136000Y-64091000D01*
X78464000Y-64091000D02*
X76840000Y-64091000D01*
X74760000Y-64051000D02*
X73110000Y-64051000D01*
X78490000Y-64051000D02*
X76840000Y-64051000D01*
X74760000Y-64011000D02*
X73084000Y-64011000D01*
X78516000Y-64011000D02*
X76840000Y-64011000D01*
X74760000Y-63971000D02*
X73058000Y-63971000D01*
X78542000Y-63971000D02*
X76840000Y-63971000D01*
X74760000Y-63931000D02*
X73034000Y-63931000D01*
X78566000Y-63931000D02*
X76840000Y-63931000D01*
X74760000Y-63891000D02*
X73010000Y-63891000D01*
X78590000Y-63891000D02*
X76840000Y-63891000D01*
X74760000Y-63851000D02*
X72988000Y-63851000D01*
X78612000Y-63851000D02*
X76840000Y-63851000D01*
X74760000Y-63811000D02*
X72966000Y-63811000D01*
X78634000Y-63811000D02*
X76840000Y-63811000D01*
X74760000Y-63771000D02*
X72944000Y-63771000D01*
X78656000Y-63771000D02*
X76840000Y-63771000D01*
X74760000Y-63731000D02*
X72924000Y-63731000D01*
X78676000Y-63731000D02*
X76840000Y-63731000D01*
X74760000Y-63691000D02*
X72904000Y-63691000D01*
X78696000Y-63691000D02*
X76840000Y-63691000D01*
X74760000Y-63651000D02*
X72884000Y-63651000D01*
X78716000Y-63651000D02*
X76840000Y-63651000D01*
X74760000Y-63611000D02*
X72866000Y-63611000D01*
X78734000Y-63611000D02*
X76840000Y-63611000D01*
X74760000Y-63571000D02*
X72848000Y-63571000D01*
X78752000Y-63571000D02*
X76840000Y-63571000D01*
X74760000Y-63531000D02*
X72830000Y-63531000D01*
X78770000Y-63531000D02*
X76840000Y-63531000D01*
X74760000Y-63491000D02*
X72814000Y-63491000D01*
X78786000Y-63491000D02*
X76840000Y-63491000D01*
X74760000Y-63451000D02*
X72798000Y-63451000D01*
X78802000Y-63451000D02*
X76840000Y-63451000D01*
X74760000Y-63411000D02*
X72782000Y-63411000D01*
X78818000Y-63411000D02*
X76840000Y-63411000D01*
X74760000Y-63371000D02*
X72767000Y-63371000D01*
X78833000Y-63371000D02*
X76840000Y-63371000D01*
X74760000Y-63331000D02*
X72753000Y-63331000D01*
X78847000Y-63331000D02*
X76840000Y-63331000D01*
X74760000Y-63291000D02*
X72739000Y-63291000D01*
X78861000Y-63291000D02*
X76840000Y-63291000D01*
X74760000Y-63251000D02*
X72726000Y-63251000D01*
X78874000Y-63251000D02*
X76840000Y-63251000D01*
X74760000Y-63211000D02*
X72714000Y-63211000D01*
X78886000Y-63211000D02*
X76840000Y-63211000D01*
X74760000Y-63171000D02*
X72702000Y-63171000D01*
X78898000Y-63171000D02*
X76840000Y-63171000D01*
X74760000Y-63131000D02*
X72690000Y-63131000D01*
X78910000Y-63131000D02*
X76840000Y-63131000D01*
X74760000Y-63091000D02*
X72679000Y-63091000D01*
X78921000Y-63091000D02*
X76840000Y-63091000D01*
X74760000Y-63051000D02*
X72669000Y-63051000D01*
X78931000Y-63051000D02*
X76840000Y-63051000D01*
X74760000Y-63011000D02*
X72659000Y-63011000D01*
X78941000Y-63011000D02*
X76840000Y-63011000D01*
X74760000Y-62971000D02*
X72650000Y-62971000D01*
X78950000Y-62971000D02*
X76840000Y-62971000D01*
X74760000Y-62930000D02*
X72641000Y-62930000D01*
X78959000Y-62930000D02*
X76840000Y-62930000D01*
X74760000Y-62890000D02*
X72633000Y-62890000D01*
X78967000Y-62890000D02*
X76840000Y-62890000D01*
X74760000Y-62850000D02*
X72625000Y-62850000D01*
X78975000Y-62850000D02*
X76840000Y-62850000D01*
X74760000Y-62810000D02*
X72618000Y-62810000D01*
X78982000Y-62810000D02*
X76840000Y-62810000D01*
X74760000Y-62770000D02*
X72611000Y-62770000D01*
X78989000Y-62770000D02*
X76840000Y-62770000D01*
X74760000Y-62730000D02*
X72605000Y-62730000D01*
X78995000Y-62730000D02*
X76840000Y-62730000D01*
X74760000Y-62690000D02*
X72599000Y-62690000D01*
X79001000Y-62690000D02*
X76840000Y-62690000D01*
X74760000Y-62650000D02*
X72594000Y-62650000D01*
X79006000Y-62650000D02*
X76840000Y-62650000D01*
X74760000Y-62610000D02*
X72589000Y-62610000D01*
X79011000Y-62610000D02*
X76840000Y-62610000D01*
X74760000Y-62570000D02*
X72585000Y-62570000D01*
X79015000Y-62570000D02*
X76840000Y-62570000D01*
X74760000Y-62530000D02*
X72582000Y-62530000D01*
X79018000Y-62530000D02*
X76840000Y-62530000D01*
X74760000Y-62490000D02*
X72578000Y-62490000D01*
X79022000Y-62490000D02*
X76840000Y-62490000D01*
X79024000Y-62450000D02*
X72576000Y-62450000D01*
X79027000Y-62410000D02*
X72573000Y-62410000D01*
X79028000Y-62370000D02*
X72572000Y-62370000D01*
X79030000Y-62330000D02*
X72570000Y-62330000D01*
X79030000Y-62290000D02*
X72570000Y-62290000D01*
X79030000Y-62250000D02*
X72570000Y-62250000D01*
X79070000Y-62250000D02*
G75*
G03X79070000Y-62250000I-3270000J0D01*
G01*
D10*
X79550000Y-120050000D02*
X79550000Y-112550000D01*
X79550000Y-112550000D02*
X63050000Y-112550000D01*
X79550000Y-120050000D02*
X63050000Y-120050000D01*
X63050000Y-120050000D02*
X63050000Y-112550000D01*
D13*
X143950000Y-117030000D02*
X143950000Y-124050000D01*
X143950000Y-124050000D02*
X142750000Y-124050000D01*
X142750000Y-124050000D02*
X142750000Y-125750000D01*
X142750000Y-125750000D02*
X137070000Y-125750000D01*
X137070000Y-125750000D02*
X137070000Y-124050000D01*
X137070000Y-124050000D02*
X135870000Y-124050000D01*
X135870000Y-124050000D02*
X135870000Y-117030000D01*
X135870000Y-117030000D02*
X143950000Y-117030000D01*
X144150000Y-121940000D02*
X144750000Y-121640000D01*
X144750000Y-121640000D02*
X144750000Y-122240000D01*
X144750000Y-122240000D02*
X144150000Y-121940000D01*
D12*
X81660000Y-75970000D02*
X81660000Y-90570000D01*
X48260000Y-90570000D02*
X48260000Y-75970000D01*
X56760000Y-69067183D02*
G75*
G02X64960000Y-66870000I8200000J-14202817D01*
G01*
X73160000Y-69067183D02*
G75*
G03X64960000Y-66870000I-8200000J-14202817D01*
G01*
X56970000Y-68980000D02*
X52460000Y-70940000D01*
X72960000Y-68970000D02*
X77460000Y-70940000D01*
X73160000Y-97402817D02*
G75*
G02X64960000Y-99600000I-8200000J14202817D01*
G01*
X56960000Y-97500000D02*
X52460000Y-95530000D01*
X72950000Y-97490000D02*
X77460000Y-95530000D01*
X56760000Y-97402817D02*
G75*
G03X64960000Y-99600000I8200000J14202817D01*
G01*
D17*
X50085000Y-69570000D02*
G75*
G03X50085000Y-69570000I-400000J0D01*
G01*
D18*
X128800000Y-62000000D02*
X125800000Y-59000000D01*
X83800000Y-121000000D02*
X83800000Y-59000000D01*
X125800000Y-59000000D02*
X83800000Y-59000000D01*
X128800000Y-121000000D02*
X128800000Y-62000000D01*
X83800000Y-121000000D02*
X128800000Y-121000000D01*
D13*
X80190000Y-61941422D02*
X80190000Y-62458578D01*
X81610000Y-61941422D02*
X81610000Y-62458578D01*
X105091422Y-124300000D02*
X105608578Y-124300000D01*
X105091422Y-122880000D02*
X105608578Y-122880000D01*
X168850000Y-70101422D02*
X168850000Y-70618578D01*
X170270000Y-70101422D02*
X170270000Y-70618578D01*
X171150000Y-70101422D02*
X171150000Y-70618578D01*
X172570000Y-70101422D02*
X172570000Y-70618578D01*
X123128578Y-122880000D02*
X122611422Y-122880000D01*
X123128578Y-124300000D02*
X122611422Y-124300000D01*
X70912064Y-108640000D02*
X69707936Y-108640000D01*
X70912064Y-111360000D02*
X69707936Y-111360000D01*
X50100000Y-125960000D02*
X50400000Y-125360000D01*
X50700000Y-125960000D02*
X50100000Y-125960000D01*
X50400000Y-125360000D02*
X50700000Y-125960000D01*
X55310000Y-113120000D02*
X55310000Y-125160000D01*
X48290000Y-113120000D02*
X55310000Y-113120000D01*
X48290000Y-114320000D02*
X48290000Y-113120000D01*
X46590000Y-114320000D02*
X48290000Y-114320000D01*
X46590000Y-123960000D02*
X46590000Y-114320000D01*
X48290000Y-123960000D02*
X46590000Y-123960000D01*
X48290000Y-125160000D02*
X48290000Y-123960000D01*
X55310000Y-125160000D02*
X48290000Y-125160000D01*
X62350000Y-58150000D02*
X68050000Y-58150000D01*
X62350000Y-62450000D02*
X68050000Y-62450000D01*
X62350000Y-58150000D02*
X62350000Y-62450000D01*
X70050000Y-107270000D02*
X64950000Y-107270000D01*
X70050000Y-102170000D02*
X64950000Y-102170000D01*
X211870000Y-68881422D02*
X211870000Y-69398578D01*
X213290000Y-68881422D02*
X213290000Y-69398578D01*
X209340000Y-68881422D02*
X209340000Y-69398578D01*
X210760000Y-68881422D02*
X210760000Y-69398578D01*
D10*
X233938095Y-118990000D02*
X233842857Y-118942380D01*
X233700000Y-118942380D01*
X233557142Y-118990000D01*
X233461904Y-119085238D01*
X233414285Y-119180476D01*
X233366666Y-119370952D01*
X233366666Y-119513809D01*
X233414285Y-119704285D01*
X233461904Y-119799523D01*
X233557142Y-119894761D01*
X233700000Y-119942380D01*
X233795238Y-119942380D01*
X233938095Y-119894761D01*
X233985714Y-119847142D01*
X233985714Y-119513809D01*
X233795238Y-119513809D01*
X234414285Y-119942380D02*
X234414285Y-118942380D01*
X234985714Y-119942380D01*
X234985714Y-118942380D01*
X235461904Y-119942380D02*
X235461904Y-118942380D01*
X235700000Y-118942380D01*
X235842857Y-118990000D01*
X235938095Y-119085238D01*
X235985714Y-119180476D01*
X236033333Y-119370952D01*
X236033333Y-119513809D01*
X235985714Y-119704285D01*
X235938095Y-119799523D01*
X235842857Y-119894761D01*
X235700000Y-119942380D01*
X235461904Y-119942380D01*
X237956666Y-108952380D02*
X237956666Y-109666666D01*
X237909047Y-109809523D01*
X237813809Y-109904761D01*
X237670952Y-109952380D01*
X237575714Y-109952380D01*
X238909047Y-108952380D02*
X238432857Y-108952380D01*
X238385238Y-109428571D01*
X238432857Y-109380952D01*
X238528095Y-109333333D01*
X238766190Y-109333333D01*
X238861428Y-109380952D01*
X238909047Y-109428571D01*
X238956666Y-109523809D01*
X238956666Y-109761904D01*
X238909047Y-109857142D01*
X238861428Y-109904761D01*
X238766190Y-109952380D01*
X238528095Y-109952380D01*
X238432857Y-109904761D01*
X238385238Y-109857142D01*
X226176666Y-58952380D02*
X226176666Y-59666666D01*
X226129047Y-59809523D01*
X226033809Y-59904761D01*
X225890952Y-59952380D01*
X225795714Y-59952380D01*
X227081428Y-58952380D02*
X226890952Y-58952380D01*
X226795714Y-59000000D01*
X226748095Y-59047619D01*
X226652857Y-59190476D01*
X226605238Y-59380952D01*
X226605238Y-59761904D01*
X226652857Y-59857142D01*
X226700476Y-59904761D01*
X226795714Y-59952380D01*
X226986190Y-59952380D01*
X227081428Y-59904761D01*
X227129047Y-59857142D01*
X227176666Y-59761904D01*
X227176666Y-59523809D01*
X227129047Y-59428571D01*
X227081428Y-59380952D01*
X226986190Y-59333333D01*
X226795714Y-59333333D01*
X226700476Y-59380952D01*
X226652857Y-59428571D01*
X226605238Y-59523809D01*
X228123333Y-113772380D02*
X227790000Y-113296190D01*
X227551904Y-113772380D02*
X227551904Y-112772380D01*
X227932857Y-112772380D01*
X228028095Y-112820000D01*
X228075714Y-112867619D01*
X228123333Y-112962857D01*
X228123333Y-113105714D01*
X228075714Y-113200952D01*
X228028095Y-113248571D01*
X227932857Y-113296190D01*
X227551904Y-113296190D01*
X228456666Y-112772380D02*
X229075714Y-112772380D01*
X228742380Y-113153333D01*
X228885238Y-113153333D01*
X228980476Y-113200952D01*
X229028095Y-113248571D01*
X229075714Y-113343809D01*
X229075714Y-113581904D01*
X229028095Y-113677142D01*
X228980476Y-113724761D01*
X228885238Y-113772380D01*
X228599523Y-113772380D01*
X228504285Y-113724761D01*
X228456666Y-113677142D01*
X214883333Y-70352380D02*
X214550000Y-69876190D01*
X214311904Y-70352380D02*
X214311904Y-69352380D01*
X214692857Y-69352380D01*
X214788095Y-69400000D01*
X214835714Y-69447619D01*
X214883333Y-69542857D01*
X214883333Y-69685714D01*
X214835714Y-69780952D01*
X214788095Y-69828571D01*
X214692857Y-69876190D01*
X214311904Y-69876190D01*
X215740476Y-69685714D02*
X215740476Y-70352380D01*
X215502380Y-69304761D02*
X215264285Y-70019047D01*
X215883333Y-70019047D01*
X71046666Y-124808571D02*
X70713333Y-124808571D01*
X70713333Y-125332380D02*
X70713333Y-124332380D01*
X71189523Y-124332380D01*
X72094285Y-125332380D02*
X71522857Y-125332380D01*
X71808571Y-125332380D02*
X71808571Y-124332380D01*
X71713333Y-124475238D01*
X71618095Y-124570476D01*
X71522857Y-124618095D01*
X165116666Y-78822380D02*
X165116666Y-79536666D01*
X165069047Y-79679523D01*
X164973809Y-79774761D01*
X164830952Y-79822380D01*
X164735714Y-79822380D01*
X166021428Y-79155714D02*
X166021428Y-79822380D01*
X165783333Y-78774761D02*
X165545238Y-79489047D01*
X166164285Y-79489047D01*
X175588095Y-63527380D02*
X175588095Y-64336904D01*
X175635714Y-64432142D01*
X175683333Y-64479761D01*
X175778571Y-64527380D01*
X175969047Y-64527380D01*
X176064285Y-64479761D01*
X176111904Y-64432142D01*
X176159523Y-64336904D01*
X176159523Y-63527380D01*
X177159523Y-64527380D02*
X176588095Y-64527380D01*
X176873809Y-64527380D02*
X176873809Y-63527380D01*
X176778571Y-63670238D01*
X176683333Y-63765476D01*
X176588095Y-63813095D01*
X181091666Y-116653571D02*
X181425000Y-116653571D01*
X181567857Y-117177380D02*
X181091666Y-117177380D01*
X181091666Y-116177380D01*
X181567857Y-116177380D01*
X182139285Y-117177380D02*
X182044047Y-117129761D01*
X181996428Y-117034523D01*
X181996428Y-116177380D01*
X182901190Y-117129761D02*
X182805952Y-117177380D01*
X182615476Y-117177380D01*
X182520238Y-117129761D01*
X182472619Y-117034523D01*
X182472619Y-116653571D01*
X182520238Y-116558333D01*
X182615476Y-116510714D01*
X182805952Y-116510714D01*
X182901190Y-116558333D01*
X182948809Y-116653571D01*
X182948809Y-116748809D01*
X182472619Y-116844047D01*
X183805952Y-117129761D02*
X183710714Y-117177380D01*
X183520238Y-117177380D01*
X183425000Y-117129761D01*
X183377380Y-117082142D01*
X183329761Y-116986904D01*
X183329761Y-116701190D01*
X183377380Y-116605952D01*
X183425000Y-116558333D01*
X183520238Y-116510714D01*
X183710714Y-116510714D01*
X183805952Y-116558333D01*
X184091666Y-116510714D02*
X184472619Y-116510714D01*
X184234523Y-116177380D02*
X184234523Y-117034523D01*
X184282142Y-117129761D01*
X184377380Y-117177380D01*
X184472619Y-117177380D01*
X184805952Y-117177380D02*
X184805952Y-116510714D01*
X184805952Y-116701190D02*
X184853571Y-116605952D01*
X184901190Y-116558333D01*
X184996428Y-116510714D01*
X185091666Y-116510714D01*
X185567857Y-117177380D02*
X185472619Y-117129761D01*
X185425000Y-117082142D01*
X185377380Y-116986904D01*
X185377380Y-116701190D01*
X185425000Y-116605952D01*
X185472619Y-116558333D01*
X185567857Y-116510714D01*
X185710714Y-116510714D01*
X185805952Y-116558333D01*
X185853571Y-116605952D01*
X185901190Y-116701190D01*
X185901190Y-116986904D01*
X185853571Y-117082142D01*
X185805952Y-117129761D01*
X185710714Y-117177380D01*
X185567857Y-117177380D01*
X186329761Y-116510714D02*
X186329761Y-117177380D01*
X186329761Y-116605952D02*
X186377380Y-116558333D01*
X186472619Y-116510714D01*
X186615476Y-116510714D01*
X186710714Y-116558333D01*
X186758333Y-116653571D01*
X186758333Y-117177380D01*
X203986666Y-98032380D02*
X203986666Y-98746666D01*
X203939047Y-98889523D01*
X203843809Y-98984761D01*
X203700952Y-99032380D01*
X203605714Y-99032380D01*
X204415238Y-98127619D02*
X204462857Y-98080000D01*
X204558095Y-98032380D01*
X204796190Y-98032380D01*
X204891428Y-98080000D01*
X204939047Y-98127619D01*
X204986666Y-98222857D01*
X204986666Y-98318095D01*
X204939047Y-98460952D01*
X204367619Y-99032380D01*
X204986666Y-99032380D01*
X174761904Y-126102380D02*
X174761904Y-125102380D01*
X175142857Y-125102380D01*
X175238095Y-125150000D01*
X175285714Y-125197619D01*
X175333333Y-125292857D01*
X175333333Y-125435714D01*
X175285714Y-125530952D01*
X175238095Y-125578571D01*
X175142857Y-125626190D01*
X174761904Y-125626190D01*
X176095238Y-125578571D02*
X176238095Y-125626190D01*
X176285714Y-125673809D01*
X176333333Y-125769047D01*
X176333333Y-125911904D01*
X176285714Y-126007142D01*
X176238095Y-126054761D01*
X176142857Y-126102380D01*
X175761904Y-126102380D01*
X175761904Y-125102380D01*
X176095238Y-125102380D01*
X176190476Y-125150000D01*
X176238095Y-125197619D01*
X176285714Y-125292857D01*
X176285714Y-125388095D01*
X176238095Y-125483333D01*
X176190476Y-125530952D01*
X176095238Y-125578571D01*
X175761904Y-125578571D01*
X177285714Y-126102380D02*
X176714285Y-126102380D01*
X177000000Y-126102380D02*
X177000000Y-125102380D01*
X176904761Y-125245238D01*
X176809523Y-125340476D01*
X176714285Y-125388095D01*
X156761904Y-122802380D02*
X156761904Y-121802380D01*
X157142857Y-121802380D01*
X157238095Y-121850000D01*
X157285714Y-121897619D01*
X157333333Y-121992857D01*
X157333333Y-122135714D01*
X157285714Y-122230952D01*
X157238095Y-122278571D01*
X157142857Y-122326190D01*
X156761904Y-122326190D01*
X158333333Y-122707142D02*
X158285714Y-122754761D01*
X158142857Y-122802380D01*
X158047619Y-122802380D01*
X157904761Y-122754761D01*
X157809523Y-122659523D01*
X157761904Y-122564285D01*
X157714285Y-122373809D01*
X157714285Y-122230952D01*
X157761904Y-122040476D01*
X157809523Y-121945238D01*
X157904761Y-121850000D01*
X158047619Y-121802380D01*
X158142857Y-121802380D01*
X158285714Y-121850000D01*
X158333333Y-121897619D01*
X158666666Y-121802380D02*
X159285714Y-121802380D01*
X158952380Y-122183333D01*
X159095238Y-122183333D01*
X159190476Y-122230952D01*
X159238095Y-122278571D01*
X159285714Y-122373809D01*
X159285714Y-122611904D01*
X159238095Y-122707142D01*
X159190476Y-122754761D01*
X159095238Y-122802380D01*
X158809523Y-122802380D01*
X158714285Y-122754761D01*
X158666666Y-122707142D01*
X178361904Y-122802380D02*
X178361904Y-121802380D01*
X178742857Y-121802380D01*
X178838095Y-121850000D01*
X178885714Y-121897619D01*
X178933333Y-121992857D01*
X178933333Y-122135714D01*
X178885714Y-122230952D01*
X178838095Y-122278571D01*
X178742857Y-122326190D01*
X178361904Y-122326190D01*
X179695238Y-122278571D02*
X179838095Y-122326190D01*
X179885714Y-122373809D01*
X179933333Y-122469047D01*
X179933333Y-122611904D01*
X179885714Y-122707142D01*
X179838095Y-122754761D01*
X179742857Y-122802380D01*
X179361904Y-122802380D01*
X179361904Y-121802380D01*
X179695238Y-121802380D01*
X179790476Y-121850000D01*
X179838095Y-121897619D01*
X179885714Y-121992857D01*
X179885714Y-122088095D01*
X179838095Y-122183333D01*
X179790476Y-122230952D01*
X179695238Y-122278571D01*
X179361904Y-122278571D01*
X180552380Y-121802380D02*
X180647619Y-121802380D01*
X180742857Y-121850000D01*
X180790476Y-121897619D01*
X180838095Y-121992857D01*
X180885714Y-122183333D01*
X180885714Y-122421428D01*
X180838095Y-122611904D01*
X180790476Y-122707142D01*
X180742857Y-122754761D01*
X180647619Y-122802380D01*
X180552380Y-122802380D01*
X180457142Y-122754761D01*
X180409523Y-122707142D01*
X180361904Y-122611904D01*
X180314285Y-122421428D01*
X180314285Y-122183333D01*
X180361904Y-121992857D01*
X180409523Y-121897619D01*
X180457142Y-121850000D01*
X180552380Y-121802380D01*
X171161904Y-122802380D02*
X171161904Y-121802380D01*
X171542857Y-121802380D01*
X171638095Y-121850000D01*
X171685714Y-121897619D01*
X171733333Y-121992857D01*
X171733333Y-122135714D01*
X171685714Y-122230952D01*
X171638095Y-122278571D01*
X171542857Y-122326190D01*
X171161904Y-122326190D01*
X172733333Y-122707142D02*
X172685714Y-122754761D01*
X172542857Y-122802380D01*
X172447619Y-122802380D01*
X172304761Y-122754761D01*
X172209523Y-122659523D01*
X172161904Y-122564285D01*
X172114285Y-122373809D01*
X172114285Y-122230952D01*
X172161904Y-122040476D01*
X172209523Y-121945238D01*
X172304761Y-121850000D01*
X172447619Y-121802380D01*
X172542857Y-121802380D01*
X172685714Y-121850000D01*
X172733333Y-121897619D01*
X173352380Y-121802380D02*
X173447619Y-121802380D01*
X173542857Y-121850000D01*
X173590476Y-121897619D01*
X173638095Y-121992857D01*
X173685714Y-122183333D01*
X173685714Y-122421428D01*
X173638095Y-122611904D01*
X173590476Y-122707142D01*
X173542857Y-122754761D01*
X173447619Y-122802380D01*
X173352380Y-122802380D01*
X173257142Y-122754761D01*
X173209523Y-122707142D01*
X173161904Y-122611904D01*
X173114285Y-122421428D01*
X173114285Y-122183333D01*
X173161904Y-121992857D01*
X173209523Y-121897619D01*
X173257142Y-121850000D01*
X173352380Y-121802380D01*
X185561904Y-122802380D02*
X185561904Y-121802380D01*
X185942857Y-121802380D01*
X186038095Y-121850000D01*
X186085714Y-121897619D01*
X186133333Y-121992857D01*
X186133333Y-122135714D01*
X186085714Y-122230952D01*
X186038095Y-122278571D01*
X185942857Y-122326190D01*
X185561904Y-122326190D01*
X187133333Y-122707142D02*
X187085714Y-122754761D01*
X186942857Y-122802380D01*
X186847619Y-122802380D01*
X186704761Y-122754761D01*
X186609523Y-122659523D01*
X186561904Y-122564285D01*
X186514285Y-122373809D01*
X186514285Y-122230952D01*
X186561904Y-122040476D01*
X186609523Y-121945238D01*
X186704761Y-121850000D01*
X186847619Y-121802380D01*
X186942857Y-121802380D01*
X187085714Y-121850000D01*
X187133333Y-121897619D01*
X187704761Y-122230952D02*
X187609523Y-122183333D01*
X187561904Y-122135714D01*
X187514285Y-122040476D01*
X187514285Y-121992857D01*
X187561904Y-121897619D01*
X187609523Y-121850000D01*
X187704761Y-121802380D01*
X187895238Y-121802380D01*
X187990476Y-121850000D01*
X188038095Y-121897619D01*
X188085714Y-121992857D01*
X188085714Y-122040476D01*
X188038095Y-122135714D01*
X187990476Y-122183333D01*
X187895238Y-122230952D01*
X187704761Y-122230952D01*
X187609523Y-122278571D01*
X187561904Y-122326190D01*
X187514285Y-122421428D01*
X187514285Y-122611904D01*
X187561904Y-122707142D01*
X187609523Y-122754761D01*
X187704761Y-122802380D01*
X187895238Y-122802380D01*
X187990476Y-122754761D01*
X188038095Y-122707142D01*
X188085714Y-122611904D01*
X188085714Y-122421428D01*
X188038095Y-122326190D01*
X187990476Y-122278571D01*
X187895238Y-122230952D01*
X163961904Y-122754761D02*
X164104761Y-122802380D01*
X164342857Y-122802380D01*
X164438095Y-122754761D01*
X164485714Y-122707142D01*
X164533333Y-122611904D01*
X164533333Y-122516666D01*
X164485714Y-122421428D01*
X164438095Y-122373809D01*
X164342857Y-122326190D01*
X164152380Y-122278571D01*
X164057142Y-122230952D01*
X164009523Y-122183333D01*
X163961904Y-122088095D01*
X163961904Y-121992857D01*
X164009523Y-121897619D01*
X164057142Y-121850000D01*
X164152380Y-121802380D01*
X164390476Y-121802380D01*
X164533333Y-121850000D01*
X164914285Y-122754761D02*
X165057142Y-122802380D01*
X165295238Y-122802380D01*
X165390476Y-122754761D01*
X165438095Y-122707142D01*
X165485714Y-122611904D01*
X165485714Y-122516666D01*
X165438095Y-122421428D01*
X165390476Y-122373809D01*
X165295238Y-122326190D01*
X165104761Y-122278571D01*
X165009523Y-122230952D01*
X164961904Y-122183333D01*
X164914285Y-122088095D01*
X164914285Y-121992857D01*
X164961904Y-121897619D01*
X165009523Y-121850000D01*
X165104761Y-121802380D01*
X165342857Y-121802380D01*
X165485714Y-121850000D01*
X166438095Y-122802380D02*
X165866666Y-122802380D01*
X166152380Y-122802380D02*
X166152380Y-121802380D01*
X166057142Y-121945238D01*
X165961904Y-122040476D01*
X165866666Y-122088095D01*
X167561904Y-126102380D02*
X167561904Y-125102380D01*
X167942857Y-125102380D01*
X168038095Y-125150000D01*
X168085714Y-125197619D01*
X168133333Y-125292857D01*
X168133333Y-125435714D01*
X168085714Y-125530952D01*
X168038095Y-125578571D01*
X167942857Y-125626190D01*
X167561904Y-125626190D01*
X169133333Y-126007142D02*
X169085714Y-126054761D01*
X168942857Y-126102380D01*
X168847619Y-126102380D01*
X168704761Y-126054761D01*
X168609523Y-125959523D01*
X168561904Y-125864285D01*
X168514285Y-125673809D01*
X168514285Y-125530952D01*
X168561904Y-125340476D01*
X168609523Y-125245238D01*
X168704761Y-125150000D01*
X168847619Y-125102380D01*
X168942857Y-125102380D01*
X169085714Y-125150000D01*
X169133333Y-125197619D01*
X170085714Y-126102380D02*
X169514285Y-126102380D01*
X169800000Y-126102380D02*
X169800000Y-125102380D01*
X169704761Y-125245238D01*
X169609523Y-125340476D01*
X169514285Y-125388095D01*
X160361904Y-126054761D02*
X160504761Y-126102380D01*
X160742857Y-126102380D01*
X160838095Y-126054761D01*
X160885714Y-126007142D01*
X160933333Y-125911904D01*
X160933333Y-125816666D01*
X160885714Y-125721428D01*
X160838095Y-125673809D01*
X160742857Y-125626190D01*
X160552380Y-125578571D01*
X160457142Y-125530952D01*
X160409523Y-125483333D01*
X160361904Y-125388095D01*
X160361904Y-125292857D01*
X160409523Y-125197619D01*
X160457142Y-125150000D01*
X160552380Y-125102380D01*
X160790476Y-125102380D01*
X160933333Y-125150000D01*
X161314285Y-126054761D02*
X161457142Y-126102380D01*
X161695238Y-126102380D01*
X161790476Y-126054761D01*
X161838095Y-126007142D01*
X161885714Y-125911904D01*
X161885714Y-125816666D01*
X161838095Y-125721428D01*
X161790476Y-125673809D01*
X161695238Y-125626190D01*
X161504761Y-125578571D01*
X161409523Y-125530952D01*
X161361904Y-125483333D01*
X161314285Y-125388095D01*
X161314285Y-125292857D01*
X161361904Y-125197619D01*
X161409523Y-125150000D01*
X161504761Y-125102380D01*
X161742857Y-125102380D01*
X161885714Y-125150000D01*
X162504761Y-125102380D02*
X162600000Y-125102380D01*
X162695238Y-125150000D01*
X162742857Y-125197619D01*
X162790476Y-125292857D01*
X162838095Y-125483333D01*
X162838095Y-125721428D01*
X162790476Y-125911904D01*
X162742857Y-126007142D01*
X162695238Y-126054761D01*
X162600000Y-126102380D01*
X162504761Y-126102380D01*
X162409523Y-126054761D01*
X162361904Y-126007142D01*
X162314285Y-125911904D01*
X162266666Y-125721428D01*
X162266666Y-125483333D01*
X162314285Y-125292857D01*
X162361904Y-125197619D01*
X162409523Y-125150000D01*
X162504761Y-125102380D01*
X181961904Y-126102380D02*
X181961904Y-125102380D01*
X182342857Y-125102380D01*
X182438095Y-125150000D01*
X182485714Y-125197619D01*
X182533333Y-125292857D01*
X182533333Y-125435714D01*
X182485714Y-125530952D01*
X182438095Y-125578571D01*
X182342857Y-125626190D01*
X181961904Y-125626190D01*
X183533333Y-126007142D02*
X183485714Y-126054761D01*
X183342857Y-126102380D01*
X183247619Y-126102380D01*
X183104761Y-126054761D01*
X183009523Y-125959523D01*
X182961904Y-125864285D01*
X182914285Y-125673809D01*
X182914285Y-125530952D01*
X182961904Y-125340476D01*
X183009523Y-125245238D01*
X183104761Y-125150000D01*
X183247619Y-125102380D01*
X183342857Y-125102380D01*
X183485714Y-125150000D01*
X183533333Y-125197619D01*
X184390476Y-125102380D02*
X184200000Y-125102380D01*
X184104761Y-125150000D01*
X184057142Y-125197619D01*
X183961904Y-125340476D01*
X183914285Y-125530952D01*
X183914285Y-125911904D01*
X183961904Y-126007142D01*
X184009523Y-126054761D01*
X184104761Y-126102380D01*
X184295238Y-126102380D01*
X184390476Y-126054761D01*
X184438095Y-126007142D01*
X184485714Y-125911904D01*
X184485714Y-125673809D01*
X184438095Y-125578571D01*
X184390476Y-125530952D01*
X184295238Y-125483333D01*
X184104761Y-125483333D01*
X184009523Y-125530952D01*
X183961904Y-125578571D01*
X183914285Y-125673809D01*
X192385714Y-122802380D02*
X192385714Y-121802380D01*
X192766666Y-121802380D01*
X192861904Y-121850000D01*
X192909523Y-121897619D01*
X192957142Y-121992857D01*
X192957142Y-122135714D01*
X192909523Y-122230952D01*
X192861904Y-122278571D01*
X192766666Y-122326190D01*
X192385714Y-122326190D01*
X193957142Y-122707142D02*
X193909523Y-122754761D01*
X193766666Y-122802380D01*
X193671428Y-122802380D01*
X193528571Y-122754761D01*
X193433333Y-122659523D01*
X193385714Y-122564285D01*
X193338095Y-122373809D01*
X193338095Y-122230952D01*
X193385714Y-122040476D01*
X193433333Y-121945238D01*
X193528571Y-121850000D01*
X193671428Y-121802380D01*
X193766666Y-121802380D01*
X193909523Y-121850000D01*
X193957142Y-121897619D01*
X194909523Y-122802380D02*
X194338095Y-122802380D01*
X194623809Y-122802380D02*
X194623809Y-121802380D01*
X194528571Y-121945238D01*
X194433333Y-122040476D01*
X194338095Y-122088095D01*
X195290476Y-121897619D02*
X195338095Y-121850000D01*
X195433333Y-121802380D01*
X195671428Y-121802380D01*
X195766666Y-121850000D01*
X195814285Y-121897619D01*
X195861904Y-121992857D01*
X195861904Y-122088095D01*
X195814285Y-122230952D01*
X195242857Y-122802380D01*
X195861904Y-122802380D01*
X197057142Y-126102380D02*
X196723809Y-125626190D01*
X196485714Y-126102380D02*
X196485714Y-125102380D01*
X196866666Y-125102380D01*
X196961904Y-125150000D01*
X197009523Y-125197619D01*
X197057142Y-125292857D01*
X197057142Y-125435714D01*
X197009523Y-125530952D01*
X196961904Y-125578571D01*
X196866666Y-125626190D01*
X196485714Y-125626190D01*
X197390476Y-125102380D02*
X198057142Y-126102380D01*
X198057142Y-125102380D02*
X197390476Y-126102380D01*
X198866666Y-125435714D02*
X198866666Y-126102380D01*
X198628571Y-125054761D02*
X198390476Y-125769047D01*
X199009523Y-125769047D01*
X210885714Y-126054761D02*
X211028571Y-126102380D01*
X211266666Y-126102380D01*
X211361904Y-126054761D01*
X211409523Y-126007142D01*
X211457142Y-125911904D01*
X211457142Y-125816666D01*
X211409523Y-125721428D01*
X211361904Y-125673809D01*
X211266666Y-125626190D01*
X211076190Y-125578571D01*
X210980952Y-125530952D01*
X210933333Y-125483333D01*
X210885714Y-125388095D01*
X210885714Y-125292857D01*
X210933333Y-125197619D01*
X210980952Y-125150000D01*
X211076190Y-125102380D01*
X211314285Y-125102380D01*
X211457142Y-125150000D01*
X211885714Y-126102380D02*
X211885714Y-125102380D01*
X212123809Y-125102380D01*
X212266666Y-125150000D01*
X212361904Y-125245238D01*
X212409523Y-125340476D01*
X212457142Y-125530952D01*
X212457142Y-125673809D01*
X212409523Y-125864285D01*
X212361904Y-125959523D01*
X212266666Y-126054761D01*
X212123809Y-126102380D01*
X211885714Y-126102380D01*
X212838095Y-125816666D02*
X213314285Y-125816666D01*
X212742857Y-126102380D02*
X213076190Y-125102380D01*
X213409523Y-126102380D01*
X207309523Y-122707142D02*
X207261904Y-122754761D01*
X207119047Y-122802380D01*
X207023809Y-122802380D01*
X206880952Y-122754761D01*
X206785714Y-122659523D01*
X206738095Y-122564285D01*
X206690476Y-122373809D01*
X206690476Y-122230952D01*
X206738095Y-122040476D01*
X206785714Y-121945238D01*
X206880952Y-121850000D01*
X207023809Y-121802380D01*
X207119047Y-121802380D01*
X207261904Y-121850000D01*
X207309523Y-121897619D01*
X207738095Y-122802380D02*
X207738095Y-121802380D01*
X208309523Y-122802380D01*
X208309523Y-121802380D01*
X209357142Y-122802380D02*
X209023809Y-122326190D01*
X208785714Y-122802380D02*
X208785714Y-121802380D01*
X209166666Y-121802380D01*
X209261904Y-121850000D01*
X209309523Y-121897619D01*
X209357142Y-121992857D01*
X209357142Y-122135714D01*
X209309523Y-122230952D01*
X209261904Y-122278571D01*
X209166666Y-122326190D01*
X208785714Y-122326190D01*
X209690476Y-121802380D02*
X210357142Y-122802380D01*
X210357142Y-121802380D02*
X209690476Y-122802380D01*
X203818571Y-126007142D02*
X203770952Y-126054761D01*
X203628095Y-126102380D01*
X203532857Y-126102380D01*
X203390000Y-126054761D01*
X203294761Y-125959523D01*
X203247142Y-125864285D01*
X203199523Y-125673809D01*
X203199523Y-125530952D01*
X203247142Y-125340476D01*
X203294761Y-125245238D01*
X203390000Y-125150000D01*
X203532857Y-125102380D01*
X203628095Y-125102380D01*
X203770952Y-125150000D01*
X203818571Y-125197619D01*
X204247142Y-126102380D02*
X204247142Y-125102380D01*
X204818571Y-126102380D01*
X204818571Y-125102380D01*
X205151904Y-125102380D02*
X205723333Y-125102380D01*
X205437619Y-126102380D02*
X205437619Y-125102380D01*
X205961428Y-125102380D02*
X206628095Y-126102380D01*
X206628095Y-125102380D02*
X205961428Y-126102380D01*
X214509523Y-122754761D02*
X214652380Y-122802380D01*
X214890476Y-122802380D01*
X214985714Y-122754761D01*
X215033333Y-122707142D01*
X215080952Y-122611904D01*
X215080952Y-122516666D01*
X215033333Y-122421428D01*
X214985714Y-122373809D01*
X214890476Y-122326190D01*
X214700000Y-122278571D01*
X214604761Y-122230952D01*
X214557142Y-122183333D01*
X214509523Y-122088095D01*
X214509523Y-121992857D01*
X214557142Y-121897619D01*
X214604761Y-121850000D01*
X214700000Y-121802380D01*
X214938095Y-121802380D01*
X215080952Y-121850000D01*
X216080952Y-122707142D02*
X216033333Y-122754761D01*
X215890476Y-122802380D01*
X215795238Y-122802380D01*
X215652380Y-122754761D01*
X215557142Y-122659523D01*
X215509523Y-122564285D01*
X215461904Y-122373809D01*
X215461904Y-122230952D01*
X215509523Y-122040476D01*
X215557142Y-121945238D01*
X215652380Y-121850000D01*
X215795238Y-121802380D01*
X215890476Y-121802380D01*
X216033333Y-121850000D01*
X216080952Y-121897619D01*
X216985714Y-122802380D02*
X216509523Y-122802380D01*
X216509523Y-121802380D01*
X189261904Y-126102380D02*
X189261904Y-125102380D01*
X189642857Y-125102380D01*
X189738095Y-125150000D01*
X189785714Y-125197619D01*
X189833333Y-125292857D01*
X189833333Y-125435714D01*
X189785714Y-125530952D01*
X189738095Y-125578571D01*
X189642857Y-125626190D01*
X189261904Y-125626190D01*
X190261904Y-126102380D02*
X190261904Y-125102380D01*
X190500000Y-125102380D01*
X190642857Y-125150000D01*
X190738095Y-125245238D01*
X190785714Y-125340476D01*
X190833333Y-125530952D01*
X190833333Y-125673809D01*
X190785714Y-125864285D01*
X190738095Y-125959523D01*
X190642857Y-126054761D01*
X190500000Y-126102380D01*
X190261904Y-126102380D01*
X191214285Y-125197619D02*
X191261904Y-125150000D01*
X191357142Y-125102380D01*
X191595238Y-125102380D01*
X191690476Y-125150000D01*
X191738095Y-125197619D01*
X191785714Y-125292857D01*
X191785714Y-125388095D01*
X191738095Y-125530952D01*
X191166666Y-126102380D01*
X191785714Y-126102380D01*
X200061904Y-121802380D02*
X200633333Y-121802380D01*
X200347619Y-122802380D02*
X200347619Y-121802380D01*
X200871428Y-121802380D02*
X201538095Y-122802380D01*
X201538095Y-121802380D02*
X200871428Y-122802380D01*
X202347619Y-122135714D02*
X202347619Y-122802380D01*
X202109523Y-121754761D02*
X201871428Y-122469047D01*
X202490476Y-122469047D01*
X221614285Y-122421428D02*
X222376190Y-122421428D01*
X221995238Y-122802380D02*
X221995238Y-122040476D01*
X223328571Y-121802380D02*
X222852380Y-121802380D01*
X222804761Y-122278571D01*
X222852380Y-122230952D01*
X222947619Y-122183333D01*
X223185714Y-122183333D01*
X223280952Y-122230952D01*
X223328571Y-122278571D01*
X223376190Y-122373809D01*
X223376190Y-122611904D01*
X223328571Y-122707142D01*
X223280952Y-122754761D01*
X223185714Y-122802380D01*
X222947619Y-122802380D01*
X222852380Y-122754761D01*
X222804761Y-122707142D01*
X223661904Y-121802380D02*
X223995238Y-122802380D01*
X224328571Y-121802380D01*
X218061904Y-126002380D02*
X218061904Y-125002380D01*
X218442857Y-125002380D01*
X218538095Y-125050000D01*
X218585714Y-125097619D01*
X218633333Y-125192857D01*
X218633333Y-125335714D01*
X218585714Y-125430952D01*
X218538095Y-125478571D01*
X218442857Y-125526190D01*
X218061904Y-125526190D01*
X219395238Y-125478571D02*
X219538095Y-125526190D01*
X219585714Y-125573809D01*
X219633333Y-125669047D01*
X219633333Y-125811904D01*
X219585714Y-125907142D01*
X219538095Y-125954761D01*
X219442857Y-126002380D01*
X219061904Y-126002380D01*
X219061904Y-125002380D01*
X219395238Y-125002380D01*
X219490476Y-125050000D01*
X219538095Y-125097619D01*
X219585714Y-125192857D01*
X219585714Y-125288095D01*
X219538095Y-125383333D01*
X219490476Y-125430952D01*
X219395238Y-125478571D01*
X219061904Y-125478571D01*
X220538095Y-125002380D02*
X220061904Y-125002380D01*
X220014285Y-125478571D01*
X220061904Y-125430952D01*
X220157142Y-125383333D01*
X220395238Y-125383333D01*
X220490476Y-125430952D01*
X220538095Y-125478571D01*
X220585714Y-125573809D01*
X220585714Y-125811904D01*
X220538095Y-125907142D01*
X220490476Y-125954761D01*
X220395238Y-126002380D01*
X220157142Y-126002380D01*
X220061904Y-125954761D01*
X220014285Y-125907142D01*
X224500000Y-125641428D02*
X225261904Y-125641428D01*
X224880952Y-126022380D02*
X224880952Y-125260476D01*
X225642857Y-125022380D02*
X226261904Y-125022380D01*
X225928571Y-125403333D01*
X226071428Y-125403333D01*
X226166666Y-125450952D01*
X226214285Y-125498571D01*
X226261904Y-125593809D01*
X226261904Y-125831904D01*
X226214285Y-125927142D01*
X226166666Y-125974761D01*
X226071428Y-126022380D01*
X225785714Y-126022380D01*
X225690476Y-125974761D01*
X225642857Y-125927142D01*
X226690476Y-125927142D02*
X226738095Y-125974761D01*
X226690476Y-126022380D01*
X226642857Y-125974761D01*
X226690476Y-125927142D01*
X226690476Y-126022380D01*
X227071428Y-125022380D02*
X227690476Y-125022380D01*
X227357142Y-125403333D01*
X227500000Y-125403333D01*
X227595238Y-125450952D01*
X227642857Y-125498571D01*
X227690476Y-125593809D01*
X227690476Y-125831904D01*
X227642857Y-125927142D01*
X227595238Y-125974761D01*
X227500000Y-126022380D01*
X227214285Y-126022380D01*
X227119047Y-125974761D01*
X227071428Y-125927142D01*
X227976190Y-125022380D02*
X228309523Y-126022380D01*
X228642857Y-125022380D01*
X206161904Y-58702380D02*
X206161904Y-57702380D01*
X206542857Y-57702380D01*
X206638095Y-57750000D01*
X206685714Y-57797619D01*
X206733333Y-57892857D01*
X206733333Y-58035714D01*
X206685714Y-58130952D01*
X206638095Y-58178571D01*
X206542857Y-58226190D01*
X206161904Y-58226190D01*
X207495238Y-58178571D02*
X207638095Y-58226190D01*
X207685714Y-58273809D01*
X207733333Y-58369047D01*
X207733333Y-58511904D01*
X207685714Y-58607142D01*
X207638095Y-58654761D01*
X207542857Y-58702380D01*
X207161904Y-58702380D01*
X207161904Y-57702380D01*
X207495238Y-57702380D01*
X207590476Y-57750000D01*
X207638095Y-57797619D01*
X207685714Y-57892857D01*
X207685714Y-57988095D01*
X207638095Y-58083333D01*
X207590476Y-58130952D01*
X207495238Y-58178571D01*
X207161904Y-58178571D01*
X208066666Y-57702380D02*
X208685714Y-57702380D01*
X208352380Y-58083333D01*
X208495238Y-58083333D01*
X208590476Y-58130952D01*
X208638095Y-58178571D01*
X208685714Y-58273809D01*
X208685714Y-58511904D01*
X208638095Y-58607142D01*
X208590476Y-58654761D01*
X208495238Y-58702380D01*
X208209523Y-58702380D01*
X208114285Y-58654761D01*
X208066666Y-58607142D01*
X198557142Y-58702380D02*
X198557142Y-57702380D01*
X198938095Y-57702380D01*
X199033333Y-57750000D01*
X199080952Y-57797619D01*
X199128571Y-57892857D01*
X199128571Y-58035714D01*
X199080952Y-58130952D01*
X199033333Y-58178571D01*
X198938095Y-58226190D01*
X198557142Y-58226190D01*
X199509523Y-58416666D02*
X199985714Y-58416666D01*
X199414285Y-58702380D02*
X199747619Y-57702380D01*
X200080952Y-58702380D01*
X200938095Y-58702380D02*
X200366666Y-58702380D01*
X200652380Y-58702380D02*
X200652380Y-57702380D01*
X200557142Y-57845238D01*
X200461904Y-57940476D01*
X200366666Y-57988095D01*
X201795238Y-58035714D02*
X201795238Y-58702380D01*
X201557142Y-57654761D02*
X201319047Y-58369047D01*
X201938095Y-58369047D01*
X209761904Y-62002380D02*
X209761904Y-61002380D01*
X210142857Y-61002380D01*
X210238095Y-61050000D01*
X210285714Y-61097619D01*
X210333333Y-61192857D01*
X210333333Y-61335714D01*
X210285714Y-61430952D01*
X210238095Y-61478571D01*
X210142857Y-61526190D01*
X209761904Y-61526190D01*
X211095238Y-61478571D02*
X211238095Y-61526190D01*
X211285714Y-61573809D01*
X211333333Y-61669047D01*
X211333333Y-61811904D01*
X211285714Y-61907142D01*
X211238095Y-61954761D01*
X211142857Y-62002380D01*
X210761904Y-62002380D01*
X210761904Y-61002380D01*
X211095238Y-61002380D01*
X211190476Y-61050000D01*
X211238095Y-61097619D01*
X211285714Y-61192857D01*
X211285714Y-61288095D01*
X211238095Y-61383333D01*
X211190476Y-61430952D01*
X211095238Y-61478571D01*
X210761904Y-61478571D01*
X212190476Y-61335714D02*
X212190476Y-62002380D01*
X211952380Y-60954761D02*
X211714285Y-61669047D01*
X212333333Y-61669047D01*
X194957142Y-62002380D02*
X194957142Y-61002380D01*
X195338095Y-61002380D01*
X195433333Y-61050000D01*
X195480952Y-61097619D01*
X195528571Y-61192857D01*
X195528571Y-61335714D01*
X195480952Y-61430952D01*
X195433333Y-61478571D01*
X195338095Y-61526190D01*
X194957142Y-61526190D01*
X195909523Y-61716666D02*
X196385714Y-61716666D01*
X195814285Y-62002380D02*
X196147619Y-61002380D01*
X196480952Y-62002380D01*
X197338095Y-62002380D02*
X196766666Y-62002380D01*
X197052380Y-62002380D02*
X197052380Y-61002380D01*
X196957142Y-61145238D01*
X196861904Y-61240476D01*
X196766666Y-61288095D01*
X197671428Y-61002380D02*
X198290476Y-61002380D01*
X197957142Y-61383333D01*
X198100000Y-61383333D01*
X198195238Y-61430952D01*
X198242857Y-61478571D01*
X198290476Y-61573809D01*
X198290476Y-61811904D01*
X198242857Y-61907142D01*
X198195238Y-61954761D01*
X198100000Y-62002380D01*
X197814285Y-62002380D01*
X197719047Y-61954761D01*
X197671428Y-61907142D01*
X202157142Y-62002380D02*
X202157142Y-61002380D01*
X202538095Y-61002380D01*
X202633333Y-61050000D01*
X202680952Y-61097619D01*
X202728571Y-61192857D01*
X202728571Y-61335714D01*
X202680952Y-61430952D01*
X202633333Y-61478571D01*
X202538095Y-61526190D01*
X202157142Y-61526190D01*
X203109523Y-61716666D02*
X203585714Y-61716666D01*
X203014285Y-62002380D02*
X203347619Y-61002380D01*
X203680952Y-62002380D01*
X204538095Y-62002380D02*
X203966666Y-62002380D01*
X204252380Y-62002380D02*
X204252380Y-61002380D01*
X204157142Y-61145238D01*
X204061904Y-61240476D01*
X203966666Y-61288095D01*
X205442857Y-61002380D02*
X204966666Y-61002380D01*
X204919047Y-61478571D01*
X204966666Y-61430952D01*
X205061904Y-61383333D01*
X205300000Y-61383333D01*
X205395238Y-61430952D01*
X205442857Y-61478571D01*
X205490476Y-61573809D01*
X205490476Y-61811904D01*
X205442857Y-61907142D01*
X205395238Y-61954761D01*
X205300000Y-62002380D01*
X205061904Y-62002380D01*
X204966666Y-61954761D01*
X204919047Y-61907142D01*
X169738571Y-58702380D02*
X169738571Y-57702380D01*
X170071904Y-58416666D01*
X170405238Y-57702380D01*
X170405238Y-58702380D01*
X170881428Y-58702380D02*
X170881428Y-57702380D01*
X171310000Y-58654761D02*
X171452857Y-58702380D01*
X171690952Y-58702380D01*
X171786190Y-58654761D01*
X171833809Y-58607142D01*
X171881428Y-58511904D01*
X171881428Y-58416666D01*
X171833809Y-58321428D01*
X171786190Y-58273809D01*
X171690952Y-58226190D01*
X171500476Y-58178571D01*
X171405238Y-58130952D01*
X171357619Y-58083333D01*
X171310000Y-57988095D01*
X171310000Y-57892857D01*
X171357619Y-57797619D01*
X171405238Y-57750000D01*
X171500476Y-57702380D01*
X171738571Y-57702380D01*
X171881428Y-57750000D01*
X172500476Y-57702380D02*
X172690952Y-57702380D01*
X172786190Y-57750000D01*
X172881428Y-57845238D01*
X172929047Y-58035714D01*
X172929047Y-58369047D01*
X172881428Y-58559523D01*
X172786190Y-58654761D01*
X172690952Y-58702380D01*
X172500476Y-58702380D01*
X172405238Y-58654761D01*
X172310000Y-58559523D01*
X172262380Y-58369047D01*
X172262380Y-58035714D01*
X172310000Y-57845238D01*
X172405238Y-57750000D01*
X172500476Y-57702380D01*
X166128571Y-61902380D02*
X166128571Y-60902380D01*
X166461904Y-61616666D01*
X166795238Y-60902380D01*
X166795238Y-61902380D01*
X167461904Y-60902380D02*
X167652380Y-60902380D01*
X167747619Y-60950000D01*
X167842857Y-61045238D01*
X167890476Y-61235714D01*
X167890476Y-61569047D01*
X167842857Y-61759523D01*
X167747619Y-61854761D01*
X167652380Y-61902380D01*
X167461904Y-61902380D01*
X167366666Y-61854761D01*
X167271428Y-61759523D01*
X167223809Y-61569047D01*
X167223809Y-61235714D01*
X167271428Y-61045238D01*
X167366666Y-60950000D01*
X167461904Y-60902380D01*
X168271428Y-61854761D02*
X168414285Y-61902380D01*
X168652380Y-61902380D01*
X168747619Y-61854761D01*
X168795238Y-61807142D01*
X168842857Y-61711904D01*
X168842857Y-61616666D01*
X168795238Y-61521428D01*
X168747619Y-61473809D01*
X168652380Y-61426190D01*
X168461904Y-61378571D01*
X168366666Y-61330952D01*
X168319047Y-61283333D01*
X168271428Y-61188095D01*
X168271428Y-61092857D01*
X168319047Y-60997619D01*
X168366666Y-60950000D01*
X168461904Y-60902380D01*
X168700000Y-60902380D01*
X168842857Y-60950000D01*
X169271428Y-61902380D02*
X169271428Y-60902380D01*
X191357142Y-57702380D02*
X191690476Y-58702380D01*
X192023809Y-57702380D01*
X192690476Y-58178571D02*
X192833333Y-58226190D01*
X192880952Y-58273809D01*
X192928571Y-58369047D01*
X192928571Y-58511904D01*
X192880952Y-58607142D01*
X192833333Y-58654761D01*
X192738095Y-58702380D01*
X192357142Y-58702380D01*
X192357142Y-57702380D01*
X192690476Y-57702380D01*
X192785714Y-57750000D01*
X192833333Y-57797619D01*
X192880952Y-57892857D01*
X192880952Y-57988095D01*
X192833333Y-58083333D01*
X192785714Y-58130952D01*
X192690476Y-58178571D01*
X192357142Y-58178571D01*
X193309523Y-58416666D02*
X193785714Y-58416666D01*
X193214285Y-58702380D02*
X193547619Y-57702380D01*
X193880952Y-58702380D01*
X194071428Y-57702380D02*
X194642857Y-57702380D01*
X194357142Y-58702380D02*
X194357142Y-57702380D01*
X188852380Y-62002380D02*
X188519047Y-61526190D01*
X188280952Y-62002380D02*
X188280952Y-61002380D01*
X188661904Y-61002380D01*
X188757142Y-61050000D01*
X188804761Y-61097619D01*
X188852380Y-61192857D01*
X188852380Y-61335714D01*
X188804761Y-61430952D01*
X188757142Y-61478571D01*
X188661904Y-61526190D01*
X188280952Y-61526190D01*
X189233333Y-61954761D02*
X189376190Y-62002380D01*
X189614285Y-62002380D01*
X189709523Y-61954761D01*
X189757142Y-61907142D01*
X189804761Y-61811904D01*
X189804761Y-61716666D01*
X189757142Y-61621428D01*
X189709523Y-61573809D01*
X189614285Y-61526190D01*
X189423809Y-61478571D01*
X189328571Y-61430952D01*
X189280952Y-61383333D01*
X189233333Y-61288095D01*
X189233333Y-61192857D01*
X189280952Y-61097619D01*
X189328571Y-61050000D01*
X189423809Y-61002380D01*
X189661904Y-61002380D01*
X189804761Y-61050000D01*
X190090476Y-61002380D02*
X190661904Y-61002380D01*
X190376190Y-62002380D02*
X190376190Y-61002380D01*
X162814285Y-58654761D02*
X162957142Y-58702380D01*
X163195238Y-58702380D01*
X163290476Y-58654761D01*
X163338095Y-58607142D01*
X163385714Y-58511904D01*
X163385714Y-58416666D01*
X163338095Y-58321428D01*
X163290476Y-58273809D01*
X163195238Y-58226190D01*
X163004761Y-58178571D01*
X162909523Y-58130952D01*
X162861904Y-58083333D01*
X162814285Y-57988095D01*
X162814285Y-57892857D01*
X162861904Y-57797619D01*
X162909523Y-57750000D01*
X163004761Y-57702380D01*
X163242857Y-57702380D01*
X163385714Y-57750000D01*
X164385714Y-58607142D02*
X164338095Y-58654761D01*
X164195238Y-58702380D01*
X164100000Y-58702380D01*
X163957142Y-58654761D01*
X163861904Y-58559523D01*
X163814285Y-58464285D01*
X163766666Y-58273809D01*
X163766666Y-58130952D01*
X163814285Y-57940476D01*
X163861904Y-57845238D01*
X163957142Y-57750000D01*
X164100000Y-57702380D01*
X164195238Y-57702380D01*
X164338095Y-57750000D01*
X164385714Y-57797619D01*
X164814285Y-58702380D02*
X164814285Y-57702380D01*
X165385714Y-58702380D02*
X164957142Y-58130952D01*
X165385714Y-57702380D02*
X164814285Y-58273809D01*
X173733333Y-61902380D02*
X173733333Y-60902380D01*
X174114285Y-60902380D01*
X174209523Y-60950000D01*
X174257142Y-60997619D01*
X174304761Y-61092857D01*
X174304761Y-61235714D01*
X174257142Y-61330952D01*
X174209523Y-61378571D01*
X174114285Y-61426190D01*
X173733333Y-61426190D01*
X174685714Y-61616666D02*
X175161904Y-61616666D01*
X174590476Y-61902380D02*
X174923809Y-60902380D01*
X175257142Y-61902380D01*
X176019047Y-61235714D02*
X176019047Y-61902380D01*
X175780952Y-60854761D02*
X175542857Y-61569047D01*
X176161904Y-61569047D01*
X177261904Y-57702380D02*
X177833333Y-57702380D01*
X177547619Y-58702380D02*
X177547619Y-57702380D01*
X178071428Y-57702380D02*
X178738095Y-58702380D01*
X178738095Y-57702380D02*
X178071428Y-58702380D01*
X179642857Y-58702380D02*
X179071428Y-58702380D01*
X179357142Y-58702380D02*
X179357142Y-57702380D01*
X179261904Y-57845238D01*
X179166666Y-57940476D01*
X179071428Y-57988095D01*
X181457142Y-62002380D02*
X181123809Y-61526190D01*
X180885714Y-62002380D02*
X180885714Y-61002380D01*
X181266666Y-61002380D01*
X181361904Y-61050000D01*
X181409523Y-61097619D01*
X181457142Y-61192857D01*
X181457142Y-61335714D01*
X181409523Y-61430952D01*
X181361904Y-61478571D01*
X181266666Y-61526190D01*
X180885714Y-61526190D01*
X181790476Y-61002380D02*
X182457142Y-62002380D01*
X182457142Y-61002380D02*
X181790476Y-62002380D01*
X183361904Y-62002380D02*
X182790476Y-62002380D01*
X183076190Y-62002380D02*
X183076190Y-61002380D01*
X182980952Y-61145238D01*
X182885714Y-61240476D01*
X182790476Y-61288095D01*
X184633333Y-58702380D02*
X184633333Y-57702380D01*
X185014285Y-57702380D01*
X185109523Y-57750000D01*
X185157142Y-57797619D01*
X185204761Y-57892857D01*
X185204761Y-58035714D01*
X185157142Y-58130952D01*
X185109523Y-58178571D01*
X185014285Y-58226190D01*
X184633333Y-58226190D01*
X185585714Y-58416666D02*
X186061904Y-58416666D01*
X185490476Y-58702380D02*
X185823809Y-57702380D01*
X186157142Y-58702380D01*
X186680952Y-57702380D02*
X186776190Y-57702380D01*
X186871428Y-57750000D01*
X186919047Y-57797619D01*
X186966666Y-57892857D01*
X187014285Y-58083333D01*
X187014285Y-58321428D01*
X186966666Y-58511904D01*
X186919047Y-58607142D01*
X186871428Y-58654761D01*
X186776190Y-58702380D01*
X186680952Y-58702380D01*
X186585714Y-58654761D01*
X186538095Y-58607142D01*
X186490476Y-58511904D01*
X186442857Y-58321428D01*
X186442857Y-58083333D01*
X186490476Y-57892857D01*
X186538095Y-57797619D01*
X186585714Y-57750000D01*
X186680952Y-57702380D01*
X75633333Y-58357142D02*
X75585714Y-58404761D01*
X75442857Y-58452380D01*
X75347619Y-58452380D01*
X75204761Y-58404761D01*
X75109523Y-58309523D01*
X75061904Y-58214285D01*
X75014285Y-58023809D01*
X75014285Y-57880952D01*
X75061904Y-57690476D01*
X75109523Y-57595238D01*
X75204761Y-57500000D01*
X75347619Y-57452380D01*
X75442857Y-57452380D01*
X75585714Y-57500000D01*
X75633333Y-57547619D01*
X75966666Y-57452380D02*
X76585714Y-57452380D01*
X76252380Y-57833333D01*
X76395238Y-57833333D01*
X76490476Y-57880952D01*
X76538095Y-57928571D01*
X76585714Y-58023809D01*
X76585714Y-58261904D01*
X76538095Y-58357142D01*
X76490476Y-58404761D01*
X76395238Y-58452380D01*
X76109523Y-58452380D01*
X76014285Y-58404761D01*
X75966666Y-58357142D01*
X77994761Y-122172380D02*
X77661428Y-121696190D01*
X77423333Y-122172380D02*
X77423333Y-121172380D01*
X77804285Y-121172380D01*
X77899523Y-121220000D01*
X77947142Y-121267619D01*
X77994761Y-121362857D01*
X77994761Y-121505714D01*
X77947142Y-121600952D01*
X77899523Y-121648571D01*
X77804285Y-121696190D01*
X77423333Y-121696190D01*
X78280476Y-121172380D02*
X78613809Y-122172380D01*
X78947142Y-121172380D01*
X79804285Y-122172380D02*
X79232857Y-122172380D01*
X79518571Y-122172380D02*
X79518571Y-121172380D01*
X79423333Y-121315238D01*
X79328095Y-121410476D01*
X79232857Y-121458095D01*
X133446666Y-124442380D02*
X133446666Y-125156666D01*
X133399047Y-125299523D01*
X133303809Y-125394761D01*
X133160952Y-125442380D01*
X133065714Y-125442380D01*
X133827619Y-124442380D02*
X134446666Y-124442380D01*
X134113333Y-124823333D01*
X134256190Y-124823333D01*
X134351428Y-124870952D01*
X134399047Y-124918571D01*
X134446666Y-125013809D01*
X134446666Y-125251904D01*
X134399047Y-125347142D01*
X134351428Y-125394761D01*
X134256190Y-125442380D01*
X133970476Y-125442380D01*
X133875238Y-125394761D01*
X133827619Y-125347142D01*
X53153333Y-98802380D02*
X52677142Y-98802380D01*
X52677142Y-97802380D01*
X53439047Y-97897619D02*
X53486666Y-97850000D01*
X53581904Y-97802380D01*
X53820000Y-97802380D01*
X53915238Y-97850000D01*
X53962857Y-97897619D01*
X54010476Y-97992857D01*
X54010476Y-98088095D01*
X53962857Y-98230952D01*
X53391428Y-98802380D01*
X54010476Y-98802380D01*
X88810714Y-122602380D02*
X88810714Y-121602380D01*
X89191666Y-121602380D01*
X89286904Y-121650000D01*
X89334523Y-121697619D01*
X89382142Y-121792857D01*
X89382142Y-121935714D01*
X89334523Y-122030952D01*
X89286904Y-122078571D01*
X89191666Y-122126190D01*
X88810714Y-122126190D01*
X89763095Y-122554761D02*
X89905952Y-122602380D01*
X90144047Y-122602380D01*
X90239285Y-122554761D01*
X90286904Y-122507142D01*
X90334523Y-122411904D01*
X90334523Y-122316666D01*
X90286904Y-122221428D01*
X90239285Y-122173809D01*
X90144047Y-122126190D01*
X89953571Y-122078571D01*
X89858333Y-122030952D01*
X89810714Y-121983333D01*
X89763095Y-121888095D01*
X89763095Y-121792857D01*
X89810714Y-121697619D01*
X89858333Y-121650000D01*
X89953571Y-121602380D01*
X90191666Y-121602380D01*
X90334523Y-121650000D01*
X91286904Y-122602380D02*
X90715476Y-122602380D01*
X91001190Y-122602380D02*
X91001190Y-121602380D01*
X90905952Y-121745238D01*
X90810714Y-121840476D01*
X90715476Y-121888095D01*
X80733333Y-59957142D02*
X80685714Y-60004761D01*
X80542857Y-60052380D01*
X80447619Y-60052380D01*
X80304761Y-60004761D01*
X80209523Y-59909523D01*
X80161904Y-59814285D01*
X80114285Y-59623809D01*
X80114285Y-59480952D01*
X80161904Y-59290476D01*
X80209523Y-59195238D01*
X80304761Y-59100000D01*
X80447619Y-59052380D01*
X80542857Y-59052380D01*
X80685714Y-59100000D01*
X80733333Y-59147619D01*
X81114285Y-59147619D02*
X81161904Y-59100000D01*
X81257142Y-59052380D01*
X81495238Y-59052380D01*
X81590476Y-59100000D01*
X81638095Y-59147619D01*
X81685714Y-59242857D01*
X81685714Y-59338095D01*
X81638095Y-59480952D01*
X81066666Y-60052380D01*
X81685714Y-60052380D01*
X108083333Y-123947142D02*
X108035714Y-123994761D01*
X107892857Y-124042380D01*
X107797619Y-124042380D01*
X107654761Y-123994761D01*
X107559523Y-123899523D01*
X107511904Y-123804285D01*
X107464285Y-123613809D01*
X107464285Y-123470952D01*
X107511904Y-123280476D01*
X107559523Y-123185238D01*
X107654761Y-123090000D01*
X107797619Y-123042380D01*
X107892857Y-123042380D01*
X108035714Y-123090000D01*
X108083333Y-123137619D01*
X108988095Y-123042380D02*
X108511904Y-123042380D01*
X108464285Y-123518571D01*
X108511904Y-123470952D01*
X108607142Y-123423333D01*
X108845238Y-123423333D01*
X108940476Y-123470952D01*
X108988095Y-123518571D01*
X109035714Y-123613809D01*
X109035714Y-123851904D01*
X108988095Y-123947142D01*
X108940476Y-123994761D01*
X108845238Y-124042380D01*
X108607142Y-124042380D01*
X108511904Y-123994761D01*
X108464285Y-123947142D01*
X169313333Y-73267142D02*
X169265714Y-73314761D01*
X169122857Y-73362380D01*
X169027619Y-73362380D01*
X168884761Y-73314761D01*
X168789523Y-73219523D01*
X168741904Y-73124285D01*
X168694285Y-72933809D01*
X168694285Y-72790952D01*
X168741904Y-72600476D01*
X168789523Y-72505238D01*
X168884761Y-72410000D01*
X169027619Y-72362380D01*
X169122857Y-72362380D01*
X169265714Y-72410000D01*
X169313333Y-72457619D01*
X170170476Y-72362380D02*
X169980000Y-72362380D01*
X169884761Y-72410000D01*
X169837142Y-72457619D01*
X169741904Y-72600476D01*
X169694285Y-72790952D01*
X169694285Y-73171904D01*
X169741904Y-73267142D01*
X169789523Y-73314761D01*
X169884761Y-73362380D01*
X170075238Y-73362380D01*
X170170476Y-73314761D01*
X170218095Y-73267142D01*
X170265714Y-73171904D01*
X170265714Y-72933809D01*
X170218095Y-72838571D01*
X170170476Y-72790952D01*
X170075238Y-72743333D01*
X169884761Y-72743333D01*
X169789523Y-72790952D01*
X169741904Y-72838571D01*
X169694285Y-72933809D01*
X171613333Y-73267142D02*
X171565714Y-73314761D01*
X171422857Y-73362380D01*
X171327619Y-73362380D01*
X171184761Y-73314761D01*
X171089523Y-73219523D01*
X171041904Y-73124285D01*
X170994285Y-72933809D01*
X170994285Y-72790952D01*
X171041904Y-72600476D01*
X171089523Y-72505238D01*
X171184761Y-72410000D01*
X171327619Y-72362380D01*
X171422857Y-72362380D01*
X171565714Y-72410000D01*
X171613333Y-72457619D01*
X171946666Y-72362380D02*
X172613333Y-72362380D01*
X172184761Y-73362380D01*
X125603333Y-123947142D02*
X125555714Y-123994761D01*
X125412857Y-124042380D01*
X125317619Y-124042380D01*
X125174761Y-123994761D01*
X125079523Y-123899523D01*
X125031904Y-123804285D01*
X124984285Y-123613809D01*
X124984285Y-123470952D01*
X125031904Y-123280476D01*
X125079523Y-123185238D01*
X125174761Y-123090000D01*
X125317619Y-123042380D01*
X125412857Y-123042380D01*
X125555714Y-123090000D01*
X125603333Y-123137619D01*
X126555714Y-124042380D02*
X125984285Y-124042380D01*
X126270000Y-124042380D02*
X126270000Y-123042380D01*
X126174761Y-123185238D01*
X126079523Y-123280476D01*
X125984285Y-123328095D01*
X66403333Y-110357142D02*
X66355714Y-110404761D01*
X66212857Y-110452380D01*
X66117619Y-110452380D01*
X65974761Y-110404761D01*
X65879523Y-110309523D01*
X65831904Y-110214285D01*
X65784285Y-110023809D01*
X65784285Y-109880952D01*
X65831904Y-109690476D01*
X65879523Y-109595238D01*
X65974761Y-109500000D01*
X66117619Y-109452380D01*
X66212857Y-109452380D01*
X66355714Y-109500000D01*
X66403333Y-109547619D01*
X67260476Y-109785714D02*
X67260476Y-110452380D01*
X67022380Y-109404761D02*
X66784285Y-110119047D01*
X67403333Y-110119047D01*
X50006666Y-111342380D02*
X50006666Y-112056666D01*
X49959047Y-112199523D01*
X49863809Y-112294761D01*
X49720952Y-112342380D01*
X49625714Y-112342380D01*
X51006666Y-112342380D02*
X50435238Y-112342380D01*
X50720952Y-112342380D02*
X50720952Y-111342380D01*
X50625714Y-111485238D01*
X50530476Y-111580476D01*
X50435238Y-111628095D01*
X60261904Y-60652380D02*
X60261904Y-59652380D01*
X60500000Y-59652380D01*
X60642857Y-59700000D01*
X60738095Y-59795238D01*
X60785714Y-59890476D01*
X60833333Y-60080952D01*
X60833333Y-60223809D01*
X60785714Y-60414285D01*
X60738095Y-60509523D01*
X60642857Y-60604761D01*
X60500000Y-60652380D01*
X60261904Y-60652380D01*
X61785714Y-60652380D02*
X61214285Y-60652380D01*
X61500000Y-60652380D02*
X61500000Y-59652380D01*
X61404761Y-59795238D01*
X61309523Y-59890476D01*
X61214285Y-59938095D01*
X71373333Y-103592380D02*
X70897142Y-103592380D01*
X70897142Y-102592380D01*
X72230476Y-103592380D02*
X71659047Y-103592380D01*
X71944761Y-103592380D02*
X71944761Y-102592380D01*
X71849523Y-102735238D01*
X71754285Y-102830476D01*
X71659047Y-102878095D01*
X212413333Y-66792380D02*
X212080000Y-66316190D01*
X211841904Y-66792380D02*
X211841904Y-65792380D01*
X212222857Y-65792380D01*
X212318095Y-65840000D01*
X212365714Y-65887619D01*
X212413333Y-65982857D01*
X212413333Y-66125714D01*
X212365714Y-66220952D01*
X212318095Y-66268571D01*
X212222857Y-66316190D01*
X211841904Y-66316190D01*
X212794285Y-65887619D02*
X212841904Y-65840000D01*
X212937142Y-65792380D01*
X213175238Y-65792380D01*
X213270476Y-65840000D01*
X213318095Y-65887619D01*
X213365714Y-65982857D01*
X213365714Y-66078095D01*
X213318095Y-66220952D01*
X212746666Y-66792380D01*
X213365714Y-66792380D01*
X209883333Y-66792380D02*
X209550000Y-66316190D01*
X209311904Y-66792380D02*
X209311904Y-65792380D01*
X209692857Y-65792380D01*
X209788095Y-65840000D01*
X209835714Y-65887619D01*
X209883333Y-65982857D01*
X209883333Y-66125714D01*
X209835714Y-66220952D01*
X209788095Y-66268571D01*
X209692857Y-66316190D01*
X209311904Y-66316190D01*
X210835714Y-66792380D02*
X210264285Y-66792380D01*
X210550000Y-66792380D02*
X210550000Y-65792380D01*
X210454761Y-65935238D01*
X210359523Y-66030476D01*
X210264285Y-66078095D01*
M02*
