M48
;DRILL file {KiCad 5.0.1} date Tue 23 Oct 2018 04:14:37 PM AEDT
;FORMAT={-:-/ absolute / inch / decimal}
FMAT,2
INCH,TZ
T1C0.0157
T2C0.0315
T3C0.0394
T4C0.0630
T5C0.0669
T6C0.0787
T7C0.0984
T8C0.1969
%
G90
G05
M72
T1
X5.2913Y-2.9094
X5.4425Y-4.1122
X5.5902Y-4.1732
X5.5902Y-4.2598
X5.7535Y-3.8197
X5.9055Y-4.5394
X5.9331Y-3.2929
X5.9409Y-2.9409
X5.9894Y-3.9213
X6.1445Y-3.9209
X6.1587Y-3.7602
X6.185Y-2.8465
X6.1929Y-3.4094
X6.2217Y-3.7603
X6.2402Y-3.2047
X6.2988Y-4.6378
X6.3386Y-3.3051
X6.4311Y-3.6276
X6.437Y-2.8465
X6.4413Y-3.3051
X6.4449Y-4.4016
X6.4488Y-3.8583
X6.4858Y-4.055
X6.5217Y-3.2197
X6.5276Y-3.9055
X6.5634Y-4.0039
X6.5693Y-4.2063
X6.5787Y-3.3504
X6.5866Y-3.9528
X6.5945Y-4.1008
X6.6256Y-4.1543
X6.6256Y-4.2551
X6.6453Y-3.8157
X6.6811Y-2.9728
X6.6969Y-3.6614
X6.6969Y-3.7913
X6.7874Y-3.5591
X6.7874Y-3.8071
X6.8307Y-3.8583
X6.8346Y-4.2551
X6.8386Y-4.0551
X6.8425Y-4.1543
X6.8465Y-3.9528
X7.0787Y-3.4528
X7.0787Y-3.5551
X7.0827Y-3.3543
X7.0827Y-3.685
X7.0866Y-3.8071
X7.0906Y-3.9094
X7.0945Y-4.0079
X7.0984Y-4.626
X7.1126Y-2.9224
X7.128Y-2.9929
X7.2205Y-4.4134
X7.228Y-2.9067
X7.2283Y-2.9709
X7.2992Y-3.1535
X7.4094Y-2.8307
X7.4307Y-4.778
X7.5039Y-4.4724
X7.6102Y-4.6339
X7.6795Y-4.0551
X7.7402Y-4.4567
X7.8031Y-2.9921
X7.8031Y-3.0551
X7.8031Y-4.1551
X7.8358Y-3.937
X7.8583Y-3.7051
X7.8685Y-3.9028
X7.8717Y-4.0063
X7.8819Y-3.3504
X7.8878Y-3.8051
X7.9055Y-3.4567
X7.9173Y-3.6575
X7.9685Y-3.3504
X7.9685Y-3.4567
X7.9843Y-2.9921
X7.9843Y-3.6575
X7.9843Y-4.1551
X7.9866Y-4.0551
X7.987Y-3.9642
X8.Y-3.0591
X8.Y-4.4567
X8.0118Y-3.8051
X8.0492Y-4.0012
X8.0591Y-3.7205
X8.0906Y-4.1969
X8.1106Y-3.1957
X8.1287Y-3.4441
X8.1287Y-3.5988
X8.1567Y-2.5858
X8.1969Y-4.4213
X8.248Y-3.5118
X8.2559Y-3.4055
X8.2638Y-3.2362
X8.2992Y-3.4173
X8.3004Y-3.2204
X8.4004Y-3.5118
X8.4567Y-3.1969
X8.4591Y-4.2701
X8.5378Y-3.6535
X8.6157Y-2.7547
X8.6661Y-4.0496
X8.874Y-3.4252
X8.9961Y-3.7382
X9.0004Y-2.4417
X9.1752Y-3.7382
X9.3764Y-4.1177
X9.3776Y-3.7697
T2
X2.9843Y-2.4016
X2.9843Y-2.5
X2.6594Y-4.5
X2.9547Y-4.6575
T3
X4.0472Y-4.8661
X4.7362Y-4.8661
X5.461Y-3.4252
X5.461Y-3.6496
X6.0335Y-2.7039
X6.1693Y-2.6776
X6.3661Y-2.7553
X6.3689Y-2.9276
X6.3783Y-2.6776
X6.5551Y-4.5315
X6.8976Y-4.5315
X7.0669Y-2.7051
X7.2677Y-2.7051
X7.3031Y-4.5315
X7.4528Y-4.5315
X7.7283Y-4.3947
X8.0081Y-4.3942
X8.0236Y-2.7051
X8.2689Y-4.126
X8.7756Y-4.4213
X8.7756Y-4.6102
X8.9866Y-4.6957
X7.3543Y-4.9094
X7.315Y-2.3858
X5.5902Y-3.0783
X5.5902Y-4.039
X5.6902Y-3.0783
X5.6902Y-4.039
X5.7902Y-3.0783
X5.7902Y-4.039
X5.8902Y-3.0783
X5.8902Y-4.039
X5.9902Y-3.0783
X6.0902Y-3.0783
X6.0902Y-4.039
X6.1902Y-3.0783
X6.1902Y-4.039
X6.2902Y-3.0783
X6.2902Y-4.039
X6.3902Y-3.0783
X6.3902Y-4.039
X6.2205Y-4.9094
X7.6417Y-4.9094
X8.3504Y-4.8543
X8.4921Y-4.9094
X6.7441Y-2.3858
X6.7874Y-4.9094
X6.3622Y-4.8543
X8.7756Y-4.9094
X8.9173Y-4.8512
X7.5Y-4.8543
X7.0709Y-4.9094
X8.1654Y-2.3858
X6.6024Y-2.3268
X8.0669Y-4.8543
X7.4567Y-2.3307
X6.5039Y-4.9094
X6.9138Y-2.7051
X6.9138Y-2.8051
X6.9138Y-2.9051
X6.9138Y-3.0051
X6.9138Y-3.1051
X6.9138Y-3.2051
X6.9138Y-3.3051
X6.9138Y-3.4051
X6.9138Y-3.5051
X6.9138Y-3.6051
X6.9138Y-3.7051
X6.9138Y-3.8051
X6.9138Y-3.9051
X6.9138Y-4.0051
X6.9138Y-4.1051
X6.9138Y-4.2051
X6.9138Y-4.3051
X6.9138Y-4.4051
X7.6138Y-2.7051
X7.6138Y-2.8051
X7.6138Y-2.9051
X7.6138Y-3.0051
X7.6138Y-3.1051
X7.6138Y-3.2051
X7.6138Y-3.3051
X7.6138Y-3.4051
X7.6138Y-3.5051
X7.6138Y-3.6051
X7.6138Y-3.7051
X7.6138Y-3.8051
X7.6138Y-3.9051
X7.6138Y-4.0051
X7.6138Y-4.1051
X7.6138Y-4.2051
X7.6138Y-4.3051
X7.6138Y-4.4051
X7.1693Y-2.3307
X6.8858Y-2.3268
X8.3071Y-2.3307
X6.6457Y-4.8543
X7.7402Y-2.3307
X7.9252Y-4.9094
X6.9291Y-4.8543
X7.0276Y-2.3858
X7.5984Y-2.3858
X6.4606Y-2.3858
X8.6339Y-4.8504
X8.0236Y-2.3307
X7.7835Y-4.8543
X8.1689Y-2.8705
X8.1689Y-3.8311
X8.2689Y-2.8705
X8.2689Y-3.8311
X8.3689Y-2.8705
X8.3689Y-3.8311
X8.4689Y-2.8705
X8.4689Y-3.8311
X8.5689Y-3.8311
X8.6689Y-2.8705
X8.6689Y-3.8311
X8.7689Y-2.8705
X8.7689Y-3.8311
X8.8689Y-2.8705
X8.8689Y-3.8311
X8.9689Y-2.8705
X8.9689Y-3.8311
X7.8819Y-2.3858
X7.2126Y-4.8543
X8.2087Y-4.9094
T4
X3.4961Y-4.6063
X3.7913Y-2.4803
X3.9882Y-2.4803
X4.185Y-2.4803
X4.185Y-4.6063
X4.3819Y-2.4803
X4.5787Y-2.4803
X4.874Y-4.6063
T5
X9.2756Y-4.437
X9.2756Y-4.5929
X8.6236Y-2.422
X8.7795Y-2.422
X1.9843Y-4.5346
X1.9843Y-4.6906
X1.9843Y-4.8465
X5.4303Y-4.8008
X5.5862Y-4.8008
T6
X1.9561Y-2.8738
X1.9561Y-3.6829
X3.1589Y-2.8738
X3.1589Y-3.6829
T7
X9.1307Y-4.8587
T8
X9.3142Y-4.8587
T0
M30
